<svg width="24" height="24" viewBox="0 0 24 24" fill="none" xmlns="http://www.w3.org/2000/svg">
<path d="M14.9299 2.5V8.4C14.9299 8.84 14.4099 9.06 14.0899 8.77L12.3399 7.16C12.1499 6.98 11.8499 6.98 11.6599 7.16L9.90995 8.76C9.58995 9.06 9.06995 8.83 9.06995 8.4V2.5C9.06995 2.22 9.28995 2 9.56995 2H14.4299C14.7099 2 14.9299 2.22 14.9299 2.5Z" fill="#292D32"/>
<path d="M16.98 2.05989C16.69 2.01989 16.43 2.26989 16.43 2.55989V8.57989C16.43 9.33989 15.98 10.0299 15.28 10.3399C14.58 10.6399 13.77 10.5099 13.21 9.98989L12.34 9.18989C12.15 9.00989 11.86 9.00989 11.66 9.18989L10.79 9.98989C10.43 10.3299 9.96 10.4999 9.49 10.4999C9.23 10.4999 8.97 10.4499 8.72 10.3399C8.02 10.0299 7.57 9.33989 7.57 8.57989V2.55989C7.57 2.26989 7.31 2.01989 7.02 2.05989C4.22 2.40989 3 4.29989 3 6.99989V16.9999C3 19.9999 4.5 21.9999 8 21.9999H16C19.5 21.9999 21 19.9999 21 16.9999V6.99989C21 4.29989 19.78 2.40989 16.98 2.05989ZM17.5 18.7499H9C8.59 18.7499 8.25 18.4099 8.25 17.9999C8.25 17.5899 8.59 17.2499 9 17.2499H17.5C17.91 17.2499 18.25 17.5899 18.25 17.9999C18.25 18.4099 17.91 18.7499 17.5 18.7499ZM17.5 14.7499H13.25C12.84 14.7499 12.5 14.4099 12.5 13.9999C12.5 13.5899 12.84 13.2499 13.25 13.2499H17.5C17.91 13.2499 18.25 13.5899 18.25 13.9999C18.25 14.4099 17.91 14.7499 17.5 14.7499Z" fill="#292D32"/>
</svg>
