<svg width="24" height="24" viewBox="0 0 24 24" fill="none" xmlns="http://www.w3.org/2000/svg">
<path d="M12.38 16.9198H10.09C9.68001 16.9198 9.34001 16.5798 9.34001 16.1698C9.34001 15.7598 9.68001 15.4198 10.09 15.4198H12.38C12.81 15.4198 13.16 15.0698 13.16 14.6398C13.16 14.2098 12.81 13.8598 12.38 13.8598H10.09C9.85001 13.8598 9.62001 13.7398 9.48001 13.5498C9.34001 13.3598 9.30001 13.0998 9.38001 12.8698L10.14 10.5798C10.24 10.2698 10.53 10.0698 10.85 10.0698H13.91C14.32 10.0698 14.66 10.4098 14.66 10.8198C14.66 11.2298 14.32 11.5698 13.91 11.5698H11.39L11.13 12.3598H12.38C13.64 12.3598 14.66 13.3798 14.66 14.6398C14.66 15.8998 13.64 16.9198 12.38 16.9198Z" fill="#292D32"/>
<path d="M12 3.47994C11.92 3.47994 11.84 3.48994 11.76 3.48994L12.58 2.46994C12.84 2.14994 12.79 1.66994 12.46 1.41994C12.13 1.16994 11.67 1.20994 11.41 1.53994L9.43998 3.99994C9.42998 4.00994 9.42998 4.01994 9.41998 4.03994C9.38998 4.07994 9.36998 4.12994 9.34998 4.16994C9.32998 4.21994 9.30998 4.25994 9.29998 4.29994C9.28998 4.34994 9.28998 4.38994 9.28998 4.43994C9.28998 4.48994 9.28998 4.53994 9.28998 4.58994C9.28998 4.60994 9.28998 4.61994 9.28998 4.63994C9.29998 4.66994 9.31998 4.68994 9.32998 4.71994C9.34998 4.76994 9.36998 4.80994 9.38998 4.85994C9.41998 4.89994 9.44998 4.93994 9.48998 4.96994C9.50998 4.99994 9.51998 5.02994 9.54998 5.04994C9.56998 5.05994 9.57998 5.06994 9.59998 5.07994C9.62998 5.09994 9.64998 5.10994 9.67998 5.11994C9.72998 5.14994 9.78998 5.16994 9.84998 5.17994C9.87998 5.19994 9.90998 5.19994 9.93998 5.19994C9.96998 5.19994 9.98998 5.20994 10.02 5.20994C10.05 5.20994 10.07 5.19994 10.09 5.18994C10.12 5.18994 10.15 5.19994 10.18 5.18994C10.82 5.03994 11.42 4.96994 11.99 4.96994C16.48 4.96994 20.13 8.61994 20.13 13.1099C20.13 17.5999 16.48 21.2499 11.99 21.2499C7.49998 21.2499 3.84998 17.5999 3.84998 13.1099C3.84998 11.3699 4.41998 9.68994 5.49998 8.24994C5.74998 7.91994 5.67998 7.44994 5.34998 7.19994C5.01998 6.94994 4.54998 7.01994 4.29998 7.34994C3.01998 9.04994 2.34998 11.0399 2.34998 13.1099C2.34998 18.4199 6.66997 22.7499 11.99 22.7499C17.31 22.7499 21.63 18.4299 21.63 13.1099C21.63 7.78994 17.31 3.47994 12 3.47994Z" fill="#292D32"/>
</svg>
