<svg width="24" height="24" viewBox="0 0 24 24" fill="none" xmlns="http://www.w3.org/2000/svg">
<path d="M20.42 8.99998C20.28 8.98998 20.1 8.97998 19.9 8.97998C19.51 8.97998 19.2 9.28998 19.2 9.67998V14.33C19.2 14.72 19.51 15.03 19.9 15.03C20.1 15.03 20.27 15.02 20.44 15.01C22 14.83 22 13.73 22 12.93V11.07C22 10.27 22 9.16998 20.42 8.99998Z" fill="#292D32"/>
<path d="M18.28 10.14V13.86C18.28 16.81 15.88 19.21 12.93 19.21H9.26003C8.47003 19.21 7.99003 18.34 8.41003 17.68L15.67 6.20001C16.03 5.63001 16.84 5.58001 17.29 6.09001C18.01 6.92001 18.28 8.21001 18.28 10.14Z" fill="#292D32"/>
<path d="M16.4 1.86987C16.05 1.64987 15.59 1.74987 15.37 2.09987L13.66 4.80987C13.43 4.79987 13.19 4.78987 12.93 4.78987H7.35C3.25 4.78987 2 6.03987 2 10.1399V13.8599C2 16.9099 2.7 18.3699 4.74 18.9199L3.37 21.0999C3.15 21.4499 3.25 21.9099 3.6 22.1299C3.72 22.2099 3.86 22.2499 4 22.2499C4.25 22.2499 4.49 22.1299 4.63 21.8999L16.63 2.89987C16.86 2.54987 16.75 2.08987 16.4 1.86987Z" fill="#292D32"/>
</svg>
