<svg width="24" height="24" viewBox="0 0 24 24" fill="none" xmlns="http://www.w3.org/2000/svg">
<path d="M15.9 8.07C15.45 4.64 12.52 2 8.97 2C5.1 2 1.97 5.13 1.97 9C1.97 12.55 4.61 15.48 8.04 15.93C8.34 15.98 8.65 16 8.97 16C9.08637 16 9.20124 15.997 9.31519 15.991C9.53556 15.9793 9.62604 15.716 9.47 15.56C9.18 15.26 9.18 14.79 9.47 14.5C9.76 14.2 10.24 14.2 10.53 14.5L11.3095 15.2795C11.4496 15.4196 11.6599 15.4653 11.8409 15.3847C12.2234 15.2145 12.5852 15.0103 12.9264 14.7743C13.1706 14.6053 13.1861 14.2581 12.9749 14.0493L12.47 13.55C12.18 13.26 12.17 12.79 12.47 12.49C12.76 12.2 13.23 12.19 13.53 12.48L14.0386 12.9829C14.2484 13.1904 14.5929 13.1728 14.7609 12.9302C14.9917 12.5969 15.1925 12.2431 15.3575 11.869C15.4369 11.689 15.3906 11.4806 15.2515 11.3415L14.47 10.56C14.18 10.26 14.18 9.79 14.47 9.5C14.76 9.2 15.24 9.2 15.53 9.5C15.686 9.65604 15.9493 9.56556 15.961 9.34519C15.967 9.23124 15.97 9.11637 15.97 9C15.97 8.68 15.95 8.37 15.9 8.07Z" fill="#292D32"/>
<path d="M21.97 15C21.97 18.87 18.84 22 14.97 22C12.0398 22 9.52572 20.2001 8.49159 17.6328C8.36638 17.322 8.63488 17 8.97 17C9.32 17 9.65 16.98 9.99 16.93L10.4951 16.8627C10.6494 16.8421 10.8046 16.8946 10.9147 17.0048L11.44 17.53C11.59 17.68 11.78 17.75 11.97 17.75C12.17 17.75 12.36 17.68 12.5 17.53C12.8 17.24 12.8 16.76 12.5 16.47C12.4037 16.3737 12.4339 16.2103 12.5558 16.1496C12.9548 15.9507 13.3636 15.6973 13.7316 15.4238C13.9394 15.2694 14.2311 15.2794 14.4153 15.4613L14.9 15.94C15.05 16.08 15.24 16.16 15.43 16.16C15.62 16.16 15.82 16.08 15.96 15.93C16.25 15.64 16.25 15.16 15.95 14.87L15.472 14.398C15.2892 14.2175 15.274 13.9286 15.4254 13.7211C15.6888 13.3598 15.9362 12.9667 16.1328 12.5818C16.192 12.4659 16.348 12.438 16.44 12.53C16.59 12.68 16.78 12.75 16.97 12.75C17.17 12.75 17.36 12.68 17.5 12.53C17.8 12.24 17.8 11.76 17.5 11.47L16.9747 10.9448C16.8646 10.8346 16.8121 10.6795 16.8327 10.5251L16.9 10.02C16.95 9.68004 16.97 9.35004 16.97 9.00004C16.97 8.66508 17.292 8.39682 17.6025 8.52233C20.1624 9.55689 21.97 12.0705 21.97 15Z" fill="#292D32"/>
</svg>
