<svg width="24" height="24" viewBox="0 0 24 24" fill="none" xmlns="http://www.w3.org/2000/svg">
<path d="M17 4.96V12.08C17 14.07 15.59 14.84 13.86 13.8L12.54 13C12.24 12.82 11.76 12.82 11.46 13L10.14 13.8C8.41 14.84 7 14.07 7 12.08V4.99C7.01 3 8.01 2 10 2H14C15.98 2 16.98 2.99 17 4.96Z" fill="#292D32"/>
<path d="M22 11.8999V14.9299C22 19.9799 20 21.9999 15 21.9999H9C4 21.9999 2 19.9799 2 14.9299V11.8999C2 9.20986 2.57 7.37986 3.85 6.25986C4.5 5.70986 5.5 6.18986 5.5 7.03986V12.0799C5.5 13.5699 6.11 14.7699 7.17 15.3699C8.24 15.9799 9.6 15.8699 10.92 15.0799L12 14.4299L13.09 15.0799C13.83 15.5299 14.6 15.7599 15.32 15.7599C15.86 15.7599 16.37 15.6299 16.83 15.3699C17.89 14.7699 18.5 13.5699 18.5 12.0799V7.02986C18.5 6.17986 19.51 5.69986 20.15 6.25986C21.43 7.37986 22 9.20986 22 11.8999Z" fill="#292D32"/>
</svg>
