<svg width="24" height="24" viewBox="0 0 24 24" fill="none" xmlns="http://www.w3.org/2000/svg">
<path d="M17.6 5.30979L11.95 2.26979C11.35 1.94979 10.64 1.94979 10.04 2.26979L4.39998 5.30979C3.98998 5.53979 3.72998 5.97978 3.72998 6.45978C3.72998 6.94979 3.97998 7.38979 4.39998 7.60979L10.05 10.6498C10.35 10.8098 10.68 10.8898 11 10.8898C11.32 10.8898 11.66 10.8098 11.95 10.6498L17.6 7.60979C18.01 7.38979 18.27 6.94979 18.27 6.45978C18.27 5.97978 18.01 5.53979 17.6 5.30979Z" fill="#292D32"/>
<path d="M9.12 11.7096L3.87 9.0896C3.46 8.8796 3 8.9096 2.61 9.1396C2.23 9.3796 2 9.7896 2 10.2396V15.1996C2 16.0596 2.48 16.8296 3.25 17.2196L8.5 19.8396C8.68 19.9296 8.88 19.9796 9.08 19.9796C9.31 19.9796 9.55 19.9096 9.76 19.7896C10.14 19.5496 10.37 19.1396 10.37 18.6896V13.7296C10.36 12.8696 9.88 12.0996 9.12 11.7096Z" fill="#292D32"/>
<path d="M20 10.2396V12.6996C19.52 12.5596 19.01 12.4996 18.5 12.4996C17.14 12.4996 15.81 12.9696 14.76 13.8096C13.32 14.9396 12.5 16.6496 12.5 18.4996C12.5 18.9896 12.56 19.4796 12.69 19.9496C12.54 19.9296 12.39 19.8696 12.25 19.7796C11.87 19.5496 11.64 19.1396 11.64 18.6896V13.7296C11.64 12.8696 12.12 12.0996 12.88 11.7096L18.13 9.0896C18.54 8.8796 19 8.9096 19.39 9.1396C19.77 9.3796 20 9.7896 20 10.2396Z" fill="#292D32"/>
<path d="M21.68 15.3202C20.79 14.4302 19.61 13.9802 18.44 14.0002C17.31 14.0102 16.18 14.4602 15.32 15.3202C14.72 15.9102 14.33 16.6502 14.14 17.4202C14.03 17.8402 13.99 18.2702 14.02 18.7002V18.7502C14.02 18.8202 14.03 18.8801 14.04 18.9601C14.04 18.9601 14.04 18.9601 14.05 18.9701V19.0002C14.14 19.9802 14.56 20.9302 15.32 21.6802C16.48 22.8402 18.11 23.2302 19.58 22.8602C20.02 22.7502 20.45 22.5702 20.85 22.3302C21.15 22.1602 21.43 21.9402 21.68 21.6802C22.43 20.9302 22.86 19.9802 22.95 18.9901C22.96 18.9901 22.96 18.9701 22.96 18.9601C22.98 18.8901 22.98 18.8102 22.98 18.7401C22.98 18.7301 22.99 18.7102 22.99 18.6902C23.05 17.4802 22.61 16.2401 21.68 15.3202ZM20.23 20.2101C19.94 20.5001 19.47 20.5001 19.17 20.2101L18.51 19.5501L17.83 20.2301C17.53 20.5301 17.06 20.5301 16.77 20.2301C16.47 19.9401 16.47 19.4702 16.77 19.1702L17.45 18.4901L16.79 17.8302C16.5 17.5302 16.5 17.0602 16.79 16.7702C17.09 16.4702 17.56 16.4702 17.86 16.7702L18.51 17.4302L19.14 16.7902C19.44 16.5002 19.91 16.5002 20.21 16.7902C20.5 17.0902 20.5 17.5602 20.21 17.8602L19.57 18.4901L20.23 19.1401C20.53 19.4401 20.53 19.9101 20.23 20.2101Z" fill="#292D32"/>
</svg>
