<svg width="24" height="24" viewBox="0 0 24 24" fill="none" xmlns="http://www.w3.org/2000/svg">
<path d="M17.6 5.30979L11.95 2.26979C11.35 1.94979 10.64 1.94979 10.04 2.26979L4.39998 5.30979C3.98998 5.53979 3.72998 5.97978 3.72998 6.45978C3.72998 6.94979 3.97998 7.38979 4.39998 7.60979L10.05 10.6498C10.35 10.8098 10.68 10.8898 11 10.8898C11.32 10.8898 11.66 10.8098 11.95 10.6498L17.6 7.60979C18.01 7.38979 18.27 6.94979 18.27 6.45978C18.27 5.97978 18.01 5.53979 17.6 5.30979Z" fill="#292D32"/>
<path d="M9.12 11.7096L3.87 9.0896C3.46 8.8796 3 8.9096 2.61 9.1396C2.23 9.3796 2 9.7896 2 10.2396V15.1996C2 16.0596 2.48 16.8296 3.25 17.2196L8.5 19.8396C8.68 19.9296 8.88 19.9796 9.08 19.9796C9.31 19.9796 9.55 19.9096 9.76 19.7896C10.14 19.5496 10.37 19.1396 10.37 18.6896V13.7296C10.36 12.8696 9.88 12.0996 9.12 11.7096Z" fill="#292D32"/>
<path d="M20 10.2396V12.6996C19.52 12.5596 19.01 12.4996 18.5 12.4996C17.14 12.4996 15.81 12.9696 14.76 13.8096C13.32 14.9396 12.5 16.6496 12.5 18.4996C12.5 18.9896 12.56 19.4796 12.69 19.9496C12.54 19.9296 12.39 19.8696 12.25 19.7796C11.87 19.5496 11.64 19.1396 11.64 18.6896V13.7296C11.64 12.8696 12.12 12.0996 12.88 11.7096L18.13 9.0896C18.54 8.8796 19 8.9096 19.39 9.1396C19.77 9.3796 20 9.7896 20 10.2396Z" fill="#292D32"/>
<path d="M22 15.7C22 15.69 21.99 15.68 21.98 15.67C21.94 15.61 21.89 15.55 21.84 15.5C21.83 15.49 21.82 15.47 21.81 15.46C21 14.56 19.81 14 18.5 14C17.24 14 16.09 14.52 15.27 15.36C14.48 16.17 14 17.28 14 18.5C14 19.34 14.24 20.14 14.65 20.82C14.87 21.19 15.15 21.53 15.47 21.81C15.49 21.82 15.5 21.83 15.51 21.84C15.56 21.89 15.61 21.93 15.67 21.98C15.67 21.98 15.67 21.98 15.68 21.98C15.69 21.99 15.7 22 15.71 22C16.46 22.63 17.43 23 18.5 23C20.14 23 21.57 22.12 22.35 20.82C22.58 20.43 22.76 20 22.87 19.55C22.96 19.21 23 18.86 23 18.5C23 17.44 22.63 16.46 22 15.7ZM20.18 19.23H19.25V20.2C19.25 20.61 18.91 20.95 18.5 20.95C18.09 20.95 17.75 20.61 17.75 20.2V19.23H16.82C16.41 19.23 16.07 18.89 16.07 18.48C16.07 18.07 16.41 17.73 16.82 17.73H17.75V16.84C17.75 16.43 18.09 16.09 18.5 16.09C18.91 16.09 19.25 16.43 19.25 16.84V17.73H20.18C20.59 17.73 20.93 18.07 20.93 18.48C20.93 18.89 20.6 19.23 20.18 19.23Z" fill="#292D32"/>
</svg>
