<svg width="24" height="24" viewBox="0 0 24 24" fill="none" xmlns="http://www.w3.org/2000/svg">
<path d="M13.89 2.88014L9.19999 2.14014C5.28999 1.53014 3.47999 2.85014 2.85999 6.76014L2.11999 11.4501C1.71999 14.0101 2.13999 15.6701 3.58999 16.6801C4.34999 17.2201 5.38999 17.5801 6.73999 17.7901L11.43 18.5301C15.34 19.1401 17.15 17.8201 17.77 13.9101L18.5 9.22014C18.62 8.45014 18.67 7.76014 18.63 7.15014C18.5 4.65014 17.03 3.37014 13.89 2.88014ZM8.23999 9.35014C7.06999 9.35014 6.11999 8.40014 6.11999 7.24014C6.11999 6.07014 7.06999 5.12014 8.23999 5.12014C9.39999 5.12014 10.35 6.07014 10.35 7.24014C10.35 8.40014 9.39999 9.35014 8.23999 9.35014Z" fill="#292D32"/>
<path d="M20.5 13.4701L19 17.9801C17.75 21.7401 15.75 22.7401 11.99 21.4901L7.48001 19.9901C6.07001 19.5201 5.05001 18.9401 4.39001 18.2101C5.02001 18.4601 5.75001 18.6501 6.58001 18.7801L11.28 19.5201C11.92 19.6201 12.52 19.6701 13.08 19.6701C16.38 19.6701 18.15 17.8901 18.76 14.0601L19.49 9.37006C19.59 8.79006 19.63 8.28006 19.63 7.81006C21.15 9.06006 21.37 10.8401 20.5 13.4701Z" fill="#292D32"/>
</svg>
