<svg width="24" height="24" viewBox="0 0 24 24" fill="none" xmlns="http://www.w3.org/2000/svg">
<path d="M6 5.12012C5.59 5.12012 5.25 4.78012 5.25 4.37012V2.62012C5.25 2.21012 5.59 1.87012 6 1.87012C6.41 1.87012 6.75 2.21012 6.75 2.62012V4.37012C6.75 4.79012 6.41 5.12012 6 5.12012Z" fill="#292D32"/>
<path d="M10 5.12012C9.59 5.12012 9.25 4.78012 9.25 4.37012V2.62012C9.25 2.21012 9.59 1.87012 10 1.87012C10.41 1.87012 10.75 2.21012 10.75 2.62012V4.37012C10.75 4.79012 10.41 5.12012 10 5.12012Z" fill="#292D32"/>
<path d="M14 5.12012C13.59 5.12012 13.25 4.78012 13.25 4.37012V2.62012C13.25 2.21012 13.59 1.87012 14 1.87012C14.41 1.87012 14.75 2.21012 14.75 2.62012V4.37012C14.75 4.79012 14.41 5.12012 14 5.12012Z" fill="#292D32"/>
<path d="M22.25 13.2498C22.25 10.6298 20.22 8.50977 17.66 8.28977C16.92 7.07977 15.6 6.25977 14.08 6.25977H6.71C4.39 6.25977 2.5 8.14977 2.5 10.4698V10.9998H18.29V10.4698C18.29 10.2798 18.26 10.0898 18.23 9.90977C19.68 10.3398 20.75 11.6598 20.75 13.2498C20.75 14.8198 19.71 16.1298 18.29 16.5698V11.9998H2.5V17.7898C2.5 20.1098 4.39 21.9998 6.71 21.9998H14.08C16.28 21.9998 18.07 20.2998 18.25 18.1398C20.53 17.6798 22.25 15.6598 22.25 13.2498Z" fill="#292D32"/>
</svg>
