<svg width="24" height="24" viewBox="0 0 24 24" fill="none" xmlns="http://www.w3.org/2000/svg">
<path d="M14.9999 22.75C14.7299 22.75 14.4799 22.6 14.3499 22.37C14.2199 22.14 14.2199 21.85 14.3599 21.62L15.4099 19.87C15.6199 19.51 16.0799 19.4 16.4399 19.61C16.7999 19.82 16.9099 20.28 16.6999 20.64L16.4299 21.09C19.1899 20.44 21.2599 17.96 21.2599 15C21.2599 14.59 21.5999 14.25 22.0099 14.25C22.4199 14.25 22.7599 14.59 22.7599 15C22.7499 19.27 19.2699 22.75 14.9999 22.75Z" fill="#292D32"/>
<path d="M2 9.75C1.59 9.75 1.25 9.41 1.25 9C1.25 4.73 4.73 1.25 9 1.25C9.27 1.25 9.52 1.4 9.65 1.63C9.78 1.86 9.78 2.15 9.64 2.38L8.59 4.14C8.38 4.49 7.92 4.61 7.56 4.39C7.21 4.18 7.09 3.72 7.31 3.36L7.58 2.91C4.81 3.56 2.75 6.04 2.75 9C2.75 9.41 2.41 9.75 2 9.75Z" fill="#292D32"/>
<path d="M10.67 13.8499L7.52996 12.1599C7.19996 11.9799 6.79996 11.9799 6.46996 12.1599L3.32996 13.8499C3.09996 13.9699 2.95996 14.2199 2.95996 14.4899C2.95996 14.7599 3.09996 15.0099 3.32996 15.1299L6.46996 16.8199C6.63996 16.9099 6.81996 16.9499 6.99996 16.9499C7.17996 16.9499 7.35996 16.9099 7.52996 16.8199L10.67 15.1299C10.9 15.0099 11.04 14.7599 11.04 14.4899C11.04 14.2199 10.89 13.9799 10.67 13.8499Z" fill="#292D32"/>
<path d="M5.95 17.4101L3.03 15.9501C2.81 15.8401 2.55 15.8501 2.33 15.9801C2.13 16.1101 2 16.3401 2 16.5901V19.3501C2 19.8301 2.26 20.2601 2.69 20.4701L5.61 21.9301C5.71 21.9701 5.82 22.0001 5.93 22.0001C6.06 22.0001 6.19 21.9601 6.31 21.8901C6.52 21.7601 6.65 21.5301 6.65 21.2801V18.5201C6.65 18.0501 6.38 17.6201 5.95 17.4101Z" fill="#292D32"/>
<path d="M11.66 15.9801C11.45 15.8501 11.19 15.8401 10.96 15.9501L8.03998 17.4101C7.60998 17.6201 7.34998 18.0501 7.34998 18.5301V21.2901C7.34998 21.5401 7.47998 21.7701 7.68998 21.9001C7.80998 21.9601 7.93998 22.0001 8.06998 22.0001C8.17998 22.0001 8.28998 21.9701 8.38998 21.9201L11.31 20.4601C11.74 20.2501 12 19.8201 12 19.3401V16.5801C12 16.3401 11.87 16.1101 11.66 15.9801Z" fill="#292D32"/>
<path d="M20.67 3.82988L17.53 2.13988C17.2 1.95988 16.8 1.95988 16.47 2.13988L13.33 3.82988C13.1 3.94988 12.96 4.19988 12.96 4.46988C12.96 4.73988 13.1 4.98988 13.33 5.10988L16.47 6.79988C16.64 6.88988 16.82 6.92988 17 6.92988C17.18 6.92988 17.36 6.88988 17.53 6.79988L20.67 5.10988C20.9 4.98988 21.04 4.73988 21.04 4.46988C21.04 4.18988 20.89 3.94988 20.67 3.82988Z" fill="#292D32"/>
<path d="M15.95 7.37986L13.03 5.91986C12.81 5.80986 12.55 5.81986 12.33 5.94986C12.13 6.07986 12 6.30986 12 6.55986V9.31986C12 9.79986 12.26 10.2299 12.69 10.4399L15.61 11.8999C15.71 11.9499 15.82 11.9799 15.93 11.9799C16.06 11.9799 16.19 11.9399 16.31 11.8699C16.52 11.7399 16.65 11.5099 16.65 11.2599V8.49986C16.65 8.01986 16.38 7.58986 15.95 7.37986Z" fill="#292D32"/>
<path d="M21.66 5.94986C21.45 5.81986 21.19 5.80986 20.96 5.91986L18.04 7.37986C17.61 7.58986 17.35 8.01986 17.35 8.49986V11.2599C17.35 11.5099 17.48 11.7399 17.69 11.8699C17.81 11.9399 17.94 11.9799 18.07 11.9799C18.18 11.9799 18.29 11.9499 18.39 11.8999L21.31 10.4399C21.74 10.2199 22 9.78986 22 9.31986V6.55986C22 6.30986 21.87 6.07986 21.66 5.94986Z" fill="#292D32"/>
</svg>
