<svg width="24" height="24" viewBox="0 0 24 24" fill="none" xmlns="http://www.w3.org/2000/svg">
<path d="M18.6901 11.5298C18.1201 11.3798 17.4501 11.2998 16.6501 11.2998C15.5401 11.2998 15.1301 11.5698 14.5601 11.9998C14.5301 12.0198 14.5001 12.0498 14.4701 12.0798L13.5201 13.0898C12.7201 13.9298 11.2801 13.9398 10.4801 13.0798L9.53005 12.0798C9.50005 12.0498 9.47005 12.0198 9.44005 11.9998C8.87005 11.5698 8.46005 11.2998 7.35005 11.2998C6.55005 11.2998 5.88005 11.3798 5.31005 11.5298C2.93005 12.1698 2.93005 14.0598 2.93005 15.7198V16.6498C2.93005 19.1598 2.93005 21.9998 8.28005 21.9998H15.7201C19.2701 21.9998 21.0701 20.1998 21.0701 16.6498V15.7198C21.0701 14.0598 21.0701 12.1698 18.6901 11.5298ZM14.3301 18.3998H9.67005C9.29005 18.3998 8.98005 18.0898 8.98005 17.6998C8.98005 17.3098 9.29005 16.9998 9.67005 16.9998H14.3301C14.7101 16.9998 15.0201 17.3098 15.0201 17.6998C15.0201 18.0898 14.7101 18.3998 14.3301 18.3998Z" fill="#292D32"/>
<path d="M12.67 2.67C12.67 2.3 12.37 2 12 2C11.63 2 11.33 2.3 11.33 2.67V4H12.68V2.67H12.67Z" fill="#292D32"/>
<path d="M19.21 8.42V10.12C19.17 10.1 19.12 10.09 19.08 10.08H19.07C18.36 9.89 17.57 9.8 16.65 9.8C15.11 9.8 14.38 10.25 13.72 10.75C13.58 10.85 13.48 10.95 13.38 11.05L12.43 12.06C12.33 12.16 12.17 12.22 12 12.22C11.92 12.22 11.72 12.21 11.57 12.05L10.59 11.02C10.49 10.91 10.37 10.82 10.34 10.8C9.62004 10.25 8.89004 9.8 7.35004 9.8C6.43004 9.8 5.64004 9.89 4.92004 10.08C4.88004 10.09 4.83004 10.1 4.79004 10.12V8.42C4.79004 6.35 4.79004 4 9.21004 4H11.33V7.45L10.68 6.8C10.41 6.53 9.99004 6.53 9.72004 6.8C9.46004 7.06 9.46004 7.49 9.72004 7.75L11.52 9.55C11.53 9.56 11.54 9.56 11.54 9.57C11.6 9.62 11.67 9.67 11.74 9.7C11.83 9.73 11.91 9.75 12 9.75C12.09 9.75 12.17 9.73 12.26 9.7C12.34 9.67 12.41 9.62 12.48 9.55L14.28 7.75C14.54 7.49 14.54 7.06 14.28 6.8C14.01 6.53 13.59 6.53 13.32 6.8L12.67 7.45V4H14.79C19.21 4 19.21 6.35 19.21 8.42Z" fill="#292D32"/>
</svg>
