<svg width="24" height="24" viewBox="0 0 24 24" fill="none" xmlns="http://www.w3.org/2000/svg">
<path d="M21.29 17.0198L19.55 13.5398C19.07 12.5698 19.07 11.4398 19.55 10.4698L21.29 6.98983C22.78 3.99983 19.57 0.859829 16.62 2.41983L15.08 3.23983C14.87 3.34983 14.7 3.52983 14.6 3.74983L8.89999 16.3898C8.66999 16.9098 8.87999 17.5198 9.37999 17.7798L16.62 21.5898C19.57 23.1498 22.78 19.9998 21.29 17.0198Z" fill="#292D32"/>
<path d="M7.69002 15.6L11.42 7.31996C11.84 6.38996 10.84 5.44996 9.94002 5.92996L4.17002 8.95996C1.72002 10.25 1.72002 13.75 4.17002 15.04L6.21002 16.11C6.76002 16.4 7.43002 16.17 7.69002 15.6Z" fill="#292D32"/>
</svg>
