<svg width="24" height="24" viewBox="0 0 24 24" fill="none" xmlns="http://www.w3.org/2000/svg">
<path d="M4.5 10.4901V16.4301C4.5 16.7401 4.64 17.0401 4.87 17.2401L10.23 21.83C10.93 22.43 12 21.9301 12 21.0201V16.9201H16.91C17.86 16.9201 18.34 15.7701 17.67 15.0901L12 9.42008H5.57001C4.98001 9.41008 4.5 9.89005 4.5 10.4901Z" fill="black"/>
<path d="M18.4298 1.91016H7.0898C6.1398 1.91016 5.65979 3.06014 6.32979 3.74014L11.9998 9.41016H18.4298C19.0198 9.41016 19.4998 8.93015 19.4998 8.34015V2.98016C19.4998 2.39016 19.0198 1.91016 18.4298 1.91016Z" fill="black"/>
</svg>
