<svg width="24" height="24" viewBox="0 0 24 24" fill="none" xmlns="http://www.w3.org/2000/svg">
<path d="M21.77 2.22988C21.47 1.92988 20.98 1.92988 20.68 2.22988L2.23 20.6899C1.93 20.9899 1.93 21.4799 2.23 21.7799C2.38 21.9199 2.57 21.9999 2.77 21.9999C2.97 21.9999 3.16 21.9199 3.31 21.7699L21.77 3.30988C22.08 3.00988 22.08 2.52988 21.77 2.22988Z" fill="#292D32"/>
<path d="M9 10.3801C10.3144 10.3801 11.38 9.31456 11.38 8.00012C11.38 6.68568 10.3144 5.62012 9 5.62012C7.68556 5.62012 6.62 6.68568 6.62 8.00012C6.62 9.31456 7.68556 10.3801 9 10.3801Z" fill="#292D32"/>
<path d="M21.61 5.39014L20.39 6.61014C20.47 6.98014 20.5 7.38014 20.5 7.81014V12.6101L20.37 12.5001C19.59 11.8301 18.33 11.8301 17.55 12.5001L13.39 16.0701C12.68 16.6801 11.56 16.7401 10.78 16.2201L5.40002 21.6001C5.44002 21.6201 5.48002 21.6301 5.52002 21.6401C5.79002 21.7301 6.06002 21.8001 6.35002 21.8601C6.45002 21.8801 6.55002 21.9001 6.66002 21.9101C7.03002 21.9601 7.41002 22.0001 7.81002 22.0001H16.19C19.83 22.0001 22 19.8301 22 16.1901V7.81014C22 6.91014 21.87 6.10014 21.61 5.39014Z" fill="#292D32"/>
<path d="M21.61 5.39014L20.39 6.61014C20.47 6.98014 20.5 7.38014 20.5 7.81014V12.6101L20.37 12.5001C19.59 11.8301 18.33 11.8301 17.55 12.5001L13.39 16.0701C12.68 16.6801 11.56 16.7401 10.78 16.2201L5.39001 21.6101C6.10001 21.8701 6.91001 22.0001 7.81001 22.0001H16.19C19.83 22.0001 22 19.8301 22 16.1901V7.81014C22 6.91014 21.87 6.10014 21.61 5.39014Z" fill="#292D32"/>
<path d="M20.46 3.54L19.4 4.6C18.68 3.87 17.6 3.5 16.19 3.5H7.81C4.99 3.5 3.5 4.99 3.5 7.81V16.19C3.5 16.95 3.63 17.6 3.85 18.16L7.59 15.65C7.93 15.42 8.32 15.3 8.71 15.29L3.54 20.46C3.14 20.06 2.81 19.58 2.56 19.03C2.19 18.23 2 17.28 2 16.19V7.81C2 4.17 4.17 2 7.81 2H16.19C18.01 2 19.46 2.54 20.46 3.54Z" fill="#292D32"/>
</svg>
