<svg width="24" height="24" viewBox="0 0 24 24" fill="none" xmlns="http://www.w3.org/2000/svg">
<path d="M5.94013 16.7698L4.28016 19.5898C4.16016 19.7998 3.8501 19.7998 3.7201 19.5898L2.03016 16.7698C1.90016 16.5498 2.06013 16.2798 2.31013 16.2798H5.6601C5.9101 16.2798 6.06013 16.5598 5.94013 16.7698Z" fill="black"/>
<path d="M11.6899 8.40991L7.73991 14.8799C7.64991 15.0299 7.48992 15.1099 7.31992 15.1099H2.24992C1.86992 15.1099 1.62992 14.7099 1.81992 14.3899L8.27995 3.72992C8.46995 3.41992 8.93992 3.40992 9.12992 3.72992L11.6899 7.93991C11.7799 8.07991 11.7799 8.25991 11.6899 8.40991Z" fill="black"/>
<path d="M13.72 14.4902H10.24C10.04 14.4902 9.91006 14.2702 10.0101 14.0902L11.7501 11.1402C11.8501 10.9702 12.1001 10.9702 12.2001 11.1402L13.9401 14.0902C14.0501 14.2702 13.92 14.4902 13.72 14.4902Z" fill="black"/>
<path d="M13.6599 3.39999L12.21 5.87C12.11 6.04 11.85 6.04 11.75 5.87L10.2999 3.39999C10.1999 3.21999 10.32 3 10.53 3H13.43C13.64 3 13.7599 3.21999 13.6599 3.39999Z" fill="black"/>
<path d="M22.17 14.3699C22.37 14.6999 22.12 15.1199 21.74 15.1199H16.87C16.7 15.1199 16.55 15.0299 16.46 14.8899L12.65 8.41992C12.56 8.26992 12.56 8.08991 12.65 7.93991L15.12 3.72992C15.3 3.41992 15.76 3.40992 15.94 3.72992C17.16 5.83992 20.89 12.1799 22.17 14.3699Z" fill="black"/>
<path d="M21.9297 16.77C21.3797 17.7 20.7897 18.7 20.2497 19.61C20.1197 19.83 19.8097 19.82 19.6797 19.6L18.0198 16.77C17.8898 16.55 18.0497 16.27 18.3097 16.27H21.6398C21.8998 16.28 22.0597 16.55 21.9297 16.77Z" fill="black"/>
<path d="M18.0197 20.9999H5.9397C5.5797 20.9999 5.35968 20.6099 5.53968 20.2999L7.86969 16.3399C7.94969 16.1999 8.09972 16.1099 8.26972 16.1099H15.6897C15.8497 16.1099 16.0097 16.1999 16.0897 16.3399L18.4197 20.2999C18.5997 20.6099 18.3797 20.9999 18.0197 20.9999Z" fill="black"/>
</svg>
