<svg width="24" height="24" viewBox="0 0 24 24" fill="none" xmlns="http://www.w3.org/2000/svg">
<path d="M19.11 4.95984C15.2 1.04984 8.84997 1.04984 4.93997 4.95984C0.959966 8.93984 1.02997 15.4298 5.13997 19.3298C8.93997 22.9198 15.1 22.9198 18.9 19.3298C23.02 15.4298 23.09 8.93984 19.11 4.95984ZM16.38 16.6498C15.18 17.7898 13.6 18.3598 12.02 18.3598C10.44 18.3598 8.85997 17.7898 7.65997 16.6498C7.35997 16.3598 7.34997 15.8898 7.62997 15.5898C7.91997 15.2898 8.38997 15.2798 8.68997 15.5598C10.52 17.2898 13.51 17.2998 15.35 15.5598C15.65 15.2798 16.13 15.2898 16.41 15.5898C16.7 15.8898 16.68 16.3598 16.38 16.6498Z" fill="#292D32"/>
</svg>
