<svg width="24" height="24" viewBox="0 0 24 24" fill="none" xmlns="http://www.w3.org/2000/svg">
<path d="M17.2 12.3999C14.55 12.3999 12.4 14.5499 12.4 17.1999C12.4 18.0999 12.65 18.9499 13.1 19.6699C13.93 21.0599 15.45 21.9999 17.2 21.9999C18.95 21.9999 20.48 21.0599 21.3 19.6699C21.74 18.9499 22 18.0999 22 17.1999C22 14.5499 19.85 12.3999 17.2 12.3999ZM19.58 16.5699L17.02 18.9299C16.88 19.0599 16.69 19.1299 16.51 19.1299C16.32 19.1299 16.13 19.0599 15.98 18.9099L14.8 17.7299C14.51 17.4399 14.51 16.9599 14.8 16.6699C15.09 16.3799 15.57 16.3799 15.86 16.6699L16.53 17.3399L18.56 15.4599C18.86 15.1799 19.34 15.1999 19.62 15.4999C19.9 15.8099 19.88 16.2899 19.58 16.5699Z" fill="#292D32"/>
<path d="M22 8.73014C22 9.92014 21.81 11.0201 21.48 12.0401C21.42 12.2501 21.17 12.3101 20.99 12.1801C19.9 11.3701 18.57 10.9401 17.2 10.9401C13.73 10.9401 10.9 13.7701 10.9 17.2401C10.9 18.3201 11.18 19.3801 11.71 20.3201C11.87 20.6001 11.68 20.9601 11.38 20.8501C8.97 20.0301 4.1 17.0401 2.52 12.0401C2.19 11.0201 2 9.92014 2 8.73014C2 5.64014 4.49 3.14014 7.56 3.14014C9.37 3.14014 10.99 4.02014 12 5.37014C13.01 4.02014 14.63 3.14014 16.44 3.14014C19.51 3.14014 22 5.64014 22 8.73014Z" fill="#292D32"/>
</svg>
