<svg width="24" height="24" viewBox="0 0 24 24" fill="none" xmlns="http://www.w3.org/2000/svg">
<path d="M19.5103 6.41976L13.0103 2.59977C12.3803 2.22977 11.6102 2.22977 10.9802 2.59977L4.48022 6.41976C3.87022 6.77976 3.49023 7.43976 3.49023 8.13976V15.8498C3.49023 16.5598 3.87022 17.2098 4.48022 17.5698L10.9802 21.3898C11.6102 21.7598 12.3803 21.7598 13.0103 21.3898L19.5103 17.5698C20.1203 17.2098 20.5002 16.5498 20.5002 15.8498V8.13976C20.5002 7.43976 20.1203 6.77976 19.5103 6.41976ZM17.3903 15.6398L12.3903 18.6398C12.2703 18.7098 12.1402 18.7498 12.0002 18.7498C11.8602 18.7498 11.7302 18.7098 11.6102 18.6398L6.61023 15.6398C6.25023 15.4298 6.14022 14.9698 6.35022 14.6098C6.56022 14.2498 7.02025 14.1398 7.38025 14.3498L11.9902 17.1198L15.5303 14.9898L13.6702 13.8698L13.0203 14.5198C12.8703 14.6698 12.6802 14.7398 12.4902 14.7398C12.3002 14.7398 12.1103 14.6698 11.9603 14.5198C11.6703 14.2298 11.6703 13.7498 11.9603 13.4598L12.3403 13.0798L10.5402 11.9998L10.0203 12.5198C9.87026 12.6698 9.68023 12.7398 9.49023 12.7398C9.30023 12.7398 9.11027 12.6698 8.96027 12.5198C8.67027 12.2298 8.67027 11.7498 8.96027 11.4598L9.22021 11.1998L6.61023 9.62976C6.38023 9.48976 6.25024 9.24977 6.25024 8.98977C6.25024 8.72976 6.39023 8.47977 6.61023 8.34977L11.6102 5.34977C11.8502 5.20977 12.1502 5.20977 12.3802 5.34977L17.3802 8.34977C17.7402 8.55977 17.8503 9.01976 17.6403 9.37976C17.4303 9.72976 16.9702 9.84976 16.6102 9.63976L12.0002 6.86975L8.46027 8.99976L10.3203 10.1198L10.9702 9.46976C11.2602 9.17976 11.7403 9.17976 12.0303 9.46976C12.3203 9.75976 12.3203 10.2398 12.0303 10.5298L11.6503 10.9098L13.4503 11.9898L13.9702 11.4698C14.2602 11.1798 14.7403 11.1798 15.0303 11.4698C15.3203 11.7598 15.3203 12.2398 15.0303 12.5298L14.7703 12.7898L17.3802 14.3598C17.6102 14.4998 17.7402 14.7398 17.7402 14.9998C17.7402 15.2598 17.6103 15.5098 17.3903 15.6398Z" fill="black"/>
</svg>
