<svg width="24" height="24" viewBox="0 0 24 24" fill="none" xmlns="http://www.w3.org/2000/svg">
<path d="M15.7 4.35007L6.39997 13.6501C5.92997 14.1201 5.10997 14.0201 4.80997 13.4201C4.26997 12.3501 3.96997 11.1801 3.96997 10.0501C3.96997 7.60007 5.05997 5.31007 6.96997 3.77007C8.87997 2.23007 11.38 1.66007 13.83 2.20007C14.37 2.32007 14.9 2.49007 15.4 2.72007C16.04 3.01007 16.2 3.85007 15.7 4.35007Z" fill="#292D32"/>
<path d="M15.4499 20.6299C13.1899 19.9899 10.8099 19.9899 8.5499 20.6299C8.1799 20.7399 7.9599 21.1199 8.0699 21.4899C8.1799 21.8599 8.5599 22.0699 8.9299 21.9699C10.9399 21.3999 13.0499 21.3999 15.0599 21.9699C15.1199 21.9899 15.1899 21.9999 15.2499 21.9999C15.5499 21.9999 15.8299 21.7999 15.9199 21.4899C16.0299 21.1199 15.8199 20.7399 15.4499 20.6299Z" fill="#292D32"/>
<path d="M20.5601 1.94992C20.2701 1.65992 19.7901 1.65992 19.5001 1.94992L3.65012 17.7999C3.36012 18.0899 3.36012 18.5699 3.65012 18.8599C3.80012 19.0099 3.99012 19.0799 4.18012 19.0799C4.37012 19.0799 4.56012 19.0099 4.71012 18.8599L7.17012 16.3999C7.39012 16.5799 7.62012 16.7599 7.86012 16.9199V17.7499C7.85012 18.0299 7.84012 18.4599 8.17012 18.8099C8.52012 19.1599 9.04012 19.2099 9.45012 19.2099H14.5801C15.1201 19.2099 15.5301 19.0599 15.8101 18.7799C16.2001 18.3799 16.1801 17.8799 16.1701 17.6199V16.9199C19.2801 14.8299 21.2301 10.4199 19.2101 6.35992C18.9901 5.92992 18.7201 5.51992 18.4201 5.13992L20.5501 3.00992C20.8501 2.71992 20.8501 2.23992 20.5601 1.94992Z" fill="#292D32"/>
</svg>
