<svg width="24" height="24" viewBox="0 0 24 24" fill="none" xmlns="http://www.w3.org/2000/svg">
<path d="M7.87999 12.07C7.87999 11.66 8.21999 11.32 8.62999 11.32H14.11V2.86C14.1 2.38 13.72 2 13.24 2C7.34999 2 3.23999 6.11 3.23999 12C3.23999 17.89 7.34999 22 13.24 22C13.71 22 14.1 21.62 14.1 21.14V12.81H8.62999C8.20999 12.82 7.87999 12.48 7.87999 12.07Z" fill="#292D32"/>
<path d="M20.54 11.5402L17.7 8.69016C17.41 8.40016 16.93 8.40016 16.64 8.69016C16.35 8.98016 16.35 9.46016 16.64 9.75016L18.2 11.3102H14.1V12.8102H18.19L16.63 14.3702C16.34 14.6602 16.34 15.1402 16.63 15.4302C16.78 15.5802 16.97 15.6502 17.16 15.6502C17.35 15.6502 17.54 15.5802 17.69 15.4302L20.53 12.5802C20.83 12.3002 20.83 11.8302 20.54 11.5402Z" fill="#292D32"/>
</svg>
