<svg width="24" height="24" viewBox="0 0 24 24" fill="none" xmlns="http://www.w3.org/2000/svg">
<path d="M16.42 6.42014V7.58014L9.13996 14.8601C8.17996 13.9901 7.57996 12.7101 7.57996 11.3401V6.42014C7.57996 4.36014 8.97996 2.65014 10.88 2.16014C11.07 2.11014 11.25 2.27014 11.25 2.46014V4.00014C11.25 4.41014 11.59 4.75014 12 4.75014C12.41 4.75014 12.75 4.41014 12.75 4.00014V2.46014C12.75 2.27014 12.93 2.11014 13.12 2.16014C15.02 2.65014 16.42 4.36014 16.42 6.42014Z" fill="#292D32"/>
<path d="M19.81 9.81012V11.4001C19.81 15.4701 16.68 18.8201 12.7 19.1701V21.3001C12.7 21.6901 12.39 22.0001 12 22.0001C11.61 22.0001 11.3 21.6901 11.3 21.3001V19.1701C10.21 19.0701 9.18001 18.7501 8.26001 18.2401L9.29001 17.2101C10.11 17.5901 11.03 17.8101 12 17.8101C15.54 17.8101 18.42 14.9301 18.42 11.4001V9.81012C18.42 9.43012 18.73 9.12012 19.12 9.12012C19.5 9.12012 19.81 9.43012 19.81 9.81012Z" fill="#292D32"/>
<path d="M16.42 10.0801V11.5301C16.42 14.1101 14.2 16.1801 11.56 15.9301C11.28 15.9001 11 15.8501 10.74 15.7601L16.42 10.0801Z" fill="#292D32"/>
<path d="M21.77 2.22988C21.47 1.92988 20.98 1.92988 20.68 2.22988L7.23 15.6799C6.2 14.5499 5.57999 13.0499 5.57999 11.3999V9.80988C5.57999 9.42988 5.27 9.11988 4.88 9.11988C4.5 9.11988 4.19 9.42988 4.19 9.80988V11.3999C4.19 13.4299 4.97 15.2799 6.24 16.6699L2.22 20.6899C1.92 20.9899 1.92 21.4799 2.22 21.7799C2.38 21.9199 2.57 21.9999 2.77 21.9999C2.97 21.9999 3.16 21.9199 3.31 21.7699L21.77 3.30988C22.08 3.00988 22.08 2.52988 21.77 2.22988Z" fill="#292D32"/>
</svg>
