<svg width="24" height="24" viewBox="0 0 24 24" fill="none" xmlns="http://www.w3.org/2000/svg">
<path d="M18 16.0002V19.0002C18 20.6502 16.65 22.0002 15 22.0002H9C7.35 22.0002 6 20.6502 6 19.0002V14.9902C6 14.4402 6.45 13.9902 7.01 13.9902L9.89 14.0002C10.58 14.0002 11.26 14.1502 11.89 14.4502C12.58 14.7702 13.31 15.0002 14.08 15.0002H17C17.55 15.0002 18 15.4502 18 16.0002Z" fill="#292D32"/>
<path d="M17.41 9.41L15.29 7.29C15.1 7.1 15 6.85 15 6.59V4.91C15.58 4.71 16 4.15 16 3.5C16 2.67 15.33 2 14.5 2H9.5C8.67 2 8 2.67 8 3.5C8 4.15 8.42 4.71 9 4.91V6.59C9 6.85 8.9 7.1 8.71 7.29L6.59 9.41C6.27 9.73 6 10.38 6 10.83V11.48C6 12.03 6.44 12.48 6.99 12.48L9.9 12.5C10.88 12.5 11.87 12.74 12.75 13.2C13.17 13.42 13.65 13.5 14.12 13.5H17C17.55 13.5 18 13.05 18 12.5V10.83C18 10.38 17.73 9.73 17.41 9.41Z" fill="#292D32"/>
</svg>
