<svg width="24" height="24" viewBox="0 0 24 24" fill="none" xmlns="http://www.w3.org/2000/svg">
<path d="M21.53 15.9299C21.37 15.6599 20.92 15.2399 19.8 15.4399C19.18 15.5499 18.55 15.5999 17.92 15.5699C15.59 15.4699 13.48 14.3999 12.01 12.7499C10.71 11.2999 9.90995 9.40987 9.89995 7.36987C9.89995 6.22987 10.12 5.12987 10.57 4.08987C11.01 3.07987 10.7 2.54987 10.48 2.32987C10.25 2.09987 9.70995 1.77987 8.64995 2.21987C4.55995 3.93987 2.02995 8.03987 2.32995 12.4299C2.62995 16.5599 5.52995 20.0899 9.36995 21.4199C10.29 21.7399 11.26 21.9299 12.26 21.9699C12.42 21.9799 12.58 21.9899 12.74 21.9899C16.09 21.9899 19.23 20.4099 21.21 17.7199C21.88 16.7899 21.7 16.1999 21.53 15.9299Z" fill="#292D32"/>
</svg>
