<svg width="24" height="24" viewBox="0 0 24 24" fill="none" xmlns="http://www.w3.org/2000/svg">
<path d="M20.89 5.18007V16.4801C20.89 18.4601 19.28 20.0701 17.3 20.0701C15.33 20.0701 13.71 18.4601 13.71 16.4801C13.71 14.5101 15.33 12.9001 17.3 12.9001C18.14 12.9001 18.89 13.1901 19.5 13.6701V7.72007L10.29 10.3401V18.4101C10.29 20.3901 8.66999 22.0001 6.69999 22.0001C4.71999 22.0001 3.10999 20.3901 3.10999 18.4101C3.10999 16.4401 4.71999 14.8301 6.69999 14.8301C7.52999 14.8301 8.27999 15.1201 8.88999 15.5901V6.75007C8.88999 5.28007 9.77999 4.14007 11.19 3.76007L16.97 2.18007C18.14 1.86007 19.13 1.97007 19.83 2.51007C20.54 3.04007 20.89 3.94007 20.89 5.18007Z" fill="#292D32"/>
</svg>
