<svg width="24" height="24" viewBox="0 0 24 24" fill="none" xmlns="http://www.w3.org/2000/svg">
<path d="M2.58 9.41977C2.5 9.41977 2.41 9.40977 2.33 9.37977C1.94 9.23977 1.74 8.80977 1.87 8.41977C2.54 6.53977 3.7 4.88977 5.25 3.63977C5.57 3.37977 6.04 3.42977 6.3 3.74977C6.56 4.06977 6.51 4.53977 6.19 4.80977C4.87 5.87977 3.86 7.29977 3.29 8.91977C3.18 9.22977 2.89 9.41977 2.58 9.41977Z" fill="#292D32"/>
<path d="M2.58 16.08C2.27 16.08 1.98 15.89 1.87 15.58C1.46 14.42 1.25 13.21 1.25 12C1.25 11.59 1.59 11.25 2 11.25C2.41 11.25 2.75 11.59 2.75 12C2.75 13.04 2.93 14.08 3.29 15.08C3.43 15.47 3.22 15.9 2.83 16.04C2.75 16.07 2.66 16.08 2.58 16.08Z" fill="#292D32"/>
<path d="M12 22.75C10.94 22.75 9.88998 22.59 8.86998 22.28C8.46998 22.16 8.24998 21.74 8.36998 21.34C8.48998 20.94 8.90998 20.72 9.30998 20.84C10.18 21.11 11.09 21.24 12 21.24C17.1 21.24 21.25 17.09 21.25 11.99C21.25 11.47 21.2 10.93 21.1 10.36C21.03 9.95004 21.3 9.56004 21.71 9.49004C22.11 9.42004 22.51 9.69004 22.58 10.1C22.7 10.76 22.76 11.38 22.76 12C22.75 17.93 17.93 22.75 12 22.75Z" fill="#292D32"/>
<path d="M5.71997 20.5001C5.54997 20.5001 5.38997 20.4501 5.24997 20.3301C4.67997 19.8701 4.21997 19.4301 3.82997 18.9801C3.55997 18.6701 3.59997 18.1901 3.90997 17.9201C4.22997 17.6501 4.69997 17.6901 4.96997 18.0001C5.29997 18.3801 5.69997 18.7601 6.18997 19.1601C6.50997 19.4201 6.55997 19.8901 6.29997 20.2101C6.15997 20.4001 5.93997 20.5001 5.71997 20.5001Z" fill="#292D32"/>
<path d="M20.24 7.09C20 7.09 19.77 6.98 19.62 6.76C17.9 4.25 15.04 2.75 12 2.75C11.09 2.75 10.18 2.88 9.31003 3.15C8.92003 3.27 8.50003 3.05 8.37003 2.65C8.24003 2.25 8.47003 1.83 8.87003 1.71C9.89003 1.41 10.94 1.25 12 1.25C15.54 1.25 18.85 3 20.86 5.92C21.09 6.26 21.01 6.73 20.67 6.96C20.54 7.05 20.39 7.09 20.24 7.09Z" fill="#292D32"/>
<path d="M16.03 6.49997C15.7 6.24997 15.1 5.99997 14.14 6.25997L10.95 7.11997C10.03 7.37997 9.43 8.15997 9.43 9.11997V10.76V13.34C9.17 13.24 8.89 13.18 8.59 13.18C7.3 13.18 6.25 14.23 6.25 15.52C6.25 16.81 7.3 17.86 8.59 17.86C9.87 17.86 10.9 16.83 10.92 15.56C10.92 15.55 10.93 15.54 10.93 15.52V11.33L15.25 10.15V12.28C14.99 12.18 14.71 12.12 14.41 12.12C13.12 12.12 12.07 13.17 12.07 14.46C12.07 15.75 13.12 16.8 14.41 16.8C15.7 16.8 16.75 15.75 16.75 14.46V9.16997V8.24997C16.75 7.44997 16.51 6.85997 16.03 6.49997ZM8.59 16.36C8.13 16.36 7.75 15.98 7.75 15.52C7.75 15.06 8.13 14.68 8.59 14.68C9.05 14.68 9.43 15.06 9.43 15.52C9.43 15.98 9.05 16.36 8.59 16.36ZM14.41 15.3C13.95 15.3 13.57 14.92 13.57 14.46C13.57 14 13.95 13.62 14.41 13.62C14.87 13.62 15.25 14 15.25 14.46C15.25 14.92 14.87 15.3 14.41 15.3Z" fill="#292D32"/>
</svg>
