<svg width="24" height="24" viewBox="0 0 24 24" fill="none" xmlns="http://www.w3.org/2000/svg">
<path d="M22 3.75H2C1.59 3.75 1.25 3.41 1.25 3C1.25 2.59 1.59 2.25 2 2.25H22C22.41 2.25 22.75 2.59 22.75 3C22.75 3.41 22.41 3.75 22 3.75Z" fill="#292D32"/>
<path d="M11 9.75H2C1.59 9.75 1.25 9.41 1.25 9C1.25 8.59 1.59 8.25 2 8.25H11C11.41 8.25 11.75 8.59 11.75 9C11.75 9.41 11.41 9.75 11 9.75Z" fill="#292D32"/>
<path d="M8 15.75H2C1.59 15.75 1.25 15.41 1.25 15C1.25 14.59 1.59 14.25 2 14.25H8C8.41 14.25 8.75 14.59 8.75 15C8.75 15.41 8.41 15.75 8 15.75Z" fill="#292D32"/>
<path d="M6 21.75H2C1.59 21.75 1.25 21.41 1.25 21C1.25 20.59 1.59 20.25 2 20.25H6C6.41 20.25 6.75 20.59 6.75 21C6.75 21.41 6.41 21.75 6 21.75Z" fill="#292D32"/>
<path d="M21.86 7.68021C21.27 7.23021 20.46 7.14021 19.51 7.40021L15.16 8.58021C13.99 8.90021 13.27 9.85021 13.27 11.0502V13.6002V17.2802C12.85 17.0402 12.36 16.8902 11.84 16.8902C10.23 16.8902 8.91003 18.2002 8.91003 19.8202C8.91003 21.4302 10.22 22.7502 11.84 22.7502C13.46 22.7502 14.77 21.4402 14.77 19.8202V14.1702L21.25 12.4002V15.8302C20.83 15.5902 20.34 15.4402 19.82 15.4402C18.21 15.4402 16.89 16.7502 16.89 18.3702C16.89 19.9802 18.2 21.3002 19.82 21.3002C21.44 21.3002 22.75 19.9902 22.75 18.3702V11.4202V9.87021C22.75 8.86021 22.45 8.12021 21.86 7.68021ZM11.84 21.2502C11.05 21.2502 10.41 20.6102 10.41 19.8202C10.41 19.0302 11.05 18.3902 11.84 18.3902C12.63 18.3902 13.27 19.0302 13.27 19.8202C13.27 20.6102 12.63 21.2502 11.84 21.2502ZM19.82 19.8002C19.03 19.8002 18.39 19.1602 18.39 18.3702C18.39 17.5802 19.03 16.9402 19.82 16.9402C20.61 16.9402 21.25 17.5802 21.25 18.3702C21.25 19.1602 20.61 19.8002 19.82 19.8002Z" fill="#292D32"/>
</svg>
