<svg width="24" height="24" viewBox="0 0 24 24" fill="none" xmlns="http://www.w3.org/2000/svg">
<path d="M15.0702 17.8798L14.0602 20.0998C13.8002 20.6598 13.4202 21.1498 12.9102 21.4898C12.3902 21.8398 11.7102 21.8698 11.1702 21.5298C9.53018 20.4898 5.95022 17.8198 3.78022 13.1898C3.70022 13.0298 3.92019 12.8698 4.06019 12.9698C4.63019 13.3698 5.24017 13.6498 5.91017 13.8098C6.32017 13.8998 6.74021 13.9398 7.14021 13.9398C9.00021 13.9398 10.6802 12.9898 11.8002 12.1698C12.1302 11.9298 12.5702 11.8798 12.9102 12.0898C14.0302 12.7898 14.7802 13.6298 15.1502 14.5798C15.7902 16.2598 15.0902 17.8098 15.0702 17.8798Z" fill="black"/>
<path d="M16.8502 18.0502C16.7702 18.1402 16.6102 18.0402 16.6502 17.9302C17.0902 16.4702 17.6602 12.6202 12.5602 10.1802C12.2502 10.0302 12.0202 9.75016 11.9802 9.41016C11.3602 3.85016 16.1502 2.85015 16.1502 2.85015C16.5402 2.77015 16.9502 2.77015 17.3302 2.88015C18.4102 3.17015 19.5102 3.57016 20.6202 4.11016C21.5702 4.57016 22.1202 5.57016 21.9802 6.62016C21.6502 9.10016 20.5502 13.8802 16.8502 18.0502Z" fill="black"/>
<path d="M10.56 10.21L10.5901 10.41C10.6601 10.79 10.5 11.18 10.18 11.38C8.03003 12.73 4.51002 13.75 2.36002 7.83998C2.16002 7.29998 2.04003 6.89999 2.00003 6.31999C1.95003 5.55999 2.38003 4.68999 3.06003 4.36999C4.82003 3.54999 8.54006 2.11999 13.0301 2.24999C13.2301 2.25999 13.3 2.51999 13.14 2.62999C11.41 3.94999 9.92003 6.32999 10.56 10.21Z" fill="black"/>
</svg>
