<svg width="24" height="24" viewBox="0 0 24 24" fill="none" xmlns="http://www.w3.org/2000/svg">
<path d="M20.02 10.6999L17.9 12.0399C17.5 12.2899 16.99 12.2299 16.66 11.8999L12.13 7.36992C11.8 7.03992 11.74 6.52992 11.99 6.12992L13.33 4.00992C14.15 2.71992 15.79 2.65992 17 3.85992L20.18 7.03992C21.3 8.16992 21.23 9.92992 20.02 10.6999Z" fill="#292D32"/>
<path d="M14.71 19.9502L5.99 20.9702C5.91232 20.9806 5.83565 20.9879 5.76005 20.9924C5.07492 21.0327 4.90504 20.2252 5.39034 19.7399L7.98 17.1502C8.3 16.8402 8.3 16.3502 7.98 16.0402C7.68 15.7302 7.19 15.7302 6.87 16.0402L4.28035 18.6299C3.79504 19.1152 2.99492 18.9446 3.03133 18.2592C3.03515 18.1873 3.04135 18.1143 3.05 18.0402L4.08 9.32024C4.34 7.14024 5.14 6.42024 7.44 6.56024L8.94 6.65024C9.43 6.68024 9.89 6.89024 10.24 7.24024L16.79 13.7902C17.14 14.1402 17.35 14.6002 17.37 15.0902L17.46 16.5902C17.69 18.9002 16.9 19.7002 14.71 19.9502Z" fill="#292D32"/>
</svg>
