<svg width="24" height="24" viewBox="0 0 24 24" fill="none" xmlns="http://www.w3.org/2000/svg">
<path d="M20.98 10.7C20.76 6.8 17.87 3.55 14.01 2.89C13.95 2.12 13.31 1.5 12.52 1.5H11.52C10.73 1.5 10.1 2.11 10.03 2.88C6.15 3.52 3.24 6.78 3.02 10.7C2.31 10.82 1.77 11.43 1.77 12.17V13.17C1.77 14 2.44 14.67 3.27 14.67H4.27C5.1 14.67 5.77 14 5.77 13.17V12.17C5.77 11.43 5.23 10.82 4.52 10.7C4.73 7.58 7.02 4.99 10.08 4.39C10.25 5.03 10.83 5.5 11.52 5.5H12.52C13.21 5.5 13.78 5.03 13.96 4.4C17 5.01 19.27 7.6 19.48 10.7C18.77 10.82 18.23 11.43 18.23 12.17V13.17C18.23 14 18.9 14.67 19.73 14.67H20.73C21.56 14.67 22.23 14 22.23 13.17V12.17C22.23 11.43 21.69 10.81 20.98 10.7Z" fill="#292D32"/>
<path d="M15.77 16.5502L14.13 18.0002H9.88L8.24 16.5502C7.29 15.7702 7.29 15.1702 8.01 14.2502L10.9 10.5902C11.1 10.3402 11.33 10.1702 11.59 10.0802C11.86 9.9902 12.15 9.9902 12.43 10.0802C12.68 10.1702 12.91 10.3402 13.12 10.5902L16 14.2402C16.73 15.1602 16.69 15.7302 15.77 16.5502Z" fill="#292D32"/>
<path d="M13.32 22.0003H10.73C9.81 22.0003 9.12 21.2503 9.3 20.4503L9.61 19.0603C9.67 18.7803 9.92 18.5903 10.2 18.5903H13.85C14.13 18.5903 14.37 18.7803 14.44 19.0603L14.75 20.4503C14.94 21.3003 14.3 22.0003 13.32 22.0003Z" fill="#292D32"/>
</svg>
