<svg width="24" height="24" viewBox="0 0 24 24" fill="none" xmlns="http://www.w3.org/2000/svg">
<path d="M19.08 15.7198C18.49 12.1898 15.1 9.31982 11.52 9.31982C7.63003 9.31982 4.21003 12.4698 3.88003 16.3498C3.75003 17.8498 4.23003 19.2698 5.22003 20.3398C6.20003 21.4098 7.58003 21.9998 9.08003 21.9998H13.76C15.45 21.9998 16.93 21.3398 17.94 20.1498C18.95 18.9598 19.35 17.3798 19.08 15.7198Z" fill="#292D32"/>
<path d="M10.28 7.86C11.8982 7.86 13.21 6.54819 13.21 4.93C13.21 3.31181 11.8982 2 10.28 2C8.66178 2 7.34998 3.31181 7.34998 4.93C7.34998 6.54819 8.66178 7.86 10.28 7.86Z" fill="#292D32"/>
<path d="M16.94 9.0299C18.2876 9.0299 19.38 7.93748 19.38 6.5899C19.38 5.24233 18.2876 4.1499 16.94 4.1499C15.5924 4.1499 14.5 5.24233 14.5 6.5899C14.5 7.93748 15.5924 9.0299 16.94 9.0299Z" fill="#292D32"/>
<path d="M20.55 12.9298C21.6269 12.9298 22.5 12.0567 22.5 10.9798C22.5 9.90283 21.6269 9.02979 20.55 9.02979C19.473 9.02979 18.6 9.90283 18.6 10.9798C18.6 12.0567 19.473 12.9298 20.55 12.9298Z" fill="#292D32"/>
<path d="M3.94 10.9801C5.28757 10.9801 6.38 9.88767 6.38 8.5401C6.38 7.19252 5.28757 6.1001 3.94 6.1001C2.59243 6.1001 1.5 7.19252 1.5 8.5401C1.5 9.88767 2.59243 10.9801 3.94 10.9801Z" fill="#292D32"/>
</svg>
