<svg width="24" height="24" viewBox="0 0 24 24" fill="none" xmlns="http://www.w3.org/2000/svg">
<path d="M20.4897 6.71008L12.4897 2.27008C12.1897 2.10008 11.8198 2.10008 11.5198 2.27008L3.51978 6.71008C3.19978 6.89008 3.00977 7.22008 3.00977 7.58008V16.4001C3.00977 16.7601 3.20978 17.1001 3.51978 17.2701L11.5397 21.7301C11.8297 21.8901 12.1797 21.9001 12.4697 21.7501L16.4998 19.7401C16.8098 19.5801 17.1797 19.6001 17.4797 19.7901L19.4697 21.0401C20.1397 21.4601 20.9998 20.9801 20.9998 20.1901V17.5801C20.9998 17.2201 20.7997 16.8801 20.4897 16.7101L17.4897 15.0501C17.1897 14.8801 16.8198 14.8801 16.5198 15.0501L12.4897 17.2901C12.1897 17.4601 11.8198 17.4601 11.5198 17.2901L7.51978 15.0701C7.19978 14.8901 7.00977 14.5601 7.00977 14.2001V9.82008C7.00977 9.46008 7.20978 9.12007 7.51978 8.95007L11.5198 6.73007C11.8198 6.56007 12.1897 6.56007 12.4897 6.73007L16.4897 8.95007C16.8097 9.13007 16.9998 9.46008 16.9998 9.82008V12.8801C16.9998 13.6901 17.9098 14.1601 18.5698 13.7001L20.5698 12.3101C20.8398 12.1201 20.9998 11.8201 20.9998 11.4901V7.60008C20.9998 7.23008 20.7997 6.89008 20.4897 6.71008Z" fill="black"/>
<path d="M15.8601 10.4201V13.5701C15.8601 13.9201 15.6701 14.2401 15.3601 14.4101L12.4701 16.0201C12.1801 16.1801 11.8202 16.1801 11.5302 16.0201L8.64014 14.4101C8.33014 14.2401 8.14014 13.9201 8.14014 13.5701V10.4201C8.14014 10.0701 8.33014 9.7501 8.64014 9.5801L11.5302 7.9701C11.8202 7.8101 12.1801 7.8101 12.4701 7.9701L15.3601 9.5801C15.6701 9.7501 15.8601 10.0701 15.8601 10.4201Z" fill="black"/>
</svg>
