<svg width="24" height="24" viewBox="0 0 24 24" fill="none" xmlns="http://www.w3.org/2000/svg">
<path d="M12 14.3801C13.3144 14.3801 14.38 13.3146 14.38 12.0001C14.38 10.6857 13.3144 9.62012 12 9.62012C10.6856 9.62012 9.62 10.6857 9.62 12.0001C9.62 13.3146 10.6856 14.3801 12 14.3801Z" fill="#292D32"/>
<path d="M20 18.7498C19.84 18.7498 19.69 18.6998 19.55 18.5998C19.22 18.3498 19.15 17.8798 19.4 17.5498C20.61 15.9398 21.25 14.0198 21.25 11.9998C21.25 9.97978 20.61 8.05978 19.4 6.44978C19.15 6.11978 19.22 5.64978 19.55 5.39978C19.88 5.14978 20.35 5.21978 20.6 5.54978C22.01 7.41978 22.75 9.64978 22.75 11.9998C22.75 14.3498 22.01 16.5798 20.6 18.4498C20.45 18.6498 20.23 18.7498 20 18.7498Z" fill="#292D32"/>
<path d="M4 18.7498C3.77 18.7498 3.55 18.6498 3.4 18.4498C1.99 16.5798 1.25 14.3498 1.25 11.9998C1.25 9.64978 1.99 7.41978 3.4 5.54978C3.65 5.21978 4.12 5.14978 4.45 5.39978C4.78 5.64978 4.85 6.11978 4.6 6.44978C3.39 8.05978 2.75 9.97978 2.75 11.9998C2.75 14.0198 3.39 15.9398 4.6 17.5498C4.85 17.8798 4.78 18.3498 4.45 18.5998C4.32 18.6998 4.16 18.7498 4 18.7498Z" fill="#292D32"/>
<path d="M16.8 16.3502C16.64 16.3502 16.49 16.3002 16.35 16.2002C16.02 15.9502 15.95 15.4802 16.2 15.1502C16.89 14.2402 17.25 13.1502 17.25 12.0002C17.25 10.8502 16.89 9.76018 16.2 8.85018C15.95 8.52018 16.02 8.05018 16.35 7.80018C16.68 7.55018 17.15 7.62017 17.4 7.95017C18.28 9.13017 18.75 10.5302 18.75 12.0002C18.75 13.4702 18.28 14.8802 17.4 16.0502C17.25 16.2502 17.03 16.3502 16.8 16.3502Z" fill="#292D32"/>
<path d="M7.2 16.3502C6.97 16.3502 6.75 16.2502 6.6 16.0502C5.72 14.8802 5.25 13.4702 5.25 12.0002C5.25 10.5302 5.72 9.12017 6.6 7.95017C6.85 7.62017 7.32 7.55018 7.65 7.80018C7.98 8.05018 8.05 8.52018 7.8 8.85018C7.11 9.76018 6.75 10.8502 6.75 12.0002C6.75 13.1502 7.11 14.2402 7.8 15.1502C8.05 15.4802 7.98 15.9502 7.65 16.2002C7.52 16.3002 7.36 16.3502 7.2 16.3502Z" fill="#292D32"/>
</svg>
