<svg width="24" height="24" viewBox="0 0 24 24" fill="none" xmlns="http://www.w3.org/2000/svg">
<path d="M13.3 8.10983L14.62 10.7498C14.8 11.1098 15.28 11.4698 15.68 11.5298L18.07 11.9298C19.6 12.1898 19.96 13.2898 18.86 14.3898L17 16.2598C16.69 16.5698 16.51 17.1798 16.61 17.6198L17.14 19.9298C17.56 21.7498 16.59 22.4598 14.98 21.5098L12.74 20.1798C12.33 19.9398 11.67 19.9398 11.26 20.1798L9.00997 21.4998C7.39997 22.4498 6.42997 21.7398 6.84997 19.9198L7.37997 17.6098C7.47997 17.1798 7.29997 16.5698 6.98997 16.2498L5.13997 14.3998C4.03997 13.2998 4.39997 12.1898 5.92997 11.9398L8.31997 11.5398C8.71997 11.4698 9.19997 11.1198 9.37997 10.7598L10.7 8.11983C11.41 6.67983 12.59 6.67983 13.3 8.10983Z" fill="#292D32"/>
<path d="M6 9.75C5.59 9.75 5.25 9.41 5.25 9V2C5.25 1.59 5.59 1.25 6 1.25C6.41 1.25 6.75 1.59 6.75 2V9C6.75 9.41 6.41 9.75 6 9.75Z" fill="#292D32"/>
<path d="M18 9.75C17.59 9.75 17.25 9.41 17.25 9V2C17.25 1.59 17.59 1.25 18 1.25C18.41 1.25 18.75 1.59 18.75 2V9C18.75 9.41 18.41 9.75 18 9.75Z" fill="#292D32"/>
<path d="M12 4.75C11.59 4.75 11.25 4.41 11.25 4V2C11.25 1.59 11.59 1.25 12 1.25C12.41 1.25 12.75 1.59 12.75 2V4C12.75 4.41 12.41 4.75 12 4.75Z" fill="#292D32"/>
</svg>
