<svg width="24" height="24" viewBox="0 0 24 24" fill="none" xmlns="http://www.w3.org/2000/svg">
<path d="M23 15.3699V17.5599C23 19.9999 21.22 22.2999 18.8 22.9699C18.63 23.0099 18.45 23.0099 18.29 22.9699C17.11 22.6499 16.07 21.9299 15.34 20.9999C14.55 20.0199 14.09 18.8099 14.09 17.5599V15.3699C14.09 14.9499 14.4 14.4899 14.78 14.3299L17.56 13.1899C18.19 12.9399 18.89 12.9399 19.52 13.1899L20.52 13.5999L22.31 14.3299C22.69 14.4899 23 14.9499 23 15.3699Z" fill="#292D32"/>
<path d="M20.95 11.0098L20.77 12.0798L20.07 11.7998C19.08 11.3998 18 11.3998 16.99 11.7998L14.2 12.9498C13.25 13.3498 12.59 14.3398 12.59 15.3698V17.5598C12.59 18.7498 12.92 19.9398 13.53 20.9998H6.17997C4.80997 20.9998 3.51997 19.9098 3.28997 18.5598L2.02997 11.0098C1.86997 10.0798 2.33997 8.82979 3.07997 8.23979L9.65997 2.97979C10.67 2.16979 12.31 2.16979 13.32 2.98979L19.9 8.23979C20.63 8.82979 21.11 10.0798 20.95 11.0098Z" fill="#292D32"/>
</svg>
