<svg width="24" height="24" viewBox="0 0 24 24" fill="none" xmlns="http://www.w3.org/2000/svg">
<path d="M5.5 10C7.433 10 9 8.433 9 6.5C9 4.567 7.433 3 5.5 3C3.567 3 2 4.567 2 6.5C2 8.433 3.567 10 5.5 10Z" fill="#292D32"/>
<path d="M5.5 21C7.433 21 9 19.433 9 17.5C9 15.567 7.433 14 5.5 14C3.567 14 2 15.567 2 17.5C2 19.433 3.567 21 5.5 21Z" fill="#292D32"/>
<path d="M15.25 11.9798L22.45 6.59978C22.78 6.34978 22.85 5.87978 22.6 5.54978C22.35 5.21978 21.88 5.14978 21.55 5.39978L14 11.0498L8.45 6.88978C8.12 6.64978 7.65 6.70978 7.4 7.03978C7.15 7.36978 7.22 7.83978 7.55 8.08978L12.75 11.9798L6.85 16.3998C6.52 16.6498 6.45 17.1198 6.7 17.4498C6.85 17.6498 7.07 17.7498 7.3 17.7498C7.46 17.7498 7.61 17.6998 7.75 17.5998L14 12.9198L21.55 18.5698C21.68 18.6698 21.84 18.7198 22 18.7198C22.23 18.7198 22.45 18.6198 22.6 18.4198C22.85 18.0898 22.78 17.6198 22.45 17.3698L15.25 11.9798Z" fill="#292D32"/>
</svg>
