<svg width="24" height="24" viewBox="0 0 24 24" fill="none" xmlns="http://www.w3.org/2000/svg">
<path d="M20.91 11.1198V6.72982C20.91 5.90982 20.29 4.97982 19.52 4.66982L13.95 2.38982C12.7 1.87982 11.29 1.87982 10.04 2.38982L4.47003 4.66982C3.71003 4.97982 3.09003 5.90982 3.09003 6.72982V11.1198C3.09003 16.0098 6.64003 20.5898 11.49 21.9298C11.82 22.0198 12.18 22.0198 12.51 21.9298C17.36 20.5898 20.91 16.0098 20.91 11.1198ZM12.75 12.8698V15.4998C12.75 15.9098 12.41 16.2498 12 16.2498C11.59 16.2498 11.25 15.9098 11.25 15.4998V12.8698C10.24 12.5498 9.50003 11.6098 9.50003 10.4998C9.50003 9.11982 10.62 7.99982 12 7.99982C13.38 7.99982 14.5 9.11982 14.5 10.4998C14.5 11.6198 13.76 12.5498 12.75 12.8698Z" fill="#292D32"/>
</svg>
