<svg width="24" height="24" viewBox="0 0 24 24" fill="none" xmlns="http://www.w3.org/2000/svg">
<path d="M18.07 8.51013L9.51002 4.23013C3.76002 1.35013 1.40002 3.71013 4.28002 9.46013L5.15002 11.2001C5.40002 11.7101 5.40002 12.3001 5.15002 12.8101L4.28002 14.5401C1.40002 20.2901 3.75002 22.6501 9.51002 19.7701L18.07 15.4901C21.91 13.5701 21.91 10.4301 18.07 8.51013ZM14.84 12.7501H9.44002C9.03002 12.7501 8.69002 12.4101 8.69002 12.0001C8.69002 11.5901 9.03002 11.2501 9.44002 11.2501H14.84C15.25 11.2501 15.59 11.5901 15.59 12.0001C15.59 12.4101 15.25 12.7501 14.84 12.7501Z" fill="#292D32"/>
</svg>
