<svg width="24" height="24" viewBox="0 0 24 24" fill="none" xmlns="http://www.w3.org/2000/svg">
<path d="M18.54 4.11984L13.04 2.05984C12.47 1.84984 11.54 1.84984 10.97 2.05984L5.46999 4.11984C4.40999 4.51984 3.54999 5.75984 3.54999 6.88984V14.9898C3.54999 15.7998 4.07999 16.8698 4.72999 17.3498L10.23 21.4598C11.2 22.1898 12.79 22.1898 13.76 21.4598L19.26 17.3498C19.91 16.8598 20.44 15.7998 20.44 14.9898V6.88984C20.45 5.75984 19.59 4.51984 18.54 4.11984ZM14.68 13.9698C14.53 14.1198 14.34 14.1898 14.15 14.1898C13.96 14.1898 13.77 14.1198 13.62 13.9698L12.03 12.3798L10.39 14.0198C10.24 14.1698 10.05 14.2398 9.85999 14.2398C9.66999 14.2398 9.47999 14.1698 9.32999 14.0198C9.03999 13.7298 9.03999 13.2498 9.32999 12.9598L10.97 11.3198L9.36999 9.71984C9.07999 9.42984 9.07999 8.94984 9.36999 8.65984C9.65999 8.36984 10.14 8.36984 10.43 8.65984L12.02 10.2498L13.57 8.69984C13.86 8.40984 14.34 8.40984 14.63 8.69984C14.92 8.98984 14.92 9.46984 14.63 9.75984L13.08 11.3098L14.67 12.8998C14.97 13.1998 14.97 13.6698 14.68 13.9698Z" fill="#292D32"/>
</svg>
