<svg width="24" height="24" viewBox="0 0 24 24" fill="none" xmlns="http://www.w3.org/2000/svg">
<path d="M17.0001 3.75H10.2801C8.87005 3.75 7.53005 4.34 6.58005 5.39L3.05005 9.27C1.64005 10.82 1.64005 13.18 3.05005 14.73L6.58005 18.61C7.53005 19.65 8.87005 20.25 10.2801 20.25H17.0001C19.7601 20.25 22.0001 18.01 22.0001 15.25V8.75C22.0001 5.99 19.7601 3.75 17.0001 3.75ZM16.5301 13.94C16.8201 14.23 16.8201 14.71 16.5301 15C16.3801 15.15 16.1901 15.22 16.0001 15.22C15.8101 15.22 15.6201 15.15 15.4701 15L13.5301 13.06L11.5901 15C11.4401 15.15 11.2501 15.22 11.0601 15.22C10.8701 15.22 10.6801 15.15 10.5301 15C10.2401 14.71 10.2401 14.23 10.5301 13.94L12.4701 12L10.5301 10.06C10.2401 9.77 10.2401 9.29 10.5301 9C10.8201 8.71 11.3001 8.71 11.5901 9L13.5301 10.94L15.4701 9C15.7601 8.71 16.2401 8.71 16.5301 9C16.8201 9.29 16.8201 9.77 16.5301 10.06L14.5901 12L16.5301 13.94Z" fill="#292D32"/>
</svg>
