<svg width="24" height="24" viewBox="0 0 24 24" fill="none" xmlns="http://www.w3.org/2000/svg">
<path d="M19.0901 12.5899C18.9301 12.5899 18.7701 12.5399 18.6301 12.4299C14.6001 9.3199 9.39005 9.3199 5.36005 12.4299C5.03005 12.6799 4.56005 12.6199 4.31005 12.2999C4.06005 11.9699 4.12005 11.4999 4.44005 11.2499C9.03005 7.6999 14.9601 7.6999 19.5401 11.2499C19.8701 11.4999 19.9301 11.9699 19.6701 12.2999C19.5401 12.4899 19.3201 12.5899 19.0901 12.5899Z" fill="#292D32"/>
<path d="M22 9.1099C21.84 9.1099 21.68 9.0599 21.54 8.9499C15.74 4.4699 8.25001 4.4699 2.46001 8.9499C2.13001 9.1999 1.66001 9.1399 1.41001 8.8199C1.15001 8.4999 1.21001 8.0199 1.54001 7.7699C7.89001 2.8599 16.1 2.8599 22.46 7.7699C22.79 8.0199 22.85 8.4899 22.59 8.8199C22.45 9.0099 22.22 9.1099 22 9.1099Z" fill="#292D32"/>
<path d="M17.2099 16.2398C17.0499 16.2398 16.8899 16.1898 16.7499 16.0798C13.8699 13.8498 10.1399 13.8498 7.24995 16.0798C6.91995 16.3298 6.44995 16.2698 6.19995 15.9498C5.94995 15.6198 6.00995 15.1498 6.32995 14.8998C9.76995 12.2398 14.2199 12.2398 17.6599 14.8998C17.9899 15.1498 18.0499 15.6198 17.7899 15.9498C17.6499 16.1398 17.4299 16.2398 17.2099 16.2398Z" fill="#292D32"/>
<path d="M14.6 19.9C14.44 19.9 14.28 19.85 14.14 19.74C12.84 18.73 11.15 18.73 9.85004 19.74C9.52004 19.99 9.05004 19.93 8.80004 19.61C8.55004 19.28 8.61004 18.81 8.93004 18.56C10.79 17.12 13.19 17.12 15.05 18.56C15.38 18.81 15.44 19.28 15.18 19.61C15.05 19.79 14.83 19.9 14.6 19.9Z" fill="#292D32"/>
</svg>
