<svg width="24" height="24" viewBox="0 0 24 24" fill="none" xmlns="http://www.w3.org/2000/svg">
<path d="M15.9998 16.75C15.7098 16.75 15.4398 16.58 15.3098 16.3L11.9998 8.84998L8.68984 16.31C8.51984 16.69 8.06985 16.86 7.69985 16.69C7.31985 16.52 7.14985 16.08 7.31985 15.7L11.3198 6.69998C11.5598 6.15998 12.4498 6.15998 12.6898 6.69998L16.6898 15.7C16.8598 16.08 16.6898 16.52 16.3098 16.69C16.2098 16.73 16.0998 16.75 15.9998 16.75Z" fill="black"/>
<path d="M12 12.75H8C7.59 12.75 7.25 12.41 7.25 12C7.25 11.59 7.59 11.25 8 11.25H12C12.41 11.25 12.75 11.59 12.75 12C12.75 12.41 12.41 12.75 12 12.75Z" fill="black"/>
<path d="M12 22.75C6.07 22.75 1.25 17.93 1.25 12C1.25 6.07 6.07 1.25 12 1.25C17.93 1.25 22.75 6.07 22.75 12C22.75 17.93 17.93 22.75 12 22.75ZM12 2.75C6.9 2.75 2.75 6.9 2.75 12C2.75 17.1 6.9 21.25 12 21.25C17.1 21.25 21.25 17.1 21.25 12C21.25 6.9 17.1 2.75 12 2.75Z" fill="black"/>
</svg>
