<svg width="24" height="24" viewBox="0 0 24 24" fill="none" xmlns="http://www.w3.org/2000/svg">
<path d="M20.8904 10.53C20.4804 10.53 20.1404 10.19 20.1404 9.78001V6.91001L12.0004 2.84001L3.86035 6.91001V9.78001C3.86035 10.19 3.52035 10.53 3.11035 10.53C2.70035 10.53 2.36035 10.19 2.36035 9.78001V6.45001C2.36035 6.17001 2.5204 5.91001 2.7804 5.78001L11.6703 1.34001C11.8803 1.23001 12.1304 1.23001 12.3404 1.34001L21.2303 5.78001C21.4803 5.91001 21.6504 6.17001 21.6504 6.45001V9.78001C21.6404 10.19 21.3004 10.53 20.8904 10.53Z" fill="black"/>
<path d="M12.0004 22.75C11.8804 22.75 11.7703 22.72 11.6703 22.67L2.7804 18.23C2.5304 18.1 2.36035 17.84 2.36035 17.56V14.23C2.36035 13.82 2.70035 13.48 3.11035 13.48C3.52035 13.48 3.86035 13.82 3.86035 14.23V17.1L12.0004 21.17L20.1404 17.1V14.23C20.1404 13.82 20.4804 13.48 20.8904 13.48C21.3004 13.48 21.6404 13.82 21.6404 14.23V17.56C21.6404 17.84 21.4803 18.1 21.2203 18.23L12.3304 22.67C12.2304 22.72 12.1204 22.75 12.0004 22.75Z" fill="black"/>
<path d="M12 22.75C11.59 22.75 11.25 22.41 11.25 22V16.44C11.25 16.03 11.59 15.69 12 15.69C12.41 15.69 12.75 16.03 12.75 16.44V22C12.75 22.41 12.41 22.75 12 22.75Z" fill="black"/>
<path d="M11.9996 17.19C9.13957 17.19 6.80957 14.86 6.80957 12C6.80957 9.14 9.13957 6.81 11.9996 6.81C14.8596 6.81 17.1896 9.14 17.1896 12C17.1896 14.86 14.8596 17.19 11.9996 17.19ZM11.9996 8.31C9.95957 8.31 8.30957 9.97 8.30957 12C8.30957 14.03 9.96957 15.69 11.9996 15.69C14.0296 15.69 15.6896 14.03 15.6896 12C15.6896 9.97 14.0396 8.31 11.9996 8.31Z" fill="black"/>
</svg>
