<svg width="24" height="24" viewBox="0 0 24 24" fill="none" xmlns="http://www.w3.org/2000/svg">
<path d="M9.22957 22.75C9.21956 22.75 9.20956 22.75 9.18956 22.75C7.50956 22.74 6.30956 21.23 5.45956 19.92C3.28956 16.59 2.84956 12.4 4.41956 9.97001C5.46956 8.34 7.16956 7.32999 8.84956 7.32999C9.71956 7.32999 10.3996 7.57001 10.9996 7.79001C11.4796 7.96001 11.8896 8.10999 12.3196 8.10999C12.6996 8.10999 13.0296 7.98001 13.4496 7.82001C14.0296 7.60001 14.7396 7.32999 15.7696 7.32999C17.2496 7.32999 18.7696 8.12 19.8296 9.46C19.9696 9.63 20.0196 9.86001 19.9796 10.07C19.9396 10.29 19.7996 10.47 19.6096 10.58C18.4796 11.2 17.8596 12.33 17.9496 13.61C18.0396 14.91 18.8396 16.01 20.0396 16.46C20.2296 16.53 20.3896 16.68 20.4696 16.87C20.5496 17.06 20.5496 17.28 20.4596 17.46C20.0196 18.44 19.7996 18.89 19.2296 19.77C18.2796 21.23 17.0796 22.73 15.4396 22.75C14.7296 22.75 14.2496 22.54 13.8296 22.34C13.4096 22.15 12.9996 22 12.3496 21.98C11.6496 21.98 11.2796 22.15 10.8496 22.34C10.4096 22.54 9.92956 22.75 9.22957 22.75ZM8.84956 8.82999C7.66956 8.82999 6.45956 9.58 5.67956 10.78C4.61956 12.42 4.62956 15.89 6.71956 19.1C7.36956 20.1 8.23956 21.24 9.20956 21.25C9.56956 21.24 9.83956 21.14 10.2096 20.98C10.6996 20.76 11.3096 20.49 12.3196 20.48C13.3096 20.46 13.9496 20.75 14.4396 20.98C14.7996 21.15 15.0396 21.26 15.4096 21.25C16.3496 21.24 17.2596 20.02 17.9596 18.96C18.3296 18.39 18.5396 18.03 18.7696 17.52C17.4296 16.73 16.5496 15.34 16.4396 13.72C16.3296 12.19 16.9496 10.76 18.0896 9.81C17.3896 9.19 16.5596 8.84 15.7596 8.84C15.0096 8.84 14.5096 9.03001 13.9796 9.23001C13.4796 9.42001 12.9596 9.62 12.3096 9.62C11.6196 9.62 11.0496 9.41 10.4896 9.22001C9.95956 9.01 9.44956 8.82999 8.84956 8.82999ZM11.8196 7.13001C11.7896 7.13001 11.7496 7.13001 11.7196 7.13001C11.3696 7.12001 11.0696 6.86001 11.0096 6.51001C10.7996 5.38001 11.1996 4.07999 12.0696 3.01999C12.8696 2.04999 14.1896 1.33 15.3596 1.25C15.7696 1.23 16.0996 1.50002 16.1496 1.89002C16.3196 3.06002 15.9496 4.34001 15.1196 5.41001C14.3096 6.46001 13.0196 7.13001 11.8196 7.13001ZM14.6496 2.95002C14.1096 3.17002 13.5796 3.54 13.2296 3.97001C12.8996 4.37001 12.5896 4.93001 12.4896 5.51001C13.0296 5.33001 13.5696 4.96999 13.9396 4.48999C14.1396 4.23999 14.5196 3.66002 14.6496 2.95002Z" fill="black"/>
</svg>
