<svg width="24" height="24" viewBox="0 0 24 24" fill="none" xmlns="http://www.w3.org/2000/svg">
<path d="M9.57043 18.82C9.38043 18.82 9.19043 18.75 9.04043 18.6L2.97043 12.53C2.68043 12.24 2.68043 11.76 2.97043 11.47L9.04043 5.4C9.33043 5.11 9.81043 5.11 10.1004 5.4C10.3904 5.69 10.3904 6.17 10.1004 6.46L4.56043 12L10.1004 17.54C10.3904 17.83 10.3904 18.31 10.1004 18.6C9.96043 18.75 9.76043 18.82 9.57043 18.82Z" fill="#292D32"/>
<path d="M20.4999 12.75H3.66992C3.25992 12.75 2.91992 12.41 2.91992 12C2.91992 11.59 3.25992 11.25 3.66992 11.25H20.4999C20.9099 11.25 21.2499 11.59 21.2499 12C21.2499 12.41 20.9099 12.75 20.4999 12.75Z" fill="#292D32"/>
</svg>
