<svg width="24" height="24" viewBox="0 0 24 24" fill="none" xmlns="http://www.w3.org/2000/svg">
<path d="M12 22.75C6.07 22.75 1.25 17.93 1.25 12C1.25 6.07 6.07 1.25 12 1.25C17.93 1.25 22.75 6.07 22.75 12C22.75 17.93 17.93 22.75 12 22.75ZM12 2.75C6.9 2.75 2.75 6.9 2.75 12C2.75 17.1 6.9 21.25 12 21.25C17.1 21.25 21.25 17.1 21.25 12C21.25 6.9 17.1 2.75 12 2.75Z" fill="#292D32"/>
<path d="M12 16.25C11.59 16.25 11.25 15.91 11.25 15.5V9.5C11.25 9.09 11.59 8.75 12 8.75C12.41 8.75 12.75 9.09 12.75 9.5V15.5C12.75 15.91 12.41 16.25 12 16.25Z" fill="#292D32"/>
<path d="M15.0004 12.25C14.8104 12.25 14.6204 12.18 14.4704 12.03L12.0004 9.56L9.53043 12.03C9.24043 12.32 8.76043 12.32 8.47043 12.03C8.18043 11.74 8.18043 11.26 8.47043 10.97L11.4704 7.97C11.7604 7.68 12.2404 7.68 12.5304 7.97L15.5304 10.97C15.8204 11.26 15.8204 11.74 15.5304 12.03C15.3804 12.18 15.1904 12.25 15.0004 12.25Z" fill="#292D32"/>
</svg>
