<svg width="24" height="24" viewBox="0 0 24 24" fill="none" xmlns="http://www.w3.org/2000/svg">
<path d="M15.4897 20.76C15.2997 20.76 15.1097 20.69 14.9597 20.54C14.6697 20.25 14.6697 19.77 14.9597 19.48L19.9697 14.47C20.2597 14.18 20.7397 14.18 21.0297 14.47C21.3197 14.76 21.3197 15.24 21.0297 15.53L16.0197 20.54C15.8697 20.68 15.6797 20.76 15.4897 20.76Z" fill="#292D32"/>
<path d="M20.5 15.74H3.5C3.09 15.74 2.75 15.4 2.75 14.99C2.75 14.58 3.09 14.24 3.5 14.24H20.5C20.91 14.24 21.25 14.58 21.25 14.99C21.25 15.4 20.91 15.74 20.5 15.74Z" fill="#292D32"/>
<path d="M3.50043 9.76C3.31043 9.76 3.12043 9.69 2.97043 9.54C2.68043 9.25 2.68043 8.77 2.97043 8.48L7.98043 3.47C8.27043 3.18 8.75043 3.18 9.04043 3.47C9.33043 3.76 9.33043 4.24 9.04043 4.53L4.03043 9.54C3.89043 9.68 3.69043 9.76 3.50043 9.76Z" fill="#292D32"/>
<path d="M20.5 9.76001H3.5C3.09 9.76001 2.75 9.42001 2.75 9.01001C2.75 8.60001 3.09 8.26001 3.5 8.26001H20.5C20.91 8.26001 21.25 8.60001 21.25 9.01001C21.25 9.42001 20.91 9.76001 20.5 9.76001Z" fill="#292D32"/>
</svg>
