<svg width="24" height="24" viewBox="0 0 24 24" fill="none" xmlns="http://www.w3.org/2000/svg">
<path d="M12.1406 15.82C11.7306 15.82 11.3906 15.48 11.3906 15.07V13.11C11.3906 10.18 13.7706 7.79999 16.7106 7.79999H18.6706C19.0806 7.79999 19.4206 8.13999 19.4206 8.54999C19.4206 8.95999 19.0806 9.29999 18.6706 9.29999H16.7106C14.6106 9.29999 12.8906 11.01 12.8906 13.11V15.07C12.8906 15.49 12.5506 15.82 12.1406 15.82Z" fill="#292D32"/>
<path d="M12.1401 18C11.7301 18 11.3901 17.66 11.3901 17.25V13.12C11.3901 11.02 9.68014 9.31 7.58014 9.31H5.62012C5.21012 9.31 4.87012 8.97 4.87012 8.56C4.87012 8.15 5.21012 7.81 5.62012 7.81H7.58014C10.5101 7.81 12.8901 10.19 12.8901 13.12V17.25C12.8901 17.66 12.5501 18 12.1401 18Z" fill="#292D32"/>
<path d="M7.13931 11.1C6.94931 11.1 6.75928 11.03 6.60928 10.88L4.8093 9.08C4.5193 8.79 4.5193 8.31001 4.8093 8.02001L6.60928 6.22C6.89928 5.93 7.37928 5.93 7.66928 6.22C7.95928 6.51 7.95928 6.99 7.66928 7.28L6.39932 8.55L7.66928 9.82001C7.95928 10.11 7.95928 10.59 7.66928 10.88C7.51928 11.03 7.32931 11.1 7.13931 11.1Z" fill="#292D32"/>
<path d="M16.8598 11.1C16.6698 11.1 16.4798 11.03 16.3298 10.88C16.0398 10.59 16.0398 10.11 16.3298 9.82001L17.5998 8.55L16.3298 7.28C16.0398 6.99 16.0398 6.51 16.3298 6.22C16.6198 5.93 17.0998 5.93 17.3898 6.22L19.1898 8.02001C19.4798 8.31001 19.4798 8.79 19.1898 9.08L17.3898 10.88C17.2498 11.03 17.0498 11.1 16.8598 11.1Z" fill="#292D32"/>
<path d="M15 22.75H9C3.57 22.75 1.25 20.43 1.25 15V9C1.25 3.57 3.57 1.25 9 1.25H15C20.43 1.25 22.75 3.57 22.75 9V15C22.75 20.43 20.43 22.75 15 22.75ZM9 2.75C4.39 2.75 2.75 4.39 2.75 9V15C2.75 19.61 4.39 21.25 9 21.25H15C19.61 21.25 21.25 19.61 21.25 15V9C21.25 4.39 19.61 2.75 15 2.75H9Z" fill="#292D32"/>
</svg>
