<svg width="24" height="24" viewBox="0 0 24 24" fill="none" xmlns="http://www.w3.org/2000/svg">
<path d="M15.1 19.15C14.26 19.15 13.34 18.88 12.41 18.34L7.78 15.67C6.15 14.72 5.25 13.42 5.25 12C5.25 10.58 6.15 9.27998 7.78 8.33998L12.41 5.66998C14.04 4.72998 15.61 4.59998 16.85 5.30998C18.08 6.01998 18.76 7.44998 18.76 9.32998V14.67C18.76 16.55 18.08 17.98 16.85 18.69C16.32 19 15.73 19.15 15.1 19.15ZM15.1 6.35998C14.52 6.35998 13.86 6.55998 13.16 6.96998L8.53 9.63999C7.38 10.3 6.75 11.14 6.75 12C6.75 12.86 7.38 13.7 8.53 14.36L13.16 17.03C14.31 17.69 15.35 17.82 16.1 17.39C16.85 16.96 17.26 15.99 17.26 14.67V9.32998C17.26 8.00998 16.85 7.03998 16.1 6.60998C15.8 6.43998 15.46 6.35998 15.1 6.35998Z" fill="#292D32"/>
</svg>
