<svg width="24" height="24" viewBox="0 0 24 24" fill="none" xmlns="http://www.w3.org/2000/svg">
<path d="M12.1998 17.38C11.4998 17.38 10.7898 17.11 10.2598 16.58C9.73977 16.06 9.44977 15.37 9.44977 14.64C9.44977 13.91 9.73977 13.21 10.2598 12.7L11.6697 11.29C11.9597 11 12.4397 11 12.7297 11.29C13.0197 11.58 13.0197 12.06 12.7297 12.35L11.3198 13.76C11.0798 14 10.9498 14.31 10.9498 14.64C10.9498 14.97 11.0798 15.29 11.3198 15.52C11.8098 16.01 12.5998 16.01 13.0898 15.52L15.3098 13.3C16.5798 12.03 16.5798 9.97 15.3098 8.7C14.0398 7.43 11.9798 7.43 10.7098 8.7L8.28973 11.12C7.77973 11.63 7.49976 12.3 7.49976 13.01C7.49976 13.72 7.77973 14.4 8.28973 14.9C8.57973 15.19 8.57973 15.67 8.28973 15.96C7.99973 16.25 7.51974 16.25 7.22974 15.96C6.43974 15.17 6.00977 14.12 6.00977 13C6.00977 11.88 6.43974 10.83 7.22974 10.04L9.64978 7.61998C11.4998 5.76998 14.5198 5.76998 16.3698 7.61998C18.2198 9.46998 18.2198 12.49 16.3698 14.34L14.1498 16.56C13.6098 17.11 12.9098 17.38 12.1998 17.38Z" fill="#292D32"/>
<path d="M12 22.75C6.07 22.75 1.25 17.93 1.25 12C1.25 6.07 6.07 1.25 12 1.25C17.93 1.25 22.75 6.07 22.75 12C22.75 17.93 17.93 22.75 12 22.75ZM12 2.75C6.9 2.75 2.75 6.9 2.75 12C2.75 17.1 6.9 21.25 12 21.25C17.1 21.25 21.25 17.1 21.25 12C21.25 6.9 17.1 2.75 12 2.75Z" fill="#292D32"/>
</svg>
