<svg width="24" height="24" viewBox="0 0 24 24" fill="none" xmlns="http://www.w3.org/2000/svg">
<path d="M12 22.75C6.07 22.75 1.25 17.93 1.25 12C1.25 6.07 6.07 1.25 12 1.25C17.93 1.25 22.75 6.07 22.75 12C22.75 17.93 17.93 22.75 12 22.75ZM12 2.75C6.9 2.75 2.75 6.9 2.75 12C2.75 17.1 6.9 21.25 12 21.25C17.1 21.25 21.25 17.1 21.25 12C21.25 6.9 17.1 2.75 12 2.75Z" fill="black"/>
<path d="M14.5699 10.89H9.42987C9.15987 10.89 8.9099 10.74 8.7799 10.51C8.6499 10.27 8.64985 9.98999 8.78985 9.74999L11.3599 5.46C11.6299 5.01 12.3799 5.01 12.6499 5.46L15.2198 9.74999C15.3598 9.97999 15.3599 10.27 15.2299 10.51C15.0899 10.75 14.8399 10.89 14.5699 10.89ZM10.7499 9.38999H13.2399L11.9899 7.30999L10.7499 9.38999Z" fill="black"/>
<path d="M11.1402 16.89H6.00021C5.73021 16.89 5.48019 16.74 5.35019 16.51C5.22019 16.28 5.2202 15.99 5.3602 15.76L7.9302 11.47C8.2002 11.02 8.95018 11.02 9.22018 11.47L11.7902 15.76C11.9302 15.99 11.9302 16.28 11.8002 16.51C11.6602 16.75 11.4102 16.89 11.1402 16.89ZM7.32022 15.39H9.81021L8.56021 13.31L7.32022 15.39Z" fill="black"/>
<path d="M17.9996 16.89H12.8596C12.5896 16.89 12.3396 16.74 12.2096 16.51C12.0796 16.28 12.0795 15.99 12.2195 15.76L14.7895 11.47C15.0595 11.02 15.8096 11.02 16.0796 11.47L18.6496 15.76C18.7896 15.99 18.7895 16.28 18.6595 16.51C18.5195 16.75 18.2696 16.89 17.9996 16.89ZM14.1796 15.39H16.6696L15.4196 13.31L14.1796 15.39Z" fill="black"/>
</svg>
