<svg width="24" height="24" viewBox="0 0 24 24" fill="none" xmlns="http://www.w3.org/2000/svg">
<path d="M9.19046 17.01H6.45047C6.02047 17.01 5.62043 16.78 5.41043 16.41C5.20043 16.04 5.20043 15.58 5.41043 15.2L11.0105 5.59C11.2105 5.24 11.5804 5.02001 11.9804 4.99001C12.3804 4.96001 12.7705 5.15001 13.0105 5.47001L14.5805 7.56C15.2105 8.4 15.2605 9.56001 14.7005 10.46L11.3604 15.81C10.8904 16.56 10.0805 17.01 9.19046 17.01ZM6.96048 15.51H9.18045C9.55045 15.51 9.89047 15.32 10.0805 15.01L13.4204 9.66001C13.6504 9.29001 13.6305 8.81001 13.3705 8.46001L12.0705 6.73001L6.96048 15.51Z" fill="black"/>
<path d="M17.5502 17.01H13.7102C13.2802 17.01 12.8802 16.78 12.6602 16.4C12.4502 16.02 12.4502 15.56 12.6702 15.19L14.5902 11.99C15.0302 11.26 16.2102 11.26 16.6502 11.99L18.5702 15.19C18.7902 15.56 18.8002 16.03 18.5802 16.4C18.3902 16.77 17.9802 17.01 17.5502 17.01ZM14.2402 15.51H17.0302L15.6302 13.18L14.2402 15.51Z" fill="black"/>
<path d="M12 22.75C6.07 22.75 1.25 17.93 1.25 12C1.25 6.07 6.07 1.25 12 1.25C17.93 1.25 22.75 6.07 22.75 12C22.75 17.93 17.93 22.75 12 22.75ZM12 2.75C6.9 2.75 2.75 6.9 2.75 12C2.75 17.1 6.9 21.25 12 21.25C17.1 21.25 21.25 17.1 21.25 12C21.25 6.9 17.1 2.75 12 2.75Z" fill="black"/>
</svg>
