<svg width="24" height="24" viewBox="0 0 24 24" fill="none" xmlns="http://www.w3.org/2000/svg">
<path d="M11.1196 18.25C10.9296 18.25 10.7396 18.18 10.5896 18.03L9.08957 16.53C8.79957 16.24 8.79957 15.76 9.08957 15.47C9.37957 15.18 9.85957 15.18 10.1496 15.47L11.1396 16.46L13.8596 13.95C14.1596 13.67 14.6396 13.69 14.9196 13.99C15.1996 14.29 15.1796 14.77 14.8796 15.05L11.6296 18.05C11.4896 18.18 11.3096 18.25 11.1196 18.25Z" fill="#292D32"/>
<path d="M5.18988 6.38C4.99988 6.38 4.79988 6.3 4.65988 6.16C4.36988 5.87 4.36988 5.39 4.65988 5.1L8.28988 1.47C8.57988 1.18 9.05988 1.18 9.34988 1.47C9.63988 1.76 9.63988 2.24 9.34988 2.53L5.71988 6.16C5.56988 6.3 5.37988 6.38 5.18988 6.38Z" fill="#292D32"/>
<path d="M18.8101 6.38C18.6201 6.38 18.4301 6.31 18.2801 6.16L14.6501 2.53C14.3601 2.24 14.3601 1.76 14.6501 1.47C14.9401 1.18 15.4201 1.18 15.7101 1.47L19.3401 5.1C19.6301 5.39 19.6301 5.87 19.3401 6.16C19.2001 6.3 19.0001 6.38 18.8101 6.38Z" fill="#292D32"/>
<path d="M20.21 10.6C20.14 10.6 20.07 10.6 20 10.6H19.77H4C3.3 10.61 2.5 10.61 1.92 10.03C1.46 9.57998 1.25 8.87998 1.25 7.84998C1.25 5.09998 3.26 5.09998 4.22 5.09998H19.78C20.74 5.09998 22.75 5.09998 22.75 7.84998C22.75 8.88998 22.54 9.57998 22.08 10.03C21.56 10.55 20.86 10.6 20.21 10.6ZM4.22 9.09998H20.01C20.46 9.10998 20.88 9.10998 21.02 8.96998C21.09 8.89998 21.24 8.65998 21.24 7.84998C21.24 6.71998 20.96 6.59998 19.77 6.59998H4.22C3.03 6.59998 2.75 6.71998 2.75 7.84998C2.75 8.65998 2.91 8.89998 2.97 8.96998C3.11 9.09998 3.54 9.09998 3.98 9.09998H4.22Z" fill="#292D32"/>
<path d="M14.8898 22.75H8.85975C5.27975 22.75 4.47975 20.62 4.16975 18.77L2.75975 10.12C2.68975 9.71 2.96975 9.33 3.37975 9.26C3.77975 9.19 4.16975 9.47 4.23975 9.88L5.64975 18.52C5.93975 20.29 6.53975 21.25 8.85975 21.25H14.8898C17.4598 21.25 17.7498 20.35 18.0798 18.61L19.7598 9.86C19.8398 9.45 20.2298 9.18 20.6398 9.27C21.0498 9.35 21.3098 9.74 21.2298 10.15L19.5498 18.9C19.1598 20.93 18.5098 22.75 14.8898 22.75Z" fill="#292D32"/>
</svg>
