<svg width="24" height="24" viewBox="0 0 24 24" fill="none" xmlns="http://www.w3.org/2000/svg">
<path d="M12 22.75C6.07 22.75 1.25 17.93 1.25 12C1.25 6.07 6.07 1.25 12 1.25C17.93 1.25 22.75 6.07 22.75 12C22.75 17.93 17.93 22.75 12 22.75ZM12 2.75C6.9 2.75 2.75 6.9 2.75 12C2.75 17.1 6.9 21.25 12 21.25C17.1 21.25 21.25 17.1 21.25 12C21.25 6.9 17.1 2.75 12 2.75Z" fill="black"/>
<path d="M14.2003 12.75H8.78027C8.37027 12.75 8.03027 12.41 8.03027 12V7.67001C8.03027 7.26001 8.37027 6.92001 8.78027 6.92001H14.2003C15.7503 6.92001 17.1203 8.28001 17.1203 9.84001C17.1203 11.44 15.8103 12.75 14.2003 12.75ZM9.53027 11.25H14.2003C14.9803 11.25 15.6203 10.61 15.6203 9.83001C15.6203 9.17001 15.0003 8.41001 14.2003 8.41001H9.53027V11.25Z" fill="black"/>
<path d="M14.9703 17.08H8.78027C8.37027 17.08 8.03027 16.74 8.03027 16.33V12C8.03027 11.59 8.37027 11.25 8.78027 11.25H14.9703C16.7503 11.25 18.2003 12.56 18.2003 14.17C18.2003 15.78 16.7503 17.08 14.9703 17.08ZM9.53027 15.58H14.9703C15.9203 15.58 16.7003 14.94 16.7003 14.16C16.7003 13.38 15.9303 12.74 14.9703 12.74H9.53027V15.58Z" fill="black"/>
<path d="M12.5703 19.25C12.1603 19.25 11.8203 18.91 11.8203 18.5V16.33C11.8203 15.92 12.1603 15.58 12.5703 15.58C12.9803 15.58 13.3203 15.92 13.3203 16.33V18.5C13.3203 18.91 12.9903 19.25 12.5703 19.25Z" fill="black"/>
<path d="M9.87012 19.25C9.46012 19.25 9.12012 18.91 9.12012 18.5V16.33C9.12012 15.92 9.46012 15.58 9.87012 15.58C10.2801 15.58 10.6201 15.92 10.6201 16.33V18.5C10.6201 18.91 10.2801 19.25 9.87012 19.25Z" fill="black"/>
<path d="M12.5703 8.42C12.1603 8.42 11.8203 8.08 11.8203 7.67V5.5C11.8203 5.09 12.1603 4.75 12.5703 4.75C12.9803 4.75 13.3203 5.09 13.3203 5.5V7.67C13.3203 8.08 12.9903 8.42 12.5703 8.42Z" fill="black"/>
<path d="M9.87012 8.42C9.46012 8.42 9.12012 8.08 9.12012 7.67V5.5C9.12012 5.09 9.46012 4.75 9.87012 4.75C10.2801 4.75 10.6201 5.09 10.6201 5.5V7.67C10.6201 8.08 10.2801 8.42 9.87012 8.42Z" fill="black"/>
<path d="M10.8398 8.42001H7.0498C6.6398 8.42001 6.2998 8.08001 6.2998 7.67001C6.2998 7.26001 6.6398 6.92001 7.0498 6.92001H10.8398C11.2498 6.92001 11.5898 7.26001 11.5898 7.67001C11.5898 8.08001 11.2598 8.42001 10.8398 8.42001Z" fill="black"/>
<path d="M10.8398 17.08H7.0498C6.6398 17.08 6.2998 16.74 6.2998 16.33C6.2998 15.92 6.6398 15.58 7.0498 15.58H10.8398C11.2498 15.58 11.5898 15.92 11.5898 16.33C11.5898 16.74 11.2598 17.08 10.8398 17.08Z" fill="black"/>
</svg>
