<svg width="24" height="24" viewBox="0 0 24 24" fill="none" xmlns="http://www.w3.org/2000/svg">
<path d="M10.4299 18.37C10.2799 18.37 10.1399 18.33 10.0099 18.24C9.79991 18.1 9.67991 17.87 9.67991 17.62C9.67991 17.47 9.66991 17.31 9.64991 17.15C9.55991 16.44 9.23991 15.82 8.69991 15.28C8.15991 14.74 7.48991 14.4 6.76991 14.31C6.64991 14.3 6.47991 14.29 6.31991 14.3C6.05991 14.32 5.81991 14.21 5.66991 14C5.51991 13.8 5.47991 13.53 5.55991 13.29C5.70991 12.88 5.92991 12.51 6.18991 12.21L7.72991 10.27C10.3799 6.96001 15.7499 2.98001 19.6799 1.40001C20.5099 1.08001 21.3999 1.27001 22.0099 1.87001C22.6399 2.50001 22.8299 3.40001 22.4999 4.22001C20.9199 8.16001 16.9499 13.52 13.6399 16.17L11.6699 17.75C11.2999 18.02 10.9999 18.19 10.6999 18.31C10.6199 18.35 10.5199 18.37 10.4299 18.37ZM7.53991 12.94C8.37991 13.16 9.12991 13.6 9.75991 14.23C10.3899 14.85 10.8099 15.57 11.0199 16.37L12.7099 15.01C15.8499 12.5 19.6199 7.41001 21.1099 3.67001C21.2599 3.30001 21.0499 3.04001 20.9499 2.95001C20.8799 2.88001 20.6199 2.66001 20.2199 2.81001C16.4999 4.31001 11.4099 8.08001 8.88991 11.22L7.53991 12.94Z" fill="#292D32"/>
<path d="M4.08035 22.75C3.33035 22.75 2.61035 22.45 2.07035 21.91C1.45035 21.29 1.15035 20.43 1.25035 19.55L1.52035 17.09C1.78035 14.65 3.78035 12.84 6.26035 12.79C6.45036 12.78 6.70035 12.79 6.93035 12.81C8.02035 12.95 8.99036 13.44 9.77036 14.22C10.5404 14.99 11.0004 15.91 11.1404 16.94C11.1704 17.16 11.1904 17.4 11.1904 17.61C11.1904 18.93 10.6804 20.16 9.76035 21.09C8.99036 21.85 8.00035 22.32 6.88035 22.46L4.41035 22.73C4.30035 22.74 4.19035 22.75 4.08035 22.75ZM6.45035 14.3C6.41035 14.3 6.36035 14.3 6.32035 14.3C4.81035 14.33 3.21035 15.36 3.01035 17.26L2.74035 19.72C2.69035 20.14 2.84035 20.55 3.13035 20.85C3.42035 21.14 3.83035 21.29 4.24035 21.24L6.70035 20.97C7.47035 20.87 8.16036 20.55 8.68036 20.03C9.32036 19.39 9.68036 18.53 9.68036 17.61C9.68036 17.46 9.67035 17.3 9.65035 17.14C9.56035 16.43 9.24035 15.81 8.70035 15.27C8.16035 14.73 7.49035 14.39 6.77035 14.3C6.69035 14.3 6.57035 14.3 6.45035 14.3Z" fill="#292D32"/>
<path d="M14.2398 15.22C13.8298 15.22 13.4898 14.88 13.4898 14.47C13.4898 12.27 11.6998 10.49 9.50977 10.49C9.09977 10.49 8.75977 10.15 8.75977 9.73999C8.75977 9.32999 9.08977 8.98999 9.49977 8.98999C12.5198 8.98999 14.9798 11.45 14.9798 14.47C14.9898 14.89 14.6498 15.22 14.2398 15.22Z" fill="#292D32"/>
</svg>
