<svg width="24" height="24" viewBox="0 0 24 24" fill="none" xmlns="http://www.w3.org/2000/svg">
<path d="M14.9697 22.75H8.96973C3.53973 22.75 1.21973 20.43 1.21973 15V9C1.21973 3.57 3.53973 1.25 8.96973 1.25H10.9697C11.3797 1.25 11.7197 1.59 11.7197 2C11.7197 2.41 11.3797 2.75 10.9697 2.75H8.96973C4.35973 2.75 2.71973 4.39 2.71973 9V15C2.71973 19.61 4.35973 21.25 8.96973 21.25H14.9697C19.5797 21.25 21.2197 19.61 21.2197 15V13C21.2197 12.59 21.5597 12.25 21.9697 12.25C22.3797 12.25 22.7197 12.59 22.7197 13V15C22.7197 20.43 20.4097 22.75 14.9697 22.75Z" fill="#292D32"/>
<path d="M12.7796 15.24C12.6296 15.24 12.4896 15.2 12.3596 15.11C12.1496 14.97 12.0296 14.74 12.0296 14.49C12.0296 14.38 12.0196 14.26 11.9996 14.14C11.9296 13.61 11.6896 13.14 11.2896 12.73C10.8796 12.32 10.3796 12.06 9.8296 11.99C9.7496 11.98 9.6196 11.97 9.4996 11.98C9.2496 12 8.9996 11.89 8.8496 11.69C8.6996 11.49 8.6596 11.22 8.7396 10.98C8.8596 10.64 9.0496 10.32 9.2696 10.07L10.4996 8.53001C12.6396 5.86001 16.9496 2.66001 20.1296 1.39001C20.8596 1.11001 21.6296 1.27001 22.1596 1.80001C22.7096 2.35001 22.8696 3.13001 22.5796 3.84001C21.3096 7.01001 18.1096 11.33 15.4496 13.46L13.8796 14.72C13.5696 14.94 13.3196 15.09 13.0596 15.19C12.9696 15.22 12.8696 15.24 12.7796 15.24ZM10.7196 10.67C11.3296 10.87 11.8796 11.21 12.3496 11.67C12.8096 12.13 13.1396 12.66 13.3296 13.23L14.5096 12.28C16.9996 10.28 19.9996 6.24001 21.1896 3.27001C21.2696 3.08001 21.1796 2.94001 21.0996 2.85001C21.0496 2.80001 20.9096 2.69001 20.6796 2.78001C17.7196 3.97001 13.6796 6.97001 11.6796 9.46001L10.7196 10.67Z" fill="#292D32"/>
<path d="M7.69999 18.75C7.05999 18.75 6.44999 18.5 5.98999 18.04C5.45999 17.51 5.19999 16.78 5.28999 16.03L5.49999 14.07C5.71999 12.04 7.36999 10.54 9.43999 10.5C9.59999 10.49 9.79999 10.5 9.98999 10.51C10.9 10.63 11.71 11.03 12.35 11.68C12.99 12.32 13.38 13.08 13.49 13.94C13.52 14.13 13.53 14.32 13.53 14.5C13.53 15.59 13.11 16.62 12.34 17.39C11.71 18.02 10.89 18.41 9.95999 18.53L7.97999 18.74C7.87999 18.75 7.78999 18.75 7.69999 18.75ZM9.59999 11.99C9.56999 11.99 9.52999 11.99 9.49999 11.99C8.34999 12.02 7.13999 12.79 6.98999 14.23L6.77999 16.2C6.74999 16.49 6.84999 16.78 7.04999 16.98C7.24999 17.18 7.52999 17.28 7.80999 17.25L9.77999 17.04C10.36 16.97 10.88 16.72 11.27 16.33C11.75 15.84 12.02 15.2 12.02 14.5C12.02 14.39 12.01 14.27 11.99 14.15C11.92 13.62 11.68 13.15 11.28 12.74C10.87 12.33 10.37 12.07 9.81999 12C9.76999 11.99 9.68999 11.99 9.59999 11.99Z" fill="#292D32"/>
<path d="M15.8203 12.73C15.4103 12.73 15.0703 12.39 15.0703 11.98C15.0703 10.31 13.7103 8.94 12.0303 8.94C11.6203 8.94 11.2803 8.6 11.2803 8.19C11.2803 7.78 11.6203 7.44 12.0303 7.44C14.5303 7.44 16.5703 9.47 16.5703 11.98C16.5703 12.39 16.2403 12.73 15.8203 12.73Z" fill="#292D32"/>
</svg>
