<svg width="24" height="24" viewBox="0 0 24 24" fill="none" xmlns="http://www.w3.org/2000/svg">
<path d="M10.61 17.31C10.02 17.31 9.43005 17.0399 8.88005 16.4899L6.49004 14.0999C5.39004 12.9999 5.39004 11.74 6.49004 10.65L10.4801 6.65991C10.6201 6.51991 10.8101 6.43994 11.0101 6.43994C11.2101 6.43994 11.4001 6.51991 11.5401 6.65991L15.93 11.0499C16.18 11.2999 16.31 11.6299 16.31 11.9799C16.31 12.3299 16.1701 12.66 15.9201 12.91L12.33 16.4999C11.79 17.0299 11.2 17.31 10.61 17.31ZM11.0101 8.23993L7.55004 11.7C7.38004 11.87 7.17006 12.1299 7.17006 12.3699C7.17006 12.6099 7.38004 12.86 7.55004 13.04L9.94005 15.43C10.1101 15.6 10.37 15.81 10.61 15.81C10.85 15.81 11.1 15.6 11.28 15.43L14.74 11.9699L11.0101 8.23993Z" fill="#292D32"/>
<path d="M11.0104 7.92996C10.8204 7.92996 10.6304 7.85999 10.4804 7.70999L9.68039 6.90994C9.39039 6.61994 9.39039 6.13995 9.68039 5.84995C9.97039 5.55995 10.4504 5.55995 10.7404 5.84995L11.5404 6.65C11.8304 6.94 11.8304 7.41999 11.5404 7.70999C11.3904 7.85999 11.2004 7.92996 11.0104 7.92996Z" fill="#292D32"/>
<path d="M6.45987 13.08C6.05987 13.08 5.72987 12.77 5.70987 12.36C5.68987 11.95 6.00987 11.6 6.42987 11.58L15.4599 11.19C15.8699 11.16 16.2199 11.49 16.2399 11.91C16.2599 12.33 15.9399 12.6699 15.5199 12.6899L6.48987 13.08C6.47987 13.08 6.46987 13.08 6.45987 13.08Z" fill="#292D32"/>
<path d="M16.4701 17.9499C15.4501 17.9499 14.6201 17.1199 14.6201 16.0999C14.6201 15.1499 15.6201 13.99 15.9201 13.66C16.2001 13.35 16.7401 13.35 17.0201 13.66C17.3201 13.99 18.3201 15.1499 18.3201 16.0999C18.3301 17.1199 17.5001 17.9499 16.4701 17.9499ZM16.4701 15.38C16.2601 15.69 16.1201 15.9699 16.1201 16.0999C16.1201 16.2899 16.2801 16.4499 16.4701 16.4499C16.6601 16.4499 16.8201 16.2899 16.8201 16.0999C16.8301 15.9699 16.6801 15.69 16.4701 15.38Z" fill="#292D32"/>
<path d="M12 22.75C6.07 22.75 1.25 17.93 1.25 12C1.25 6.07 6.07 1.25 12 1.25C17.93 1.25 22.75 6.07 22.75 12C22.75 17.93 17.93 22.75 12 22.75ZM12 2.75C6.9 2.75 2.75 6.9 2.75 12C2.75 17.1 6.9 21.25 12 21.25C17.1 21.25 21.25 17.1 21.25 12C21.25 6.9 17.1 2.75 12 2.75Z" fill="#292D32"/>
</svg>
