<svg width="24" height="24" viewBox="0 0 24 24" fill="none" xmlns="http://www.w3.org/2000/svg">
<path d="M19.9994 11.7501H3.99937C3.76937 11.7501 3.55937 11.6501 3.41937 11.4701C3.27937 11.3001 3.21937 11.0601 3.26937 10.8401L4.39937 5.44008C4.76937 3.69008 5.51937 2.08008 8.48937 2.08008H15.5194C18.4894 2.08008 19.2394 3.70008 19.6094 5.44008L20.7394 10.8501C20.7894 11.0701 20.7294 11.3001 20.5894 11.4801C20.4394 11.6501 20.2294 11.7501 19.9994 11.7501ZM4.91937 10.2501H19.0694L18.1294 5.75008C17.8494 4.44008 17.5194 3.58008 15.5094 3.58008H8.48937C6.47937 3.58008 6.14937 4.44008 5.86937 5.75008L4.91937 10.2501Z" fill="#292D32"/>
<path d="M19.9596 22.7501H18.0796C16.4596 22.7501 16.1496 21.8201 15.9496 21.2101L15.7496 20.6101C15.4896 19.8501 15.4596 19.7501 14.5596 19.7501H9.4396C8.5396 19.7501 8.4796 19.9201 8.2496 20.6101L8.0496 21.2101C7.8396 21.8301 7.5396 22.7501 5.9196 22.7501H4.0396C3.2496 22.7501 2.4896 22.4201 1.9596 21.8401C1.4396 21.2701 1.1896 20.5101 1.2596 19.7501L1.8196 13.6601C1.9696 12.0101 2.4096 10.2501 5.6196 10.2501H18.3796C21.5896 10.2501 22.0196 12.0101 22.1796 13.6601L22.7396 19.7501C22.8096 20.5101 22.5596 21.2701 22.0396 21.8401C21.5096 22.4201 20.7496 22.7501 19.9596 22.7501ZM9.4396 18.2501H14.5596C16.3796 18.2501 16.8096 19.0601 17.1696 20.1201L17.3796 20.7401C17.5496 21.2501 17.5496 21.2601 18.0896 21.2601H19.9696C20.3396 21.2601 20.6896 21.1101 20.9396 20.8401C21.1796 20.5801 21.2896 20.2501 21.2596 19.9001L20.6996 13.8101C20.5696 12.4601 20.4096 11.7601 18.3996 11.7601H5.6196C3.5996 11.7601 3.4396 12.4601 3.3196 13.8101L2.7596 19.9001C2.7296 20.2501 2.8396 20.5801 3.0796 20.8401C3.3196 21.1101 3.6796 21.2601 4.0496 21.2601H5.9296C6.4696 21.2601 6.4696 21.2501 6.6396 20.7501L6.8396 20.1401C7.0896 19.3401 7.4596 18.2501 9.4396 18.2501Z" fill="#292D32"/>
<path d="M3.99951 8.75012H2.99951C2.58951 8.75012 2.24951 8.41012 2.24951 8.00012C2.24951 7.59012 2.58951 7.25012 2.99951 7.25012H3.99951C4.40951 7.25012 4.74951 7.59012 4.74951 8.00012C4.74951 8.41012 4.40951 8.75012 3.99951 8.75012Z" fill="#292D32"/>
<path d="M20.9995 8.75012H19.9995C19.5895 8.75012 19.2495 8.41012 19.2495 8.00012C19.2495 7.59012 19.5895 7.25012 19.9995 7.25012H20.9995C21.4095 7.25012 21.7495 7.59012 21.7495 8.00012C21.7495 8.41012 21.4095 8.75012 20.9995 8.75012Z" fill="#292D32"/>
<path d="M11.9995 5.75012C11.5895 5.75012 11.2495 5.41012 11.2495 5.00012V3.00012C11.2495 2.59012 11.5895 2.25012 11.9995 2.25012C12.4095 2.25012 12.7495 2.59012 12.7495 3.00012V5.00012C12.7495 5.41012 12.4095 5.75012 11.9995 5.75012Z" fill="#292D32"/>
<path d="M13.4995 5.75012H10.4995C10.0895 5.75012 9.74951 5.41012 9.74951 5.00012C9.74951 4.59012 10.0895 4.25012 10.4995 4.25012H13.4995C13.9095 4.25012 14.2495 4.59012 14.2495 5.00012C14.2495 5.41012 13.9095 5.75012 13.4995 5.75012Z" fill="#292D32"/>
<path d="M8.99951 15.7501H5.99951C5.58951 15.7501 5.24951 15.4101 5.24951 15.0001C5.24951 14.5901 5.58951 14.2501 5.99951 14.2501H8.99951C9.40951 14.2501 9.74951 14.5901 9.74951 15.0001C9.74951 15.4101 9.40951 15.7501 8.99951 15.7501Z" fill="#292D32"/>
<path d="M17.9995 15.7501H14.9995C14.5895 15.7501 14.2495 15.4101 14.2495 15.0001C14.2495 14.5901 14.5895 14.2501 14.9995 14.2501H17.9995C18.4095 14.2501 18.7495 14.5901 18.7495 15.0001C18.7495 15.4101 18.4095 15.7501 17.9995 15.7501Z" fill="#292D32"/>
</svg>
