<svg width="24" height="24" viewBox="0 0 24 24" fill="none" xmlns="http://www.w3.org/2000/svg">
<path d="M3.93012 16.63C3.74012 16.63 3.55012 16.56 3.40012 16.41C3.11012 16.12 3.11012 15.64 3.40012 15.35L15.3501 3.4C15.6401 3.11 16.1201 3.11 16.4101 3.4C16.7001 3.69 16.7001 4.17 16.4101 4.46L4.46012 16.42C4.32012 16.56 4.12012 16.63 3.93012 16.63Z" fill="#292D32"/>
<path d="M11.1 19.03C10.91 19.03 10.72 18.96 10.57 18.81C10.28 18.52 10.28 18.04 10.57 17.75L11.77 16.55C12.06 16.26 12.54 16.26 12.83 16.55C13.12 16.84 13.12 17.32 12.83 17.61L11.63 18.81C11.49 18.95 11.3 19.03 11.1 19.03Z" fill="#292D32"/>
<path d="M13.79 16.34C13.6 16.34 13.41 16.27 13.26 16.12C12.97 15.83 12.97 15.35 13.26 15.06L15.65 12.67C15.94 12.38 16.42 12.38 16.71 12.67C17 12.96 17 13.44 16.71 13.73L14.32 16.12C14.18 16.26 13.98 16.34 13.79 16.34Z" fill="#292D32"/>
<path d="M11.0999 22.75C10.1199 22.75 9.13991 22.15 7.94991 20.96L3.03991 16.05C0.649914 13.66 0.659914 12.12 3.06991 9.71L9.70991 3.07C12.1199 0.659998 13.6599 0.649998 16.0499 3.04L20.9599 7.95C23.3499 10.34 23.3399 11.88 20.9299 14.29L14.2899 20.93C13.0799 22.14 12.0899 22.75 11.0999 22.75ZM12.8999 2.75C12.3799 2.75 11.7199 3.18 10.7699 4.13L4.12991 10.77C3.17991 11.72 2.74991 12.38 2.74991 12.89C2.74991 13.41 3.14991 14.04 4.09991 14.99L9.00991 19.9C9.95991 20.85 10.5799 21.25 11.0999 21.25C11.0999 21.25 11.0999 21.25 11.1099 21.25C11.6299 21.25 12.2799 20.82 13.2299 19.87L19.8699 13.23C20.8199 12.28 21.2499 11.62 21.2499 11.11C21.2499 10.59 20.8499 9.96 19.8999 9.01L14.9899 4.1C14.0499 3.15 13.4199 2.75 12.8999 2.75Z" fill="#292D32"/>
<path d="M22 22.75H2C1.59 22.75 1.25 22.41 1.25 22C1.25 21.59 1.59 21.25 2 21.25H22C22.41 21.25 22.75 21.59 22.75 22C22.75 22.41 22.41 22.75 22 22.75Z" fill="#292D32"/>
</svg>
