<svg width="24" height="24" viewBox="0 0 24 24" fill="none" xmlns="http://www.w3.org/2000/svg">
<path d="M10.4299 18.37C10.2799 18.37 10.1399 18.33 10.0099 18.24C9.79991 18.1 9.67991 17.87 9.67991 17.62C9.67991 17.47 9.66991 17.31 9.64991 17.15C9.55991 16.44 9.23991 15.82 8.69991 15.28C8.15991 14.74 7.48991 14.4 6.76991 14.31C6.64991 14.3 6.47991 14.29 6.31991 14.3C6.05991 14.32 5.81991 14.21 5.66991 14C5.51991 13.8 5.47991 13.53 5.55991 13.29C5.70991 12.88 5.92991 12.51 6.18991 12.21L7.72991 10.27C10.3799 6.96001 15.7499 2.98001 19.6799 1.40001C20.5199 1.08001 21.3999 1.27001 22.0099 1.87001C22.6399 2.50001 22.8299 3.40001 22.4999 4.22001C20.9199 8.16001 16.9499 13.52 13.6399 16.17L11.6699 17.75C11.2999 18.02 10.9999 18.19 10.6999 18.31C10.6199 18.35 10.5199 18.37 10.4299 18.37ZM7.53991 12.94C8.37991 13.16 9.12991 13.6 9.75991 14.23C10.3899 14.85 10.8099 15.57 11.0199 16.37L12.7099 15.01C15.8499 12.5 19.6199 7.41001 21.1099 3.67001C21.2599 3.30001 21.0499 3.04001 20.9499 2.95001C20.8799 2.88001 20.6199 2.66001 20.2199 2.81001C16.4999 4.31001 11.4099 8.08001 8.88991 11.22L7.53991 12.94Z" fill="#292D32"/>
<path d="M4.08035 22.75C3.33035 22.75 2.61035 22.45 2.07035 21.91C1.45035 21.29 1.15035 20.43 1.25035 19.55L1.52035 17.09C1.78035 14.65 3.78035 12.84 6.26035 12.79C6.45036 12.78 6.70035 12.79 6.93035 12.81C8.02035 12.95 8.99036 13.44 9.77036 14.22C10.5404 14.99 11.0004 15.91 11.1404 16.94C11.1704 17.16 11.1904 17.4 11.1904 17.61C11.1904 18.93 10.6804 20.16 9.76035 21.09C8.99036 21.85 8.00035 22.32 6.88035 22.46L4.41035 22.73C4.30035 22.74 4.19035 22.75 4.08035 22.75ZM6.45035 14.3C6.41035 14.3 6.36035 14.3 6.32035 14.3C4.81035 14.33 3.21035 15.36 3.01035 17.26L2.74035 19.72C2.69035 20.14 2.84035 20.55 3.13035 20.85C3.42035 21.14 3.83035 21.29 4.24035 21.24L6.70035 20.97C7.47035 20.87 8.16036 20.55 8.68036 20.03C9.32036 19.39 9.68036 18.53 9.68036 17.61C9.68036 17.46 9.67035 17.3 9.65035 17.14C9.56035 16.43 9.24035 15.81 8.70035 15.27C8.16035 14.73 7.49035 14.39 6.77035 14.3C6.69035 14.3 6.57035 14.3 6.45035 14.3Z" fill="#292D32"/>
<path d="M14.2398 15.22C13.8298 15.22 13.4898 14.88 13.4898 14.47C13.4898 12.27 11.6998 10.49 9.50977 10.49C9.09977 10.49 8.75977 10.15 8.75977 9.73999C8.75977 9.32999 9.08977 8.98999 9.49977 8.98999C12.5198 8.98999 14.9798 11.45 14.9798 14.47C14.9898 14.89 14.6498 15.22 14.2398 15.22Z" fill="#292D32"/>
<path d="M15.6804 22.73C14.7504 22.73 13.8204 22.29 12.9304 21.4C12.6404 21.11 12.6404 20.63 12.9304 20.34C13.2204 20.05 13.7004 20.05 13.9904 20.34C15.1704 21.52 16.1804 21.52 17.3604 20.34L20.3204 17.38C21.5104 16.19 21.5104 15.18 20.3204 14L19.5804 13.27C19.2904 12.98 19.2804 12.5 19.5704 12.21C19.8604 11.91 20.3404 11.91 20.6304 12.2L21.3704 12.93C23.1504 14.71 23.1504 16.66 21.3704 18.44L18.4104 21.4C17.5404 22.28 16.6104 22.73 15.6804 22.73Z" fill="#292D32"/>
<path d="M3.10977 11.26C2.91977 11.26 2.71977 11.19 2.57977 11.04C0.819766 9.27001 0.819766 7.31001 2.57977 5.54001L5.53977 2.58001C7.29977 0.82001 9.27977 0.82001 11.0398 2.58001L11.7798 3.32001C12.0698 3.61001 12.0698 4.09001 11.7798 4.38001C11.4898 4.67001 11.0098 4.67001 10.7198 4.38001L9.96977 3.64001C8.78977 2.46001 7.76977 2.46001 6.59977 3.64001L3.63977 6.60001C2.45977 7.79001 2.45977 8.80001 3.63977 9.99001C3.92977 10.28 3.92977 10.76 3.63977 11.05C3.48977 11.19 3.29977 11.26 3.10977 11.26Z" fill="#292D32"/>
<path d="M7.55023 8.30001C7.36023 8.30001 7.17023 8.23001 7.02023 8.08001C6.73023 7.79001 6.73023 7.31001 7.02023 7.02001L10.7202 3.32001C11.0102 3.03001 11.4902 3.03001 11.7802 3.32001C12.0702 3.61001 12.0702 4.09001 11.7802 4.38001L8.08023 8.08001C7.93023 8.23001 7.74023 8.30001 7.55023 8.30001Z" fill="#292D32"/>
<path d="M17.1596 16.43C16.9696 16.43 16.7796 16.36 16.6296 16.21C16.3396 15.92 16.3396 15.44 16.6296 15.15L19.5896 12.19C19.8796 11.9 20.3596 11.9 20.6496 12.19C20.9396 12.48 20.9396 12.96 20.6496 13.25L17.6896 16.21C17.5496 16.36 17.3596 16.43 17.1596 16.43Z" fill="#292D32"/>
</svg>
