<svg width="24" height="24" viewBox="0 0 24 24" fill="none" xmlns="http://www.w3.org/2000/svg">
<path d="M12 8.75C11.9 8.75 11.81 8.73 11.71 8.69C11.43 8.58 11.25 8.3 11.25 8V2C11.25 1.59 11.59 1.25 12 1.25C12.41 1.25 12.75 1.59 12.75 2V6.19L13.47 5.47C13.76 5.18 14.24 5.18 14.53 5.47C14.82 5.76 14.82 6.24 14.53 6.53L12.53 8.53C12.39 8.67 12.19 8.75 12 8.75Z" fill="#292D32"/>
<path d="M12.0004 8.75C11.8104 8.75 11.6204 8.68 11.4704 8.53L9.47043 6.53C9.18043 6.24 9.18043 5.76 9.47043 5.47C9.76043 5.18 10.2404 5.18 10.5304 5.47L12.5304 7.47C12.8204 7.76 12.8204 8.24 12.5304 8.53C12.3804 8.68 12.1904 8.75 12.0004 8.75Z" fill="#292D32"/>
<path d="M16 22.75H8C2.25 22.75 2.25 19.7 2.25 17V16C2.25 13.77 2.25 11.25 7 11.25C8.19 11.25 8.63 11.54 9.25 12C9.28 12.03 9.32 12.05 9.35 12.09L10.37 13.17C11.23 14.08 12.79 14.08 13.65 13.17L14.67 12.09C14.7 12.06 14.73 12.03 14.77 12C15.39 11.53 15.83 11.25 17.02 11.25C21.77 11.25 21.77 13.77 21.77 16V17C21.75 20.82 19.82 22.75 16 22.75ZM7 12.75C3.75 12.75 3.75 13.77 3.75 16V17C3.75 19.74 3.75 21.25 8 21.25H16C18.98 21.25 20.25 19.98 20.25 17V16C20.25 13.77 20.25 12.75 17 12.75C16.28 12.75 16.13 12.84 15.7 13.16L14.73 14.19C14.01 14.95 13.04 15.37 12 15.37C10.96 15.37 9.99 14.95 9.27 14.19L8.3 13.16C7.87 12.84 7.72 12.75 7 12.75Z" fill="#292D32"/>
<path d="M5 12.75C4.59 12.75 4.25 12.41 4.25 12V7.99999C4.25 6.05999 4.25 3.64999 7.93 3.29999C8.34 3.25999 8.71 3.55999 8.75 3.97999C8.79 4.38999 8.49 4.75999 8.07 4.79999C5.75 5.00999 5.75 5.94999 5.75 7.99999V12C5.75 12.41 5.41 12.75 5 12.75Z" fill="#292D32"/>
<path d="M19.0004 12.75C18.5904 12.75 18.2504 12.41 18.2504 12V8.00001C18.2504 5.95001 18.2504 5.01001 15.9304 4.79001C15.5204 4.75001 15.2204 4.38001 15.2604 3.97001C15.3004 3.56001 15.6604 3.25001 16.0804 3.30001C19.7604 3.65001 19.7604 6.06001 19.7604 8.00001V12C19.7504 12.41 19.4104 12.75 19.0004 12.75Z" fill="#292D32"/>
</svg>
