<svg width="24" height="24" viewBox="0 0 24 24" fill="none" xmlns="http://www.w3.org/2000/svg">
<path d="M12.0004 9.74999C11.5904 9.74999 11.2504 9.40999 11.2504 8.99999V3.80999L10.5304 4.52999C10.2404 4.81999 9.76043 4.81999 9.47043 4.52999C9.18043 4.23999 9.18043 3.75999 9.47043 3.46999L11.4704 1.46999C11.6804 1.25999 12.0104 1.18999 12.2904 1.30999C12.5704 1.41999 12.7504 1.69999 12.7504 1.99999V8.99999C12.7504 9.40999 12.4104 9.74999 12.0004 9.74999Z" fill="#292D32"/>
<path d="M14.0004 4.75C13.8104 4.75 13.6204 4.68 13.4704 4.53L11.4704 2.53C11.1804 2.24 11.1804 1.76 11.4704 1.47C11.7604 1.18 12.2404 1.18 12.5304 1.47L14.5304 3.47C14.8204 3.76 14.8204 4.24 14.5304 4.53C14.3804 4.68 14.1904 4.75 14.0004 4.75Z" fill="#292D32"/>
<path d="M13.7605 17.75H10.2305C9.18047 17.75 8.24047 17.17 7.77047 16.23L6.60047 13.89C6.56047 13.8 6.47047 13.75 6.38047 13.75H1.98047C1.57047 13.75 1.23047 13.41 1.23047 13C1.23047 12.59 1.57047 12.25 1.98047 12.25H6.39047C7.06047 12.25 7.66047 12.62 7.96047 13.22L9.13047 15.56C9.34047 15.99 9.77047 16.25 10.2505 16.25H13.7805C14.2605 16.25 14.6905 15.99 14.9005 15.56L16.0705 13.22C16.3705 12.62 16.9705 12.25 17.6405 12.25H22.0005C22.4105 12.25 22.7505 12.59 22.7505 13C22.7505 13.41 22.4105 13.75 22.0005 13.75H17.6405C17.5405 13.75 17.4605 13.8 17.4205 13.89L16.2505 16.23C15.7505 17.17 14.8105 17.75 13.7605 17.75Z" fill="#292D32"/>
<path d="M15 22.75H9C3.57 22.75 1.25 20.43 1.25 15V12C1.25 7.30999 2.99 4.95999 6.89 4.38999C7.31 4.32999 7.68 4.60999 7.74 5.01999C7.8 5.42999 7.52 5.80999 7.11 5.86999C3.97 6.32999 2.75 8.04999 2.75 12V15C2.75 19.61 4.39 21.25 9 21.25H15C19.61 21.25 21.25 19.61 21.25 15V12C21.25 8.04999 20.03 6.32999 16.89 5.86999C16.48 5.80999 16.2 5.42999 16.26 5.01999C16.32 4.60999 16.7 4.32999 17.11 4.38999C21.01 4.95999 22.75 7.30999 22.75 12V15C22.75 20.43 20.43 22.75 15 22.75Z" fill="#292D32"/>
</svg>
