<svg width="24" height="24" viewBox="0 0 24 24" fill="none" xmlns="http://www.w3.org/2000/svg">
<path d="M12.0004 8.74999C11.5904 8.74999 11.2504 8.40999 11.2504 7.99999V3.80999L10.5304 4.52999C10.2404 4.81999 9.76043 4.81999 9.47043 4.52999C9.18043 4.23999 9.18043 3.75999 9.47043 3.46999L11.4704 1.46999C11.6804 1.25999 12.0104 1.18999 12.2904 1.30999C12.5704 1.41999 12.7504 1.69999 12.7504 1.99999V7.99999C12.7504 8.40999 12.4104 8.74999 12.0004 8.74999Z" fill="#292D32"/>
<path d="M14.0004 4.75C13.8104 4.75 13.6204 4.68 13.4704 4.53L11.4704 2.53C11.1804 2.24 11.1804 1.76 11.4704 1.47C11.7604 1.18 12.2404 1.18 12.5304 1.47L14.5304 3.47C14.8204 3.76 14.8204 4.24 14.5304 4.53C14.3804 4.68 14.1904 4.75 14.0004 4.75Z" fill="#292D32"/>
<path d="M16 22.75H8C2.25 22.75 2.25 19.7 2.25 17V16C2.25 13.77 2.25 11.25 7 11.25C8.19 11.25 8.63 11.54 9.25 12C9.28 12.03 9.32 12.05 9.35 12.09L10.37 13.17C11.23 14.08 12.79 14.08 13.65 13.17L14.67 12.09C14.7 12.06 14.73 12.03 14.77 12C15.39 11.53 15.83 11.25 17.02 11.25C21.77 11.25 21.77 13.77 21.77 16V17C21.75 20.82 19.82 22.75 16 22.75ZM7 12.75C3.75 12.75 3.75 13.77 3.75 16V17C3.75 19.74 3.75 21.25 8 21.25H16C18.98 21.25 20.25 19.98 20.25 17V16C20.25 13.77 20.25 12.75 17 12.75C16.28 12.75 16.13 12.84 15.7 13.16L14.73 14.19C14.01 14.95 13.04 15.37 12 15.37C10.96 15.37 9.99 14.95 9.27 14.19L8.3 13.16C7.87 12.84 7.72 12.75 7 12.75Z" fill="#292D32"/>
<path d="M5 12.75C4.59 12.75 4.25 12.41 4.25 12V10C4.25 8.06 4.25 5.65 7.93 5.3C8.33 5.25 8.71 5.56 8.75 5.98C8.79 6.39 8.49 6.76 8.07 6.8C5.75 7.01 5.75 7.95 5.75 10V12C5.75 12.41 5.41 12.75 5 12.75Z" fill="#292D32"/>
<path d="M19.0004 12.75C18.5904 12.75 18.2504 12.41 18.2504 12V10C18.2504 7.95001 18.2504 7.01001 15.9304 6.79001C15.5204 6.75001 15.2204 6.38001 15.2604 5.97001C15.3004 5.56001 15.6604 5.25001 16.0804 5.30001C19.7604 5.65001 19.7604 8.06001 19.7604 10V12C19.7504 12.41 19.4104 12.75 19.0004 12.75Z" fill="#292D32"/>
</svg>
