<svg width="24" height="24" viewBox="0 0 24 24" fill="none" xmlns="http://www.w3.org/2000/svg">
<path d="M11.9998 21.75C10.5298 21.75 9.18985 20.94 8.50985 19.64L2.40985 8.05001C1.58985 6.50001 1.85985 4.70001 3.07985 3.45001C4.29985 2.20001 6.09985 1.90001 7.65985 2.68001L10.8998 4.30001C11.5798 4.64001 12.3998 4.64001 13.0898 4.30001L16.3298 2.68001C17.8998 1.90001 19.6998 2.20001 20.9198 3.45001C22.1398 4.70001 22.4098 6.50001 21.5898 8.05001L15.4898 19.64C14.8098 20.94 13.4698 21.75 11.9998 21.75ZM5.87985 3.75001C5.16985 3.75001 4.54985 4.09001 4.14985 4.50001C3.54985 5.12001 3.11985 6.19001 3.72985 7.35001L9.82985 18.94C10.2598 19.76 11.0698 20.25 11.9898 20.25C12.9098 20.25 13.7198 19.76 14.1498 18.94L20.2498 7.35001C20.8598 6.19001 20.4398 5.11001 19.8298 4.50001C19.2298 3.89001 18.1698 3.44001 16.9898 4.02001L13.7498 5.64001C12.6398 6.19001 11.3298 6.19001 10.2198 5.64001L6.98985 4.02001C6.60985 3.83001 6.22985 3.75001 5.87985 3.75001Z" fill="#292D32"/>
</svg>
