<svg width="24" height="24" viewBox="0 0 24 24" fill="none" xmlns="http://www.w3.org/2000/svg">
<path d="M15 22.75H9C3.57 22.75 1.25 20.43 1.25 15V9C1.25 3.57 3.57 1.25 9 1.25H14C14.41 1.25 14.75 1.59 14.75 2C14.75 2.41 14.41 2.75 14 2.75H9C4.39 2.75 2.75 4.39 2.75 9V15C2.75 19.61 4.39 21.25 9 21.25H15C19.61 21.25 21.25 19.61 21.25 15V10C21.25 9.59 21.59 9.25 22 9.25C22.41 9.25 22.75 9.59 22.75 10V15C22.75 20.43 20.43 22.75 15 22.75Z" fill="#292D32"/>
<path d="M22 10.75H18C14.58 10.75 13.25 9.41999 13.25 5.99999V1.99999C13.25 1.69999 13.43 1.41999 13.71 1.30999C13.99 1.18999 14.31 1.25999 14.53 1.46999L22.53 9.46999C22.74 9.67999 22.81 10.01 22.69 10.29C22.58 10.57 22.3 10.75 22 10.75ZM14.75 3.80999V5.99999C14.75 8.57999 15.42 9.24999 18 9.24999H20.19L14.75 3.80999Z" fill="#292D32"/>
<path d="M9.64966 18.71C9.20966 18.71 8.78966 18.54 8.47966 18.23L6.01966 15.77C5.47966 15.23 5.38966 14.32 5.80966 13.68L6.93966 11.98C7.21966 11.55 7.79966 11.24 8.31966 11.24H10.9697C11.4797 11.24 12.0597 11.55 12.3497 11.98L13.4797 13.67C13.8997 14.3 13.8097 15.22 13.2697 15.76L10.8097 18.22C10.5097 18.54 10.0897 18.71 9.64966 18.71ZM8.32966 12.75C8.28966 12.76 8.20966 12.8 8.18966 12.83L7.06966 14.52C7.03966 14.56 7.04966 14.68 7.08966 14.72L9.54966 17.18C9.59966 17.23 9.71966 17.23 9.76966 17.18L12.2297 14.72C12.2697 14.68 12.2797 14.57 12.2497 14.52L11.1197 12.83C11.0997 12.81 11.0197 12.77 10.9797 12.76L8.32966 12.75Z" fill="#292D32"/>
</svg>
