<svg width="24" height="24" viewBox="0 0 24 24" fill="none" xmlns="http://www.w3.org/2000/svg">
<path d="M15 22.75H9C3.57 22.75 1.25 20.43 1.25 15V9C1.25 3.57 3.57 1.25 9 1.25H15C20.43 1.25 22.75 3.57 22.75 9V15C22.75 20.43 20.43 22.75 15 22.75ZM9 2.75C4.39 2.75 2.75 4.39 2.75 9V15C2.75 19.61 4.39 21.25 9 21.25H15C19.61 21.25 21.25 19.61 21.25 15V9C21.25 4.39 19.61 2.75 15 2.75H9Z" fill="#292D32"/>
<path d="M10.6404 9.5C10.4504 9.5 10.2604 9.43 10.1104 9.28C9.40043 8.57 8.24043 8.57 7.53043 9.28C7.24043 9.57 6.76043 9.57 6.47043 9.28C6.18043 8.99 6.18043 8.51 6.47043 8.22C7.76043 6.93 9.87043 6.93 11.1704 8.22C11.4604 8.51 11.4604 8.99 11.1704 9.28C11.0204 9.43 10.8304 9.5 10.6404 9.5Z" fill="#292D32"/>
<path d="M13.3598 9.5C13.1698 9.5 12.9798 9.43 12.8298 9.28C12.5398 8.99 12.5398 8.51 12.8298 8.22C14.1198 6.93 16.2298 6.93 17.5298 8.22C17.8198 8.51 17.8198 8.99 17.5298 9.28C17.2398 9.57 16.7598 9.57 16.4698 9.28C15.7598 8.57 14.5998 8.57 13.8898 9.28C13.7498 9.43 13.5598 9.5 13.3598 9.5Z" fill="#292D32"/>
<path d="M15.6 18.45H8.4C7.49 18.45 6.75 17.71 6.75 16.8C6.75 13.91 9.1 11.55 12 11.55C14.9 11.55 17.25 13.91 17.25 16.8C17.25 17.71 16.51 18.45 15.6 18.45ZM12 13.05C9.93 13.05 8.25 14.73 8.25 16.8C8.25 16.88 8.32 16.95 8.4 16.95H15.6C15.68 16.95 15.75 16.88 15.75 16.8C15.75 14.73 14.07 13.05 12 13.05Z" fill="#292D32"/>
</svg>
