<svg width="24" height="24" viewBox="0 0 24 24" fill="none" xmlns="http://www.w3.org/2000/svg">
<path d="M11.9999 22.5C11.5999 22.5 11.1999 22.41 10.8799 22.23L5.55992 19.19C4.75992 18.73 4.28992 17.7 4.46992 16.79L6.17991 8.22C6.24991 7.89 6.43992 7.48 6.65992 7.22L10.2599 2.9C11.1499 1.83 12.8299 1.83 13.7199 2.9L17.3199 7.22C17.5399 7.48 17.7299 7.89 17.7999 8.22L19.5099 16.79C19.6899 17.7 19.2199 18.73 18.4199 19.18L13.0999 22.22C12.7999 22.41 12.3999 22.5 11.9999 22.5ZM11.9999 3.56C11.7899 3.56 11.5899 3.67 11.4199 3.86L7.81993 8.18C7.76993 8.24 7.67992 8.43 7.65992 8.51L5.94993 17.08C5.89993 17.35 6.07992 17.74 6.30992 17.88L11.6299 20.92C11.8099 21.02 12.1999 21.02 12.3699 20.92L17.6899 17.88C17.9299 17.74 18.1099 17.35 18.0499 17.08L16.3399 8.51C16.3199 8.43 16.2299 8.24 16.1799 8.18L12.5799 3.86C12.4099 3.67 12.2099 3.56 11.9999 3.56Z" fill="black"/>
<path d="M12.0004 21.76C11.4604 21.76 11.0004 21.43 10.8204 20.93L6.47042 8.75C6.33042 8.36 6.53043 7.93 6.92043 7.79C7.31043 7.65 7.74043 7.85 7.88043 8.24L12.0004 19.77L16.1104 8.27C16.2504 7.88 16.6804 7.68 17.0704 7.82C17.4604 7.96 17.6604 8.39 17.5204 8.78L13.1804 20.94C13.0004 21.44 12.5404 21.76 12.0004 21.76Z" fill="black"/>
</svg>
