<svg width="24" height="24" viewBox="0 0 24 24" fill="none" xmlns="http://www.w3.org/2000/svg">
<path d="M17.2802 9.89001C17.1202 9.89001 16.9501 9.86001 16.7901 9.79001L12.0202 7.67001L7.20018 9.79001C6.70018 10.01 6.11019 9.87001 5.77019 9.43001C5.43019 8.99001 5.44016 8.38001 5.80016 7.96001L10.8002 1.85001C11.4102 1.10001 12.5902 1.10001 13.2102 1.85001L18.2102 7.96001C18.5602 8.39001 18.5702 8.99001 18.2402 9.43001C17.9902 9.72001 17.6402 9.89001 17.2802 9.89001ZM12.0002 6.16001C12.2102 6.16001 12.4302 6.20001 12.6302 6.29001L16.2102 7.88001L12.0401 2.79001L7.81017 7.87001L11.3702 6.29001C11.5702 6.20001 11.7802 6.16001 12.0002 6.16001Z" fill="black"/>
<path d="M11.9995 22.75C11.5395 22.75 11.0995 22.54 10.7995 22.16L5.7995 16.05C5.4495 15.62 5.43953 15.02 5.76953 14.58C6.10953 14.14 6.68953 13.99 7.19953 14.21L11.9795 16.33L16.7995 14.21C17.3095 13.99 17.8895 14.14 18.2295 14.58C18.5595 15.02 18.5495 15.62 18.1995 16.05L13.1995 22.16C12.8995 22.54 12.4595 22.75 11.9995 22.75ZM7.78949 16.12L11.9495 21.21L16.1795 16.13L12.6295 17.71C12.2295 17.89 11.7695 17.89 11.3695 17.71L7.78949 16.12Z" fill="black"/>
<path d="M12 15.37C11.88 15.37 11.77 15.34 11.67 15.29L6.41998 12.67C6.16998 12.54 6 12.28 6 12C6 11.72 6.15998 11.46 6.41998 11.33L11.67 8.71C11.88 8.6 12.13 8.6 12.34 8.71L17.59 11.33C17.84 11.46 18.01 11.72 18.01 12C18.01 12.28 17.85 12.54 17.59 12.67L12.34 15.29C12.23 15.35 12.12 15.37 12 15.37ZM8.42999 12L12 13.78L15.57 12L12 10.22L8.42999 12Z" fill="black"/>
</svg>
