<svg width="24" height="24" viewBox="0 0 24 24" fill="none" xmlns="http://www.w3.org/2000/svg">
<path d="M3.95001 18.36C3.49001 18.36 3.02001 18.24 2.60001 17.99C1.75001 17.5 1.25 16.63 1.25 15.65V8.32999C1.25 7.34999 1.75001 6.48 2.60001 5.99C3.45001 5.5 4.45999 5.5 5.29999 5.99L11.64 9.65C11.93 9.82 12.16 10.02 12.34 10.24C12.45 10.37 12.51 10.54 12.51 10.71V13.27C12.51 13.44 12.45 13.61 12.34 13.74C12.16 13.96 11.93 14.16 11.66 14.32L5.29999 18C4.87999 18.24 4.42001 18.36 3.95001 18.36ZM3.95001 7.14002C3.74001 7.14002 3.54001 7.19 3.35001 7.3C2.97001 7.52 2.75 7.91 2.75 8.34V15.66C2.75 16.09 2.97001 16.48 3.35001 16.7C3.73001 16.92 4.16999 16.92 4.54999 16.7L10.89 13.04C10.93 13.02 10.97 12.99 11 12.96V11.03C10.96 11 10.92 10.97 10.88 10.95L4.54999 7.3C4.35999 7.19 4.16001 7.14002 3.95001 7.14002Z" fill="#292D32"/>
<path d="M13.7097 18.36C13.2497 18.36 12.7797 18.24 12.3597 17.99C11.5097 17.5 11.0098 16.63 11.0098 15.65V8.32999C11.0098 7.34999 11.5097 6.48 12.3597 5.99C13.2097 5.5 14.2198 5.5 15.0598 5.99L21.3997 9.65C22.2397 10.14 22.7498 11.01 22.7498 11.99C22.7498 12.97 22.2498 13.84 21.3997 14.33L15.0598 17.99C14.6398 18.24 14.1697 18.36 13.7097 18.36ZM13.7097 7.14002C13.4997 7.14002 13.2997 7.19 13.1097 7.3C12.7297 7.52 12.5098 7.9 12.5098 8.34V15.66C12.5098 16.09 12.7297 16.48 13.1097 16.7C13.4897 16.92 13.9398 16.92 14.3098 16.7L20.6497 13.04C21.0297 12.82 21.2498 12.43 21.2498 12C21.2498 11.57 21.0297 11.18 20.6497 10.96L14.3098 7.3C14.1198 7.19 13.9197 7.14002 13.7097 7.14002Z" fill="#292D32"/>
</svg>
