<svg width="24" height="24" viewBox="0 0 24 24" fill="none" xmlns="http://www.w3.org/2000/svg">
<path d="M15 22.75H9C3.57 22.75 1.25 20.43 1.25 15V9C1.25 3.57 3.57 1.25 9 1.25H15C20.43 1.25 22.75 3.57 22.75 9V15C22.75 20.43 20.43 22.75 15 22.75ZM9 2.75C4.39 2.75 2.75 4.39 2.75 9V15C2.75 19.61 4.39 21.25 9 21.25H15C19.61 21.25 21.25 19.61 21.25 15V9C21.25 4.39 19.61 2.75 15 2.75H9Z" fill="#292D32"/>
<path d="M15 16.13H10.08C7.97 16.13 6.25 14.41 6.25 12.3C6.25 10.19 7.97 8.46997 10.08 8.46997H16.85C17.26 8.46997 17.6 8.80997 17.6 9.21997C17.6 9.62997 17.26 9.96997 16.85 9.96997H10.08C8.8 9.96997 7.75 11.01 7.75 12.3C7.75 13.59 8.79 14.63 10.08 14.63H15C15.41 14.63 15.75 14.97 15.75 15.38C15.75 15.79 15.41 16.13 15 16.13Z" fill="#292D32"/>
<path d="M15.4301 11.52C15.2401 11.52 15.0501 11.45 14.9001 11.3C14.6101 11.01 14.6101 10.53 14.9001 10.24L15.9401 9.20001L14.9001 8.16001C14.6101 7.87001 14.6101 7.39001 14.9001 7.10001C15.1901 6.81001 15.6701 6.81001 15.9601 7.10001L17.5301 8.67001C17.8201 8.96001 17.8201 9.44001 17.5301 9.73001L15.9601 11.3C15.8101 11.44 15.6201 11.52 15.4301 11.52Z" fill="#292D32"/>
</svg>
