<svg width="24" height="24" viewBox="0 0 24 24" fill="none" xmlns="http://www.w3.org/2000/svg">
<path d="M15.8402 22.75H8.16024C5.48024 22.75 4.26024 21.75 3.72024 20.92C2.93024 19.7 2.96024 18.03 3.81024 16.09L7.64024 7.39C7.11024 7.25 6.62024 6.97 6.23024 6.58C5.66024 6 5.32024 5.2 5.32024 4.37C5.32024 2.65 6.72024 1.25 8.44024 1.25H15.5502C16.3802 1.25 17.1702 1.58 17.7602 2.17C18.5402 2.95 18.8502 4.06 18.5902 5.13C18.3302 6.2 17.4502 7.05 16.3702 7.36L20.1902 16.1C21.0302 18.03 21.0602 19.7 20.2602 20.92C19.7202 21.75 18.5002 22.75 15.8402 22.75ZM8.44024 2.75C7.55024 2.75 6.82024 3.48 6.82024 4.37C6.82024 4.8 7.00024 5.22 7.29024 5.52C7.59024 5.82 8.01024 5.99 8.44024 5.99H8.74024C8.99024 5.99 9.23024 6.12 9.37024 6.33C9.51024 6.54 9.53024 6.81 9.43024 7.04L5.18024 16.69C4.55024 18.13 4.47024 19.34 4.97024 20.1C5.59024 21.05 7.04024 21.25 8.15024 21.25H15.8302C16.9302 21.25 18.3702 21.05 19.0002 20.1C19.5002 19.33 19.4302 18.13 18.8102 16.7L14.6002 7.04C14.5002 6.81 14.5202 6.54 14.6602 6.33C14.8002 6.12 15.0302 5.99 15.2902 5.99H15.4502C16.2502 5.99 16.9702 5.48 17.1402 4.77C17.2802 4.2 17.1202 3.64 16.7102 3.23C16.4002 2.92 15.9902 2.75 15.5602 2.75H8.44024Z" fill="#292D32"/>
<path d="M13.8396 15.04C13.1796 15.04 12.4696 14.95 11.7596 14.71C8.91957 13.76 5.98957 13.86 5.95957 13.86C5.55957 13.92 5.19957 13.55 5.17957 13.14C5.15957 12.73 5.48957 12.38 5.89957 12.36C6.02957 12.35 9.13957 12.25 12.2296 13.28C14.8296 14.15 17.3796 12.5 17.4096 12.48C17.7496 12.25 18.2196 12.35 18.4496 12.69C18.6796 13.03 18.5896 13.5 18.2396 13.73C18.1496 13.8 16.2496 15.04 13.8396 15.04Z" fill="#292D32"/>
</svg>
