<svg width="24" height="24" viewBox="0 0 24 24" fill="none" xmlns="http://www.w3.org/2000/svg">
<path d="M12 22.75C6.07 22.75 1.25 17.93 1.25 12C1.25 6.07 6.07 1.25 12 1.25C17.93 1.25 22.75 6.07 22.75 12C22.75 12.41 22.41 12.75 22 12.75C21.59 12.75 21.25 12.41 21.25 12C21.25 6.9 17.1 2.75 12 2.75C6.9 2.75 2.75 6.9 2.75 12C2.75 17.1 6.9 21.25 12 21.25C12.41 21.25 12.75 21.59 12.75 22C12.75 22.41 12.41 22.75 12 22.75Z" fill="#292D32"/>
<path d="M9.00024 21.75H8.00024C7.59024 21.75 7.25024 21.41 7.25024 21C7.25024 20.59 7.57023 20.26 7.98023 20.25C6.41023 14.89 6.41023 9.11 7.98023 3.75C7.58023 3.74 7.25024 3.41 7.25024 3C7.25024 2.59 7.59024 2.25 8.00024 2.25H9.00024C9.24024 2.25 9.47024 2.37 9.61024 2.56C9.75024 2.76 9.79025 3.00999 9.71025 3.23999C7.83025 8.88999 7.83025 15.12 9.71025 20.77C9.79025 21 9.75024 21.25 9.61024 21.45C9.47024 21.65 9.24024 21.75 9.00024 21.75Z" fill="#292D32"/>
<path d="M16.4604 12.75C16.0504 12.75 15.7104 12.41 15.7104 12C15.7104 9.02002 15.2304 6.07001 14.2904 3.24002C14.1604 2.85002 14.3704 2.42 14.7604 2.29C15.1504 2.16 15.5804 2.37003 15.7104 2.76003C16.7004 5.74003 17.2104 8.85002 17.2104 12C17.2104 12.41 16.8704 12.75 16.4604 12.75Z" fill="#292D32"/>
<path d="M12 17.21C9.2 17.21 6.43 16.81 3.75 16.02C3.74 16.42 3.41 16.75 3 16.75C2.59 16.75 2.25 16.41 2.25 16V15C2.25 14.76 2.37 14.53 2.56 14.39C2.76 14.25 3.01001 14.21 3.24001 14.29C6.07001 15.23 9.02 15.71 12 15.71C12.41 15.71 12.75 16.05 12.75 16.46C12.75 16.87 12.41 17.21 12 17.21Z" fill="#292D32"/>
<path d="M21.0007 9.75001C20.9207 9.75001 20.8407 9.74003 20.7607 9.71003C15.1107 7.83003 8.88066 7.83003 3.23066 9.71003C2.84066 9.84003 2.41067 9.63 2.28067 9.24C2.15067 8.85 2.36067 8.41999 2.75067 8.28999C8.71067 6.29999 15.2707 6.29999 21.2207 8.28999C21.6107 8.41999 21.8207 8.85 21.6907 9.24C21.6107 9.55 21.3107 9.75001 21.0007 9.75001Z" fill="#292D32"/>
<path d="M18.2 22.15C16.02 22.15 14.25 20.38 14.25 18.2C14.25 16.02 16.02 14.25 18.2 14.25C20.38 14.25 22.15 16.02 22.15 18.2C22.15 20.38 20.38 22.15 18.2 22.15ZM18.2 15.75C16.85 15.75 15.75 16.85 15.75 18.2C15.75 19.55 16.85 20.65 18.2 20.65C19.55 20.65 20.65 19.55 20.65 18.2C20.65 16.85 19.55 15.75 18.2 15.75Z" fill="#292D32"/>
<path d="M21.9995 22.75C21.8095 22.75 21.6195 22.68 21.4695 22.53L20.4695 21.53C20.1795 21.24 20.1795 20.7599 20.4695 20.4699C20.7595 20.1799 21.2395 20.1799 21.5295 20.4699L22.5295 21.4699C22.8195 21.7599 22.8195 22.24 22.5295 22.53C22.3795 22.68 22.1895 22.75 21.9995 22.75Z" fill="#292D32"/>
</svg>
