<svg width="24" height="24" viewBox="0 0 24 24" fill="none" xmlns="http://www.w3.org/2000/svg">
<path d="M18.32 12.75H15C12.51 12.75 11.25 11.34 11.25 8.55V5.68C11.25 4.66 11.37 3.2 12.43 2.4C13.32 1.74 14.6 1.69 16.49 2.24C18.97 2.96 21.04 5.03 21.76 7.51C22.31 9.39 22.26 10.68 21.6 11.56C20.8 12.63 19.34 12.75 18.32 12.75ZM14.28 3.36C13.87 3.36 13.55 3.44 13.34 3.6C12.95 3.89 12.76 4.57 12.76 5.68V8.56C12.76 10.8 13.62 11.26 15.01 11.26H18.33C19.43 11.26 20.11 11.07 20.41 10.68C20.76 10.22 20.73 9.3 20.34 7.95C19.76 5.98 18.06 4.27 16.09 3.7C15.35 3.47 14.75 3.36 14.28 3.36Z" fill="#292D32"/>
<path d="M11.0704 22.75C10.5404 22.75 10.0004 22.71 9.46037 22.62C5.37037 21.96 2.04037 18.64 1.38037 14.55C0.530371 9.29 3.92037 4.33 9.11037 3.27C9.52037 3.19 9.91037 3.45 10.0004 3.85C10.0804 4.26 9.82037 4.65 9.42037 4.74C5.03037 5.64 2.15037 9.84 2.88037 14.31C3.44037 17.77 6.25037 20.58 9.71037 21.14C14.2004 21.86 18.3904 18.97 19.2804 14.56C19.3604 14.15 19.7604 13.89 20.1604 13.97C20.5704 14.05 20.8304 14.45 20.7504 14.85C19.8004 19.52 15.7204 22.75 11.0704 22.75Z" fill="#292D32"/>
</svg>
