<svg width="24" height="24" viewBox="0 0 24 24" fill="none" xmlns="http://www.w3.org/2000/svg">
<path d="M15 22.75H9C3.57 22.75 1.25 20.43 1.25 15V9C1.25 3.57 3.57 1.25 9 1.25H15C20.43 1.25 22.75 3.57 22.75 9V13C22.75 13.41 22.41 13.75 22 13.75C21.59 13.75 21.25 13.41 21.25 13V9C21.25 4.39 19.61 2.75 15 2.75H9C4.39 2.75 2.75 4.39 2.75 9V15C2.75 19.61 4.39 21.25 9 21.25H15C15.41 21.25 15.75 21.59 15.75 22C15.75 22.41 15.41 22.75 15 22.75Z" fill="#292D32"/>
<path d="M19.0004 22.75C18.5904 22.75 18.2504 22.41 18.2504 22V17.81L17.5304 18.53C17.2404 18.82 16.7604 18.82 16.4704 18.53C16.1804 18.24 16.1804 17.76 16.4704 17.47L18.4704 15.47C18.6804 15.26 19.0104 15.19 19.2904 15.31C19.5704 15.43 19.7504 15.7 19.7504 16V22C19.7504 22.41 19.4104 22.75 19.0004 22.75Z" fill="#292D32"/>
<path d="M21.0004 18.75C20.8104 18.75 20.6204 18.68 20.4704 18.53L18.4704 16.53C18.1804 16.24 18.1804 15.76 18.4704 15.47C18.7604 15.18 19.2404 15.18 19.5304 15.47L21.5304 17.47C21.8204 17.76 21.8204 18.24 21.5304 18.53C21.3804 18.68 21.1904 18.75 21.0004 18.75Z" fill="#292D32"/>
<path d="M8.89974 16.49C8.86974 16.49 8.83974 16.49 8.81974 16.49C8.40974 16.44 8.10974 16.07 8.15974 15.66L9.19974 6.18C9.24974 5.77 9.61974 5.47 10.0297 5.52C10.4397 5.57 10.7397 5.94 10.6897 6.35L9.63975 15.82C9.59975 16.2 9.26974 16.49 8.89974 16.49Z" fill="#292D32"/>
<path d="M12.0501 16.49C12.0201 16.49 11.9901 16.49 11.9701 16.49C11.5601 16.44 11.2601 16.07 11.3101 15.66L12.3601 6.19C12.4101 5.78 12.7801 5.48 13.1901 5.53C13.6001 5.58 13.9001 5.95 13.8501 6.36L12.8001 15.83C12.7601 16.2 12.4301 16.49 12.0501 16.49Z" fill="#292D32"/>
<path d="M16.0003 10.17H6.53027C6.12027 10.17 5.78027 9.83 5.78027 9.42C5.78027 9.01 6.12027 8.67 6.53027 8.67H16.0003C16.4103 8.67 16.7503 9.01 16.7503 9.42C16.7503 9.83 16.4103 10.17 16.0003 10.17Z" fill="#292D32"/>
<path d="M15.47 13.33H6C5.59 13.33 5.25 12.99 5.25 12.58C5.25 12.17 5.59 11.83 6 11.83H15.47C15.88 11.83 16.22 12.17 16.22 12.58C16.22 12.99 15.89 13.33 15.47 13.33Z" fill="#292D32"/>
</svg>
