<svg width="24" height="24" viewBox="0 0 24 24" fill="none" xmlns="http://www.w3.org/2000/svg">
<path d="M16.4498 15.15C16.0398 15.15 15.6998 14.81 15.6998 14.4V8.5C15.6998 8.36 15.5898 8.25 15.4498 8.25H12.5498C12.1398 8.25 11.7998 7.91 11.7998 7.5C11.7998 7.09 12.1398 6.75 12.5498 6.75H15.4498C16.4098 6.75 17.1998 7.54 17.1998 8.5V14.4C17.1998 14.81 16.8598 15.15 16.4498 15.15Z" fill="#292D32"/>
<path d="M14.05 9.74999C13.88 9.74999 13.71 9.68998 13.57 9.57998L11.77 8.07998C11.6 7.93998 11.5 7.72999 11.5 7.49999C11.5 7.26999 11.6 7.07 11.77 6.92L13.57 5.42C13.89 5.16 14.36 5.19998 14.63 5.51998C14.9 5.83998 14.85 6.30998 14.53 6.57998L13.42 7.49999L14.53 8.42C14.85 8.69 14.89 9.16 14.63 9.48C14.48 9.66 14.26 9.74999 14.05 9.74999Z" fill="#292D32"/>
<path d="M7.5498 15.15C7.1398 15.15 6.7998 14.81 6.7998 14.4V10.2C6.7998 9.79001 7.1398 9.45001 7.5498 9.45001C7.9598 9.45001 8.2998 9.79001 8.2998 10.2V14.4C8.2998 14.81 7.9598 15.15 7.5498 15.15Z" fill="#292D32"/>
<path d="M7.70001 10.65C6.21001 10.65 5 9.44001 5 7.95001C5 6.46001 6.21001 5.25 7.70001 5.25C9.19001 5.25 10.4 6.46001 10.4 7.95001C10.4 9.44001 9.19001 10.65 7.70001 10.65ZM7.70001 6.75C7.04001 6.75 6.5 7.29001 6.5 7.95001C6.5 8.61001 7.04001 9.14999 7.70001 9.14999C8.36001 9.14999 8.90002 8.61001 8.90002 7.95001C8.90002 7.29001 8.36001 6.75 7.70001 6.75Z" fill="#292D32"/>
<path d="M7.54999 18.75C6.13999 18.75 5 17.61 5 16.2C5 14.79 6.13999 13.65 7.54999 13.65C8.95999 13.65 10.1 14.79 10.1 16.2C10.1 17.61 8.95999 18.75 7.54999 18.75ZM7.54999 15.15C6.96999 15.15 6.5 15.62 6.5 16.2C6.5 16.78 6.96999 17.25 7.54999 17.25C8.12999 17.25 8.59998 16.78 8.59998 16.2C8.59998 15.62 8.12999 15.15 7.54999 15.15Z" fill="#292D32"/>
<path d="M16.4504 18.75C15.0404 18.75 13.9004 17.61 13.9004 16.2C13.9004 14.79 15.0404 13.65 16.4504 13.65C17.8604 13.65 19.0004 14.79 19.0004 16.2C19.0004 17.61 17.8604 18.75 16.4504 18.75ZM16.4504 15.15C15.8704 15.15 15.4004 15.62 15.4004 16.2C15.4004 16.78 15.8704 17.25 16.4504 17.25C17.0304 17.25 17.5004 16.78 17.5004 16.2C17.5004 15.62 17.0304 15.15 16.4504 15.15Z" fill="#292D32"/>
<path d="M15 22.75H9C3.57 22.75 1.25 20.43 1.25 15V9C1.25 3.57 3.57 1.25 9 1.25H15C20.43 1.25 22.75 3.57 22.75 9V15C22.75 20.43 20.43 22.75 15 22.75ZM9 2.75C4.39 2.75 2.75 4.39 2.75 9V15C2.75 19.61 4.39 21.25 9 21.25H15C19.61 21.25 21.25 19.61 21.25 15V9C21.25 4.39 19.61 2.75 15 2.75H9Z" fill="#292D32"/>
</svg>
