<svg width="24" height="24" viewBox="0 0 24 24" fill="none" xmlns="http://www.w3.org/2000/svg">
<path d="M17.79 22.74H6.21C3.47 22.74 1.25 20.51 1.25 17.77V10.36C1.25 9 2.09 7.29 3.17 6.45L8.56 2.25C10.18 0.989999 12.77 0.929999 14.45 2.11L20.63 6.44C21.82 7.27 22.75 9.05 22.75 10.5V17.78C22.75 20.51 20.53 22.74 17.79 22.74ZM9.48 3.43L4.09 7.63C3.38 8.19 2.75 9.46 2.75 10.36V17.77C2.75 19.68 4.3 21.24 6.21 21.24H17.79C19.7 21.24 21.25 19.69 21.25 17.78V10.5C21.25 9.54 20.56 8.21 19.77 7.67L13.59 3.34C12.45 2.54 10.57 2.58 9.48 3.43Z" fill="#292D32"/>
<path d="M7.50043 17.25C7.31043 17.25 7.12043 17.18 6.97043 17.03C6.68043 16.74 6.68043 16.26 6.97043 15.97L10.1704 12.77C10.3304 12.61 10.5404 12.53 10.7704 12.55C10.9904 12.57 11.1904 12.69 11.3204 12.88L12.4104 14.52L15.9604 10.97C16.2504 10.68 16.7304 10.68 17.0204 10.97C17.3104 11.26 17.3104 11.74 17.0204 12.03L12.8204 16.23C12.6604 16.39 12.4504 16.47 12.2204 16.45C12.0004 16.43 11.8004 16.31 11.6704 16.12L10.5804 14.48L8.03043 17.03C7.88043 17.18 7.69043 17.25 7.50043 17.25Z" fill="#292D32"/>
<path d="M16.5 14.25C16.09 14.25 15.75 13.91 15.75 13.5V12.25H14.5C14.09 12.25 13.75 11.91 13.75 11.5C13.75 11.09 14.09 10.75 14.5 10.75H16.5C16.91 10.75 17.25 11.09 17.25 11.5V13.5C17.25 13.91 16.91 14.25 16.5 14.25Z" fill="#292D32"/>
</svg>
