<svg width="24" height="24" viewBox="0 0 24 24" fill="none" xmlns="http://www.w3.org/2000/svg">
<path d="M12.8202 16.72C12.5102 16.72 12.2102 16.52 12.1102 16.21L10.0802 10.11L7.34024 16.28C7.17024 16.66 6.73024 16.83 6.35024 16.66C5.97024 16.49 5.80024 16.05 5.97024 15.67L9.50024 7.73999C9.63024 7.45999 9.90024 7.26999 10.2202 7.29999C10.5302 7.30999 10.8002 7.52 10.9002 7.81L13.5402 15.74C13.6702 16.13 13.4602 16.56 13.0702 16.69C12.9802 16.7 12.9002 16.72 12.8202 16.72Z" fill="black"/>
<path d="M11.9403 12.57H7.53027V14.07H11.9403V12.57Z" fill="black"/>
<path d="M16.3496 16.72C15.9396 16.72 15.5996 16.38 15.5996 15.97V10.68C15.5996 10.27 15.9396 9.92999 16.3496 9.92999C16.7596 9.92999 17.0996 10.27 17.0996 10.68V15.97C17.0996 16.38 16.7596 16.72 16.3496 16.72Z" fill="black"/>
<path d="M16.3496 9.02999C16.0796 9.02999 15.8296 8.92998 15.6396 8.73998C15.5496 8.64998 15.4696 8.54 15.4196 8.42C15.3696 8.29 15.3496 8.16999 15.3496 8.02999C15.3496 7.89999 15.3696 7.76998 15.4196 7.64998C15.4796 7.52998 15.5496 7.41997 15.6396 7.32997C15.7296 7.22997 15.8396 7.15997 15.9596 7.10997C16.3296 6.95997 16.7796 7.04997 17.0496 7.32997C17.1496 7.41997 17.2196 7.52998 17.2696 7.64998C17.3196 7.76998 17.3496 7.89999 17.3496 8.02999C17.3496 8.16999 17.3196 8.3 17.2696 8.42C17.2196 8.54 17.1496 8.64998 17.0496 8.73998C16.9596 8.82998 16.8496 8.90998 16.7296 8.95998C16.6096 9.00998 16.4796 9.02999 16.3496 9.02999Z" fill="black"/>
<path d="M15 22.75H9C3.57 22.75 1.25 20.43 1.25 15V9C1.25 3.57 3.57 1.25 9 1.25H15C20.43 1.25 22.75 3.57 22.75 9V15C22.75 20.43 20.43 22.75 15 22.75ZM9 2.75C4.39 2.75 2.75 4.39 2.75 9V15C2.75 19.61 4.39 21.25 9 21.25H15C19.61 21.25 21.25 19.61 21.25 15V9C21.25 4.39 19.61 2.75 15 2.75H9Z" fill="black"/>
</svg>
