<svg width="24" height="24" viewBox="0 0 24 24" fill="none" xmlns="http://www.w3.org/2000/svg">
<path d="M12.0005 22.71C11.8405 22.71 11.6805 22.69 11.5205 22.64L5.44049 20.9C4.75049 20.7 4.26048 20.12 4.18048 19.41L2.38049 3.19C2.33049 2.7 2.48049 2.2 2.82049 1.83C3.15049 1.46 3.63048 1.25 4.12048 1.25H19.8905C20.3905 1.25 20.8605 1.46 21.1905 1.83C21.5205 2.2 21.6805 2.7 21.6305 3.19L19.8305 19.41C19.7505 20.12 19.2605 20.7 18.5705 20.9L12.4905 22.64C12.3205 22.69 12.1605 22.71 12.0005 22.71ZM4.12048 2.75C4.02048 2.75 3.96048 2.8 3.93048 2.83C3.90048 2.86 3.86048 2.93 3.87048 3.02L5.67047 19.24C5.68047 19.34 5.75046 19.43 5.85046 19.45L11.9305 21.19C11.9805 21.2 12.0205 21.2 12.0705 21.19L18.1505 19.45C18.2505 19.42 18.3205 19.34 18.3305 19.24L20.1305 3.02C20.1405 2.92 20.0905 2.86 20.0705 2.83C20.0405 2.8 19.9805 2.75 19.8805 2.75H4.12048Z" fill="black"/>
<path d="M10.6198 16.74C10.5498 16.74 10.4798 16.73 10.4098 16.71L7.28983 15.81C6.88983 15.69 6.65988 15.28 6.77988 14.88C6.88988 14.48 7.30987 14.26 7.70987 14.37L9.86985 14.99V7.01001C9.86985 6.60001 10.2098 6.26001 10.6198 6.26001C11.0298 6.26001 11.3698 6.60001 11.3698 7.01001V15.98C11.3698 16.22 11.2599 16.44 11.0699 16.58C10.9399 16.68 10.7798 16.74 10.6198 16.74Z" fill="black"/>
<path d="M12.9001 16.75C12.5601 16.75 12.2601 16.52 12.1701 16.18C12.0701 15.78 12.3101 15.37 12.7201 15.27L15.7501 14.51V12.81L13.4601 13.14C13.2401 13.17 13.0301 13.11 12.8601 12.96C12.7001 12.82 12.6001 12.61 12.6001 12.39V7.43999C12.6001 7.06999 12.8701 6.74999 13.2401 6.69999L16.3901 6.24999C16.8001 6.18999 17.1801 6.47999 17.2401 6.88999C17.3001 7.29999 17.0101 7.68 16.6001 7.74L14.0901 8.1V11.53L16.3801 11.2C16.6001 11.17 16.8101 11.23 16.9801 11.38C17.1401 11.52 17.2401 11.73 17.2401 11.95V15.1C17.2401 15.44 17.0101 15.74 16.6701 15.83L13.0701 16.73C13.0201 16.74 12.9601 16.75 12.9001 16.75Z" fill="black"/>
</svg>
