<svg width="24" height="24" viewBox="0 0 24 24" fill="none" xmlns="http://www.w3.org/2000/svg">
<path d="M15 22.75H9C3.57 22.75 1.25 20.43 1.25 15V9C1.25 3.57 3.57 1.25 9 1.25H15C20.43 1.25 22.75 3.57 22.75 9V15C22.75 20.43 20.43 22.75 15 22.75ZM9 2.75C4.39 2.75 2.75 4.39 2.75 9V15C2.75 19.61 4.39 21.25 9 21.25H15C19.61 21.25 21.25 19.61 21.25 15V9C21.25 4.39 19.61 2.75 15 2.75H9Z" fill="#292D32"/>
<path d="M8.80974 18.2499C8.73974 18.2499 8.65974 18.2499 8.58974 18.2299L7.39974 18.0699C6.67974 17.9699 6.04974 17.3499 5.93974 16.6099L5.76974 15.3999C5.69974 14.9199 5.89974 14.3099 6.24974 13.9499L8.52974 11.6699C8.18974 10.0499 8.67974 8.36995 9.86974 7.18995C11.7797 5.27995 14.8997 5.27995 16.8097 7.18995C17.7397 8.11995 18.2497 9.34995 18.2497 10.6599C18.2497 11.9699 17.7397 13.2099 16.8097 14.1299C15.6197 15.3099 13.9397 15.7999 12.3297 15.4599L10.0397 17.7399C9.74974 18.0499 9.25974 18.2499 8.80974 18.2499ZM13.3397 7.24995C12.4697 7.24995 11.5897 7.57995 10.9297 8.24995C10.0297 9.14995 9.70974 10.4599 10.0797 11.6799C10.1597 11.9499 10.0897 12.2299 9.88974 12.4299L7.30974 15.0099C7.28974 15.0399 7.24974 15.1499 7.24974 15.1899L7.41974 16.3899C7.42974 16.4499 7.53974 16.5599 7.59974 16.5699L8.79974 16.7399C8.84974 16.7299 8.94974 16.7099 8.97974 16.6799L11.5697 14.0899C11.7697 13.8899 12.0597 13.8299 12.3197 13.9099C13.5297 14.2899 14.8397 13.9699 15.7397 13.0699C16.3797 12.4299 16.7397 11.5699 16.7397 10.6599C16.7397 9.74995 16.3897 8.88995 15.7397 8.24995C15.0897 7.58995 14.2097 7.24995 13.3397 7.24995Z" fill="#292D32"/>
<path d="M10.4503 17.03C10.2603 17.03 10.0703 16.96 9.92027 16.81L9.06027 15.95C8.77027 15.66 8.77027 15.18 9.06027 14.89C9.35027 14.6 9.83027 14.6 10.1203 14.89L10.9803 15.75C11.2703 16.04 11.2703 16.52 10.9803 16.81C10.8403 16.96 10.6503 17.03 10.4503 17.03Z" fill="#292D32"/>
<path d="M13.3801 11.8C13.2401 11.8 13.1101 11.78 12.9901 11.73C12.8701 11.68 12.7601 11.6 12.6701 11.51C12.4801 11.32 12.3701 11.07 12.3701 10.8C12.3701 10.54 12.4801 10.28 12.6701 10.1C12.9001 9.85999 13.2501 9.74999 13.5701 9.81999C13.6301 9.83999 13.7001 9.84999 13.7601 9.87999C13.8201 9.90999 13.8801 9.93999 13.9301 9.96999C13.9801 10.01 14.0401 10.05 14.0801 10.1C14.2701 10.28 14.3801 10.54 14.3801 10.8C14.3801 10.94 14.3501 11.06 14.3001 11.19C14.2501 11.31 14.1801 11.42 14.0801 11.51C13.8901 11.7 13.6401 11.8 13.3801 11.8Z" fill="#292D32"/>
</svg>
