<svg width="24" height="24" viewBox="0 0 24 24" fill="none" xmlns="http://www.w3.org/2000/svg">
<path d="M11.9995 22.75C6.91954 22.75 2.48954 19.14 1.46954 14.17C1.38954 13.76 1.64954 13.37 2.04954 13.28C2.45954 13.2 2.84954 13.46 2.93954 13.86C3.81954 18.14 7.62954 21.25 11.9995 21.25C16.3595 21.25 20.1695 18.16 21.0595 13.9C21.1395 13.49 21.5395 13.23 21.9495 13.32C22.3595 13.4 22.6195 13.8 22.5295 14.21C21.4895 19.15 17.0695 22.75 11.9995 22.75Z" fill="#292D32"/>
<path d="M21.81 10.81C21.46 10.81 21.15 10.56 21.08 10.2C20.23 5.88001 16.41 2.73999 12 2.73999C7.61995 2.73999 3.80996 5.85 2.93996 10.13C2.85996 10.54 2.45996 10.79 2.04996 10.71C1.63996 10.63 1.37996 10.23 1.46996 9.82001C2.48996 4.85001 6.91995 1.23999 12 1.23999C17.13 1.23999 21.56 4.89 22.55 9.91C22.63 10.32 22.36 10.71 21.96 10.79C21.91 10.81 21.86 10.81 21.81 10.81Z" fill="#292D32"/>
<path d="M12 14.25C10.76 14.25 9.75 13.24 9.75 12C9.75 10.76 10.76 9.75 12 9.75C13.24 9.75 14.25 10.76 14.25 12C14.25 13.24 13.24 14.25 12 14.25ZM12 11.25C11.59 11.25 11.25 11.59 11.25 12C11.25 12.41 11.59 12.75 12 12.75C12.41 12.75 12.75 12.41 12.75 12C12.75 11.59 12.41 11.25 12 11.25Z" fill="#292D32"/>
</svg>
