<svg width="24" height="24" viewBox="0 0 24 24" fill="none" xmlns="http://www.w3.org/2000/svg">
<path d="M10.4199 13.75C10.2899 13.75 10.1599 13.72 10.0399 13.65C8.85988 12.96 8.12988 11.68 8.12988 10.32C8.12988 8.19 9.85988 6.45 11.9999 6.45C13.3699 6.45 14.6499 7.18 15.3399 8.37C15.5499 8.73 15.4299 9.19 15.0699 9.4C14.7099 9.61 14.2499 9.49 14.0399 9.13C13.6199 8.39 12.8399 7.94 11.9999 7.94C10.6999 7.94 9.62988 9 9.62988 10.31C9.62988 11.15 10.0799 11.93 10.7999 12.35C11.1599 12.56 11.2799 13.02 11.0699 13.38C10.9299 13.61 10.6799 13.75 10.4199 13.75Z" fill="#292D32"/>
<path d="M5.98975 18.56C5.75975 18.56 5.52975 18.45 5.37975 18.25C2.97975 14.96 2.13975 11.62 2.88975 8.31999C3.66975 4.88999 6.18975 2.34999 9.62975 1.51999C13.2297 0.649995 17.0097 1.81999 19.2397 4.48999C19.5097 4.80999 19.4597 5.27999 19.1497 5.54999C18.8297 5.81999 18.3597 5.76999 18.0897 5.44999C16.2197 3.20999 13.0397 2.23999 9.97975 2.96999C7.05975 3.66999 5.00975 5.74 4.34975 8.64C3.69975 11.5 4.44975 14.43 6.58975 17.35C6.82975 17.68 6.75975 18.15 6.42975 18.4C6.29975 18.51 6.13975 18.56 5.98975 18.56Z" fill="#292D32"/>
<path d="M12.0001 22.76C10.5201 22.76 9.03006 22.2 7.87006 21.09C7.57006 20.8 7.56006 20.33 7.85006 20.03C8.14006 19.73 8.61006 19.72 8.91006 20.01C10.6401 21.68 13.3501 21.68 15.0801 20.01C17.7501 17.44 20.7101 13.38 19.6501 8.67C19.5601 8.27 19.8101 7.86 20.2201 7.77C20.6201 7.68 21.0301 7.93 21.1201 8.34C22.3401 13.73 19.0801 18.25 16.1301 21.09C14.9701 22.2 13.4801 22.76 12.0001 22.76Z" fill="#292D32"/>
<path d="M2.00043 22.75C1.81043 22.75 1.62043 22.68 1.47043 22.53C1.18043 22.24 1.18043 21.76 1.47043 21.47L21.4704 1.47C21.7604 1.18 22.2404 1.18 22.5304 1.47C22.8204 1.76 22.8204 2.24 22.5304 2.53L2.53043 22.53C2.38043 22.68 2.19043 22.75 2.00043 22.75Z" fill="#292D32"/>
</svg>
