<svg width="24" height="24" viewBox="0 0 24 24" fill="none" xmlns="http://www.w3.org/2000/svg">
<path d="M15.65 21.41C15.22 21.41 14.79 21.32 14.44 21.15L9.19004 18.52C8.89004 18.37 8.30004 18.38 8.01004 18.55L5.65004 19.9C4.63004 20.48 3.58004 20.56 2.79004 20.09C1.99004 19.63 1.54004 18.69 1.54004 17.51V7.79C1.54004 6.88 2.14004 5.85 2.93004 5.4L7.26004 2.92C7.99004 2.5 9.10004 2.47 9.85004 2.85L15.1 5.48C15.4 5.63 15.98 5.61 16.28 5.45L18.63 4.11C19.65 3.53 20.7 3.45 21.49 3.92C22.29 4.38 22.74 5.32 22.74 6.5V16.23C22.74 17.14 22.14 18.17 21.35 18.62L17.02 21.1C16.64 21.3 16.14 21.41 15.65 21.41ZM8.64004 16.92C9.07004 16.92 9.50004 17.01 9.85004 17.18L15.1 19.81C15.4 19.96 15.98 19.94 16.28 19.78L20.61 17.3C20.93 17.12 21.24 16.58 21.24 16.22V6.49C21.24 5.86 21.06 5.39 20.73 5.21C20.41 5.03 19.91 5.1 19.37 5.41L17.02 6.75C16.29 7.17 15.18 7.2 14.43 6.82L9.18004 4.19C8.88004 4.04 8.30004 4.06 8.00004 4.22L3.67004 6.7C3.35004 6.88 3.04004 7.42 3.04004 7.79V17.52C3.04004 18.15 3.22004 18.62 3.54004 18.8C3.86004 18.99 4.36004 18.91 4.91004 18.6L7.26004 17.26C7.65004 17.03 8.15004 16.92 8.64004 16.92Z" fill="#292D32"/>
<path d="M8.55957 17.75C8.14957 17.75 7.80957 17.41 7.80957 17V4C7.80957 3.59 8.14957 3.25 8.55957 3.25C8.96957 3.25 9.30957 3.59 9.30957 4V17C9.30957 17.41 8.96957 17.75 8.55957 17.75Z" fill="#292D32"/>
<path d="M15.7305 20.75C15.3205 20.75 14.9805 20.41 14.9805 20V6.62C14.9805 6.21 15.3205 5.87 15.7305 5.87C16.1405 5.87 16.4805 6.21 16.4805 6.62V20C16.4805 20.41 16.1405 20.75 15.7305 20.75Z" fill="#292D32"/>
</svg>
