<svg width="24" height="24" viewBox="0 0 24 24" fill="none" xmlns="http://www.w3.org/2000/svg">
<path d="M12.0003 22.72C6.09027 22.72 1.28027 17.91 1.28027 12C1.28027 6.09 6.09027 1.28 12.0003 1.28C14.6503 1.28 17.1903 2.26 19.1503 4.03C21.4203 6.04 22.7203 8.95 22.7203 12C22.7203 15.05 21.4203 17.96 19.1403 19.98C17.1903 21.75 14.6503 22.72 12.0003 22.72ZM12.0003 2.78C6.91027 2.78 2.78027 6.92 2.78027 12C2.78027 17.08 6.92027 21.22 12.0003 21.22C14.2803 21.22 16.4603 20.38 18.1503 18.85C20.1103 17.11 21.2303 14.62 21.2303 11.99C21.2303 9.36 20.1103 6.87 18.1603 5.14C16.4603 3.62 14.2803 2.78 12.0003 2.78Z" fill="#292D32"/>
<path d="M10.4403 18.91C10.0703 18.91 9.68027 18.83 9.30027 18.68C6.56027 17.58 4.78027 14.95 4.78027 12C4.78027 9.04999 6.55027 6.41999 9.30027 5.31999C10.1703 4.96999 11.0503 5.01999 11.7103 5.45999C12.3503 5.88999 12.7103 6.64999 12.7303 7.59999V16.39V16.4C12.7203 17.35 12.3603 18.12 11.7103 18.54C11.3403 18.79 10.9003 18.91 10.4403 18.91ZM10.4403 6.58999C10.2603 6.58999 10.0603 6.62999 9.86027 6.70999C7.68027 7.57999 6.28027 9.65999 6.28027 12C6.28027 14.34 7.68027 16.42 9.86027 17.29C10.2603 17.45 10.6403 17.45 10.8803 17.3C11.1603 17.11 11.2203 16.7 11.2303 16.39V7.60999C11.2303 7.30999 11.1603 6.88999 10.8803 6.69999C10.7603 6.62999 10.6103 6.58999 10.4403 6.58999Z" fill="#292D32"/>
</svg>
