<svg width="24" height="24" viewBox="0 0 24 24" fill="none" xmlns="http://www.w3.org/2000/svg">
<path d="M15 22.75H14C13.59 22.75 13.25 22.41 13.25 22C13.25 21.59 13.59 21.25 14 21.25H15C19.61 21.25 21.25 19.61 21.25 15V9C21.25 4.39 19.61 2.75 15 2.75H9C4.39 2.75 2.75 4.39 2.75 9V9.98C2.75 10.39 2.41 10.73 2 10.73C1.59 10.73 1.25 10.39 1.25 9.98V9C1.25 3.57 3.57 1.25 9 1.25H15C20.43 1.25 22.75 3.57 22.75 9V15C22.75 20.43 20.43 22.75 15 22.75Z" fill="#292D32"/>
<path d="M13.0004 11.75C12.8104 11.75 12.6204 11.68 12.4704 11.53C12.1804 11.24 12.1804 10.76 12.4704 10.47L16.2104 6.72H14.0004C13.5904 6.72 13.2504 6.38 13.2504 5.97C13.2504 5.56 13.5804 5.22 14.0004 5.22H18.0104C18.3104 5.22 18.5904 5.4 18.7004 5.68C18.8204 5.96 18.7504 6.28 18.5404 6.5L13.5304 11.53C13.3804 11.68 13.1904 11.75 13.0004 11.75Z" fill="#292D32"/>
<path d="M18.0098 10.74C17.5998 10.74 17.2598 10.4 17.2598 9.99V5.97C17.2598 5.56 17.5998 5.22 18.0098 5.22C18.4198 5.22 18.7598 5.56 18.7598 5.97V9.98C18.7598 10.4 18.4198 10.74 18.0098 10.74Z" fill="#292D32"/>
<path d="M7.85 22.75H5.15C2.49 22.75 1.25 21.51 1.25 18.85V16.15C1.25 13.49 2.49 12.25 5.15 12.25H7.85C10.51 12.25 11.75 13.49 11.75 16.15V18.85C11.75 21.51 10.51 22.75 7.85 22.75ZM5.15 13.75C3.31 13.75 2.75 14.31 2.75 16.15V18.85C2.75 20.69 3.31 21.25 5.15 21.25H7.85C9.69 21.25 10.25 20.69 10.25 18.85V16.15C10.25 14.31 9.69 13.75 7.85 13.75H5.15Z" fill="#292D32"/>
</svg>
