<svg width="24" height="24" viewBox="0 0 24 24" fill="none" xmlns="http://www.w3.org/2000/svg">
<path d="M7.96973 22.75C5.34973 22.75 3.21973 20.62 3.21973 18C3.21973 15.38 5.34973 13.25 7.96973 13.25C10.5897 13.25 12.7197 15.38 12.7197 18C12.7197 20.62 10.5897 22.75 7.96973 22.75ZM7.96973 14.75C6.17973 14.75 4.71973 16.21 4.71973 18C4.71973 19.79 6.17973 21.25 7.96973 21.25C9.75973 21.25 11.2197 19.79 11.2197 18C11.2197 16.21 9.76973 14.75 7.96973 14.75Z" fill="#292D32"/>
<path d="M11.9697 18.75C11.5597 18.75 11.2197 18.41 11.2197 18V4C11.2197 3.59 11.5597 3.25 11.9697 3.25C12.3797 3.25 12.7197 3.59 12.7197 4V18C12.7197 18.41 12.3897 18.75 11.9697 18.75Z" fill="#292D32"/>
<path d="M19.1305 10.23C18.8005 10.23 18.4505 10.17 18.1105 10.06L13.6905 8.59C12.3105 8.13 11.2305 6.63 11.2305 5.18V4C11.2305 3.03 11.6305 2.19 12.3105 1.69C13.0005 1.19 13.9205 1.09 14.8405 1.39L19.2605 2.86C20.6405 3.32 21.7205 4.82 21.7205 6.27V7.44C21.7205 8.41 21.3205 9.25 20.6405 9.75C20.2105 10.08 19.6805 10.23 19.1305 10.23ZM13.8205 2.72C13.5805 2.72 13.3605 2.78 13.1905 2.91C12.8905 3.12 12.7305 3.51 12.7305 4V5.17C12.7305 5.97 13.4005 6.9 14.1605 7.16L18.5805 8.63C19.0405 8.79 19.4705 8.75 19.7605 8.54C20.0605 8.33 20.2205 7.94 20.2205 7.45V6.28C20.2205 5.48 19.5505 4.55 18.7905 4.29L14.3705 2.82C14.1805 2.75 13.9905 2.72 13.8205 2.72Z" fill="#292D32"/>
</svg>
