<svg width="24" height="24" viewBox="0 0 24 24" fill="none" xmlns="http://www.w3.org/2000/svg">
<path d="M15.8101 20.18C15.5501 20.18 15.2801 20.17 14.9901 20.14C14.4701 20.1 13.8801 20 13.2701 19.85L11.5901 19.45C6.98007 18.36 5.47007 15.92 6.55007 11.32L7.53007 7.13001C7.75007 6.18002 8.01007 5.41002 8.33007 4.77002C10.0501 1.22002 13.3401 1.54001 15.6801 2.09001L17.3501 2.48001C19.6901 3.03001 21.1701 3.90001 22.0001 5.23002C22.8201 6.56002 22.9501 8.27001 22.4001 10.61L21.4201 14.79C20.5601 18.45 18.7701 20.18 15.8101 20.18ZM13.1201 3.25001C11.4501 3.25001 10.3901 3.94002 9.68007 5.42002C9.42007 5.96002 9.19007 6.63001 8.99007 7.47001L8.01007 11.66C7.12007 15.44 8.15007 17.09 11.9301 17.99L13.6101 18.39C14.1501 18.52 14.6601 18.6 15.1201 18.64C17.8301 18.91 19.1901 17.72 19.9501 14.45L20.9301 10.27C21.3801 8.34002 21.3201 6.99002 20.7201 6.02001C20.1201 5.05001 18.9401 4.39002 17.0001 3.94002L15.3301 3.55001C14.5001 3.35001 13.7601 3.25001 13.1201 3.25001Z" fill="#292D32"/>
<path d="M8.33005 22.25C5.76005 22.25 4.12005 20.71 3.07005 17.46L1.79005 13.51C0.370052 9.10999 1.64005 6.62999 6.02005 5.20999L7.60005 4.69999C8.12005 4.53999 8.51005 4.42999 8.86005 4.36999C9.14005 4.30999 9.43005 4.41999 9.60005 4.64999C9.77005 4.87999 9.80005 5.17999 9.68005 5.43999C9.42005 5.96999 9.19005 6.63999 9.00005 7.47999L8.02005 11.67C7.13005 15.45 8.16005 17.1 11.9401 18L13.6201 18.4C14.1601 18.53 14.6701 18.61 15.1301 18.65C15.4501 18.68 15.7101 18.9 15.8001 19.21C15.8801 19.52 15.7601 19.84 15.5001 20.02C14.8401 20.47 14.0101 20.85 12.9601 21.19L11.3801 21.71C10.2301 22.07 9.23005 22.25 8.33005 22.25ZM7.78005 6.21999L6.49005 6.63999C2.92005 7.78999 2.07005 9.46999 3.22005 13.05L4.50005 17C5.66005 20.57 7.34005 21.43 10.9101 20.28L12.4901 19.76C12.5501 19.74 12.6001 19.72 12.6601 19.7L11.6001 19.45C6.99005 18.36 5.48005 15.92 6.56005 11.32L7.54005 7.12999C7.61005 6.80999 7.69005 6.49999 7.78005 6.21999Z" fill="#292D32"/>
</svg>
