<svg width="24" height="24" viewBox="0 0 24 24" fill="none" xmlns="http://www.w3.org/2000/svg">
<path d="M11.7005 22.75C11.6005 22.75 11.5105 22.75 11.4105 22.75C5.93046 22.6 1.48047 17.88 1.48047 12.24V5.21003C1.48047 4.70003 1.78046 4.25002 2.25046 4.06002C2.72046 3.87002 3.25044 3.97002 3.61044 4.33002L18.4405 19.16C18.5905 19.31 18.6705 19.51 18.6605 19.72C18.6505 19.93 18.5605 20.12 18.4005 20.26C16.5405 21.87 14.1705 22.75 11.7005 22.75ZM2.98047 5.81002V12.24C2.98047 17.08 6.78047 21.12 11.4505 21.25C13.3805 21.29 15.2505 20.73 16.7805 19.62L2.98047 5.81002Z" fill="black"/>
<path d="M21.2696 19.9C20.9496 19.9 20.6296 19.77 20.3896 19.53L5.68959 4.83002C5.53959 4.68002 5.45959 4.48002 5.46959 4.27002C5.47959 4.06002 5.5696 3.87001 5.7296 3.73001C7.6396 2.06001 10.1096 1.17002 12.6696 1.25002C18.0996 1.40002 22.5196 6.08001 22.5196 11.68V18.64C22.5196 19.15 22.2196 19.6 21.7496 19.79C21.5996 19.86 21.4396 19.9 21.2696 19.9ZM7.34959 4.37001L21.0296 18.05V11.69C21.0296 6.90002 17.2596 2.89001 12.6296 2.76001C10.7196 2.72001 8.86959 3.27001 7.34959 4.37001Z" fill="black"/>
</svg>
