<svg width="24" height="24" viewBox="0 0 24 24" fill="none" xmlns="http://www.w3.org/2000/svg">
<path d="M10.0595 21.58C9.05952 21.58 8.04952 20.9 6.69952 19.56L3.23952 16.1C0.299518 13.16 0.599518 12.03 3.23952 9.38001L8.80952 3.80001C10.7795 1.83001 12.4095 0.680013 15.5295 3.80001L18.9895 7.26001C21.7995 10.07 21.1195 11.85 18.9895 13.98L13.4195 19.55C12.0695 20.9 11.0695 21.58 10.0595 21.58ZM4.29952 15.03L7.75952 18.49C9.87952 20.61 10.2295 20.62 12.3595 18.49L17.9295 12.92C19.5995 11.25 20.0295 10.42 17.9295 8.32001L14.4695 4.86001C12.2795 2.67001 11.6195 3.12001 9.86952 4.86001L4.29952 10.43C2.17952 12.56 1.99952 12.73 4.29952 15.03Z" fill="#292D32"/>
<path d="M20.1399 21.46C18.9999 21.46 18.0999 21.02 17.6599 20.25C17.2199 19.48 17.3099 18.48 17.8999 17.5L18.5599 16.41C18.9499 15.77 19.5199 15.4 20.1399 15.4C20.7599 15.4 21.3399 15.77 21.7199 16.41L22.3799 17.5C22.9699 18.48 23.0499 19.48 22.6199 20.25C22.1899 21.02 21.2699 21.46 20.1399 21.46ZM20.1399 16.9C20.0899 16.9 19.9699 16.98 19.8399 17.18L19.1799 18.27C18.8799 18.77 18.7999 19.22 18.9599 19.51C19.1199 19.8 19.5499 19.96 20.1299 19.96C20.7099 19.96 21.1399 19.8 21.2999 19.51C21.4599 19.22 21.3799 18.78 21.0799 18.27L20.4199 17.18C20.3099 16.97 20.1899 16.9 20.1399 16.9Z" fill="#292D32"/>
<path d="M1.99965 12.99C1.66965 12.99 1.36965 12.77 1.27965 12.44C1.16965 12.04 1.40965 11.63 1.80965 11.52C7.47965 9.97999 13.4896 9.92999 19.1896 11.39L19.6896 11.52C20.0896 11.62 20.3296 12.03 20.2296 12.43C20.1296 12.83 19.7196 13.07 19.3196 12.97L18.8196 12.84C13.3696 11.44 7.62965 11.49 2.20965 12.97C2.12965 12.99 2.05965 12.99 1.99965 12.99Z" fill="#292D32"/>
</svg>
