<svg width="24" height="24" viewBox="0 0 24 24" fill="none" xmlns="http://www.w3.org/2000/svg">
<path d="M11.9697 22.75C6.04973 22.75 1.21973 17.93 1.21973 12C1.21973 6.07 6.04973 1.25 11.9697 1.25C17.8897 1.25 22.7197 6.07 22.7197 12C22.7197 17.93 17.8997 22.75 11.9697 22.75ZM11.9697 2.75C6.86973 2.75 2.71973 6.9 2.71973 12C2.71973 17.1 6.86973 21.25 11.9697 21.25C17.0697 21.25 21.2197 17.1 21.2197 12C21.2197 6.9 17.0697 2.75 11.9697 2.75Z" fill="#292D32"/>
<path d="M10.01 15.95H8.71C7.79 15.95 7.25 15.42 7.25 14.53V9.47C7.25 8.58 7.8 8.05 8.71 8.05H10C10.92 8.05 11.46 8.58 11.46 9.47V14.53C11.47 15.42 10.92 15.95 10.01 15.95ZM8.75 14.45H9.97V9.55H8.76L8.75 14.45Z" fill="#292D32"/>
<path d="M15.29 15.95H14C13.08 15.95 12.54 15.42 12.54 14.53V9.47C12.54 8.58 13.09 8.05 14 8.05H15.29C16.21 8.05 16.75 8.58 16.75 9.47V14.53C16.75 15.42 16.2 15.95 15.29 15.95ZM14.03 14.45H15.25V9.55H14.04L14.03 14.45Z" fill="#292D32"/>
</svg>
