<svg width="24" height="24" viewBox="0 0 24 24" fill="none" xmlns="http://www.w3.org/2000/svg">
<path d="M13.2698 23.25H10.7498C10.0498 23.25 9.41979 22.9499 8.99979 22.4399C8.62979 21.9799 8.48978 21.39 8.61978 20.83L9.02979 19.02C9.10979 18.68 9.40978 18.4399 9.75978 18.4399H14.2598C14.6098 18.4399 14.9098 18.68 14.9898 19.02L15.3998 20.83C15.5298 21.43 15.4098 22.01 15.0398 22.47C14.6298 22.96 13.9898 23.25 13.2698 23.25ZM10.3598 19.92L10.0798 21.15C10.0498 21.3 10.1098 21.42 10.1698 21.49C10.2998 21.65 10.5098 21.74 10.7498 21.74H13.2698C13.5298 21.74 13.7498 21.66 13.8698 21.51C13.9498 21.41 13.9698 21.29 13.9398 21.14L13.6598 19.91H10.3598V19.92Z" fill="#292D32"/>
<path d="M14.2595 19.92C14.0495 19.92 13.8495 19.84 13.6995 19.67C13.4295 19.36 13.4495 18.89 13.7595 18.61L15.4895 17.0699C16.1795 16.4599 16.1495 16.31 15.6395 15.67L12.5895 11.8C12.4195 11.59 12.2195 11.47 12.0095 11.47C11.7995 11.47 11.5995 11.59 11.4295 11.8L8.37954 15.67C7.83954 16.36 7.84953 16.51 8.50953 17.05L10.2595 18.61C10.5695 18.88 10.5995 19.36 10.3195 19.67C10.0395 19.98 9.56953 20.01 9.25953 19.73L7.52953 18.1899C6.26953 17.1599 6.15953 16.06 7.19953 14.74L10.2495 10.87C10.6995 10.3 11.3395 9.96997 12.0095 9.96997C12.6795 9.96997 13.3195 10.3 13.7695 10.87L16.8195 14.74C17.8495 16.04 17.7495 17.0799 16.4895 18.1899L14.7595 19.73C14.6095 19.86 14.4295 19.92 14.2595 19.92Z" fill="#292D32"/>
<path d="M12.0098 14.4C11.5998 14.4 11.2598 14.06 11.2598 13.65V11.12C11.2598 10.71 11.5998 10.37 12.0098 10.37C12.4198 10.37 12.7598 10.71 12.7598 11.12V13.65C12.7598 14.07 12.4198 14.4 12.0098 14.4Z" fill="#292D32"/>
<path d="M12.5195 5.75H11.5195C10.5595 5.75 9.76953 4.96 9.76953 4V3C9.76953 2.04 10.5595 1.25 11.5195 1.25H12.5195C13.4795 1.25 14.2695 2.04 14.2695 3V4C14.2695 4.96 13.4895 5.75 12.5195 5.75ZM11.5195 2.75C11.3795 2.75 11.2695 2.86 11.2695 3V4C11.2695 4.14 11.3795 4.25 11.5195 4.25H12.5195C12.6595 4.25 12.7695 4.14 12.7695 4V3C12.7695 2.86 12.6595 2.75 12.5195 2.75H11.5195Z" fill="#292D32"/>
<path d="M4.26953 14.92H3.26953C2.30953 14.92 1.51953 14.13 1.51953 13.17V12.17C1.51953 11.21 2.30953 10.4199 3.26953 10.4199H4.26953C5.22953 10.4199 6.01953 11.21 6.01953 12.17V13.17C6.01953 14.13 5.22953 14.92 4.26953 14.92ZM3.26953 11.9199C3.12953 11.9199 3.01953 12.03 3.01953 12.17V13.17C3.01953 13.31 3.12953 13.42 3.26953 13.42H4.26953C4.40953 13.42 4.51953 13.31 4.51953 13.17V12.17C4.51953 12.03 4.40953 11.9199 4.26953 11.9199H3.26953Z" fill="#292D32"/>
<path d="M20.7305 14.92H19.7305C18.7705 14.92 17.9805 14.13 17.9805 13.17V12.17C17.9805 11.21 18.7705 10.4199 19.7305 10.4199H20.7305C21.6905 10.4199 22.4805 11.21 22.4805 12.17V13.17C22.4805 14.13 21.7005 14.92 20.7305 14.92ZM19.7305 11.9199C19.5905 11.9199 19.4805 12.03 19.4805 12.17V13.17C19.4805 13.31 19.5905 13.42 19.7305 13.42H20.7305C20.8705 13.42 20.9805 13.31 20.9805 13.17V12.17C20.9805 12.03 20.8705 11.9199 20.7305 11.9199H19.7305Z" fill="#292D32"/>
<path d="M3.75 11.9201C3.34 11.9201 3 11.5801 3 11.1701C3 6.90007 6.2 3.31008 10.44 2.81008C10.85 2.77008 11.22 3.06005 11.27 3.47005C11.32 3.88005 11.02 4.25007 10.61 4.30007C7.13 4.71007 4.5 7.66007 4.5 11.1701C4.5 11.5801 4.16 11.9201 3.75 11.9201Z" fill="#292D32"/>
<path d="M20.25 11.92C19.84 11.92 19.5 11.58 19.5 11.17C19.5 7.68001 16.89 4.73002 13.43 4.31002C13.02 4.26002 12.73 3.89 12.78 3.48C12.83 3.07 13.2 2.77004 13.62 2.83004C17.83 3.34004 21.01 6.93002 21.01 11.18C21 11.58 20.67 11.92 20.25 11.92Z" fill="#292D32"/>
</svg>
