<svg width="24" height="24" viewBox="0 0 24 24" fill="none" xmlns="http://www.w3.org/2000/svg">
<path d="M4.99994 18.25C4.80994 18.25 4.61994 18.18 4.46994 18.03C4.17994 17.74 4.17994 17.26 4.46994 16.97L18.4699 2.97C18.7599 2.68 19.2399 2.68 19.5299 2.97C19.8199 3.26 19.8199 3.74 19.5299 4.03L5.52994 18.03C5.37994 18.18 5.18994 18.25 4.99994 18.25Z" fill="#292D32"/>
<path d="M15.27 18.25H5C4.59 18.25 4.25 17.91 4.25 17.5V7.22998C4.25 6.81998 4.59 6.47998 5 6.47998C5.41 6.47998 5.75 6.81998 5.75 7.22998V16.75H15.27C15.68 16.75 16.02 17.09 16.02 17.5C16.02 17.91 15.68 18.25 15.27 18.25Z" fill="#292D32"/>
<path d="M20.5 22.75H3.5C3.09 22.75 2.75 22.41 2.75 22C2.75 21.59 3.09 21.25 3.5 21.25H20.5C20.91 21.25 21.25 21.59 21.25 22C21.25 22.41 20.91 22.75 20.5 22.75Z" fill="#292D32"/>
</svg>
