<svg width="24" height="24" viewBox="0 0 24 24" fill="none" xmlns="http://www.w3.org/2000/svg">
<path d="M13.1807 18.7C12.0107 18.7 11.0207 17.98 10.6507 16.87L9.95072 14.8C9.84072 14.44 9.56072 14.17 9.22072 14.06L7.14072 13.36C6.02072 12.98 5.30072 11.97 5.32072 10.79C5.34072 9.60999 6.08072 8.62 7.21072 8.27L14.7407 5.92998C15.6907 5.63998 16.7207 5.89 17.4207 6.6C18.1207 7.31 18.3707 8.32999 18.0807 9.27999L15.7407 16.82C15.3907 17.95 14.4007 18.69 13.2107 18.71C13.2007 18.7 13.1907 18.7 13.1807 18.7ZM15.5207 7.29999C15.4007 7.29999 15.2907 7.32 15.1707 7.35L7.63072 9.69999C7.02072 9.88999 6.80072 10.39 6.80072 10.81C6.79072 11.22 7.00072 11.74 7.60072 11.94L9.68072 12.63C10.4807 12.89 11.1107 13.52 11.3707 14.33L12.0607 16.39C12.2607 16.99 12.7307 17.18 13.1907 17.2C13.6007 17.2 14.1107 16.98 14.3007 16.37L16.6407 8.82999C16.7707 8.40999 16.6607 7.97 16.3507 7.66C16.1207 7.42 15.8307 7.29999 15.5207 7.29999Z" fill="#292D32"/>
<path d="M15 22.75H9C3.57 22.75 1.25 20.43 1.25 15V9C1.25 3.57 3.57 1.25 9 1.25H15C20.43 1.25 22.75 3.57 22.75 9V15C22.75 20.43 20.43 22.75 15 22.75ZM9 2.75C4.39 2.75 2.75 4.39 2.75 9V15C2.75 19.61 4.39 21.25 9 21.25H15C19.61 21.25 21.25 19.61 21.25 15V9C21.25 4.39 19.61 2.75 15 2.75H9Z" fill="#292D32"/>
</svg>
