<svg width="24" height="24" viewBox="0 0 24 24" fill="none" xmlns="http://www.w3.org/2000/svg">
<path d="M5.50977 6.5C4.95977 6.5 4.50977 6.05 4.50977 5.5C4.50977 4.95 4.94977 4.5 5.50977 4.5H5.51977C6.06977 4.5 6.51977 4.95 6.51977 5.5C6.51977 6.05 6.06977 6.5 5.50977 6.5Z" fill="#292D32"/>
<path d="M18.5098 19.5C17.9598 19.5 17.5098 19.05 17.5098 18.5C17.5098 17.95 17.9498 17.5 18.5098 17.5H18.5198C19.0698 17.5 19.5198 17.95 19.5198 18.5C19.5198 19.05 19.0698 19.5 18.5098 19.5Z" fill="#292D32"/>
<path d="M5.46973 9.75C3.12973 9.75 1.21973 7.84 1.21973 5.5C1.21973 3.16 3.12973 1.25 5.46973 1.25C7.80973 1.25 9.71973 3.16 9.71973 5.5C9.71973 7.84 7.81973 9.75 5.46973 9.75ZM5.46973 2.75C3.94973 2.75 2.71973 3.98 2.71973 5.5C2.71973 7.02 3.94973 8.25 5.46973 8.25C6.98973 8.25 8.21973 7.02 8.21973 5.5C8.21973 3.98 6.98973 2.75 5.46973 2.75Z" fill="#292D32"/>
<path d="M19.9697 22.75H16.9697C15.4497 22.75 14.2197 21.52 14.2197 20V17C14.2197 15.48 15.4497 14.25 16.9697 14.25H19.9697C21.4897 14.25 22.7197 15.48 22.7197 17V20C22.7197 21.52 21.4897 22.75 19.9697 22.75ZM16.9697 15.75C16.2797 15.75 15.7197 16.31 15.7197 17V20C15.7197 20.69 16.2797 21.25 16.9697 21.25H19.9697C20.6597 21.25 21.2197 20.69 21.2197 20V17C21.2197 16.31 20.6597 15.75 19.9697 15.75H16.9697Z" fill="#292D32"/>
<path d="M12.0004 19.75H9.32043C8.16043 19.75 7.15043 19.05 6.75043 17.97C6.34043 16.89 6.64043 15.7 7.51043 14.93L15.5004 7.94C15.9804 7.52 15.9904 6.95 15.8504 6.56C15.7004 6.17 15.3204 5.75 14.6804 5.75H12.0004C11.5904 5.75 11.2504 5.41 11.2504 5C11.2504 4.59 11.5904 4.25 12.0004 4.25H14.6804C15.8404 4.25 16.8504 4.95 17.2504 6.03C17.6604 7.11 17.3604 8.3 16.4904 9.07L8.50043 16.06C8.02043 16.48 8.01043 17.05 8.15043 17.44C8.30043 17.83 8.68043 18.25 9.32043 18.25H12.0004C12.4104 18.25 12.7504 18.59 12.7504 19C12.7504 19.41 12.4104 19.75 12.0004 19.75Z" fill="#292D32"/>
</svg>
