<svg width="24" height="24" viewBox="0 0 24 24" fill="none" xmlns="http://www.w3.org/2000/svg">
<path d="M18.4697 22.75H14.4697C12.0497 22.75 10.7197 21.42 10.7197 19V5C10.7197 2.58 12.0497 1.25 14.4697 1.25H18.4697C20.8897 1.25 22.2197 2.58 22.2197 5V19C22.2197 21.42 20.8797 22.75 18.4697 22.75ZM14.4697 2.75C12.8897 2.75 12.2197 3.42 12.2197 5V19C12.2197 20.58 12.8897 21.25 14.4697 21.25H18.4697C20.0497 21.25 20.7197 20.58 20.7197 19V5C20.7197 3.42 20.0497 2.75 18.4697 2.75H14.4697Z" fill="#292D32"/>
<path d="M16.4697 6.75H11.4697C11.0597 6.75 10.7197 6.41 10.7197 6C10.7197 5.59 11.0597 5.25 11.4697 5.25H16.4697C16.8797 5.25 17.2197 5.59 17.2197 6C17.2197 6.41 16.8797 6.75 16.4697 6.75Z" fill="#292D32"/>
<path d="M15.4697 18.75H11.4697C11.0597 18.75 10.7197 18.41 10.7197 18C10.7197 17.59 11.0597 17.25 11.4697 17.25H15.4697C15.8797 17.25 16.2197 17.59 16.2197 18C16.2197 18.41 15.8797 18.75 15.4697 18.75Z" fill="#292D32"/>
<path d="M16.4699 14.75C16.4599 14.75 16.4599 14.75 16.4699 14.75L11.4599 14.7C11.0499 14.7 10.7099 14.36 10.7199 13.94C10.7199 13.53 11.0599 13.2 11.4699 13.2C11.4699 13.2 11.4699 13.2 11.4799 13.2L16.4799 13.25C16.8899 13.25 17.2299 13.59 17.2199 14.01C17.2099 14.42 16.8799 14.75 16.4699 14.75Z" fill="#292D32"/>
<path d="M14.4697 10.75H11.4697C11.0597 10.75 10.7197 10.41 10.7197 10C10.7197 9.59 11.0597 9.25 11.4697 9.25H14.4697C14.8797 9.25 15.2197 9.59 15.2197 10C15.2197 10.41 14.8797 10.75 14.4697 10.75Z" fill="#292D32"/>
<path d="M5.49027 22.72C4.58027 22.72 3.72027 22.16 3.13027 21.18L2.31027 19.82C2.01027 19.32 1.78027 18.5 1.78027 17.92V4.95C1.78027 2.91 3.44027 1.25 5.48027 1.25C7.52027 1.25 9.18027 2.91 9.18027 4.95V17.91C9.18027 18.49 8.95027 19.31 8.65027 19.81L7.83027 21.17C7.26027 22.16 6.40027 22.72 5.49027 22.72ZM5.49027 2.75C4.28027 2.75 3.29027 3.74 3.29027 4.95V17.91C3.29027 18.22 3.44027 18.77 3.60027 19.04L4.42027 20.4C4.73027 20.92 5.12027 21.21 5.49027 21.21C5.86027 21.21 6.25027 20.91 6.56027 20.4L7.38027 19.04C7.54027 18.77 7.69027 18.22 7.69027 17.91V4.95C7.69027 3.74 6.70027 2.75 5.49027 2.75Z" fill="#292D32"/>
<path d="M8.44027 7.75H2.53027C2.12027 7.75 1.78027 7.41 1.78027 7C1.78027 6.59 2.12027 6.25 2.53027 6.25H8.44027C8.85027 6.25 9.19027 6.59 9.19027 7C9.19027 7.41 8.85027 7.75 8.44027 7.75Z" fill="#292D32"/>
</svg>
