<svg width="24" height="24" viewBox="0 0 24 24" fill="none" xmlns="http://www.w3.org/2000/svg">
<path d="M20.6196 13.07C20.2396 13.07 19.9196 12.78 19.8696 12.4C19.6296 10.14 18.4096 8.08998 16.5296 6.78998C16.1896 6.54998 16.1096 6.08998 16.3396 5.74998C16.5796 5.40998 17.0496 5.32998 17.3796 5.55998C19.6196 7.10998 21.0596 9.54998 21.3496 12.24C21.3896 12.65 21.0996 13.02 20.6796 13.07C20.6696 13.07 20.6396 13.07 20.6196 13.07Z" fill="#292D32"/>
<path d="M3.48991 13.12C3.45991 13.12 3.43991 13.12 3.40991 13.12C2.99991 13.07 2.69991 12.7 2.73991 12.29C3.00991 9.60001 4.43991 7.17001 6.64991 5.60001C6.98991 5.36001 7.45991 5.44001 7.69991 5.78001C7.93991 6.12001 7.85991 6.59001 7.51991 6.83001C5.65991 8.14001 4.45991 10.19 4.22991 12.45C4.19991 12.83 3.86991 13.12 3.48991 13.12Z" fill="#292D32"/>
<path d="M12.06 22.61C10.58 22.61 9.16997 22.27 7.84997 21.61C7.47997 21.42 7.32997 20.97 7.51997 20.6C7.70997 20.23 8.15997 20.08 8.52997 20.27C10.69 21.36 13.29 21.38 15.47 20.33C15.84 20.15 16.29 20.31 16.47 20.68C16.65 21.05 16.49 21.5 16.12 21.68C14.84 22.3 13.48 22.61 12.06 22.61Z" fill="#292D32"/>
<path d="M12.0603 8.44C10.1103 8.44 8.53027 6.86 8.53027 4.91C8.53027 2.96 10.1103 1.38 12.0603 1.38C14.0103 1.38 15.5903 2.96 15.5903 4.91C15.5903 6.86 14.0003 8.44 12.0603 8.44ZM12.0603 2.89C10.9403 2.89 10.0303 3.8 10.0303 4.92C10.0303 6.04 10.9403 6.95 12.0603 6.95C13.1803 6.95 14.0903 6.04 14.0903 4.92C14.0903 3.8 13.1703 2.89 12.0603 2.89Z" fill="#292D32"/>
<path d="M4.8298 20.67C2.8798 20.67 1.2998 19.09 1.2998 17.14C1.2998 15.2 2.8798 13.61 4.8298 13.61C6.7798 13.61 8.3598 15.19 8.3598 17.14C8.3598 19.08 6.7798 20.67 4.8298 20.67ZM4.8298 15.11C3.7098 15.11 2.7998 16.02 2.7998 17.14C2.7998 18.26 3.7098 19.17 4.8298 19.17C5.9498 19.17 6.85981 18.26 6.85981 17.14C6.85981 16.02 5.9498 15.11 4.8298 15.11Z" fill="#292D32"/>
<path d="M19.1696 20.67C17.2196 20.67 15.6396 19.09 15.6396 17.14C15.6396 15.2 17.2196 13.61 19.1696 13.61C21.1196 13.61 22.6996 15.19 22.6996 17.14C22.6896 19.08 21.1096 20.67 19.1696 20.67ZM19.1696 15.11C18.0496 15.11 17.1396 16.02 17.1396 17.14C17.1396 18.26 18.0496 19.17 19.1696 19.17C20.2896 19.17 21.1996 18.26 21.1996 17.14C21.1896 16.02 20.2896 15.11 19.1696 15.11Z" fill="#292D32"/>
</svg>
