<svg width="24" height="24" viewBox="0 0 24 24" fill="none" xmlns="http://www.w3.org/2000/svg">
<path d="M14.9697 22.75H8.96973C3.53973 22.75 1.21973 20.43 1.21973 15V9C1.21973 3.57 3.53973 1.25 8.96973 1.25H14.9697C20.3997 1.25 22.7197 3.57 22.7197 9V15C22.7197 20.43 20.4097 22.75 14.9697 22.75ZM8.96973 2.75C4.35973 2.75 2.71973 4.39 2.71973 9V15C2.71973 19.61 4.35973 21.25 8.96973 21.25H14.9697C19.5797 21.25 21.2197 19.61 21.2197 15V9C21.2197 4.39 19.5797 2.75 14.9697 2.75H8.96973Z" fill="#292D32"/>
<path d="M22 9.25H2C1.59 9.25 1.25 8.91 1.25 8.5C1.25 8.09 1.59 7.75 2 7.75H22C22.41 7.75 22.75 8.09 22.75 8.5C22.75 8.91 22.41 9.25 22 9.25Z" fill="#292D32"/>
<path d="M14.5599 16.25C14.3699 16.25 14.1799 16.18 14.0299 16.03L11.9999 14L9.96988 16.03C9.67988 16.32 9.19988 16.32 8.90988 16.03C8.61988 15.74 8.61988 15.26 8.90988 14.97L11.4699 12.41C11.7599 12.12 12.2399 12.12 12.5299 12.41L15.0899 14.97C15.3799 15.26 15.3799 15.74 15.0899 16.03C14.9399 16.18 14.7499 16.25 14.5599 16.25Z" fill="#292D32"/>
</svg>
