<svg width="24" height="24" viewBox="0 0 24 24" fill="none" xmlns="http://www.w3.org/2000/svg">
<path d="M5.28012 19.4C5.22012 19.4 5.17012 19.39 5.11012 19.38C4.71012 19.29 4.45012 18.88 4.55012 18.48L5.12012 16.02C5.20012 15.7 5.04012 15.15 4.80012 14.91L2.32012 12.43C1.08012 11.19 1.18012 10.13 1.35012 9.60996C1.52012 9.08996 2.06012 8.16996 3.78012 7.87996L6.97012 7.34996C7.27012 7.28996 7.70012 6.96996 7.83012 6.69996L9.60012 3.16996C10.4001 1.55996 11.4501 1.32996 12.0001 1.32996C12.5501 1.32996 13.6001 1.56996 14.4001 3.16996L16.1601 6.68996C16.2201 6.80996 16.3501 6.94996 16.5001 7.06996C16.8301 7.31996 16.8901 7.79996 16.6301 8.11996C16.3801 8.44996 15.9101 8.50996 15.5801 8.24996C15.3401 8.06996 15.0201 7.75996 14.8201 7.35996L13.0601 3.83996C12.7501 3.20996 12.3501 2.82996 12.0001 2.82996C11.6501 2.82996 11.2501 3.20996 10.9401 3.84996L9.17012 7.36996C8.82012 8.06996 7.98012 8.68996 7.21012 8.81996L4.03012 9.34996C3.35012 9.45996 2.89012 9.72996 2.78012 10.06C2.67012 10.39 2.90012 10.88 3.39012 11.36L5.87012 13.84C6.47012 14.44 6.78012 15.52 6.59012 16.35L6.02012 18.81C5.93012 19.16 5.63012 19.4 5.28012 19.4Z" fill="#292D32"/>
<path d="M17.6603 22.67C17.1303 22.67 16.4503 22.5 15.6003 22L12.6103 20.23C12.3003 20.05 11.7003 20.05 11.4003 20.23L8.40031 22C8.05031 22.21 7.58031 22.09 7.37031 21.74C7.16031 21.38 7.28031 20.92 7.63031 20.71L10.6203 18.94C11.4003 18.48 12.5803 18.48 13.3603 18.94L16.3503 20.71C17.2203 21.23 17.7703 21.23 17.9803 21.08C18.1903 20.93 18.3403 20.4 18.1203 19.42L17.4103 16.35C17.2203 15.52 17.5303 14.45 18.1303 13.84L20.6103 11.36C21.1003 10.87 21.3203 10.39 21.2203 10.06C21.1103 9.73003 20.6503 9.46003 19.9703 9.35003C19.5603 9.28003 19.2903 8.90002 19.3503 8.49002C19.4203 8.08002 19.8003 7.81002 20.2103 7.87002C21.9403 8.16002 22.4803 9.08003 22.6403 9.60003C22.8003 10.12 22.9003 11.18 21.6703 12.42L19.2003 14.9C18.9603 15.14 18.8103 15.68 18.8803 16.01L19.5903 19.08C20.0503 21.08 19.3403 21.95 18.8803 22.29C18.6303 22.47 18.2303 22.67 17.6603 22.67Z" fill="#292D32"/>
<path d="M2.00043 22.7499C1.81043 22.7499 1.62043 22.6799 1.47043 22.5299C1.18043 22.2399 1.18043 21.7599 1.47043 21.4699L21.4704 1.46994C21.7604 1.17994 22.2404 1.17994 22.5304 1.46994C22.8204 1.75994 22.8204 2.23994 22.5304 2.52994L2.53043 22.5299C2.38043 22.6799 2.19043 22.7499 2.00043 22.7499Z" fill="#292D32"/>
</svg>
