<svg width="24" height="24" viewBox="0 0 24 24" fill="none" xmlns="http://www.w3.org/2000/svg">
<path d="M6.87988 18.9C6.46988 18.9 6.12988 18.56 6.12988 18.15V16.08C6.12988 15.67 6.46988 15.33 6.87988 15.33C7.28988 15.33 7.62988 15.67 7.62988 16.08V18.15C7.62988 18.57 7.28988 18.9 6.87988 18.9Z" fill="#292D32"/>
<path d="M12 18.9C11.59 18.9 11.25 18.56 11.25 18.15V14C11.25 13.59 11.59 13.25 12 13.25C12.41 13.25 12.75 13.59 12.75 14V18.15C12.75 18.57 12.41 18.9 12 18.9Z" fill="#292D32"/>
<path d="M17.1201 18.9C16.7101 18.9 16.3701 18.56 16.3701 18.15V11.93C16.3701 11.52 16.7101 11.18 17.1201 11.18C17.5301 11.18 17.8701 11.52 17.8701 11.93V18.15C17.8701 18.57 17.5401 18.9 17.1201 18.9Z" fill="#292D32"/>
<path d="M6.87958 13.18C6.53958 13.18 6.23958 12.95 6.14958 12.61C6.04958 12.21 6.28958 11.8 6.69958 11.7C10.3796 10.78 13.6196 8.77 16.0896 5.9L16.5496 5.36C16.8196 5.05 17.2896 5.01 17.6096 5.28C17.9196 5.55 17.9596 6.02 17.6896 6.34L17.2296 6.88C14.5596 10 11.0396 12.17 7.05958 13.16C6.99958 13.18 6.93958 13.18 6.87958 13.18Z" fill="#292D32"/>
<path d="M17.1204 9.52C16.7104 9.52 16.3704 9.18 16.3704 8.77V6.6H14.1904C13.7804 6.6 13.4404 6.26 13.4404 5.85C13.4404 5.44 13.7804 5.1 14.1904 5.1H17.1204C17.5304 5.1 17.8704 5.44 17.8704 5.85V8.78C17.8704 9.19 17.5404 9.52 17.1204 9.52Z" fill="#292D32"/>
<path d="M15 22.75H9C3.57 22.75 1.25 20.43 1.25 15V9C1.25 3.57 3.57 1.25 9 1.25H15C20.43 1.25 22.75 3.57 22.75 9V15C22.75 20.43 20.43 22.75 15 22.75ZM9 2.75C4.39 2.75 2.75 4.39 2.75 9V15C2.75 19.61 4.39 21.25 9 21.25H15C19.61 21.25 21.25 19.61 21.25 15V9C21.25 4.39 19.61 2.75 15 2.75H9Z" fill="#292D32"/>
</svg>
