<svg width="24" height="24" viewBox="0 0 24 24" fill="none" xmlns="http://www.w3.org/2000/svg">
<path d="M11.9703 22.75C11.3603 22.75 10.7303 22.7 10.0903 22.59C5.6903 21.84 2.1003 18.24 1.3703 13.82C0.790296 10.31 1.8803 6.87997 4.3703 4.38997C6.8603 1.89997 10.2903 0.81997 13.7903 1.38997C18.2003 2.11997 21.8103 5.69997 22.5603 10.1C22.7203 11.07 22.7603 12.02 22.6803 12.92V12.93C22.6603 13.16 22.6203 13.38 22.5603 13.6C22.4903 13.85 22.3003 14.04 22.0603 14.12C21.8203 14.2 21.5503 14.14 21.3503 13.98C20.4103 13.19 19.2103 12.75 17.9703 12.75C15.0703 12.75 12.7203 15.11 12.7203 18C12.7203 19.24 13.1603 20.44 13.9503 21.38C14.1203 21.58 14.1703 21.84 14.0903 22.09C14.0103 22.34 13.8203 22.52 13.5703 22.59C13.3503 22.65 13.1303 22.69 12.9003 22.71C12.6003 22.74 12.2903 22.75 11.9703 22.75ZM11.9703 2.74997C9.5203 2.74997 7.2003 3.69997 5.4403 5.45997C3.3003 7.59997 2.3603 10.56 2.8603 13.58C3.4903 17.37 6.5603 20.47 10.3503 21.11C10.9503 21.21 11.5203 21.27 12.0703 21.25C11.5303 20.26 11.2403 19.14 11.2403 18C11.2403 14.28 14.2703 11.25 17.9903 11.25C19.1303 11.25 20.2503 11.54 21.2403 12.08C21.2503 11.53 21.2003 10.96 21.1003 10.36C20.4603 6.57997 17.3603 3.49997 13.5703 2.87997C13.0203 2.78997 12.4903 2.74997 11.9703 2.74997Z" fill="#292D32"/>
<path d="M13.3797 22.61C13.1597 22.61 12.9497 22.52 12.8097 22.34C11.7897 21.13 11.2197 19.59 11.2197 18C11.2197 14.28 14.2497 11.25 17.9697 11.25C19.5597 11.25 21.0997 11.81 22.3097 12.84C22.5397 13.03 22.6297 13.34 22.5497 13.62C22.3697 14.24 22.0497 14.78 21.5897 15.24L15.2097 21.62C14.7497 22.08 14.1997 22.4 13.5897 22.58C13.5197 22.6 13.4497 22.61 13.3797 22.61ZM17.9697 12.75C15.0697 12.75 12.7197 15.11 12.7197 18C12.7197 19.06 13.0397 20.09 13.6297 20.95C13.8197 20.85 13.9897 20.72 14.1497 20.56L20.5297 14.18C20.6897 14.02 20.8197 13.85 20.9197 13.66C20.0597 13.07 19.0297 12.75 17.9697 12.75Z" fill="#292D32"/>
</svg>
