<svg width="24" height="24" viewBox="0 0 24 24" fill="none" xmlns="http://www.w3.org/2000/svg">
<path d="M15 22.75H9C3.57 22.75 1.25 20.43 1.25 15V9C1.25 3.57 3.57 1.25 9 1.25H15C20.43 1.25 22.75 3.57 22.75 9V15C22.75 20.43 20.43 22.75 15 22.75ZM9 2.75C4.39 2.75 2.75 4.39 2.75 9V15C2.75 19.61 4.39 21.25 9 21.25H15C19.61 21.25 21.25 19.61 21.25 15V9C21.25 4.39 19.61 2.75 15 2.75H9Z" fill="#292D32"/>
<path d="M17.9 9.8C17.88 9.8 17.85 9.8 17.83 9.8C14.37 9.46 10.93 9.31999 7.52003 9.66999L6.18002 9.8C5.76002 9.84 5.40002 9.54 5.36002 9.13C5.32002 8.72 5.62002 8.34999 6.03002 8.30999L7.37002 8.17999C10.88 7.82999 14.42 7.95999 17.98 8.30999C18.39 8.34999 18.69 8.72 18.65 9.13C18.61 9.51 18.28 9.8 17.9 9.8Z" fill="#292D32"/>
<path d="M14.2895 9.13995C13.9295 9.13995 13.6095 8.87996 13.5495 8.51996L13.4095 7.66995C13.3895 7.52995 13.3495 7.30995 13.3095 7.25995C13.3095 7.25995 13.2095 7.19995 12.8495 7.19995H11.1295C10.7595 7.19995 10.6595 7.25995 10.6595 7.25995C10.6395 7.29995 10.5995 7.51996 10.5795 7.65996L10.4395 8.51996C10.3695 8.92996 9.9795 9.19995 9.5795 9.13995C9.1695 9.06995 8.8995 8.67995 8.9595 8.27995L9.0995 7.41995C9.2095 6.77995 9.3895 5.70996 11.1295 5.70996H12.8495C14.5995 5.70996 14.7795 6.82995 14.8795 7.42995L15.0195 8.27995C15.0895 8.68995 14.8095 9.07995 14.4095 9.13995C14.3795 9.13995 14.3295 9.13995 14.2895 9.13995Z" fill="#292D32"/>
<path d="M14.1 18.31H9.89C7.36 18.31 7.24999 16.79 7.17999 15.78L6.75 9.16999C6.72 8.75999 7.03999 8.39999 7.44999 8.36999C7.86999 8.33999 8.22 8.66 8.25 9.07L8.67999 15.67C8.74999 16.65 8.76 16.8 9.89 16.8H14.1C15.23 16.8 15.24 16.65 15.31 15.67L15.74 9.07C15.77 8.66 16.11 8.33999 16.54 8.36999C16.95 8.39999 17.27 8.74999 17.24 9.16999L16.81 15.77C16.74 16.79 16.64 18.31 14.1 18.31Z" fill="#292D32"/>
</svg>
