<svg width="24" height="24" viewBox="0 0 24 24" fill="none" xmlns="http://www.w3.org/2000/svg">
<path d="M22 3.78H2C1.59 3.78 1.25 3.44 1.25 3.03C1.25 2.62 1.59 2.28 2 2.28H22C22.41 2.28 22.75 2.62 22.75 3.03C22.75 3.44 22.41 3.78 22 3.78Z" fill="black"/>
<path d="M11.9997 21.72C11.3597 21.72 10.7797 21.4 10.4297 20.87L2.46966 8.47999C2.09966 7.90999 2.07965 7.17999 2.39965 6.57999C2.72965 5.97999 3.34966 5.60999 4.02966 5.60999H19.9597C20.6397 5.60999 21.2697 5.97999 21.5897 6.57999C21.9197 7.17999 21.8896 7.90999 21.5196 8.47999L13.5597 20.87C13.2197 21.4 12.6397 21.72 11.9997 21.72ZM4.03967 7.10999C3.84967 7.10999 3.74966 7.23999 3.71966 7.29999C3.68966 7.35999 3.62967 7.50998 3.72967 7.66998L11.6897 20.06C11.7797 20.2 11.9196 20.23 11.9896 20.23C12.0596 20.23 12.1997 20.21 12.2897 20.06L20.2497 7.66998C20.3497 7.50998 20.2897 7.35999 20.2597 7.29999C20.2297 7.23999 20.1397 7.10999 19.9397 7.10999H4.03967Z" fill="black"/>
</svg>
