<svg width="24" height="24" viewBox="0 0 24 24" fill="none" xmlns="http://www.w3.org/2000/svg">
<path d="M20.89 10.5301C20.48 10.5301 20.14 10.1901 20.14 9.78006V6.91006L12 2.84006L3.85999 6.91006V9.78006C3.85999 10.1901 3.51999 10.5301 3.10999 10.5301C2.69999 10.5301 2.35999 10.1901 2.35999 9.78006V6.44006C2.35999 6.16006 2.52003 5.90006 2.78003 5.77006L11.67 1.33006C11.88 1.22006 12.13 1.22006 12.34 1.33006L21.23 5.77006C21.48 5.90006 21.65 6.16006 21.65 6.44006V9.77006C21.64 10.1901 21.3 10.5301 20.89 10.5301Z" fill="#292D32"/>
<path d="M12 22.75C11.88 22.75 11.77 22.72 11.67 22.67L2.78003 18.23C2.53003 18.1 2.35999 17.84 2.35999 17.56V14.23C2.35999 13.82 2.69999 13.48 3.10999 13.48C3.51999 13.48 3.85999 13.82 3.85999 14.23V17.1L12 21.17L20.14 17.1V14.23C20.14 13.82 20.48 13.48 20.89 13.48C21.3 13.48 21.64 13.82 21.64 14.23V17.56C21.64 17.84 21.48 18.1 21.22 18.23L12.33 22.67C12.23 22.72 12.12 22.75 12 22.75Z" fill="#292D32"/>
<path opacity="0.4" d="M16.4401 12.0001C16.4401 9.55006 14.4501 7.56006 12.0001 7.56006C9.55006 7.56006 7.56006 9.55006 7.56006 12.0001C7.56006 14.2001 9.17008 16.0201 11.2701 16.3701C11.2701 16.4001 11.2601 16.4201 11.2601 16.4401V22.0001C11.2601 22.4101 11.6001 22.7501 12.0101 22.7501C12.4201 22.7501 12.7601 22.4101 12.7601 22.0001V16.4401C12.7601 16.4101 12.7501 16.3901 12.7501 16.3701C14.8401 16.0201 16.4401 14.2001 16.4401 12.0001Z" fill="#292D32"/>
</svg>
