<svg width="24" height="24" viewBox="0 0 24 24" fill="none" xmlns="http://www.w3.org/2000/svg">
<path opacity="0.4" d="M16.8201 2H7.18007C5.05007 2 3.32007 3.74 3.32007 5.86V19.95C3.32007 21.75 4.61007 22.51 6.19007 21.64L11.0701 18.93C11.5901 18.64 12.4301 18.64 12.9401 18.93L17.8201 21.64C19.4001 22.52 20.6901 21.76 20.6901 19.95V5.86C20.6801 3.74 18.9501 2 16.8201 2Z" fill="#292D32"/>
<path d="M14.5 9.89996H12.75V8.20996C12.75 7.79996 12.41 7.45996 12 7.45996C11.59 7.45996 11.25 7.79996 11.25 8.20996V9.89996H9.5C9.09 9.89996 8.75 10.24 8.75 10.65C8.75 11.06 9.09 11.4 9.5 11.4H11.25V13.21C11.25 13.62 11.59 13.96 12 13.96C12.41 13.96 12.75 13.62 12.75 13.21V11.4H14.5C14.91 11.4 15.25 11.06 15.25 10.65C15.25 10.24 14.91 9.89996 14.5 9.89996Z" fill="#292D32"/>
</svg>
