<svg width="24" height="24" viewBox="0 0 24 24" fill="none" xmlns="http://www.w3.org/2000/svg">
<path opacity="0.4" d="M12 22C17.5228 22 22 17.5228 22 12C22 6.47715 17.5228 2 12 2C6.47715 2 2 6.47715 2 12C2 17.5228 6.47715 22 12 22Z" fill="#292D32"/>
<path d="M15.4999 11.2499H10.3099L12.0299 9.52994C12.3199 9.23994 12.3199 8.75994 12.0299 8.46994C11.7399 8.17994 11.2599 8.17994 10.9699 8.46994L7.96994 11.4699C7.67994 11.7599 7.67994 12.2399 7.96994 12.5299L10.9699 15.5299C11.1199 15.6799 11.3099 15.7499 11.4999 15.7499C11.6899 15.7499 11.8799 15.6799 12.0299 15.5299C12.3199 15.2399 12.3199 14.7599 12.0299 14.4699L10.3099 12.7499H15.4999C15.9099 12.7499 16.2499 12.4099 16.2499 11.9999C16.2499 11.5899 15.9099 11.2499 15.4999 11.2499Z" fill="#292D32"/>
</svg>
