<svg width="24" height="24" viewBox="0 0 24 24" fill="none" xmlns="http://www.w3.org/2000/svg">
<path opacity="0.4" d="M19.24 5.58006H18.84L15.46 2.20006C15.19 1.93006 14.75 1.93006 14.47 2.20006C14.2 2.47006 14.2 2.91006 14.47 3.19006L16.86 5.58006H7.14L9.53 3.19006C9.8 2.92006 9.8 2.48006 9.53 2.20006C9.26 1.93006 8.82 1.93006 8.54 2.20006L5.17 5.58006H4.77C3.87 5.58006 2 5.58006 2 8.14006C2 9.11006 2.2 9.75006 2.62 10.1701C2.86 10.4201 3.15 10.5501 3.46 10.6201C3.75 10.6901 4.06 10.7001 4.36 10.7001H19.64C19.95 10.7001 20.24 10.6801 20.52 10.6201C21.36 10.4201 22 9.82006 22 8.14006C22 5.58006 20.13 5.58006 19.24 5.58006Z" fill="#292D32"/>
<path d="M19.66 10.6999H4.35996C4.06996 10.6999 3.74996 10.6899 3.45996 10.6099L4.71996 18.2999C5.00996 20.0199 5.75996 21.9999 9.08996 21.9999H14.7C18.07 21.9999 18.67 20.3099 19.03 18.4199L20.54 10.6099C20.26 10.6799 19.96 10.6999 19.66 10.6999ZM13.92 17.8899C13.77 18.0399 13.58 18.1099 13.39 18.1099C13.2 18.1099 13.01 18.0399 12.86 17.8899L12.01 17.0399L11.13 17.9199C10.98 18.0699 10.79 18.1399 10.6 18.1399C10.41 18.1399 10.22 18.0699 10.07 17.9199C9.77996 17.6299 9.77996 17.1499 10.07 16.8599L10.95 15.9799L10.1 15.1299C9.80996 14.8399 9.80996 14.3599 10.1 14.0699C10.39 13.7799 10.87 13.7799 11.16 14.0699L12.01 14.9199L12.83 14.0999C13.12 13.8099 13.6 13.8099 13.89 14.0999C14.18 14.3899 14.18 14.8699 13.89 15.1599L13.07 15.9799L13.92 16.8299C14.22 17.1299 14.22 17.5999 13.92 17.8899Z" fill="#292D32"/>
</svg>
