<svg width="24" height="24" viewBox="0 0 24 24" fill="none" xmlns="http://www.w3.org/2000/svg">
<path opacity="0.4" d="M19.24 5.58006H18.84L15.46 2.20006C15.19 1.93006 14.75 1.93006 14.47 2.20006C14.2 2.47006 14.2 2.91006 14.47 3.19006L16.86 5.58006H7.14L9.53 3.19006C9.8 2.92006 9.8 2.48006 9.53 2.20006C9.26 1.93006 8.82 1.93006 8.54 2.20006L5.17 5.58006H4.77C3.87 5.58006 2 5.58006 2 8.14006C2 9.11006 2.2 9.75006 2.62 10.1701C2.86 10.4201 3.15 10.5501 3.46 10.6201C3.75 10.6901 4.06 10.7001 4.36 10.7001H19.64C19.95 10.7001 20.24 10.6801 20.52 10.6201C21.36 10.4201 22 9.82006 22 8.14006C22 5.58006 20.13 5.58006 19.24 5.58006Z" fill="#292D32"/>
<path d="M19.65 10.6999H4.35996C4.06996 10.6999 3.74996 10.6899 3.45996 10.6099L4.71996 18.2999C4.99996 20.0199 5.74996 21.9999 9.07996 21.9999H14.69C18.06 21.9999 18.66 20.3099 19.02 18.4199L20.53 10.6099C20.25 10.6799 19.95 10.6999 19.65 10.6999ZM12 18.4999C9.65996 18.4999 7.74996 16.5899 7.74996 14.2499C7.74996 13.8399 8.08996 13.4999 8.49996 13.4999C8.90996 13.4999 9.24996 13.8399 9.24996 14.2499C9.24996 15.7699 10.48 16.9999 12 16.9999C13.52 16.9999 14.75 15.7699 14.75 14.2499C14.75 13.8399 15.09 13.4999 15.5 13.4999C15.91 13.4999 16.25 13.8399 16.25 14.2499C16.25 16.5899 14.34 18.4999 12 18.4999Z" fill="#292D32"/>
</svg>
