<svg width="24" height="24" viewBox="0 0 24 24" fill="none" xmlns="http://www.w3.org/2000/svg">
<path opacity="0.4" d="M16.1899 8.8599C15.7999 8.8599 15.4899 8.5499 15.4899 8.1599V6.8799C15.4899 5.8999 15.0699 4.9599 14.3499 4.2999C13.6099 3.6299 12.6599 3.3199 11.6599 3.4099C9.97986 3.5699 8.50986 5.2799 8.50986 7.0599V7.9599C8.50986 8.3499 8.19986 8.6599 7.80986 8.6599C7.41986 8.6599 7.10986 8.3499 7.10986 7.9599V7.0599C7.10986 4.5599 9.12986 2.2499 11.5199 2.0199C12.9099 1.8899 14.2499 2.3299 15.2799 3.2699C16.2999 4.1899 16.8799 5.5099 16.8799 6.8799V8.1599C16.8799 8.5499 16.5699 8.8599 16.1899 8.8599Z" fill="#292D32"/>
<path d="M19.9602 8.96008C19.1202 8.03008 17.7402 7.58008 15.7202 7.58008H8.28023C6.26023 7.58008 4.88023 8.03008 4.04023 8.96008C3.07023 10.0401 3.10023 11.4801 3.21023 12.4801L3.91023 18.0501C4.12023 20.0001 4.91023 22.0001 9.21023 22.0001H14.7902C19.0902 22.0001 19.8802 20.0001 20.0902 18.0601L20.7902 12.4701C20.9002 11.4801 20.9302 10.0401 19.9602 8.96008ZM12.0002 18.5801C9.91023 18.5801 8.21023 16.8801 8.21023 14.7901C8.21023 12.7001 9.91023 11.0001 12.0002 11.0001C14.0902 11.0001 15.7902 12.7001 15.7902 14.7901C15.7902 16.8801 14.0902 18.5801 12.0002 18.5801Z" fill="#292D32"/>
<path opacity="0.4" d="M12 18.58C14.0931 18.58 15.79 16.8832 15.79 14.79C15.79 12.6968 14.0931 11 12 11C9.9068 11 8.20996 12.6968 8.20996 14.79C8.20996 16.8832 9.9068 18.58 12 18.58Z" fill="#292D32"/>
<path d="M11.4299 16.64C11.2399 16.64 11.0499 16.57 10.8999 16.42L9.90988 15.43C9.61988 15.14 9.61988 14.66 9.90988 14.37C10.1999 14.08 10.6799 14.08 10.9699 14.37L11.4499 14.85L13.0499 13.37C13.3499 13.09 13.8299 13.11 14.1099 13.41C14.3899 13.71 14.3699 14.19 14.0699 14.47L11.9399 16.44C11.7899 16.57 11.6099 16.64 11.4299 16.64Z" fill="#292D32"/>
</svg>
