<svg width="24" height="24" viewBox="0 0 24 24" fill="none" xmlns="http://www.w3.org/2000/svg">
<path opacity="0.4" d="M12.93 4.79004H7.35C3.25 4.79004 2 6.04004 2 10.14V13.86C2 17.96 3.25 19.21 7.35 19.21H12.93C17.03 19.21 18.28 17.96 18.28 13.86V10.14C18.28 6.04004 17.03 4.79004 12.93 4.79004Z" fill="#292D32"/>
<path d="M20.4202 8.99998C20.2802 8.98998 20.1002 8.97998 19.9002 8.97998C19.5102 8.97998 19.2002 9.28998 19.2002 9.67998V14.33C19.2002 14.72 19.5102 15.03 19.9002 15.03C20.1002 15.03 20.2702 15.02 20.4402 15.01C22.0002 14.83 22.0002 13.73 22.0002 12.93V11.07C22.0002 10.27 22.0002 9.16998 20.4202 8.99998Z" fill="#292D32"/>
<path d="M10.0102 16.2398C9.84018 16.2398 9.66018 16.1798 9.52018 16.0598C9.21018 15.7898 9.17018 15.3198 9.44018 14.9998L11.2402 12.8898C11.2502 12.8598 11.2402 12.8298 11.2202 12.7998C11.2002 12.7598 11.1602 12.7398 11.1102 12.7398H9.12018C8.53018 12.7398 8.01018 12.4398 7.71018 11.9298C7.42018 11.4198 7.42018 10.8198 7.71018 10.3098L9.42018 8.04978C9.67018 7.71978 10.1402 7.64978 10.4702 7.89978C10.8002 8.14978 10.8702 8.61978 10.6202 8.94978L8.97018 11.1398C9.00018 11.0998 9.00018 11.1398 9.02018 11.1898C9.04018 11.2298 9.08018 11.2498 9.13018 11.2498H11.1402C11.7302 11.2498 12.2502 11.5498 12.5502 12.0598C12.8402 12.5698 12.8402 13.1698 12.5502 13.6798C12.5302 13.7198 12.5002 13.7598 12.4702 13.7898L10.6002 15.9798C10.4402 16.1598 10.2302 16.2398 10.0102 16.2398Z" fill="#292D32"/>
</svg>
