<svg width="24" height="24" viewBox="0 0 24 24" fill="none" xmlns="http://www.w3.org/2000/svg">
<path d="M20.4202 8.99998C20.2802 8.98998 20.1002 8.97998 19.9002 8.97998C19.5102 8.97998 19.2002 9.28998 19.2002 9.67998V14.33C19.2002 14.72 19.5102 15.03 19.9002 15.03C20.1002 15.03 20.2702 15.02 20.4402 15.01C22.0002 14.83 22.0002 13.73 22.0002 12.93V11.07C22.0002 10.27 22.0002 9.16998 20.4202 8.99998Z" fill="#292D32"/>
<path opacity="0.4" d="M14.5 4.87004L5.52 19.09C2.87 18.71 2 17.27 2 13.86V10.14C2 6.04004 3.25 4.79004 7.35 4.79004H12.93C13.51 4.79004 14.03 4.81004 14.5 4.87004Z" fill="#292D32"/>
<path opacity="0.4" d="M18.2802 10.1401V13.8601C18.2802 16.8101 15.8802 19.2101 12.9302 19.2101H7.4502L16.2302 5.31006C17.7502 6.00006 18.2802 7.46006 18.2802 10.1401Z" fill="#292D32"/>
<path d="M3.99991 22.2499C3.85991 22.2499 3.71991 22.2099 3.59991 22.1299C3.24991 21.9099 3.13991 21.4499 3.36991 21.0999L15.3699 2.09987C15.5899 1.74987 16.0599 1.64987 16.3999 1.86987C16.7499 2.08987 16.8599 2.54987 16.6299 2.89987L4.62991 21.8999C4.48991 22.1299 4.24991 22.2499 3.99991 22.2499Z" fill="#292D32"/>
</svg>
