<svg width="24" height="24" viewBox="0 0 24 24" fill="none" xmlns="http://www.w3.org/2000/svg">
<path opacity="0.4" d="M15 22H9C6 22 4 20 4 17V7C4 4 6 2 9 2H15C18 2 20 4 20 7V17C20 20 18 22 15 22Z" fill="#292D32"/>
<path d="M12.6 18.1101C12.38 18.1101 12.21 18.0501 12.11 18.0101C11.89 17.9101 11.3901 17.5801 11.3901 16.6701V14.0001L9.09004 16.1101C8.79004 16.3901 8.31004 16.3701 8.03004 16.0601C7.75004 15.7501 7.77003 15.2801 8.08003 15.0001L11.36 11.9901L8.08003 8.98012C7.77003 8.70012 7.75004 8.23012 8.03004 7.92012C8.31004 7.62012 8.79004 7.5901 9.09004 7.8701L11.3901 9.98012V7.32011C11.3901 6.42011 11.89 6.09012 12.11 5.98012C12.32 5.88012 12.9 5.7001 13.6 6.2801L15.66 8.00011C15.96 8.25011 16.14 8.62011 16.15 9.00011C16.16 9.38011 16 9.76009 15.71 10.0201L13.58 11.9701L15.71 13.9201C16 14.1901 16.16 14.5601 16.15 14.9401C16.14 15.3201 15.96 15.6901 15.66 15.9401L13.6 17.6601C13.22 18.0201 12.87 18.1101 12.6 18.1101ZM12.9 13.4101V16.3301L14.5701 14.9401L12.9 13.4101ZM12.9 7.67012V10.5901L14.5701 9.0601L12.9 7.67012Z" fill="#292D32"/>
</svg>
