<svg width="24" height="24" viewBox="0 0 24 24" fill="none" xmlns="http://www.w3.org/2000/svg">
<path opacity="0.4" d="M5.33012 19.4198C5.22012 19.4198 5.10011 19.3898 5.00011 19.3398L2.78011 18.2298C2.53011 18.0998 2.37012 17.8398 2.37012 17.5598V14.7798C2.37012 14.3698 2.71012 14.0298 3.12012 14.0298C3.53012 14.0298 3.87012 14.3698 3.87012 14.7798V17.0898L5.68011 17.9898C6.05011 18.1798 6.20011 18.6298 6.02011 18.9998C5.87011 19.2598 5.61012 19.4198 5.33012 19.4198Z" fill="#292D32"/>
<path d="M12 22.7502C11.94 22.7502 11.88 22.7402 11.83 22.7302C11.77 22.7202 11.71 22.6902 11.65 22.6602L9.43996 21.5602C9.06996 21.3702 8.91996 20.9202 9.09996 20.5502C9.28996 20.1802 9.73996 20.0302 10.11 20.2102L11.25 20.7802V19.2202C11.25 18.8102 11.59 18.4702 12 18.4702C12.41 18.4702 12.75 18.8102 12.75 19.2202V20.7802L13.89 20.2102C14.26 20.0302 14.71 20.1802 14.9 20.5502C15.09 20.9202 14.94 21.3702 14.56 21.5602L12.35 22.6602C12.29 22.6902 12.23 22.7102 12.17 22.7302C12.11 22.7402 12.06 22.7502 12 22.7502Z" fill="#292D32"/>
<path opacity="0.4" d="M18.6702 19.42C18.4002 19.42 18.1302 19.27 18.0002 19.01C17.8102 18.64 17.9602 18.19 18.3402 18L20.1502 17.1001V14.79C20.1502 14.38 20.4902 14.04 20.9002 14.04C21.3102 14.04 21.6502 14.38 21.6502 14.79V17.5701C21.6502 17.8501 21.4902 18.1101 21.2402 18.2401L19.0202 19.3501C18.8902 19.3901 18.7802 19.42 18.6702 19.42Z" fill="#292D32"/>
<path d="M12 14.42C11.59 14.42 11.25 14.08 11.25 13.67V11.36L9.43996 10.4601C9.06996 10.2701 8.91996 9.82004 9.09996 9.45004C9.28996 9.08004 9.73996 8.93005 10.11 9.11005L12 10.05L13.89 9.11005C14.26 8.93005 14.71 9.07004 14.9 9.45004C15.09 9.82004 14.94 10.2701 14.56 10.4601L12.75 11.36V13.67C12.75 14.08 12.41 14.42 12 14.42Z" fill="#292D32"/>
<path opacity="0.4" d="M3.10986 9.96988C2.69986 9.96988 2.35986 9.62988 2.35986 9.21988V6.45988V6.44987C2.35986 6.38987 2.36986 6.32987 2.37986 6.27987C2.39986 6.19987 2.42986 6.12987 2.46986 6.05987C2.49986 6.00987 2.52986 5.96987 2.56986 5.92987C2.60986 5.88987 2.65986 5.84988 2.70986 5.81988C2.72986 5.80988 2.75986 5.78987 2.77986 5.77987L4.98986 4.67987C5.35986 4.49987 5.80986 4.63988 5.99986 5.01988C6.18986 5.38988 6.03987 5.83987 5.65987 6.02987L4.77986 6.46988L5.65987 6.90988C6.02987 7.09988 6.17986 7.54987 5.99986 7.91987C5.81986 8.28987 5.35986 8.43987 4.98986 8.25987L3.84986 7.68988V9.24987C3.85986 9.63987 3.52986 9.96988 3.10986 9.96988Z" fill="#292D32"/>
<path d="M14.2198 3.8598C14.1098 3.8598 13.9898 3.8298 13.8898 3.7798L11.9998 2.83979L10.1098 3.7798C9.73979 3.9698 9.28979 3.8198 9.09979 3.4398C8.90979 3.0698 9.05979 2.61979 9.43979 2.42979L11.6598 1.3198C11.8698 1.2098 12.1198 1.2098 12.3298 1.3198L14.5498 2.42979C14.9198 2.61979 15.0698 3.0698 14.8898 3.4398C14.7598 3.7098 14.4998 3.8598 14.2198 3.8598Z" fill="#292D32"/>
<path opacity="0.4" d="M20.8899 9.96977C20.4799 9.96977 20.1399 9.62977 20.1399 9.21977V7.65977L18.9999 8.22977C18.6299 8.41977 18.1799 8.26977 17.9899 7.88977C17.7999 7.51977 17.9499 7.06977 18.3299 6.87977L19.2099 6.43977L18.3299 5.99977C17.9599 5.80977 17.8099 5.35978 17.9899 4.98978C18.1699 4.61978 18.6299 4.46976 18.9999 4.64976L21.2099 5.74977C21.2299 5.75977 21.2599 5.76976 21.2799 5.78976C21.3399 5.81976 21.3899 5.86977 21.4399 5.91977C21.4699 5.95977 21.4999 5.99976 21.5299 6.03976C21.5699 6.10976 21.5999 6.17976 21.6199 6.25976C21.6299 6.31976 21.6399 6.37976 21.6399 6.42976V6.43977V9.19977C21.6399 9.63977 21.2999 9.96977 20.8899 9.96977Z" fill="#292D32"/>
</svg>
