<svg width="24" height="24" viewBox="0 0 24 24" fill="none" xmlns="http://www.w3.org/2000/svg">
<path opacity="0.4" d="M21.0405 7.19L12.0004 12.42L2.96045 7.19C3.36045 6.45 3.94045 5.8 4.59045 5.44L9.93045 2.48C11.0704 1.84 12.9304 1.84 14.0704 2.48L19.4104 5.44C20.0604 5.8 20.6405 6.45 21.0405 7.19Z" fill="#292D32"/>
<path opacity="0.6" d="M12.0006 12.4199V21.9999C11.2506 21.9999 10.5006 21.8399 9.93062 21.5199L4.59063 18.5599C3.38063 17.8899 2.39062 16.2099 2.39062 14.8299V9.16994C2.39062 8.52994 2.61062 7.82994 2.96062 7.18994L12.0006 12.4199Z" fill="#292D32"/>
<path d="M21.6105 9.16994V14.8299C21.6105 16.2099 20.6205 17.8899 19.4105 18.5599L14.0705 21.5199C13.5005 21.8399 12.7505 21.9999 12.0005 21.9999V12.4199L21.0405 7.18994C21.3905 7.82994 21.6105 8.52994 21.6105 9.16994Z" fill="#292D32"/>
</svg>
