<svg width="24" height="24" viewBox="0 0 24 24" fill="none" xmlns="http://www.w3.org/2000/svg">
<path opacity="0.4" d="M9.82997 5.57026L6.35997 7.68024L4.77997 5.08027C4.19997 4.13027 4.49998 2.87023 5.45998 2.29023C6.40998 1.71023 7.66997 2.01022 8.24997 2.97022L9.82997 5.57026Z" fill="#292D32"/>
<path opacity="0.4" d="M19.2702 17.6403L19.2601 17.6503L17.9602 18.4403L16.6602 19.2302L15.3602 20.0203L14.0602 20.8103L12.7601 21.6002H12.7502C11.4402 22.4002 9.82015 21.9203 9.15015 20.5503L7.07016 16.3103C6.34016 14.8303 6.57016 13.0303 7.69016 11.8003C7.95016 11.5203 8.25016 11.2603 8.60016 11.0503L11.8102 9.10024C12.1702 8.89024 12.5301 8.73028 12.9001 8.64028C14.5001 8.20028 16.2001 8.82029 17.1801 10.1503L19.9902 13.9503C20.9002 15.2003 20.5802 16.8503 19.2702 17.6403Z" fill="#292D32"/>
<path d="M12.8998 8.66006C12.5298 8.75006 12.1698 8.90008 11.8098 9.12008L8.59981 11.0701C8.23981 11.2801 7.9498 11.5401 7.6898 11.8201C7.6798 11.8201 7.67979 11.8101 7.67979 11.8101L6.0298 9.08011C5.7398 8.60011 5.8898 7.97009 6.3598 7.69009L9.8298 5.58011C10.3098 5.29011 10.9298 5.44006 11.2198 5.91006L12.8798 8.6401C12.8898 8.6501 12.8998 8.65006 12.8998 8.66006Z" fill="#292D32"/>
<path d="M16.6599 19.2302L15.3599 20.0202L13.6899 17.2702C13.4799 16.9102 13.5899 16.4501 13.9399 16.2201C14.3099 16.0101 14.7699 16.1201 14.9899 16.4701L16.6599 19.2302Z" fill="#292D32"/>
<path d="M14.0602 20.82L12.7602 21.61L11.0902 18.86C10.8702 18.5 10.9802 18.04 11.3402 17.81C11.7002 17.6 12.1602 17.71 12.3902 18.06L14.0602 20.82Z" fill="#292D32"/>
<path d="M19.26 17.6501L17.96 18.4401L16.29 15.6901C16.08 15.3301 16.19 14.8701 16.54 14.6401C16.91 14.4301 17.37 14.5401 17.59 14.8901L19.26 17.6501Z" fill="#292D32"/>
</svg>
