<svg width="24" height="24" viewBox="0 0 24 24" fill="none" xmlns="http://www.w3.org/2000/svg">
<path d="M17.3099 11.25C17.3299 11.51 17.2399 11.78 17.0399 11.98L11.0199 18C9.68986 19.33 8.34986 19.33 7.00986 18L2.99986 13.99C2.31986 13.3 1.97986 12.61 1.99986 11.92H2.06986L17.1899 11.26L17.3099 11.25Z" fill="#292D32"/>
<path opacity="0.4" d="M17.04 10.6399L9.69 3.28989L8.82 2.41989C8.53 2.12989 8.05 2.12989 7.76 2.41989C7.47 2.70989 7.47 3.18989 7.76 3.47989L8.63 4.34989L3 9.97989C2.36 10.6199 2.02 11.2699 2 11.9199H2.07L17.19 11.2599L17.31 11.2499C17.3 11.0299 17.2 10.7999 17.04 10.6399Z" fill="#292D32"/>
<path d="M16 22.75H3C2.59 22.75 2.25 22.41 2.25 22C2.25 21.59 2.59 21.25 3 21.25H16C16.41 21.25 16.75 21.59 16.75 22C16.75 22.41 16.41 22.75 16 22.75Z" fill="#292D32"/>
<path d="M19.35 14.7801C19.09 14.5001 18.61 14.5001 18.35 14.7801C18.04 15.1201 16.5 16.86 16.5 18.17C16.5 19.47 17.55 20.5201 18.85 20.5201C20.15 20.5201 21.2 19.47 21.2 18.17C21.2 16.86 19.66 15.1201 19.35 14.7801Z" fill="#292D32"/>
</svg>
