<svg width="24" height="24" viewBox="0 0 24 24" fill="none" xmlns="http://www.w3.org/2000/svg">
<path d="M20.8899 13V14H20.0199C19.2799 14 18.6799 14.6 18.6799 15.35V15.65C18.6799 16.4 18.0799 17 17.3299 17C16.5899 17 15.9899 16.4 15.9899 15.65V15.35C15.9899 14.6 15.3799 14 14.6399 14C13.8999 14 13.2999 14.6 13.2999 15.35V15.65C13.2999 16.4 12.6899 17 11.9499 17C11.2099 17 10.5999 16.4 10.5999 15.65V15.35C10.5999 14.6 9.99986 14 9.25986 14C8.51986 14 7.90986 14.6 7.90986 15.35V15.65C7.90986 16.4 7.30986 17 6.56986 17C5.81986 17 5.21986 16.4 5.21986 15.65V15.33C5.21986 14.59 4.62986 13.99 3.89986 13.98H3.10986V13C3.10986 11.62 4.14986 10.45 5.55986 10.11C5.83986 10.04 6.12986 10 6.43986 10H17.5599C17.8699 10 18.1599 10.04 18.4399 10.11C19.8499 10.45 20.8899 11.62 20.8899 13Z" fill="#292D32"/>
<path opacity="0.4" d="M18.4401 7.17V10.11C18.1601 10.04 17.8701 10 17.5601 10H6.44006C6.13006 10 5.84006 10.04 5.56006 10.11V7.17C5.56006 5.97 6.64006 5 7.98006 5H16.0201C17.3601 5 18.4401 5.97 18.4401 7.17Z" fill="#292D32"/>
<path d="M8.75 3.5499V5.0099H7.98C7.72 5.0099 7.48 5.0399 7.25 5.0999V3.5499C7.25 3.1999 7.59 2.8999 8 2.8999C8.41 2.8999 8.75 3.1999 8.75 3.5499Z" fill="#292D32"/>
<path d="M16.75 3.33008V5.10008C16.52 5.03008 16.28 5.00008 16.02 5.00008H15.25V3.33008C15.25 2.92008 15.59 2.58008 16 2.58008C16.41 2.58008 16.75 2.92008 16.75 3.33008Z" fill="#292D32"/>
<path d="M12.75 2.82V5H11.25V2.82C11.25 2.37 11.59 2 12 2C12.41 2 12.75 2.37 12.75 2.82Z" fill="#292D32"/>
<path opacity="0.4" d="M21.25 20.5H20.89V14H20.02C19.28 14 18.68 14.6 18.68 15.35V15.65C18.68 16.4 18.08 17 17.33 17C16.59 17 15.99 16.4 15.99 15.65V15.35C15.99 14.6 15.38 14 14.64 14C13.9 14 13.3 14.6 13.3 15.35V15.65C13.3 16.4 12.69 17 11.95 17C11.21 17 10.6 16.4 10.6 15.65V15.35C10.6 14.6 10 14 9.26 14C8.52 14 7.91 14.6 7.91 15.35V15.65C7.91 16.4 7.31 17 6.57 17C5.82 17 5.22 16.4 5.22 15.65V15.33C5.22 14.59 4.63 13.99 3.9 13.98H3.11V20.5H2.75C2.34 20.5 2 20.84 2 21.25C2 21.66 2.34 22 2.75 22H3.11H20.89H21.25C21.66 22 22 21.66 22 21.25C22 20.84 21.66 20.5 21.25 20.5Z" fill="#292D32"/>
</svg>
