<svg width="24" height="24" viewBox="0 0 24 24" fill="none" xmlns="http://www.w3.org/2000/svg">
<path d="M21.25 22H2.75C2.34 22 2 21.66 2 21.25C2 20.84 2.34 20.5 2.75 20.5H21.25C21.66 20.5 22 20.84 22 21.25C22 21.66 21.66 22 21.25 22Z" fill="#292D32"/>
<path opacity="0.4" d="M20.5899 13.7002L13.3599 20.9302C11.9399 22.3502 9.64988 22.3502 8.23988 20.9402L3.62988 16.3302L15.9899 3.97021L20.5999 8.58021C22.0099 9.99021 22.0099 12.2802 20.5899 13.7002Z" fill="#292D32"/>
<path d="M15.9896 3.97016L3.61957 16.3302L2.70957 15.4202C1.29957 14.0102 1.29957 11.7202 2.71957 10.3002L9.94957 3.07016C11.3696 1.65016 13.6596 1.65016 15.0696 3.06016L15.9896 3.97016Z" fill="#292D32"/>
<path d="M12.8903 17.5999L11.5403 18.9499C11.2603 19.2299 10.8103 19.2299 10.5303 18.9499C10.2503 18.6699 10.2503 18.2199 10.5303 17.9399L11.8803 16.5899C12.1603 16.3099 12.6103 16.3099 12.8903 16.5899C13.1703 16.8699 13.1703 17.3199 12.8903 17.5999Z" fill="#292D32"/>
<path d="M17.2704 13.22L14.5804 15.91C14.3004 16.19 13.8504 16.19 13.5704 15.91C13.2904 15.63 13.2904 15.18 13.5704 14.9L16.2604 12.21C16.5404 11.93 16.9904 11.93 17.2704 12.21C17.5404 12.49 17.5404 12.94 17.2704 13.22Z" fill="#292D32"/>
</svg>
