<svg width="24" height="24" viewBox="0 0 24 24" fill="none" xmlns="http://www.w3.org/2000/svg">
<path opacity="0.4" d="M22.0004 9V16.46C22.0004 18.75 20.1404 20.6 17.8504 20.6H6.40039L9.97039 17.03L11.2504 15.75L18.0004 9H22.0004Z" fill="#292D32"/>
<path opacity="0.4" d="M15 9L4 20C2.8 19.28 2 17.96 2 16.46V9H15Z" fill="#292D32"/>
<path d="M22 7.53978V8.99978H18L21.47 5.52979C21.81 6.11979 22 6.80978 22 7.53978Z" fill="#292D32"/>
<path d="M20 3.9999L15 8.9999H2V7.5399C2 5.2499 3.86 3.3999 6.15 3.3999H17.85C18.64 3.3999 19.37 3.6199 20 3.9999Z" fill="#292D32"/>
<path d="M8.21 15.79L6.75 17.25H6C5.59 17.25 5.25 16.91 5.25 16.5C5.25 16.09 5.59 15.75 6 15.75H8C8.07 15.75 8.14 15.76 8.21 15.79Z" fill="#292D32"/>
<path d="M15.2497 16.5C15.2497 16.91 14.9097 17.25 14.4997 17.25H10.4997C10.2997 17.25 10.1097 17.16 9.96973 17.03L11.2497 15.75H14.4997C14.9097 15.75 15.2497 16.09 15.2497 16.5Z" fill="#292D32"/>
<path d="M21.7699 2.22988C21.4699 1.92988 20.9799 1.92988 20.6799 2.22988L2.22988 20.6899C1.92988 20.9899 1.92988 21.4799 2.22988 21.7799C2.37988 21.9199 2.56988 21.9999 2.76988 21.9999C2.96988 21.9999 3.15988 21.9199 3.30988 21.7699L21.7699 3.30988C22.0799 3.00988 22.0799 2.52988 21.7699 2.22988Z" fill="#292D32"/>
</svg>
