<svg width="24" height="24" viewBox="0 0 24 24" fill="none" xmlns="http://www.w3.org/2000/svg">
<path opacity="0.4" d="M22 12C22 17.47 17.61 21.91 12.16 22H12C11.39 22 10.79 21.94 10.21 21.84C5.54 20.99 2 16.91 2 12C2 10.29 2.43 8.68 3.19 7.27C3.5 6.7 3.86 6.15 4.27 5.65C6.11 3.42 8.89 2 12 2C15.56 2 18.68 3.86 20.45 6.66C20.8 7.21 21.1 7.8 21.34 8.42C21.77 9.53 22 10.74 22 12Z" fill="#292D32"/>
<path d="M15.0999 8.0199C17.1799 7.8499 19.2699 7.9799 21.3399 8.4199C21.0999 7.7999 20.7999 7.2099 20.4499 6.6599C17.5799 6.1899 14.6799 6.2799 11.8199 6.8999C9.38994 6.9799 7.40994 8.7799 7.03994 11.1299C5.87994 9.4499 4.93994 7.6199 4.26994 5.6499C3.85994 6.1499 3.49994 6.6999 3.18994 7.2699C4.24994 9.9599 5.73994 12.3599 7.64994 14.4699C7.66994 14.4899 7.69994 14.4999 7.71994 14.5199C8.62994 15.9899 10.2399 16.8999 11.9699 16.8999C12.5799 16.8999 13.1699 16.7799 13.7199 16.5699C12.8099 18.4799 11.6499 20.2499 10.2099 21.8399C10.7899 21.9399 11.3899 21.9999 11.9999 21.9999H12.1599C14.0099 19.7399 15.4099 17.1799 16.3499 14.2999C16.7599 13.5599 16.9799 12.7299 16.9799 11.8899C16.9799 10.3199 16.2399 8.9399 15.0999 8.0199ZM14.9299 13.6099C14.3299 14.6599 13.1899 15.3199 11.9699 15.3199C10.7499 15.3199 9.61994 14.6599 9.00994 13.6099C8.69994 13.0699 8.54994 12.4999 8.54994 11.8899C8.54994 9.9999 10.0799 8.4699 11.9699 8.4699C13.8599 8.4699 15.3999 9.9999 15.3999 11.8899C15.3999 12.4999 15.2399 13.0699 14.9299 13.6099Z" fill="#292D32"/>
</svg>
