<svg width="24" height="24" viewBox="0 0 24 24" fill="none" xmlns="http://www.w3.org/2000/svg">
<path opacity="0.4" d="M16.24 3.6499H7.76004C5.29004 3.6499 3.29004 5.6599 3.29004 8.1199V17.5299C3.29004 19.9899 5.30004 21.9999 7.76004 21.9999H16.23C18.7 21.9999 20.7 19.9899 20.7 17.5299V8.1199C20.71 5.6499 18.7 3.6499 16.24 3.6499Z" fill="#292D32"/>
<path d="M14.3498 2H9.64977C8.60977 2 7.75977 2.84 7.75977 3.88V4.82C7.75977 5.86 8.59977 6.7 9.63977 6.7H14.3498C15.3898 6.7 16.2298 5.86 16.2298 4.82V3.88C16.2398 2.84 15.3898 2 14.3498 2Z" fill="#292D32"/>
<path d="M14.5299 15.6199L13.0799 14.1699L14.4799 12.7699C14.7699 12.4799 14.7699 11.9999 14.4799 11.7099C14.1899 11.4199 13.7099 11.4199 13.4199 11.7099L12.0199 13.1099L10.5699 11.6599C10.2799 11.3699 9.79994 11.3699 9.50994 11.6599C9.21994 11.9499 9.21994 12.4299 9.50994 12.7199L10.9599 14.1699L9.46994 15.6599C9.17994 15.9499 9.17994 16.4299 9.46994 16.7199C9.61994 16.8699 9.80994 16.9399 9.99994 16.9399C10.1899 16.9399 10.3799 16.8699 10.5299 16.7199L12.0199 15.2299L13.4699 16.6799C13.6199 16.8299 13.8099 16.8999 13.9999 16.8999C14.1899 16.8999 14.3799 16.8299 14.5299 16.6799C14.8199 16.3899 14.8199 15.9199 14.5299 15.6199Z" fill="#292D32"/>
</svg>
