<svg width="24" height="24" viewBox="0 0 24 24" fill="none" xmlns="http://www.w3.org/2000/svg">
<path opacity="0.4" d="M12 22C17.5228 22 22 17.5228 22 12C22 6.47715 17.5228 2 12 2C6.47715 2 2 6.47715 2 12C2 17.5228 6.47715 22 12 22Z" fill="#292D32"/>
<path d="M13.0599 11.9999L15.3599 9.69986C15.6499 9.40986 15.6499 8.92986 15.3599 8.63986C15.0699 8.34986 14.5899 8.34986 14.2999 8.63986L11.9999 10.9399L9.69986 8.63986C9.40986 8.34986 8.92986 8.34986 8.63986 8.63986C8.34986 8.92986 8.34986 9.40986 8.63986 9.69986L10.9399 11.9999L8.63986 14.2999C8.34986 14.5899 8.34986 15.0699 8.63986 15.3599C8.78986 15.5099 8.97986 15.5799 9.16986 15.5799C9.35986 15.5799 9.54986 15.5099 9.69986 15.3599L11.9999 13.0599L14.2999 15.3599C14.4499 15.5099 14.6399 15.5799 14.8299 15.5799C15.0199 15.5799 15.2099 15.5099 15.3599 15.3599C15.6499 15.0699 15.6499 14.5899 15.3599 14.2999L13.0599 11.9999Z" fill="#292D32"/>
</svg>
