<svg width="24" height="24" viewBox="0 0 24 24" fill="none" xmlns="http://www.w3.org/2000/svg">
<path opacity="0.4" d="M16.19 2H7.82001C4.17001 2 2 4.17 2 7.81V16.18C2 19.82 4.17 21.99 7.81 21.99H16.18C19.82 21.99 21.99 19.82 21.99 16.18V7.81C22 4.17 19.83 2 16.19 2Z" fill="#292D32"/>
<path opacity="0.6" d="M13.2 14.3999C13.2 15.4599 12.74 16.4199 12 17.0799C11.36 17.6599 10.52 17.9999 9.59998 17.9999C7.60998 17.9999 6 16.3899 6 14.3999C6 12.7399 7.13002 11.3399 8.65002 10.9299C9.06002 11.9699 9.94999 12.7799 11.05 13.0799C11.35 13.1599 11.67 13.2099 12 13.2099C12.33 13.2099 12.65 13.1699 12.95 13.0799C13.11 13.4799 13.2 13.9299 13.2 14.3999Z" fill="#292D32"/>
<path d="M15.5999 9.6C15.5999 10.07 15.5099 10.52 15.3499 10.93C14.9399 11.97 14.0499 12.78 12.9499 13.08C12.6499 13.16 12.3299 13.21 11.9999 13.21C11.6699 13.21 11.3499 13.17 11.0499 13.08C9.94987 12.78 9.0599 11.98 8.6499 10.93C8.4899 10.52 8.3999 10.07 8.3999 9.6C8.3999 7.61 10.0099 6 11.9999 6C13.9899 6 15.5999 7.61 15.5999 9.6Z" fill="#292D32"/>
<path opacity="0.4" d="M18 14.3999C18 16.3899 16.39 17.9999 14.4 17.9999C13.48 17.9999 12.64 17.6499 12 17.0799C12.74 16.4299 13.2 15.4699 13.2 14.3999C13.2 13.9299 13.11 13.4799 12.95 13.0699C14.05 12.7699 14.94 11.9699 15.35 10.9199C16.87 11.3399 18 12.7399 18 14.3999Z" fill="#292D32"/>
</svg>
