<svg width="24" height="24" viewBox="0 0 24 24" fill="none" xmlns="http://www.w3.org/2000/svg">
<path opacity="0.4" d="M18 20.5H17V20.25C17 19.15 16.1 18.25 15 18.25H12.75V15.96C12.5 15.99 12.25 16 12 16C11.75 16 11.5 15.99 11.25 15.96V18.25H9C7.9 18.25 7 19.15 7 20.25V20.5H6C5.59 20.5 5.25 20.84 5.25 21.25C5.25 21.66 5.59 22 6 22H18C18.41 22 18.75 21.66 18.75 21.25C18.75 20.84 18.41 20.5 18 20.5Z" fill="#292D32"/>
<path opacity="0.4" d="M5.51979 11.64C4.85979 11.39 4.27979 10.98 3.81979 10.52C2.88979 9.49 2.27979 8.26 2.27979 6.82C2.27979 5.38 3.40979 4.25 4.84979 4.25H5.40979C5.14979 4.78 4.99979 5.37 4.99979 6V9C4.99979 9.94 5.17979 10.83 5.51979 11.64Z" fill="#292D32"/>
<path opacity="0.4" d="M21.72 6.82C21.72 8.26 21.11 9.49 20.18 10.52C19.72 10.98 19.14 11.39 18.48 11.64C18.82 10.83 19 9.94 19 9V6C19 5.37 18.85 4.78 18.59 4.25H19.15C20.59 4.25 21.72 5.38 21.72 6.82Z" fill="#292D32"/>
<path d="M15 2H9C6.79 2 5 3.79 5 6V9C5 12.87 8.13 16 12 16C15.87 16 19 12.87 19 9V6C19 3.79 17.21 2 15 2ZM14.84 8.45L14.22 9.21C14.12 9.32 14.05 9.54 14.06 9.69L14.12 10.67C14.16 11.27 13.73 11.58 13.17 11.36L12.26 11C12.12 10.95 11.88 10.95 11.74 11L10.83 11.36C10.27 11.58 9.84 11.27 9.88 10.67L9.94 9.69C9.95 9.54 9.88 9.32 9.78 9.21L9.16 8.45C8.77 7.99 8.94 7.48 9.52 7.33L10.47 7.09C10.62 7.05 10.8 6.91 10.88 6.78L11.41 5.96C11.74 5.45 12.26 5.45 12.59 5.96L13.12 6.78C13.2 6.91 13.38 7.05 13.53 7.09L14.48 7.33C15.06 7.48 15.23 7.99 14.84 8.45Z" fill="#292D32"/>
<path opacity="0.4" d="M14.8402 8.45014L14.2202 9.21014C14.1202 9.32014 14.0502 9.54014 14.0602 9.69014L14.1202 10.6701C14.1602 11.2701 13.7302 11.5801 13.1702 11.3601L12.2602 11.0001C12.1202 10.9501 11.8802 10.9501 11.7402 11.0001L10.8302 11.3601C10.2702 11.5801 9.84024 11.2701 9.88024 10.6701L9.94023 9.69014C9.95023 9.54014 9.88023 9.32014 9.78023 9.21014L9.16023 8.45014C8.77024 7.99014 8.94024 7.48014 9.52024 7.33014L10.4702 7.09014C10.6202 7.05014 10.8002 6.91014 10.8802 6.78014L11.4102 5.96014C11.7402 5.45014 12.2602 5.45014 12.5902 5.96014L13.1202 6.78014C13.2002 6.91014 13.3802 7.05014 13.5302 7.09014L14.4802 7.33014C15.0602 7.48014 15.2302 7.99014 14.8402 8.45014Z" fill="#292D32"/>
</svg>
