<svg width="24" height="24" viewBox="0 0 24 24" fill="none" xmlns="http://www.w3.org/2000/svg">
<path d="M15.7199 9.69002C13.6699 7.63002 10.3299 7.63002 8.27986 9.69002C6.21986 11.75 6.21986 15.08 8.27986 17.13C10.3399 19.19 13.6699 19.19 15.7199 17.13C17.7799 15.07 17.7799 11.74 15.7199 9.69002ZM12.5299 13.94L10.9399 15.53C10.7899 15.68 10.5999 15.75 10.4099 15.75C10.2199 15.75 10.0199 15.68 9.87987 15.53C9.58987 15.24 9.58987 14.76 9.87987 14.46L11.4699 12.87C11.7599 12.58 12.2399 12.58 12.5399 12.87C12.8299 13.17 12.8299 13.65 12.5299 13.94Z" fill="#292D32"/>
<path opacity="0.4" d="M19.6001 5.80975C19.3801 5.58975 19.1001 5.46973 18.7901 5.46973C18.4801 5.46973 18.2001 5.58974 17.9801 5.79974C17.5301 6.24974 17.5301 6.96974 17.9801 7.41974C18.2001 7.63974 18.4801 7.75977 18.7901 7.75977C19.1001 7.75977 19.3801 7.63975 19.6001 7.42975C19.8201 7.20975 19.9401 6.92975 19.9401 6.61975C19.9401 6.30975 19.8201 6.01975 19.6001 5.80975Z" fill="#292D32"/>
<path opacity="0.4" d="M6.02005 19.3898C5.80005 19.1698 5.52005 19.0498 5.21005 19.0498C4.90005 19.0498 4.62005 19.1698 4.40005 19.3798C4.18005 19.5998 4.06006 19.8798 4.06006 20.1898C4.06006 20.4998 4.18005 20.7798 4.40005 20.9998C4.62005 21.2198 4.92005 21.3298 5.21005 21.3298C5.50005 21.3298 5.80005 21.2198 6.02005 20.9898C6.46005 20.5598 6.46005 19.8298 6.02005 19.3898Z" fill="#292D32"/>
<path opacity="0.4" d="M22.4101 12.5997C22.2001 12.3797 21.9101 12.2698 21.6001 12.2598C21.2901 12.2598 21.0101 12.3797 20.7901 12.5997C20.3401 13.0497 20.3401 13.7697 20.7901 14.2197C21.0101 14.4397 21.3101 14.5497 21.6001 14.5497C21.8901 14.5497 22.1901 14.4397 22.4101 14.2197C22.8601 13.7697 22.8601 13.0397 22.4101 12.5997Z" fill="#292D32"/>
<path opacity="0.4" d="M3.20994 12.5999C2.76994 12.1599 2.03994 12.1499 1.58994 12.5999C1.13994 13.0499 1.13994 13.7699 1.58994 14.2199C1.80994 14.4399 2.10994 14.5499 2.39994 14.5499C2.68994 14.5499 2.98994 14.4399 3.20994 14.2199C3.64994 13.7699 3.64994 13.0399 3.20994 12.5999Z" fill="#292D32"/>
<path opacity="0.4" d="M19.6001 19.3902C19.1501 18.9402 18.4301 18.9402 17.9801 19.3902C17.5301 19.8402 17.5301 20.5602 17.9801 21.0102C18.2001 21.2302 18.5001 21.3402 18.7901 21.3402C19.0801 21.3402 19.3801 21.2302 19.6001 21.0102C19.8201 20.7902 19.9401 20.5002 19.9401 20.2002C19.9401 19.8902 19.8201 19.6002 19.6001 19.3902Z" fill="#292D32"/>
<path opacity="0.4" d="M6.02005 5.80975C5.80005 5.58975 5.52005 5.46973 5.21005 5.46973C4.90005 5.46973 4.62005 5.58974 4.40005 5.79974C4.18005 6.01974 4.06006 6.29974 4.06006 6.60974C4.06006 6.91974 4.18008 7.19974 4.39008 7.41974C4.61008 7.63974 4.89007 7.75977 5.20007 7.75977C5.51007 7.75977 5.79007 7.63974 6.01007 7.41974C6.46007 6.97974 6.46005 6.24975 6.02005 5.80975Z" fill="#292D32"/>
<path opacity="0.4" d="M12.8101 3.0001C12.8101 2.9901 12.8101 2.9901 12.8101 3.0001C12.3601 2.5501 11.6401 2.5501 11.1901 3.0001C10.9701 3.2201 10.8501 3.5101 10.8501 3.8101C10.8501 4.1201 10.9701 4.40009 11.1801 4.62009C11.4001 4.84009 11.6801 4.96012 11.9901 4.96012C12.3001 4.96012 12.5801 4.84009 12.8001 4.62009C13.2601 4.17009 13.2601 3.4401 12.8101 3.0001Z" fill="#292D32"/>
</svg>
