<svg width="24" height="24" viewBox="0 0 24 24" fill="none" xmlns="http://www.w3.org/2000/svg">
<path d="M18.6902 11.53C18.1202 11.38 17.4502 11.3 16.6502 11.3C15.5402 11.3 15.1302 11.57 14.5602 12C14.5302 12.02 14.5002 12.05 14.4702 12.08L13.5202 13.09C12.7302 13.94 11.2802 13.94 10.4802 13.09L9.53018 12.09C9.50018 12.05 9.47018 12.02 9.44018 12C8.86018 11.57 8.45018 11.3 7.35018 11.3C6.55018 11.3 5.88018 11.37 5.31018 11.53C2.93018 12.17 2.93018 14.06 2.93018 15.72V16.65C2.93018 19.16 2.93018 22 8.28018 22H15.7202C19.2702 22 21.0702 20.2 21.0702 16.65V15.72C21.0702 14.06 21.0702 12.17 18.6902 11.53Z" fill="#292D32"/>
<path opacity="0.4" d="M14.79 2H9.21004C4.79004 2 4.79004 4.35 4.79004 6.42V12.21C4.79004 12.43 4.89004 12.63 5.06004 12.76C5.23004 12.89 5.46004 12.94 5.67004 12.88C6.12004 12.76 6.68004 12.7 7.35004 12.7C8.02004 12.7 8.16004 12.78 8.56004 13.08L9.47004 14.04C10.12 14.74 11.05 15.14 12.01 15.14C12.97 15.14 13.89 14.74 14.55 14.04L15.46 13.08C15.86 12.78 16 12.7 16.67 12.7C17.34 12.7 17.9 12.76 18.35 12.88C18.56 12.94 18.78 12.89 18.96 12.76C19.13 12.63 19.23 12.42 19.23 12.21V6.42C19.21 4.35 19.21 2 14.79 2Z" fill="#292D32"/>
<path d="M13.55 9.91001H10.45C10.06 9.91001 9.75 9.60001 9.75 9.21001C9.75 8.82001 10.06 8.51001 10.45 8.51001H13.55C13.94 8.51001 14.25 8.82001 14.25 9.21001C14.25 9.59001 13.93 9.91001 13.55 9.91001Z" fill="#292D32"/>
<path d="M14.3302 7.11997H9.67021C9.28021 7.11997 8.97021 6.80997 8.97021 6.41997C8.97021 6.02997 9.28021 5.71997 9.67021 5.71997H14.3202C14.7102 5.71997 15.0202 6.02997 15.0202 6.41997C15.0202 6.79997 14.7102 7.11997 14.3302 7.11997Z" fill="#292D32"/>
</svg>
