<svg width="24" height="24" viewBox="0 0 24 24" fill="none" xmlns="http://www.w3.org/2000/svg">
<path d="M17.0202 21.2902L13.5402 19.5502C12.5702 19.0702 11.4402 19.0702 10.4702 19.5502L6.99016 21.2902C4.00016 22.7802 0.850157 19.5702 2.41016 16.6202L3.23016 15.0802C3.34016 14.8702 3.52016 14.7002 3.74016 14.6002L16.3802 8.90017C16.9002 8.67017 17.5102 8.88017 17.7702 9.38017L21.5802 16.6202C23.1402 19.5702 20.0002 22.7802 17.0202 21.2902Z" fill="#292D32"/>
<path opacity="0.4" d="M15.6 7.69002L7.31996 11.42C6.38996 11.84 5.44996 10.84 5.92996 9.94002L8.96996 4.17002C10.26 1.72002 13.76 1.72002 15.05 4.17002L16.12 6.21002C16.4 6.76002 16.16 7.44002 15.6 7.69002Z" fill="#292D32"/>
</svg>
