<svg width="24" height="24" viewBox="0 0 24 24" fill="none" xmlns="http://www.w3.org/2000/svg">
<path opacity="0.4" d="M20.5 10.19H17.61C15.24 10.19 13.31 8.26 13.31 5.89V3C13.31 2.45 12.86 2 12.31 2H8.07C4.99 2 2.5 4 2.5 7.57V16.43C2.5 20 4.99 22 8.07 22H15.93C19.01 22 21.5 20 21.5 16.43V11.19C21.5 10.64 21.05 10.19 20.5 10.19Z" fill="#292D32"/>
<path d="M15.8002 2.20999C15.3902 1.79999 14.6802 2.07999 14.6802 2.64999V6.13999C14.6802 7.59999 15.9202 8.80999 17.4302 8.80999C18.3802 8.81999 19.7002 8.81999 20.8302 8.81999C21.4002 8.81999 21.7002 8.14999 21.3002 7.74999C19.8602 6.29999 17.2802 3.68999 15.8002 2.20999Z" fill="#292D32"/>
<path d="M11.5299 12.47L9.52994 10.47C9.51994 10.46 9.50994 10.46 9.50994 10.45C9.44994 10.39 9.36994 10.34 9.28994 10.3C9.27994 10.3 9.27994 10.3 9.26994 10.3C9.18994 10.27 9.10994 10.26 9.02994 10.25C8.99994 10.25 8.97994 10.25 8.94994 10.25C8.88994 10.25 8.81994 10.27 8.75994 10.29C8.72994 10.3 8.70994 10.31 8.68994 10.32C8.60994 10.36 8.52994 10.4 8.46994 10.47L6.46994 12.47C6.17994 12.76 6.17994 13.24 6.46994 13.53C6.75994 13.82 7.23994 13.82 7.52994 13.53L8.24994 12.81V17C8.24994 17.41 8.58994 17.75 8.99994 17.75C9.40994 17.75 9.74994 17.41 9.74994 17V12.81L10.4699 13.53C10.6199 13.68 10.8099 13.75 10.9999 13.75C11.1899 13.75 11.3799 13.68 11.5299 13.53C11.8199 13.24 11.8199 12.76 11.5299 12.47Z" fill="#292D32"/>
</svg>
