<svg width="24" height="24" viewBox="0 0 24 24" fill="none" xmlns="http://www.w3.org/2000/svg">
<path fill-rule="evenodd" clip-rule="evenodd" d="M15.88 20.9198C15.91 21.0798 15.82 21.2498 15.67 21.3098C14.53 21.7598 13.3 21.9998 12.01 21.9998C9.80998 21.9998 7.75998 21.2898 6.10998 20.0698C5.96998 19.9698 5.92998 19.7698 6.01998 19.6198C6.56998 18.6398 8.71998 15.4898 13.47 13.7298C13.65 13.6598 13.85 13.7498 13.91 13.9298C15.11 17.1198 15.67 19.8198 15.88 20.9198Z" fill="black"/>
<path fill-rule="evenodd" clip-rule="evenodd" d="M21.82 13.89C21.36 16.35 19.98 18.49 18.05 19.95C17.84 20.11 17.54 19.99 17.49 19.74C17.28 18.66 16.77 16.33 15.79 13.56C15.72 13.35 15.86 13.12 16.08 13.09C18.57 12.79 20.75 13.27 21.57 13.49C21.74 13.55 21.85 13.72 21.82 13.89Z" fill="black"/>
<path opacity="0.4" fill-rule="evenodd" clip-rule="evenodd" d="M21.59 11.8201C20.57 11.6401 17.97 11.2601 15.31 11.5501C15.15 11.5701 15.01 11.4801 14.94 11.3301C14.9 11.2401 14.87 11.1501 14.83 11.0601C14.67 10.6901 14.5 10.3101 14.33 9.94014C14.24 9.76014 14.33 9.54014 14.51 9.46014C17.31 8.25014 18.87 6.69014 19.48 5.99014C19.63 5.82014 19.89 5.83014 20.03 6.01014C21.18 7.54014 21.89 9.41014 22 11.4301C22.01 11.6801 21.81 11.8601 21.59 11.8201Z" fill="black"/>
<path fill-rule="evenodd" clip-rule="evenodd" d="M18.44 4.79C17.92 5.42 16.46 6.92 13.69 8.02C13.53 8.09 13.34 8.02 13.25 7.86C11.97 5.54 10.61 3.59 9.98004 2.71C9.83004 2.49 9.95004 2.2 10.21 2.15C10.79 2.05 11.39 2 12.01 2C14.43 2 16.66 2.86 18.39 4.3C18.54 4.42 18.56 4.64 18.44 4.79Z" fill="black"/>
<path fill-rule="evenodd" clip-rule="evenodd" d="M11.02 8.83992C7.23001 9.78992 3.88001 9.91992 2.66001 9.93992C2.43001 9.93992 2.26001 9.71992 2.32001 9.49992C3.04001 6.69992 4.96001 4.35992 7.49001 3.06992C7.64001 2.98992 7.83001 3.03992 7.93001 3.17992C8.45001 3.89992 9.86001 5.92992 11.24 8.31992C11.35 8.51992 11.25 8.77992 11.02 8.83992Z" fill="black"/>
<path opacity="0.4" fill-rule="evenodd" clip-rule="evenodd" d="M12.92 11.5998C13.01 11.7898 12.9 12.0198 12.7 12.0898C8.27 13.5198 5.62 17.0698 4.82 18.2898C4.69 18.4898 4.41 18.4998 4.26 18.3198C2.85 16.5998 2 14.6298 2 12.2298V12.0498C2 11.8498 2.16 11.6898 2.36 11.6998C3.62 11.7498 7.73 11.5798 12 10.3498C12.16 10.2998 12.34 10.3798 12.41 10.5298C12.59 10.8898 12.76 11.2398 12.92 11.5998Z" fill="black"/>
</svg>
