<svg width="24" height="24" viewBox="0 0 24 24" fill="none" xmlns="http://www.w3.org/2000/svg">
<path opacity="0.4" d="M16.19 2H7.81C4.17 2 2 4.17 2 7.81V16.18C2 19.83 4.17 22 7.81 22H16.18C19.82 22 21.99 19.83 21.99 16.19V7.81C22 4.17 19.83 2 16.19 2Z" fill="#292D32"/>
<path d="M8.81994 9.74994C7.96994 9.74994 7.11994 9.42994 6.46994 8.77994C6.17994 8.48994 6.17994 8.00994 6.46994 7.71994C6.75994 7.42994 7.23994 7.42994 7.52994 7.71994C8.23994 8.42994 9.39994 8.42994 10.1099 7.71994C10.3999 7.42994 10.8799 7.42994 11.1699 7.71994C11.4599 8.00994 11.4599 8.48994 11.1699 8.77994C10.5199 9.41994 9.66994 9.74994 8.81994 9.74994Z" fill="#292D32"/>
<path d="M15.1798 9.74994C14.3298 9.74994 13.4798 9.42994 12.8298 8.77994C12.5398 8.48994 12.5398 8.00994 12.8298 7.71994C13.1198 7.42994 13.5998 7.42994 13.8898 7.71994C14.5998 8.42994 15.7598 8.42994 16.4698 7.71994C16.7598 7.42994 17.2398 7.42994 17.5298 7.71994C17.8198 8.00994 17.8198 8.48994 17.5298 8.77994C16.8798 9.41994 16.0298 9.74994 15.1798 9.74994Z" fill="#292D32"/>
<path d="M15.5999 12.6201H8.39988C7.69988 12.6201 7.12988 13.1901 7.12988 13.9001C7.12988 16.5901 9.31988 18.7801 12.0099 18.7801C14.6999 18.7801 16.8899 16.5901 16.8899 13.9001C16.8799 13.2001 16.2999 12.6201 15.5999 12.6201Z" fill="#292D32"/>
</svg>
