<svg width="24" height="24" viewBox="0 0 24 24" fill="none" xmlns="http://www.w3.org/2000/svg">
<path opacity="0.4" d="M6.89995 9.10012L11.6699 6.98012C11.8799 6.89012 12.1199 6.89012 12.3199 6.98012L17.0999 9.10012C17.5199 9.29012 17.9099 8.78012 17.6199 8.42012L12.6199 2.31012C12.2799 1.89012 11.7199 1.89012 11.3799 2.31012L6.37995 8.42012C6.08995 8.78012 6.47995 9.29012 6.89995 9.10012Z" fill="#292D32"/>
<path opacity="0.4" d="M6.90006 14.9L11.6801 17.02C11.8901 17.11 12.1301 17.11 12.3301 17.02L17.1101 14.9C17.5301 14.71 17.9201 15.22 17.6301 15.58L12.6301 21.69C12.2901 22.11 11.7301 22.11 11.3901 21.69L6.39006 15.58C6.09006 15.22 6.47006 14.71 6.90006 14.9Z" fill="#292D32"/>
<path d="M11.7801 9.49L7.65006 11.55C7.28006 11.73 7.28006 12.26 7.65006 12.44L11.7801 14.5C11.9201 14.57 12.0901 14.57 12.2301 14.5L16.3601 12.44C16.7301 12.26 16.7301 11.73 16.3601 11.55L12.2301 9.49C12.0801 9.42 11.9201 9.42 11.7801 9.49Z" fill="#292D32"/>
</svg>
