<svg width="24" height="24" viewBox="0 0 24 24" fill="none" xmlns="http://www.w3.org/2000/svg">
<path opacity="0.4" d="M22 10.7599C22 10.2899 21.62 9.8999 21.14 9.8999H2.86C2.38 9.8999 2 10.2799 2 10.7599C2 16.6499 6.11 20.7599 12 20.7599C17.89 20.7599 22 16.6399 22 10.7599Z" fill="#292D32"/>
<path d="M12.5299 3.45992L15.3799 6.29992C15.6699 6.58992 15.6699 7.06992 15.3799 7.35992C15.0899 7.64992 14.6099 7.64992 14.3199 7.35992L12.7499 5.79992V15.3699C12.7499 15.7799 12.4099 16.1199 11.9999 16.1199C11.5899 16.1199 11.2499 15.7799 11.2499 15.3699V5.79992L9.6899 7.36992C9.3999 7.65992 8.9199 7.65992 8.6299 7.36992C8.4799 7.21992 8.3999 7.02992 8.3999 6.83992C8.3999 6.64992 8.4699 6.45992 8.6199 6.30992L11.4699 3.46992C11.7599 3.16992 12.2399 3.16992 12.5299 3.45992Z" fill="#292D32"/>
</svg>
