<svg width="24" height="24" viewBox="0 0 24 24" fill="none" xmlns="http://www.w3.org/2000/svg">
<path opacity="0.4" d="M20.6001 4.1001V6.3001C20.6001 7.1001 20.1001 8.1001 19.6001 8.6001L15.3001 12.4001C14.7001 12.9001 14.3001 13.9001 14.3001 14.7001V19.0001C14.3001 19.6001 13.9001 20.4001 13.4001 20.7001L12.0001 21.6001C10.7001 22.4001 8.9001 21.5001 8.9001 19.9001V14.6001C8.9001 13.9001 8.5001 13.0001 8.1001 12.5001L7.1001 11.4501L12.9201 2.1001H18.6001C19.7001 2.1001 20.6001 3.0001 20.6001 4.1001Z" fill="#292D32"/>
<path d="M11.2999 2.1001L6.1199 10.4101L4.2999 8.5001C3.7999 8.0001 3.3999 7.1001 3.3999 6.5001V4.2001C3.3999 3.0001 4.2999 2.1001 5.3999 2.1001H11.2999Z" fill="#292D32"/>
</svg>
