<svg width="24" height="24" viewBox="0 0 24 24" fill="none" xmlns="http://www.w3.org/2000/svg">
<path d="M5.1499 22C4.7399 22 4.3999 21.66 4.3999 21.25V2.75C4.3999 2.34 4.7399 2 5.1499 2C5.5599 2 5.8999 2.34 5.8999 2.75V21.25C5.8999 21.66 5.5599 22 5.1499 22Z" fill="#292D32"/>
<path opacity="0.4" d="M18.02 12.3299L16.8 11.1099C16.51 10.8599 16.34 10.4899 16.33 10.0799C16.31 9.62986 16.49 9.17986 16.82 8.84986L18.02 7.64986C19.06 6.60986 19.45 5.60986 19.12 4.81986C18.8 4.03986 17.81 3.60986 16.35 3.60986H5.15002C4.94002 3.61986 4.77002 3.78986 4.77002 3.99986V15.9999C4.77002 16.2099 4.94002 16.3799 5.15002 16.3799H16.35C17.79 16.3799 18.76 15.9399 19.09 15.1499C19.42 14.3499 19.04 13.3599 18.02 12.3299Z" fill="#292D32"/>
</svg>
