<svg width="24" height="24" viewBox="0 0 24 24" fill="none" xmlns="http://www.w3.org/2000/svg">
<path opacity="0.4" d="M21.8699 9.44H2.12988V6.42C2.12988 3.98 4.10988 2 6.54988 2H8.87988C10.5099 2 11.0199 2.53 11.6699 3.4L13.0699 5.26C13.3799 5.67 13.4199 5.73 13.9999 5.73H16.7899C19.1599 5.72 21.1799 7.28 21.8699 9.44Z" fill="#292D32"/>
<path d="M21.99 10.8399C21.97 10.3599 21.89 9.88994 21.74 9.43994H2V16.6499C2 19.5999 4.4 21.9999 7.35 21.9999H16.65C19.6 21.9999 22 19.5999 22 16.6499V11.0699C22 10.9999 22 10.9099 21.99 10.8399ZM14.34 17.7799C14.19 17.9199 14 17.9999 13.81 17.9999C13.62 17.9999 13.43 17.9299 13.28 17.7799L12.04 16.5399L10.76 17.8199C10.61 17.9699 10.42 18.0399 10.23 18.0399C10.04 18.0399 9.85 17.9699 9.7 17.8199C9.41 17.5299 9.41 17.0499 9.7 16.7599L10.98 15.4799L9.74 14.2399C9.45 13.9499 9.45 13.4699 9.74 13.1799C10.03 12.8899 10.51 12.8899 10.8 13.1799L12.04 14.4199L13.24 13.2199C13.53 12.9299 14.01 12.9299 14.3 13.2199C14.59 13.5099 14.59 13.9899 14.3 14.2799L13.1 15.4799L14.34 16.7199C14.63 17.0099 14.63 17.4899 14.34 17.7799Z" fill="#292D32"/>
</svg>
