<svg width="24" height="24" viewBox="0 0 24 24" fill="none" xmlns="http://www.w3.org/2000/svg">
<path opacity="0.4" d="M7.69995 15.71L4.58997 21L1.40991 15.71H7.69995Z" fill="#292D32"/>
<path d="M11.9999 8.41L7.69995 15.71H1.40991L8.81995 3L11.9999 8.41Z" fill="#292D32"/>
<path opacity="0.4" d="M15.1801 3L12.0001 8.41L8.82007 3H15.1801Z" fill="#292D32"/>
<path d="M22.59 15.63C22.59 15.63 22.57 15.66 22.53 15.71H16.3L12 8.41L15.18 3C15.18 3 22.54 15.63 22.59 15.63Z" fill="#292D32"/>
<path opacity="0.4" d="M22.5301 15.71C22.1101 16.37 19.41 21 19.41 21L16.3 15.71H22.5301Z" fill="#292D32"/>
<path d="M19.41 21H4.59009L7.70007 15.71H16.3L19.41 21Z" fill="#292D32"/>
<path opacity="0.4" d="M16.2999 15.7102H7.69995L11.9999 8.41016L16.2999 15.7102Z" fill="#292D32"/>
</svg>
