<svg width="24" height="24" viewBox="0 0 24 24" fill="none" xmlns="http://www.w3.org/2000/svg">
<path opacity="0.4" d="M19.0702 4.95008C23.0402 8.92008 22.9702 15.4 18.8702 19.29C15.0802 22.88 8.93021 22.88 5.13021 19.29C1.02021 15.4 0.950194 8.92008 4.93019 4.95008C8.83019 1.04008 15.1702 1.04008 19.0702 4.95008Z" fill="#292D32"/>
<path d="M11.9998 18.3199C10.4198 18.3199 8.84975 17.7499 7.64975 16.6199C7.34975 16.3299 7.33975 15.8599 7.61975 15.5599C7.90975 15.2599 8.37975 15.2499 8.67975 15.5299C10.5097 17.2599 13.4898 17.2599 15.3198 15.5299C15.6198 15.2499 16.0998 15.2599 16.3798 15.5599C16.6598 15.8599 16.6498 16.3399 16.3498 16.6199C15.1498 17.7499 13.5798 18.3199 11.9998 18.3199Z" fill="#292D32"/>
</svg>
