<svg width="24" height="24" viewBox="0 0 24 24" fill="none" xmlns="http://www.w3.org/2000/svg">
<path d="M21.6699 6.9499C21.0299 4.7799 19.2199 2.9699 17.0499 2.3299C15.3999 1.8499 14.2599 1.8899 13.4699 2.4799C12.5199 3.1899 12.4099 4.4699 12.4099 5.3799V7.8699C12.4099 10.3299 13.5299 11.5799 15.7299 11.5799H18.5999C19.4999 11.5799 20.7899 11.4699 21.4999 10.5199C22.1099 9.7399 22.1599 8.5999 21.6699 6.9499Z" fill="#292D32"/>
<path opacity="0.4" d="M18.9099 13.3597C18.6499 13.0597 18.2699 12.8897 17.8799 12.8897H14.2999C12.5399 12.8897 11.1099 11.4597 11.1099 9.69966V6.11966C11.1099 5.72966 10.9399 5.34966 10.6399 5.08966C10.3499 4.82966 9.9499 4.70966 9.5699 4.75966C7.2199 5.05966 5.0599 6.34966 3.6499 8.28966C2.2299 10.2397 1.7099 12.6197 2.1599 14.9997C2.8099 18.4397 5.5599 21.1897 9.0099 21.8397C9.5599 21.9497 10.1099 21.9997 10.6599 21.9997C12.4699 21.9997 14.2199 21.4397 15.7099 20.3497C17.6499 18.9397 18.9399 16.7797 19.2399 14.4297C19.2899 14.0397 19.1699 13.6497 18.9099 13.3597Z" fill="#292D32"/>
</svg>
