<svg width="24" height="24" viewBox="0 0 24 24" fill="none" xmlns="http://www.w3.org/2000/svg">
<path d="M21.3299 14.67C20.2799 13.62 19.4499 13.96 18.7299 14.67L14.5799 18.82C14.4199 18.98 14.2699 19.29 14.2299 19.51L13.9999 21.0999C13.9199 21.6699 14.3199 22.08 14.8899 21.99L16.4799 21.76C16.6999 21.73 17.0099 21.5699 17.1699 21.4099L21.3199 17.26C22.0499 16.55 22.3799 15.72 21.3299 14.67Z" fill="#292D32"/>
<path d="M8.3902 2.16992V8.61993H1.93018V7.93994C1.93018 4.32994 4.08019 2.17993 7.69019 2.17993H8.3902V2.16992Z" fill="#292D32"/>
<path d="M21.7703 7.93018C21.7703 8.31018 21.4603 8.61017 21.0903 8.61017H15.3403V2.16016H16.0103C19.1903 2.17016 21.7703 4.75018 21.7703 7.93018Z" fill="#292D32"/>
<path d="M8.39044 15.5503V21.3103C8.39044 21.6903 8.08045 21.9903 7.71045 21.9903H7.70044C4.52044 21.9903 1.94043 19.4103 1.94043 16.2303V15.5503H8.39044Z" fill="#292D32"/>
<path opacity="0.4" d="M8.40045 8.61035H1.94043V15.5504H8.40045V8.61035Z" fill="#292D32"/>
<path d="M15.3301 8.61035V14.5504C15.3301 15.1004 14.8801 15.5504 14.3301 15.5504H8.39014V8.61035H15.3301Z" fill="#292D32"/>
<path opacity="0.4" d="M15.3301 2.16992H8.39014V8.61993H15.3301V2.16992Z" fill="#292D32"/>
</svg>
