<svg width="24" height="24" viewBox="0 0 24 24" fill="none" xmlns="http://www.w3.org/2000/svg">
<path opacity="0.4" d="M12 22C17.5228 22 22 17.5228 22 12C22 6.47715 17.5228 2 12 2C6.47715 2 2 6.47715 2 12C2 17.5228 6.47715 22 12 22Z" fill="#292D32"/>
<path d="M12.3301 16.9999C12.1501 17.0599 11.8401 17.0599 11.6601 16.9999C10.1001 16.4699 6.6001 14.2399 6.6001 10.4599C6.6001 8.78993 7.9401 7.43994 9.6001 7.43994C10.5801 7.43994 11.4501 7.90993 12.0001 8.64993C12.5401 7.91993 13.4201 7.43994 14.4001 7.43994C16.0601 7.43994 17.4001 8.78993 17.4001 10.4599C17.4001 14.2399 13.9001 16.4699 12.3301 16.9999Z" fill="#292D32"/>
</svg>
