<svg width="24" height="24" viewBox="0 0 24 24" fill="none" xmlns="http://www.w3.org/2000/svg">
<path d="M17.1999 12.3999C14.5499 12.3999 12.3999 14.5499 12.3999 17.1999C12.3999 18.0999 12.6499 18.9499 13.0999 19.6699C13.9299 21.0599 15.4499 21.9999 17.1999 21.9999C18.9499 21.9999 20.4799 21.0599 21.2999 19.6699C21.7399 18.9499 21.9999 18.0999 21.9999 17.1999C21.9999 14.5499 19.8499 12.3999 17.1999 12.3999ZM19.5799 16.5699L17.0199 18.9299C16.8799 19.0599 16.6899 19.1299 16.5099 19.1299C16.3199 19.1299 16.1299 19.0599 15.9799 18.9099L14.7999 17.7299C14.5099 17.4399 14.5099 16.9599 14.7999 16.6699C15.0899 16.3799 15.5699 16.3799 15.8599 16.6699L16.5299 17.3399L18.5599 15.4599C18.8599 15.1799 19.3399 15.1999 19.6199 15.4999C19.8999 15.8099 19.8799 16.2899 19.5799 16.5699Z" fill="#292D32"/>
<path opacity="0.4" d="M22 8.69009C22 9.88009 21.81 10.9801 21.48 12.0001C21.27 12.6701 21 13.3101 20.68 13.9001C19.8 12.9701 18.57 12.4001 17.2 12.4001C14.55 12.4001 12.4 14.5501 12.4 17.2001C12.4 18.4301 12.87 19.5501 13.63 20.4001C13.26 20.5701 12.92 20.7101 12.62 20.8101C12.28 20.9301 11.72 20.9301 11.38 20.8101C8.97 19.9901 4.1 17.0001 2.52 12.0001C2.19 10.9801 2 9.88009 2 8.69009C2 5.60009 4.49 3.1001 7.56 3.1001C9.37 3.1001 10.99 3.98008 12 5.33008C13.01 3.98008 14.63 3.1001 16.44 3.1001C19.51 3.1001 22 5.60009 22 8.69009Z" fill="#292D32"/>
</svg>
