<svg width="24" height="24" viewBox="0 0 24 24" fill="none" xmlns="http://www.w3.org/2000/svg">
<path opacity="0.4" d="M16.44 3.1001C14.63 3.1001 13.01 3.98008 12 5.33008C10.99 3.98008 9.37 3.1001 7.56 3.1001C4.49 3.1001 2 5.60009 2 8.69009C2 9.88009 2.19 10.9801 2.52 12.0001C4.1 17.0001 8.97 19.9901 11.38 20.8101C11.72 20.9301 12.28 20.9301 12.62 20.8101C15.03 19.9901 19.9 17.0001 21.48 12.0001C21.81 10.9801 22 9.88009 22 8.69009C22 5.60009 19.51 3.1001 16.44 3.1001Z" fill="#292D32"/>
<path d="M14.8402 9.16025C13.9402 8.26025 13.2302 8.55025 12.6202 9.16025L9.08019 12.7003C8.94019 12.8403 8.81019 13.1003 8.78019 13.2903L8.59019 14.6403C8.52019 15.1303 8.86019 15.4702 9.35019 15.4002L10.7002 15.2102C10.8902 15.1802 11.1602 15.0502 11.2902 14.9102L14.8302 11.3702C15.4502 10.7702 15.7402 10.0602 14.8402 9.16025Z" fill="#292D32"/>
</svg>
