<svg width="24" height="24" viewBox="0 0 24 24" fill="none" xmlns="http://www.w3.org/2000/svg">
<path opacity="0.4" d="M22 8.69009C22 9.88009 21.81 10.9801 21.48 12.0001C21.27 12.6701 21 13.3101 20.68 13.9001C19.8 12.9701 18.57 12.4001 17.2 12.4001C14.55 12.4001 12.4 14.5501 12.4 17.2001C12.4 18.4301 12.87 19.5501 13.63 20.4001C13.26 20.5701 12.92 20.7101 12.62 20.8101C12.28 20.9301 11.72 20.9301 11.38 20.8101C8.97 19.9901 4.10002 17.0001 2.52002 12.0001C2.19002 10.9801 2 9.88009 2 8.69009C2 5.60009 4.49 3.1001 7.56 3.1001C9.37 3.1001 10.99 3.98008 12 5.33008C13.01 3.98008 14.63 3.1001 16.44 3.1001C19.51 3.1001 22 5.60009 22 8.69009Z" fill="#292D32"/>
<path d="M20.6899 13.9199C20.6799 13.9199 20.6799 13.9099 20.6799 13.9099V13.8999C19.7999 12.9799 18.5699 12.3999 17.1999 12.3999C14.5499 12.3999 12.3999 14.5499 12.3999 17.1999C12.3999 18.4299 12.8699 19.5499 13.6299 20.3999C14.5099 21.3799 15.7799 21.9999 17.1999 21.9999C19.8499 21.9999 21.9999 19.8499 21.9999 17.1999C21.9999 15.9299 21.4999 14.7799 20.6899 13.9199ZM19.0099 19.0699C18.8699 19.2099 18.6699 19.2899 18.4799 19.2899C18.2899 19.2899 18.0999 19.2099 17.9499 19.0699L17.2099 18.3299L16.4499 19.0999C16.2999 19.2399 16.1099 19.3199 15.9199 19.3199C15.8199 19.3199 15.7299 19.2999 15.6399 19.2599C15.5499 19.2299 15.4599 19.1699 15.3899 19.0999C15.0899 18.7999 15.0899 18.3299 15.3899 18.0399L16.1499 17.2699L15.4199 16.5299C15.1199 16.2399 15.1199 15.7599 15.4199 15.4699C15.7099 15.1799 16.1799 15.1799 16.4799 15.4699L17.2099 16.2099L17.9199 15.4999C18.2199 15.2099 18.6899 15.2099 18.9799 15.4999C19.1499 15.6699 19.2199 15.8899 19.1899 16.1099C19.1799 16.2799 19.1099 16.4399 18.9799 16.5599L18.2699 17.2699L19.0099 18.0099C19.3099 18.2999 19.3099 18.7699 19.0099 19.0699Z" fill="#292D32"/>
</svg>
