<svg width="24" height="24" viewBox="0 0 24 24" fill="none" xmlns="http://www.w3.org/2000/svg">
<path opacity="0.4" d="M21.9999 8.69008C21.9999 9.88008 21.8099 10.9801 21.4799 12.0001C19.8999 17.0001 15.0299 19.9901 12.6199 20.8101C12.2799 20.9301 11.7199 20.9301 11.3799 20.8101C10.7399 20.5901 9.92988 20.2201 9.05988 19.7001C8.49988 19.3701 8.40987 18.5901 8.86987 18.1301L20.1499 6.85008C20.6899 6.31008 21.6399 6.54007 21.8299 7.28007C21.9399 7.73007 21.9999 8.20008 21.9999 8.69008Z" fill="#292D32"/>
<path d="M22.53 1.46994C22.24 1.17994 21.7599 1.17994 21.4699 1.46994L19.13 3.80994C18.34 3.35994 17.42 3.09995 16.44 3.09995C14.63 3.09995 13.01 3.97993 12 5.32993C10.99 3.97993 9.36997 3.09995 7.55997 3.09995C4.48997 3.09995 1.99997 5.59994 1.99997 8.68994C1.99997 9.87994 2.18999 10.9799 2.51999 11.9999C3.16999 14.0699 4.38999 15.8 5.76999 17.17L1.46994 21.4699C1.17994 21.7599 1.17994 22.2399 1.46994 22.5299C1.61994 22.6799 1.80997 22.7499 1.99997 22.7499C2.18997 22.7499 2.38 22.6799 2.53 22.5299L22.53 2.52994C22.82 2.23994 22.82 1.75994 22.53 1.46994Z" fill="#292D32"/>
</svg>
