<svg width="24" height="24" viewBox="0 0 24 24" fill="none" xmlns="http://www.w3.org/2000/svg">
<path d="M20.6799 13.9099V13.8999C19.7999 12.9699 18.5699 12.3999 17.1999 12.3999C14.5499 12.3999 12.3999 14.5499 12.3999 17.1999C12.3999 18.4299 12.8699 19.5499 13.6299 20.3999C14.5099 21.3799 15.7799 21.9999 17.1999 21.9999C19.8499 21.9999 21.9999 19.8499 21.9999 17.1999C21.9999 15.9299 21.4999 14.7699 20.6799 13.9099ZM18.9899 18.0099H17.9499V19.0999C17.9499 19.5099 17.6099 19.8499 17.1999 19.8499C16.7899 19.8499 16.4499 19.5099 16.4499 19.0999V18.0099H15.4099C14.9899 18.0099 14.6599 17.6799 14.6599 17.2599C14.6599 16.8499 14.9799 16.5199 15.3999 16.5099H16.4499V15.5099C16.4499 15.4899 16.4499 15.4699 16.4599 15.4499C16.4799 15.0699 16.8099 14.7599 17.1999 14.7599C17.5999 14.7599 17.9299 15.0799 17.9499 15.4799V16.5099H18.9899C19.4099 16.5099 19.7399 16.8499 19.7399 17.2599C19.7399 17.6799 19.4099 18.0099 18.9899 18.0099Z" fill="#292D32"/>
<path opacity="0.4" d="M22 8.69009C22 9.88009 21.81 10.9801 21.48 12.0001C21.27 12.6701 21 13.3101 20.68 13.9001C19.8 12.9701 18.57 12.4001 17.2 12.4001C14.55 12.4001 12.4 14.5501 12.4 17.2001C12.4 18.4301 12.87 19.5501 13.63 20.4001C13.26 20.5701 12.92 20.7101 12.62 20.8101C12.28 20.9301 11.72 20.9301 11.38 20.8101C8.97 19.9901 4.10002 17.0001 2.52002 12.0001C2.19002 10.9801 2 9.88009 2 8.69009C2 5.60009 4.49 3.1001 7.56 3.1001C9.37 3.1001 10.99 3.98008 12 5.33008C13.01 3.98008 14.63 3.1001 16.44 3.1001C19.51 3.1001 22 5.60009 22 8.69009Z" fill="#292D32"/>
</svg>
