<svg width="24" height="24" viewBox="0 0 24 24" fill="none" xmlns="http://www.w3.org/2000/svg">
<path opacity="0.4" d="M10.0698 2.81984L3.13979 8.36983C2.35979 8.98983 1.85978 10.2999 2.02978 11.2799L3.35976 19.2398C3.59976 20.6598 4.95977 21.8098 6.39977 21.8098H17.5998C19.0298 21.8098 20.3998 20.6498 20.6398 19.2398L21.9698 11.2799C22.1298 10.2999 21.6298 8.98983 20.8598 8.36983L13.9298 2.82985C12.8598 1.96985 11.1298 1.96984 10.0698 2.81984Z" fill="#292D32"/>
<path d="M14.12 15.1296C13.93 15.1296 13.7501 15.0596 13.6001 14.9196C12.6301 13.9896 11.3701 13.9896 10.3901 14.9196C10.0901 15.2096 9.62004 15.1997 9.33004 14.8997C9.04004 14.5997 9.05006 14.1297 9.35006 13.8397C10.9001 12.3497 13.0701 12.3497 14.6301 13.8397C14.9301 14.1297 14.94 14.5997 14.65 14.8997C14.52 15.0497 14.32 15.1296 14.12 15.1296Z" fill="#292D32"/>
<path d="M16.2399 13.0098C16.0499 13.0098 15.8599 12.9398 15.7199 12.7998C15.2499 12.3398 14.7199 11.9698 14.1599 11.6998C12.7599 11.0298 11.2299 11.0298 9.83988 11.6998C9.27988 11.9698 8.75988 12.3398 8.27988 12.7998C7.98988 13.0898 7.50988 13.0898 7.21988 12.7898C6.92988 12.4898 6.93989 12.0198 7.22989 11.7298C7.81989 11.1498 8.47989 10.6898 9.18989 10.3498C10.9999 9.47977 12.9999 9.47977 14.7999 10.3498C15.5099 10.6898 16.1699 11.1498 16.7599 11.7298C17.0599 12.0198 17.0599 12.4898 16.7699 12.7898C16.6299 12.9298 16.4399 13.0098 16.2399 13.0098Z" fill="#292D32"/>
<path d="M12.0001 17.4998C11.7401 17.4998 11.4901 17.3999 11.2901 17.2099C10.9001 16.8199 10.9001 16.1898 11.2901 15.7998C11.6801 15.4098 12.32 15.4098 12.71 15.7998C13.1 16.1898 13.1 16.8199 12.71 17.2099C12.51 17.3999 12.2601 17.4998 12.0001 17.4998Z" fill="#292D32"/>
</svg>
