<svg width="24" height="24" viewBox="0 0 24 24" fill="none" xmlns="http://www.w3.org/2000/svg">
<path opacity="0.4" d="M20.03 6.82018L14.28 2.79018C12.71 1.69018 10.31 1.75018 8.8 2.92018L3.79 6.83018C2.78 7.61018 2 9.21018 2 10.4702V17.3702C2 19.9202 4.07 22.0002 6.61 22.0002H17.38C19.92 22.0002 21.99 19.9302 21.99 17.3802V10.6002C22 9.25018 21.13 7.59018 20.03 6.82018Z" fill="#292D32"/>
<path d="M13.4001 8.51025H10.6001C8.68011 8.51025 7.11011 10.0703 7.11011 12.0003V14.7903C7.11011 16.7103 8.68011 18.2803 10.6001 18.2803H13.3901C15.3101 18.2803 16.8801 16.7203 16.8801 14.7903V12.0003C16.8801 10.0803 15.3201 8.51025 13.4001 8.51025ZM15.4901 12.0003V12.7003H12.7001V9.91025H13.4001C14.5501 9.91025 15.4901 10.8503 15.4901 12.0003ZM10.6001 9.91025H11.3001V12.7003H8.51011V12.0003C8.51011 10.8503 9.45011 9.91025 10.6001 9.91025ZM8.51011 14.7903V14.0903H11.3001V16.8803H10.6001C9.45011 16.8803 8.51011 15.9403 8.51011 14.7903ZM13.4001 16.8803H12.7001V14.0903H15.4901V14.7903C15.4901 15.9403 14.5501 16.8803 13.4001 16.8803Z" fill="#292D32"/>
</svg>
