<svg width="24" height="24" viewBox="0 0 24 24" fill="none" xmlns="http://www.w3.org/2000/svg">
<path opacity="0.4" d="M20.04 6.82018L14.28 2.79018C12.71 1.69018 10.3 1.75018 8.78999 2.92018L3.77999 6.83018C2.77999 7.61018 1.98999 9.21018 1.98999 10.4702V17.3702C1.98999 19.9202 4.05999 22.0002 6.60999 22.0002H17.39C19.94 22.0002 22.01 19.9302 22.01 17.3802V10.6002C22.01 9.25018 21.14 7.59018 20.04 6.82018Z" fill="#292D32"/>
<path d="M16.8799 14.3304C16.8799 13.9404 16.5699 13.6304 16.1799 13.6304C15.7899 13.6304 15.4799 13.9404 15.4799 14.3304V14.5104L12.7599 11.7904C12.6099 11.6404 12.4099 11.5704 12.1999 11.5904C11.9899 11.6104 11.7999 11.7204 11.6899 11.9004L10.6699 13.4204L8.28991 11.0404C8.01991 10.7704 7.57991 10.7704 7.29991 11.0404C7.02991 11.3104 7.02991 11.7504 7.29991 12.0304L10.2799 15.0104C10.4299 15.1604 10.6299 15.2304 10.8399 15.2104C11.0499 15.1904 11.2399 15.0804 11.3499 14.9004L12.3699 13.3804L14.4799 15.4904H14.2999C13.9099 15.4904 13.5999 15.8004 13.5999 16.1904C13.5999 16.5804 13.9099 16.8904 14.2999 16.8904H16.1599C16.2499 16.8904 16.3399 16.8704 16.4299 16.8404C16.5999 16.7704 16.7399 16.6304 16.8099 16.4604C16.8499 16.3704 16.8599 16.2804 16.8599 16.1904V14.3304H16.8799Z" fill="#292D32"/>
</svg>
