<svg width="24" height="24" viewBox="0 0 24 24" fill="none" xmlns="http://www.w3.org/2000/svg">
<path opacity="0.4" d="M20.04 6.82018L14.28 2.79018C12.71 1.69018 10.3 1.75018 8.78999 2.92018L3.77999 6.83018C2.77999 7.61018 1.98999 9.21018 1.98999 10.4702V17.3702C1.98999 19.9202 4.05999 22.0002 6.60999 22.0002H17.39C19.94 22.0002 22.01 19.9302 22.01 17.3802V10.6002C22.01 9.25018 21.14 7.59018 20.04 6.82018Z" fill="#292D32"/>
<path d="M16.8299 11.2703C16.7599 11.1003 16.6199 10.9603 16.4499 10.8903C16.3599 10.8503 16.2699 10.8403 16.1799 10.8403H14.3199C13.9299 10.8403 13.6199 11.1503 13.6199 11.5403C13.6199 11.9303 13.9299 12.2403 14.3199 12.2403H14.4999L12.3899 14.3503L11.3699 12.8303C11.2499 12.6603 11.0699 12.5403 10.8599 12.5203C10.6399 12.5003 10.4499 12.5703 10.2999 12.7203L7.31993 15.7003C7.04993 15.9703 7.04993 16.4103 7.31993 16.6903C7.45993 16.8303 7.62993 16.8903 7.80993 16.8903C7.98993 16.8903 8.16993 16.8203 8.29993 16.6903L10.6799 14.3103L11.6999 15.8303C11.8199 16.0003 11.9999 16.1203 12.2099 16.1403C12.4299 16.1603 12.6199 16.0903 12.7699 15.9403L15.4899 13.2203V13.4003C15.4899 13.7903 15.7999 14.1003 16.1899 14.1003C16.5799 14.1003 16.8899 13.7903 16.8899 13.4003V11.5403C16.8799 11.4403 16.8699 11.3503 16.8299 11.2703Z" fill="#292D32"/>
</svg>
