<svg width="24" height="24" viewBox="0 0 24 24" fill="none" xmlns="http://www.w3.org/2000/svg">
<path opacity="0.4" d="M16.19 2H7.81C4.17 2 2 4.17 2 7.81V16.18C2 19.82 4.17 21.99 7.81 21.99H16.18C19.82 21.99 21.99 19.82 21.99 16.18V7.81C22 4.17 19.83 2 16.19 2Z" fill="#292D32"/>
<path d="M10.89 7.8001C10.79 7.5101 10.52 7.30009 10.21 7.29009C9.88999 7.27009 9.60999 7.45009 9.48999 7.73009L5.95999 15.6601C5.78999 16.0401 5.95999 16.4801 6.33999 16.6501C6.71999 16.8201 7.15999 16.6501 7.32999 16.2701L8.30999 14.0701H11.39L12.1 16.2001C12.2 16.5101 12.5 16.7101 12.81 16.7101C12.89 16.7101 12.97 16.7001 13.05 16.6701C13.44 16.5401 13.65 16.1101 13.52 15.7201L10.89 7.8001ZM8.97998 12.5701L10.08 10.1001L10.9 12.5701H8.97998Z" fill="#292D32"/>
<path d="M16.3501 9.93018C15.9401 9.93018 15.6001 10.2702 15.6001 10.6802V15.9702C15.6001 16.3802 15.9401 16.7202 16.3501 16.7202C16.7601 16.7202 17.1001 16.3802 17.1001 15.9702V10.6802C17.1001 10.2602 16.7601 9.93018 16.3501 9.93018Z" fill="#292D32"/>
<path d="M17.2701 7.65C17.2201 7.53 17.1501 7.42 17.0501 7.33C16.7801 7.05 16.3301 6.96 15.9601 7.11C15.8401 7.16 15.7301 7.23 15.6401 7.33C15.5501 7.42 15.4801 7.53 15.4201 7.65C15.3701 7.77 15.3501 7.9 15.3501 8.03C15.3501 8.17 15.3701 8.29 15.4201 8.42C15.4701 8.54 15.5501 8.65001 15.6401 8.74001C15.8301 8.93001 16.0801 9.03 16.3501 9.03C16.4801 9.03 16.6101 9.01001 16.7301 8.96001C16.8501 8.91001 16.9601 8.83001 17.0501 8.74001C17.1501 8.65001 17.2201 8.54 17.2701 8.42C17.3201 8.3 17.3501 8.17 17.3501 8.03C17.3501 7.9 17.3201 7.77 17.2701 7.65Z" fill="#292D32"/>
</svg>
