<svg width="24" height="24" viewBox="0 0 24 24" fill="none" xmlns="http://www.w3.org/2000/svg">
<path opacity="0.4" d="M22 10.7599C22 10.2899 21.62 9.8999 21.14 9.8999H2.86C2.38 9.8999 2 10.2799 2 10.7599C2 16.6499 6.11 20.7599 12 20.7599C17.89 20.7599 22 16.6399 22 10.7599Z" fill="#292D32"/>
<path d="M12.4598 15.9002L15.3098 13.0602C15.5998 12.7702 15.5998 12.2902 15.3098 12.0002C15.0198 11.7102 14.5398 11.7102 14.2498 12.0002L12.6898 13.5602V3.99023C12.6898 3.58023 12.3498 3.24023 11.9398 3.24023C11.5298 3.24023 11.1898 3.58023 11.1898 3.99023V13.5602L9.61984 12.0002C9.32984 11.7102 8.84984 11.7102 8.55984 12.0002C8.40984 12.1502 8.33984 12.3402 8.33984 12.5302C8.33984 12.7202 8.40984 12.9102 8.55984 13.0602L11.4098 15.9002C11.6998 16.2002 12.1698 16.2002 12.4598 15.9002Z" fill="#292D32"/>
</svg>
