<svg width="24" height="24" viewBox="0 0 24 24" fill="none" xmlns="http://www.w3.org/2000/svg">
<path opacity="0.4" d="M20.7802 14.18V17.12C20.7802 18.22 19.8802 19.12 18.7802 19.12H5.22021C4.12021 19.12 3.22021 18.22 3.22021 17.12V14.18C3.22021 9.35998 7.12022 5.45998 11.9402 5.45998H12.0602C16.8802 5.44998 20.7802 9.35998 20.7802 14.18Z" fill="#292D32"/>
<path d="M12.75 2.52979V5.48978C12.52 5.46978 12.29 5.45979 12.06 5.45979H11.94C11.71 5.45979 11.48 5.46978 11.25 5.48978V2.52979C11.25 2.11979 11.59 1.77979 12 1.77979C12.41 1.77979 12.75 2.11979 12.75 2.52979Z" fill="#292D32"/>
<path d="M15.3202 19.1099C15.2002 20.8499 13.7602 22.2199 12.0002 22.2199C10.2402 22.2199 8.79018 20.8499 8.68018 19.1099H15.3202Z" fill="#292D32"/>
</svg>
