<svg width="24" height="24" viewBox="0 0 24 24" fill="none" xmlns="http://www.w3.org/2000/svg">
<path opacity="0.4" d="M21.6499 10.0302C21.2599 9.47022 20.5699 9.15022 19.7799 9.15022H15.6799C15.4099 9.15022 15.1599 9.04022 14.9899 8.84022C14.8099 8.64022 14.7399 8.36022 14.7799 8.07022L15.2899 4.79022C15.5099 3.81022 14.8599 2.71022 13.8799 2.38022C12.9699 2.04022 11.8999 2.50022 11.4699 3.15022L7.24988 9.42022L7.12988 9.62022V18.4602L7.27988 18.6102L10.4499 21.0602C10.8699 21.4802 11.8199 21.7102 12.4899 21.7102H16.3899C17.7299 21.7102 19.0799 20.7002 19.3799 19.4702L21.8399 11.9802C22.0999 11.2702 22.0299 10.5802 21.6499 10.0302Z" fill="#292D32"/>
<path d="M5.21 6.37988H4.18C2.63 6.37988 2 6.97988 2 8.45988V18.5199C2 19.9999 2.63 20.5999 4.18 20.5999H5.21C6.76 20.5999 7.39 19.9999 7.39 18.5199V8.45988C7.39 6.97988 6.76 6.37988 5.21 6.37988Z" fill="#292D32"/>
</svg>
