<svg width="24" height="24" viewBox="0 0 24 24" fill="none" xmlns="http://www.w3.org/2000/svg">
<path opacity="0.4" d="M18 18.8597H17.24C16.44 18.8597 15.68 19.1697 15.12 19.7297L13.41 21.4197C12.63 22.1897 11.36 22.1897 10.58 21.4197L8.87 19.7297C8.31 19.1697 7.54 18.8597 6.75 18.8597H6C4.34 18.8597 3 17.5298 3 15.8898V4.97974C3 3.33974 4.34 2.00977 6 2.00977H18C19.66 2.00977 21 3.33974 21 4.97974V15.8898C21 17.5198 19.66 18.8597 18 18.8597Z" fill="#292D32"/>
<path d="M16.58 9.56974C16.39 9.29974 16.07 9.14976 15.69 9.14976H13.74C13.61 9.14976 13.49 9.09973 13.41 8.99973C13.33 8.89973 13.29 8.76974 13.31 8.62974L13.55 7.06974C13.65 6.60974 13.34 6.07973 12.88 5.92973C12.45 5.76973 11.94 5.98971 11.74 6.28971L9.79999 9.16972V8.80973C9.79999 8.10973 9.49998 7.81974 8.75998 7.81974H8.26999C7.52999 7.81974 7.22998 8.10973 7.22998 8.80973V13.5898C7.22998 14.2898 7.52999 14.5798 8.26999 14.5798H8.75998C9.45998 14.5798 9.75998 14.3097 9.78998 13.6697L11.26 14.7997C11.46 14.9997 11.91 15.1097 12.23 15.1097H14.08C14.72 15.1097 15.36 14.6297 15.5 14.0397L16.67 10.4797C16.8 10.1597 16.77 9.82974 16.58 9.56974Z" fill="#292D32"/>
</svg>
