<svg width="24" height="24" viewBox="0 0 24 24" fill="none" xmlns="http://www.w3.org/2000/svg">
<path opacity="0.4" d="M10.7499 2.44982C11.4399 1.85982 12.5699 1.85982 13.2699 2.44982L14.8499 3.80981C15.1499 4.06981 15.7099 4.27984 16.1099 4.27984H17.8099C18.8699 4.27984 19.7399 5.14983 19.7399 6.20983V7.90979C19.7399 8.29979 19.9499 8.8698 20.2099 9.1698L21.5699 10.7498C22.1599 11.4398 22.1599 12.5698 21.5699 13.2698L20.2099 14.8498C19.9499 15.1498 19.7399 15.7098 19.7399 16.1098V17.8098C19.7399 18.8698 18.8699 19.7398 17.8099 19.7398H16.1099C15.7199 19.7398 15.1499 19.9498 14.8499 20.2098L13.2699 21.5698C12.5799 22.1598 11.4499 22.1598 10.7499 21.5698L9.16989 20.2098C8.86989 19.9498 8.30988 19.7398 7.90988 19.7398H6.17987C5.11987 19.7398 4.24988 18.8698 4.24988 17.8098V16.0998C4.24988 15.7098 4.03989 15.1498 3.78989 14.8498L2.43988 13.2598C1.85988 12.5698 1.85988 11.4498 2.43988 10.7598L3.78989 9.1698C4.03989 8.8698 4.24988 8.3098 4.24988 7.9198V6.20983C4.24988 5.14983 5.11987 4.27984 6.17987 4.27984H7.90988C8.29988 4.27984 8.86989 4.06981 9.16989 3.80981L10.7499 2.44982Z" fill="#292D32"/>
<path d="M16.58 11.0697C16.39 10.7997 16.07 10.6498 15.69 10.6498H13.74C13.61 10.6498 13.49 10.5997 13.41 10.4997C13.33 10.3997 13.29 10.2697 13.31 10.1297L13.55 8.56974C13.65 8.10974 13.34 7.57973 12.88 7.42973C12.45 7.26973 11.94 7.48971 11.74 7.78971L9.79996 10.6697V10.3097C9.79996 9.60973 9.49998 9.31974 8.75998 9.31974H8.26996C7.52996 9.31974 7.22998 9.60973 7.22998 10.3097V15.0898C7.22998 15.7898 7.52996 16.0798 8.26996 16.0798H8.75998C9.45998 16.0798 9.75998 15.8097 9.78998 15.1697L11.26 16.2997C11.46 16.4997 11.91 16.6097 12.23 16.6097H14.08C14.72 16.6097 15.36 16.1297 15.5 15.5397L16.67 11.9797C16.8 11.6597 16.77 11.3297 16.58 11.0697Z" fill="#292D32"/>
</svg>
