<svg width="24" height="24" viewBox="0 0 24 24" fill="none" xmlns="http://www.w3.org/2000/svg">
<path d="M19.0703 14.2401C18.7803 14.5301 18.3203 14.5301 18.0403 14.2401C17.7503 13.9501 17.7503 13.4901 18.0403 13.2101C20.0403 11.2101 20.0403 7.9601 18.0403 5.9701C16.0403 3.9801 12.7903 3.9701 10.8003 5.9701C8.81027 7.9701 8.80027 11.2201 10.8003 13.2101C11.0903 13.5001 11.0903 13.9601 10.8003 14.2401C10.5103 14.5301 10.0503 14.5301 9.77027 14.2401C7.20027 11.6701 7.20027 7.4901 9.77027 4.9301C12.3403 2.3701 16.5203 2.3601 19.0803 4.9301C21.6403 7.5001 21.6403 11.6701 19.0703 14.2401Z" fill="#292D32"/>
<path opacity="0.4" d="M19.0695 4.92994C21.6395 7.49994 21.6395 11.6699 19.0695 14.2399C18.1895 15.1199 17.1095 15.6999 15.9795 15.9799C16.5095 13.8199 15.9295 11.4499 14.2395 9.75994C12.5495 8.06994 10.1795 7.48994 8.01953 8.01994C8.29953 6.88994 8.86953 5.80994 9.75953 4.92994C12.3295 2.35994 16.4995 2.35994 19.0695 4.92994Z" fill="#292D32"/>
<path d="M4.92973 9.75998C5.21973 9.46998 5.67973 9.46998 5.95973 9.75998C6.24973 10.05 6.24973 10.51 5.95973 10.79C3.95973 12.79 3.95973 16.04 5.95973 18.03C7.95973 20.02 11.2097 20.03 13.1997 18.03C15.1897 16.03 15.1997 12.78 13.1997 10.79C12.9097 10.5 12.9097 10.04 13.1997 9.75998C13.4897 9.46998 13.9497 9.46998 14.2297 9.75998C16.7997 12.33 16.7997 16.51 14.2297 19.07C11.6597 21.63 7.47973 21.64 4.91973 19.07C2.35973 16.5 2.35973 12.33 4.92973 9.75998Z" fill="#292D32"/>
<path opacity="0.5" d="M14.2404 9.75988C15.9304 11.4499 16.5104 13.8199 15.9804 15.9799C15.7004 17.1099 15.1204 18.1899 14.2404 19.0699C11.6704 21.6399 7.50043 21.6399 4.93043 19.0699C2.36043 16.4999 2.36043 12.3299 4.93043 9.75988C5.81043 8.86988 6.89043 8.29988 8.02043 8.01988C10.1804 7.48988 12.5504 8.06988 14.2404 9.75988Z" fill="#292D32"/>
</svg>
