<svg width="24" height="24" viewBox="0 0 24 24" fill="none" xmlns="http://www.w3.org/2000/svg">
<path opacity="0.4" d="M21.9897 6.01996C22.0097 6.25996 21.9897 6.50995 21.9297 6.75995L18.5597 20.2899C18.3197 21.2999 17.4198 21.9999 16.3798 21.9999H3.23974C1.72974 21.9999 0.659756 20.5199 1.09976 19.0699L5.30975 5.53992C5.59975 4.59992 6.46976 3.95996 7.44976 3.95996H19.7498C20.7098 3.95996 21.4898 4.52996 21.8198 5.32996C21.9198 5.53996 21.9697 5.77996 21.9897 6.01996Z" fill="#292D32"/>
<path d="M22.9899 19.62C23.0899 20.91 22.0699 22 20.7799 22H16.3799C17.4199 22 18.3199 21.3 18.5599 20.29L21.9299 6.76001C21.9899 6.51001 22.0099 6.26002 21.9899 6.02002L21.9999 6L22.9899 19.62Z" fill="#292D32"/>
<path d="M9.67977 7.12989C9.61977 7.12989 9.55977 7.11987 9.49977 7.10987C9.09977 7.00987 8.84979 6.6099 8.94979 6.1999L9.98976 1.87989C10.0898 1.47989 10.4898 1.2399 10.8998 1.3299C11.2998 1.4299 11.5498 1.82987 11.4498 2.23987L10.4098 6.55988C10.3298 6.89988 10.0198 7.12989 9.67977 7.12989Z" fill="#292D32"/>
<path d="M16.3799 7.14005C16.3299 7.14005 16.2699 7.14003 16.2199 7.12003C15.8199 7.03003 15.56 6.63001 15.64 6.23001L16.5799 1.89005C16.6699 1.48005 17.0699 1.23003 17.4699 1.31003C17.8699 1.40003 18.1299 1.80004 18.0499 2.20004L17.1099 6.54001C17.0399 6.90001 16.7299 7.14005 16.3799 7.14005Z" fill="#292D32"/>
<path d="M15.7002 12.75H7.7002C7.2902 12.75 6.9502 12.41 6.9502 12C6.9502 11.59 7.2902 11.25 7.7002 11.25H15.7002C16.1102 11.25 16.4502 11.59 16.4502 12C16.4502 12.41 16.1102 12.75 15.7002 12.75Z" fill="#292D32"/>
<path d="M14.7002 16.75H6.7002C6.2902 16.75 5.9502 16.41 5.9502 16C5.9502 15.59 6.2902 15.25 6.7002 15.25H14.7002C15.1102 15.25 15.4502 15.59 15.4502 16C15.4502 16.41 15.1102 16.75 14.7002 16.75Z" fill="#292D32"/>
</svg>
