<svg width="24" height="24" viewBox="0 0 24 24" fill="none" xmlns="http://www.w3.org/2000/svg">
<path opacity="0.4" d="M22 7.42993V13.4299C22 14.9299 21.5 16.1799 20.62 17.0599C19.75 17.9299 18.5 18.4299 17 18.4299V20.5599C17 21.3599 16.11 21.84 15.45 21.4L11 18.4299H8.88C8.96 18.1299 9 17.8199 9 17.4999C9 16.4799 8.61 15.54 7.97 14.83C7.25 14.01 6.18 13.4999 5 13.4999C3.88 13.4999 2.86 13.96 2.13 14.71C2.04 14.31 2 13.8799 2 13.4299V7.42993C2 4.42993 4 2.42993 7 2.42993H17C20 2.42993 22 4.42993 22 7.42993Z" fill="#292D32"/>
<path d="M15.5 11.25H8.5C8.09 11.25 7.75 10.91 7.75 10.5C7.75 10.09 8.09 9.75 8.5 9.75H15.5C15.91 9.75 16.25 10.09 16.25 10.5C16.25 10.91 15.91 11.25 15.5 11.25Z" fill="#292D32"/>
<path d="M5.20998 13.51C4.11998 13.44 3 13.84 2.17 14.67C0.61 16.23 0.61 18.76 2.17 20.33C2.7 20.86 3.35 21.21 4.04 21.38C4.42 21.48 4.81999 21.51 5.21999 21.49C6.16999 21.45 7.09997 21.0701 7.82997 20.3401C8.85997 19.3101 9.20999 17.86 8.87999 16.55C8.71999 15.86 8.35997 15.21 7.82997 14.68C7.10997 13.95 6.16998 13.56 5.20998 13.51ZM7.23998 17.48C7.23998 17.69 7.15998 17.87 7.01998 18.01C6.87998 18.15 6.69998 18.23 6.48998 18.23H5.74999V19.01C5.74999 19.22 5.66999 19.4 5.52999 19.54C5.38999 19.68 5.20999 19.76 4.99999 19.76C4.58999 19.76 4.24999 19.42 4.24999 19.01V18.23H3.49999C3.08999 18.23 2.74999 17.89 2.74999 17.48C2.74999 17.07 3.08999 16.73 3.49999 16.73H4.24999V16.02C4.24999 15.61 4.58999 15.27 4.99999 15.27C5.40999 15.27 5.74999 15.61 5.74999 16.02V16.73H6.48998C6.90998 16.73 7.23998 17.07 7.23998 17.48Z" fill="#292D32"/>
</svg>
