<svg width="24" height="24" viewBox="0 0 24 24" fill="none" xmlns="http://www.w3.org/2000/svg">
<path opacity="0.4" d="M8.5 18.9697H8C4 18.9697 2 17.9697 2 12.9697V7.96973C2 3.96973 4 1.96973 8 1.96973H16C20 1.96973 22 3.96973 22 7.96973V12.9697C22 16.9697 20 18.9697 16 18.9697H15.5C15.19 18.9697 14.89 19.1198 14.7 19.3698L13.2 21.3698C12.54 22.2498 11.46 22.2498 10.8 21.3698L9.29999 19.3698C9.13999 19.1498 8.78 18.9697 8.5 18.9697Z" fill="#292D32"/>
<path d="M7.99994 13.4502C7.80994 13.4502 7.61994 13.3801 7.46994 13.2301L5.46994 11.2301C5.17994 10.9401 5.17994 10.4601 5.46994 10.1701L7.46994 8.17014C7.75994 7.88014 8.23994 7.88014 8.52994 8.17014C8.81994 8.46014 8.81994 8.94013 8.52994 9.23013L7.05994 10.7002L8.52994 12.1701C8.81994 12.4601 8.81994 12.9401 8.52994 13.2301C8.37994 13.3801 8.18994 13.4502 7.99994 13.4502Z" fill="#292D32"/>
<path d="M15.9999 13.4502C15.8099 13.4502 15.6199 13.3801 15.4699 13.2301C15.1799 12.9401 15.1799 12.4601 15.4699 12.1701L16.9399 10.7002L15.4699 9.23013C15.1799 8.94013 15.1799 8.46014 15.4699 8.17014C15.7599 7.88014 16.2399 7.88014 16.5299 8.17014L18.5299 10.1701C18.8199 10.4601 18.8199 10.9401 18.5299 11.2301L16.5299 13.2301C16.3799 13.3801 16.1899 13.4502 15.9999 13.4502Z" fill="#292D32"/>
<path d="M10.9999 13.7798C10.8999 13.7798 10.7999 13.7597 10.6999 13.7197C10.3199 13.5597 10.1399 13.1197 10.3099 12.7297L12.3099 8.05975C12.4699 7.67975 12.9099 7.49973 13.2999 7.66973C13.6799 7.82973 13.8599 8.26972 13.6899 8.65972L11.6899 13.3298C11.5699 13.6098 11.2899 13.7798 10.9999 13.7798Z" fill="#292D32"/>
</svg>
