<svg width="24" height="24" viewBox="0 0 24 24" fill="none" xmlns="http://www.w3.org/2000/svg">
<path opacity="0.4" d="M2 9V8C2 5.24 4.24 3 7 3H17C19.76 3 22 5.24 22 8V16C22 18.76 19.76 21 17 21H16H7C4.24 21 2 18.76 2 16V9Z" fill="#292D32"/>
<path d="M16.1402 15.44C15.7702 15.44 15.4502 15.16 15.4002 14.79C14.9702 11.41 12.5102 8.95003 9.13022 8.52003C8.72022 8.47003 8.43021 8.09001 8.48021 7.68001C8.53021 7.27001 8.91023 6.98002 9.32023 7.03002C13.3902 7.55002 16.3602 10.52 16.8902 14.6C16.9402 15.01 16.6502 15.39 16.2402 15.44C16.2102 15.44 16.1802 15.44 16.1402 15.44Z" fill="#292D32"/>
<path d="M13.4401 16.3002C13.0701 16.3002 12.7501 16.0202 12.7001 15.6502C12.3901 13.2702 10.6601 11.5302 8.27012 11.2202C7.86012 11.1702 7.57011 10.7902 7.62011 10.3802C7.67011 9.97022 8.05012 9.68021 8.46012 9.73021C11.5401 10.1302 13.7901 12.3702 14.1901 15.4602C14.2401 15.8702 13.9501 16.2502 13.5401 16.3002C13.5101 16.3002 13.4701 16.3002 13.4401 16.3002Z" fill="#292D32"/>
<path d="M10.3901 16.81C10.0201 16.81 9.70009 16.53 9.65009 16.16C9.52009 15.14 8.78009 14.4 7.76009 14.27C7.35009 14.22 7.0601 13.84 7.1101 13.43C7.1601 13.02 7.54009 12.73 7.95009 12.78C9.64009 13 10.9201 14.28 11.1401 15.97C11.1901 16.38 10.9001 16.76 10.4901 16.81C10.4601 16.81 10.4201 16.81 10.3901 16.81Z" fill="#292D32"/>
</svg>
