<svg width="24" height="24" viewBox="0 0 24 24" fill="none" xmlns="http://www.w3.org/2000/svg">
<path opacity="0.4" d="M21 7.52002V15.48C21 15.84 20.98 16.19 20.93 16.51C20.89 16.51 20.84 16.49 20.8 16.48L18.52 15.72C18.5 15.71 18.49 15.7 18.47 15.7V20.31C17.99 20.58 17.45 20.77 16.85 20.87C16.95 20.69 17.01 20.48 17.01 20.25C17.01 19.52 16.41 18.92 15.67 18.92C14.94 18.92 14.34 19.52 14.34 20.25C14.34 20.53 14.42 20.79 14.57 21H7.52002C4.07002 21 2 18.94 2 15.48V7.52002C2 4.06002 4.07002 2 7.52002 2H15.48C18.93 2 21 4.06002 21 7.52002Z" fill="#292D32"/>
<path d="M21.6199 12.0999L20.9999 11.89L19.3299 11.34C18.7499 11.15 18.1599 11.2199 17.7099 11.5399C17.2699 11.8699 17.0099 12.4 17.0099 13.02V17.81C16.6099 17.59 16.1599 17.45 15.6699 17.45C14.1299 17.45 12.8799 18.71 12.8799 20.25C12.8799 20.51 12.9199 20.76 12.9799 21C13.3099 22.19 14.3899 23.05 15.6699 23.05C17.1999 23.05 18.4398 21.83 18.4698 20.31V15.7C18.4898 15.7 18.4999 15.7099 18.5199 15.7199L20.7999 16.4799C20.8399 16.4899 20.8899 16.51 20.9299 16.51C21.1099 16.56 21.2699 16.58 21.4399 16.58C21.7999 16.58 22.1399 16.48 22.4199 16.27C22.8699 15.95 23.1199 15.42 23.1199 14.8V14.2C23.1199 13.29 22.4799 12.3899 21.6199 12.0999ZM15.6699 21.59C15.2099 21.59 14.8099 21.36 14.5699 21C14.4199 20.79 14.3399 20.53 14.3399 20.25C14.3399 19.52 14.9399 18.92 15.6699 18.92C16.4099 18.92 17.0099 19.52 17.0099 20.25C17.0099 20.48 16.9499 20.69 16.8499 20.87C16.6299 21.3 16.1799 21.59 15.6699 21.59Z" fill="#292D32"/>
</svg>
