<svg width="24" height="24" viewBox="0 0 24 24" fill="none" xmlns="http://www.w3.org/2000/svg">
<path opacity="0.4" d="M20.4002 16.33C20.1202 17.08 19.5302 17.65 18.7602 17.91C17.6802 18.27 16.5702 18.54 15.4502 18.73C15.3402 18.75 15.2302 18.7701 15.1202 18.7801C14.9402 18.8101 14.7602 18.83 14.5802 18.85C14.3602 18.88 14.1302 18.9 13.9002 18.92C13.2702 18.97 12.6502 19 12.0202 19C11.3802 19 10.7402 18.97 10.1102 18.91C9.8402 18.89 9.5802 18.86 9.3202 18.82C9.1702 18.8 9.0202 18.78 8.8802 18.76C8.7702 18.74 8.6602 18.73 8.5502 18.71C7.4402 18.53 6.3402 18.26 5.2702 17.9C4.4702 17.63 3.8602 17.06 3.5902 16.33C3.3202 15.61 3.4202 14.77 3.8502 14.05L4.9802 12.17C5.2202 11.76 5.4402 10.97 5.4402 10.49V8.63005C5.4402 5.00005 8.3902 2.05005 12.0202 2.05005C15.6402 2.05005 18.5902 5.00005 18.5902 8.63005V10.49C18.5902 10.97 18.8102 11.76 19.0602 12.17L20.1902 14.05C20.6002 14.75 20.6802 15.57 20.4002 16.33Z" fill="#292D32"/>
<path d="M12.0002 10.7599C11.5802 10.7599 11.2402 10.4199 11.2402 9.99989V6.89989C11.2402 6.47989 11.5802 6.13989 12.0002 6.13989C12.4202 6.13989 12.7602 6.47989 12.7602 6.89989V9.99989C12.7502 10.4199 12.4102 10.7599 12.0002 10.7599Z" fill="#292D32"/>
<path d="M14.8302 20.01C14.4102 21.17 13.3002 22 12.0002 22C11.2102 22 10.4302 21.68 9.88018 21.11C9.56018 20.81 9.32018 20.41 9.18018 20C9.31018 20.02 9.44018 20.03 9.58018 20.05C9.81018 20.08 10.0502 20.11 10.2902 20.13C10.8602 20.18 11.4402 20.21 12.0202 20.21C12.5902 20.21 13.1602 20.18 13.7202 20.13C13.9302 20.11 14.1402 20.1 14.3402 20.07C14.5002 20.05 14.6602 20.03 14.8302 20.01Z" fill="#292D32"/>
</svg>
