<svg width="24" height="24" viewBox="0 0 24 24" fill="none" xmlns="http://www.w3.org/2000/svg">
<path d="M20.0201 10.6999L17.2201 12.4699L11.5601 6.80992L13.3201 4.00992C14.1401 2.71992 15.7801 2.65992 16.9901 3.85992L20.1701 7.03992C21.3001 8.16992 21.2301 9.92992 20.0201 10.6999Z" fill="#292D32"/>
<path opacity="0.4" d="M14.7098 19.95L5.99981 20.98C5.39981 21.05 4.85981 20.96 4.40981 20.74C3.91981 20.5 3.53981 20.12 3.29981 19.63C3.07981 19.18 2.99981 18.64 3.05981 18.05L4.09981 9.32998C4.34981 7.14998 5.15981 6.43999 7.45981 6.56999L11.5798 6.81999L17.2398 12.48L17.4798 16.6C17.6898 18.9 16.8998 19.7 14.7098 19.95Z" fill="#292D32"/>
<path d="M7.98004 17.1499L4.40004 20.7299C3.91004 20.4899 3.53004 20.1099 3.29004 19.6199L6.88004 16.0299C7.19004 15.7299 7.69004 15.7299 7.99004 16.0299C8.30004 16.3499 8.30004 16.8399 7.98004 17.1499Z" fill="#292D32"/>
</svg>
