<svg width="24" height="24" viewBox="0 0 24 24" fill="none" xmlns="http://www.w3.org/2000/svg">
<path d="M14.1501 22.0001H9.87008C8.34008 22.0001 7.20008 20.7601 7.49008 19.4301L8.19008 16.3501H15.8301L16.5301 19.4301C16.8501 20.8401 15.7801 22.0001 14.1501 22.0001Z" fill="#292D32"/>
<path opacity="0.4" d="M18.7701 13.7399L15.8301 16.3499H8.19013L5.25013 13.7399C3.54013 12.3399 3.54013 11.2599 4.84013 9.60993L10.0301 3.03993C10.3901 2.58993 10.8101 2.27993 11.2601 2.11993C11.7501 1.94993 12.2701 1.94993 12.7601 2.11993C13.2101 2.27993 13.6301 2.58993 13.9901 3.03993L19.1801 9.60993C20.4801 11.2599 20.4201 12.2799 18.7701 13.7399Z" fill="#292D32"/>
<path d="M12.7598 2.11993V6.96993C12.7598 7.37993 12.4198 7.71993 12.0098 7.71993C11.5998 7.71993 11.2598 7.37993 11.2598 6.96993V2.11993C11.7498 1.94993 12.2698 1.94993 12.7598 2.11993Z" fill="#292D32"/>
</svg>
