<svg width="24" height="24" viewBox="0 0 24 24" fill="none" xmlns="http://www.w3.org/2000/svg">
<path opacity="0.4" d="M12 22C17.5228 22 22 17.5228 22 12C22 6.47715 17.5228 2 12 2C6.47715 2 2 6.47715 2 12C2 17.5228 6.47715 22 12 22Z" fill="#292D32"/>
<path d="M8.31976 16.0199C8.12976 16.0199 7.93977 15.9499 7.78977 15.7999C7.49977 15.5099 7.49977 15.0299 7.78977 14.7399L14.3398 8.18991C14.6298 7.89991 15.1098 7.89991 15.3998 8.18991C15.6898 8.47991 15.6898 8.95991 15.3998 9.24991L8.84976 15.7999C8.69976 15.9499 8.50976 16.0199 8.31976 16.0199Z" fill="#292D32"/>
<path d="M8.73001 7.65991C7.92001 7.65991 7.25 8.31992 7.25 9.13992C7.25 9.94992 7.91001 10.6199 8.73001 10.6199C9.54001 10.6199 10.21 9.95992 10.21 9.13992C10.2 8.31992 9.54001 7.65991 8.73001 7.65991Z" fill="#292D32"/>
<path d="M15.27 13.3899C14.46 13.3899 13.79 14.0499 13.79 14.8699C13.79 15.6799 14.45 16.3499 15.27 16.3499C16.08 16.3499 16.75 15.6899 16.75 14.8699C16.75 14.0499 16.09 13.3899 15.27 13.3899Z" fill="#292D32"/>
</svg>
