<svg width="24" height="24" viewBox="0 0 24 24" fill="none" xmlns="http://www.w3.org/2000/svg">
<path opacity="0.4" d="M21 22.75H3C2.59 22.75 2.25 22.41 2.25 22C2.25 21.59 2.59 21.25 3 21.25H21C21.41 21.25 21.75 21.59 21.75 22C21.75 22.41 21.41 22.75 21 22.75Z" fill="#292D32"/>
<path opacity="0.4" d="M21 2.75H3C2.59 2.75 2.25 2.41 2.25 2C2.25 1.59 2.59 1.25 3 1.25H21C21.41 1.25 21.75 1.59 21.75 2C21.75 2.41 21.41 2.75 21 2.75Z" fill="#292D32"/>
<path d="M14.3004 15.3599L12.7504 16.9099V6.6999L14.3004 8.2499C14.4504 8.3999 14.6404 8.4699 14.8304 8.4699C15.0204 8.4699 15.2104 8.3999 15.3604 8.2499C15.6504 7.9599 15.6504 7.4799 15.3604 7.1899L12.5304 4.3599C12.2504 4.0799 11.7504 4.0799 11.4704 4.3599L8.64035 7.1899C8.35035 7.4799 8.35035 7.9599 8.64035 8.2499C8.93035 8.5399 9.41035 8.5399 9.70035 8.2499L11.2504 6.6999V16.9099L9.70035 15.3599C9.41035 15.0699 8.93035 15.0699 8.64035 15.3599C8.35035 15.6499 8.35035 16.1299 8.64035 16.4199L11.4704 19.2499C11.6104 19.3899 11.8004 19.4699 12.0004 19.4699C12.2004 19.4699 12.3904 19.3899 12.5304 19.2499L15.3604 16.4199C15.6504 16.1299 15.6504 15.6499 15.3604 15.3599C15.0704 15.0699 14.5904 15.0699 14.3004 15.3599Z" fill="#292D32"/>
</svg>
