<svg width="24" height="24" viewBox="0 0 24 24" fill="none" xmlns="http://www.w3.org/2000/svg">
<path opacity="0.4" d="M16.1898 2H7.81976C4.17976 2 2.00977 4.17 2.00977 7.81V16.18C2.00977 19.82 4.17976 21.99 7.81976 21.99H16.1898C19.8298 21.99 21.9998 19.82 21.9998 16.18V7.81C21.9998 4.17 19.8298 2 16.1898 2Z" fill="#292D32"/>
<path d="M8.19 16.7798H9.68C10.77 16.7798 11.62 15.9298 11.62 14.8398V13.3497C11.62 12.2597 10.77 11.4097 9.68 11.4097H7.77C7.85 9.59973 8.27 9.32975 9.48 8.61975C9.84 8.40975 9.95 7.94978 9.74 7.58978C9.6 7.34978 9.35 7.21973 9.09 7.21973C8.96 7.21973 8.83 7.24976 8.71 7.31976C6.92 8.37976 6.25 9.06978 6.25 12.1498V14.8198C6.25 15.9098 7.12 16.7798 8.19 16.7798Z" fill="#292D32"/>
<path d="M14.3199 16.7798H15.8099C16.8999 16.7798 17.7499 15.9298 17.7499 14.8398V13.3497C17.7499 12.2597 16.8999 11.4097 15.8099 11.4097H13.8999C13.9799 9.59973 14.3999 9.32975 15.6099 8.61975C15.9699 8.40975 16.0799 7.94978 15.8699 7.58978C15.7299 7.34978 15.4799 7.21973 15.2199 7.21973C15.0899 7.21973 14.9599 7.24976 14.8399 7.31976C13.0499 8.37976 12.3799 9.06978 12.3799 12.1498V14.8198C12.3899 15.9098 13.2599 16.7798 14.3199 16.7798Z" fill="#292D32"/>
</svg>
