<svg width="24" height="24" viewBox="0 0 24 24" fill="none" xmlns="http://www.w3.org/2000/svg">
<path opacity="0.4" d="M22 10V17C22 20 20 22 17 22H7C4 22 2 20 2 17V10C2 7.26 3.67 5.34999 6.25 5.04999C6.49 5.00999 6.74 5 7 5H17C20 5 22 7 22 10Z" fill="#292D32"/>
<path d="M7.75 2V5H7C6.74 5 6.49 5.00999 6.25 5.04999V2C6.25 1.59 6.59 1.25 7 1.25C7.41 1.25 7.75 1.59 7.75 2Z" fill="#292D32"/>
<path d="M7.87988 16C9.26059 16 10.3799 14.8807 10.3799 13.5C10.3799 12.1193 9.26059 11 7.87988 11C6.49917 11 5.37988 12.1193 5.37988 13.5C5.37988 14.8807 6.49917 16 7.87988 16Z" fill="#292D32"/>
<path d="M17.8799 12.25H13.8799C13.4699 12.25 13.1299 11.91 13.1299 11.5C13.1299 11.09 13.4699 10.75 13.8799 10.75H17.8799C18.2899 10.75 18.6299 11.09 18.6299 11.5C18.6299 11.91 18.2899 12.25 17.8799 12.25Z" fill="#292D32"/>
<path d="M14.3799 16.25H13.8799C13.4699 16.25 13.1299 15.91 13.1299 15.5C13.1299 15.09 13.4699 14.75 13.8799 14.75H14.3799C14.7899 14.75 15.1299 15.09 15.1299 15.5C15.1299 15.91 14.7899 16.25 14.3799 16.25Z" fill="#292D32"/>
<path d="M17.8799 16.25H17.3799C16.9699 16.25 16.6299 15.91 16.6299 15.5C16.6299 15.09 16.9699 14.75 17.3799 14.75H17.8799C18.2899 14.75 18.6299 15.09 18.6299 15.5C18.6299 15.91 18.2899 16.25 17.8799 16.25Z" fill="#292D32"/>
</svg>
