<svg width="24" height="24" viewBox="0 0 24 24" fill="none" xmlns="http://www.w3.org/2000/svg">
<path opacity="0.4" d="M18.5 10V12.17C18.5 12.7 18.71 13.21 19.09 13.59L19.91 14.41C20.29 14.79 20.5 15.3 20.5 15.83V17C20.5 20 18.97 22 15.5 22H8.5C4.97 22 3.5 20 3.5 17V7C3.5 4.08 4.9 2.1 8.24 2.01C8.32 2 8.41 2 8.5 2H15.5C15.58 2 15.66 2 15.74 2.01C19.04 2.09 20.5 4.07 20.5 7V8C20.5 8.55 20.05 9 19.5 9C18.95 9 18.5 9.45 18.5 10Z" fill="#292D32"/>
<path d="M9.73992 2L9.68992 4.96C9.67992 5.37 9.34992 5.7 8.93992 5.7H8.92992C8.50992 5.69 8.17992 5.35 8.18992 4.93L8.23992 2.01C8.31992 2 8.40992 2 8.49992 2H9.73992Z" fill="#292D32"/>
<path d="M12.7399 2L12.6899 4.95C12.6799 5.35 12.3499 5.68 11.9399 5.68H11.9299C11.5099 5.67 11.1799 5.33 11.1899 4.92L11.2399 2H12.7399Z" fill="#292D32"/>
<path d="M15.7399 2.01L15.6899 4.89C15.6799 5.3 15.3499 5.63 14.9399 5.63H14.9299C14.5099 5.62 14.1799 5.28 14.1899 4.87L14.2399 2H15.4999C15.5799 2 15.6599 2 15.7399 2.01Z" fill="#292D32"/>
<path d="M16.02 21.98C15.85 21.99 15.68 22 15.51 22H8.50998C8.32998 22 8.15998 22 7.99998 21.98L7.97998 19C7.97998 17.9 8.86998 17 9.97998 17H13.99C15.09 17 15.98 17.89 15.99 18.99L16.02 21.98Z" fill="#292D32"/>
</svg>
