<svg width="24" height="24" viewBox="0 0 24 24" fill="none" xmlns="http://www.w3.org/2000/svg">
<path opacity="0.4" d="M8.67 14H4C2.9 14 2 14.9 2 16V22H8.67V14Z" fill="#292D32"/>
<path d="M13.3302 10H10.6602C9.56016 10 8.66016 10.9 8.66016 12V22H15.3302V12C15.3302 10.9 14.4402 10 13.3302 10Z" fill="#292D32"/>
<path opacity="0.4" d="M20.0001 17H15.3301V22H22.0001V19C22.0001 17.9 21.1001 17 20.0001 17Z" fill="#292D32"/>
<path d="M15.0102 4.84999C15.3202 4.53999 15.4402 4.16999 15.3402 3.84999C15.2402 3.52999 14.9302 3.3 14.4902 3.23L13.5302 3.06999C13.4902 3.05999 13.4002 2.99998 13.3802 2.95998L12.8502 1.89998C12.4502 1.08998 11.5402 1.08998 11.1402 1.89998L10.6102 2.95998C10.5902 2.99998 10.5002 3.05999 10.4602 3.06999L9.50017 3.23C9.06017 3.3 8.76017 3.52999 8.65017 3.84999C8.55017 4.16999 8.67017 4.53999 8.98017 4.84999L9.72017 5.59999C9.75017 5.62999 9.79017 5.75 9.78017 5.79L9.57017 6.70998C9.41017 7.38998 9.67017 7.69997 9.84017 7.82997C10.0102 7.94997 10.3802 8.10999 10.9902 7.74999L11.8902 7.21999C11.9302 7.18999 12.0602 7.18999 12.1002 7.21999L13.0002 7.74999C13.2802 7.91999 13.5102 7.96999 13.6902 7.96999C13.9002 7.96999 14.0502 7.88997 14.1402 7.82997C14.3102 7.70997 14.5702 7.39998 14.4102 6.70998L14.2002 5.79C14.1902 5.74 14.2202 5.62999 14.2602 5.59999L15.0102 4.84999Z" fill="#292D32"/>
</svg>
