<svg width="24" height="24" viewBox="0 0 24 24" fill="none" xmlns="http://www.w3.org/2000/svg">
<path d="M5.00039 18.1998C4.80039 18.1998 4.60039 18.0998 4.50039 17.9998C4.20039 17.6998 4.20039 17.1998 4.50039 16.8998L18.5004 2.8998C18.8004 2.5998 19.3004 2.5998 19.6004 2.8998C19.9004 3.1998 19.9004 3.6998 19.6004 3.9998L5.60039 17.9998C5.40039 18.1998 5.20039 18.1998 5.00039 18.1998Z" fill="#292D32"/>
<path d="M15.3002 18.1999H5.0002C4.6002 18.1999 4.2002 17.8999 4.2002 17.3999V7.1999C4.2002 6.7999 4.5002 6.3999 5.0002 6.3999C5.5002 6.3999 5.8002 6.6999 5.8002 7.1999V16.6999H15.3002C15.7002 16.6999 16.1002 16.9999 16.1002 17.4999C16.1002 17.9999 15.7002 18.1999 15.3002 18.1999Z" fill="#292D32"/>
<path opacity="0.4" d="M20.5002 22.8002H3.5002C3.1002 22.8002 2.7002 22.5002 2.7002 22.0002C2.7002 21.5002 3.0002 21.2002 3.5002 21.2002H20.5002C20.9002 21.2002 21.3002 21.5002 21.3002 22.0002C21.3002 22.5002 20.9002 22.8002 20.5002 22.8002Z" fill="#292D32"/>
</svg>
