<svg width="24" height="24" viewBox="0 0 24 24" fill="none" xmlns="http://www.w3.org/2000/svg">
<path opacity="0.4" d="M16.19 2H7.82C4.17 2 2 4.17 2 7.81V16.18C2 19.82 4.17 21.99 7.81 21.99H16.18C19.82 21.99 21.99 19.82 21.99 16.18V7.81C22 4.17 19.83 2 16.19 2Z" fill="#292D32"/>
<path d="M11.4704 15.0398C11.5404 15.1098 11.6204 15.1598 11.7104 15.1998C11.8004 15.2398 11.9004 15.2598 12.0004 15.2598C12.1004 15.2598 12.1904 15.2398 12.2904 15.1998C12.3804 15.1598 12.4604 15.1098 12.5304 15.0398L15.5304 12.0398C15.8204 11.7498 15.8204 11.2698 15.5304 10.9798C15.2404 10.6898 14.7604 10.6898 14.4704 10.9798L12.7504 12.6998V6.50977C12.7504 6.09977 12.4104 5.75977 12.0004 5.75977C11.5904 5.75977 11.2504 6.09977 11.2504 6.50977V12.6998L9.53043 10.9798C9.24043 10.6898 8.76043 10.6898 8.47043 10.9798C8.18043 11.2698 8.18043 11.7498 8.47043 12.0398L11.4704 15.0398Z" fill="#292D32"/>
<path d="M18.7102 16.28C18.5802 15.89 18.1602 15.68 17.7602 15.81C14.0402 17.05 9.95018 17.05 6.23018 15.81C5.84018 15.68 5.41018 15.89 5.28018 16.28C5.15018 16.67 5.36018 17.1 5.75018 17.23C7.76018 17.9 9.87018 18.24 11.9902 18.24C14.1102 18.24 16.2202 17.9 18.2302 17.23C18.6302 17.09 18.8402 16.67 18.7102 16.28Z" fill="#292D32"/>
</svg>
