<svg width="24" height="24" viewBox="0 0 24 24" fill="none" xmlns="http://www.w3.org/2000/svg">
<path d="M22 6.00008V8.42008C22 10.0001 21 11.0001 19.42 11.0001H16V4.01008C16 2.90008 16.91 1.99008 18.02 2.00008C19.11 2.01008 20.11 2.45008 20.83 3.17008C21.55 3.90008 22 4.90008 22 6.00008Z" fill="#292D32"/>
<path opacity="0.4" d="M2 7V21C2 21.83 2.94 22.3 3.6 21.8L5.31 20.52C5.71 20.22 6.27 20.26 6.63 20.62L8.29 22.29C8.68 22.68 9.32 22.68 9.71 22.29L11.39 20.61C11.74 20.26 12.3 20.22 12.69 20.52L14.4 21.8C15.06 22.29 16 21.82 16 21V4C16 2.9 16.9 2 18 2H7H6C3 2 2 3.79 2 6V7Z" fill="#292D32"/>
<path d="M11.4297 12.0801C10.8797 12.0801 10.4297 12.5301 10.4297 13.0801C10.4297 13.6301 10.8797 14.0801 11.4297 14.0801C11.9797 14.0801 12.4297 13.6301 12.4297 13.0801C12.4297 12.5301 11.9797 12.0801 11.4297 12.0801Z" fill="#292D32"/>
<path d="M6.57031 10.03C7.13031 10.03 7.57031 9.58003 7.57031 9.03003C7.57031 8.48003 7.12031 8.03003 6.57031 8.03003C6.02031 8.03003 5.57031 8.48003 5.57031 9.03003C5.57031 9.58003 6.02031 10.03 6.57031 10.03Z" fill="#292D32"/>
<path d="M12.26 7.73996C11.97 7.44996 11.49 7.44996 11.2 7.73996L5.73996 13.2C5.44996 13.49 5.44996 13.97 5.73996 14.26C5.88996 14.41 6.07996 14.48 6.26996 14.48C6.45996 14.48 6.64996 14.41 6.79996 14.26L12.26 8.79996C12.55 8.50996 12.55 8.02996 12.26 7.73996Z" fill="#292D32"/>
</svg>
