<svg width="24" height="24" viewBox="0 0 24 24" fill="none" xmlns="http://www.w3.org/2000/svg">
<path opacity="0.4" d="M11.5 21C16.7467 21 21 16.7467 21 11.5C21 6.25329 16.7467 2 11.5 2C6.25329 2 2 6.25329 2 11.5C2 16.7467 6.25329 21 11.5 21Z" fill="#292D32"/>
<path d="M21.3001 22.0001C21.1201 22.0001 20.9401 21.9301 20.8101 21.8001L18.9501 19.9401C18.6801 19.6701 18.6801 19.2301 18.9501 18.9501C19.2201 18.6801 19.6601 18.6801 19.9401 18.9501L21.8001 20.8101C22.0701 21.0801 22.0701 21.5201 21.8001 21.8001C21.6601 21.9301 21.4801 22.0001 21.3001 22.0001Z" fill="#292D32"/>
<path d="M13.2699 8.88995C12.6399 8.68995 11.9699 8.80995 11.4899 9.17995C10.9999 8.80995 10.3499 8.68995 9.71993 8.88995C8.35993 9.32995 7.92993 10.8799 8.30993 12.0599C8.88993 13.8699 10.7999 14.8099 11.4899 14.8099C12.1599 14.8099 14.1099 13.8499 14.6699 12.0599C15.0599 10.8799 14.6299 9.32995 13.2699 8.88995Z" fill="#292D32"/>
</svg>
