<svg width="24" height="24" viewBox="0 0 24 24" fill="none" xmlns="http://www.w3.org/2000/svg">
<path opacity="0.4" d="M20.4098 6.95994V9.79994L7.39984 19.3399L4.76984 17.3699C4.11984 16.8799 3.58984 15.8299 3.58984 15.0199V6.95994C3.58984 5.83994 4.44984 4.59994 5.49984 4.20994L10.9698 2.15994C11.5398 1.94994 12.4598 1.94994 13.0298 2.15994L18.4998 4.20994C19.5498 4.59994 20.4098 5.83994 20.4098 6.95994Z" fill="#292D32"/>
<path d="M20.4098 11.1699V15.0199C20.4098 15.8299 19.8798 16.8799 19.2298 17.3699L13.7598 21.4599C13.2798 21.8199 12.6398 21.9999 11.9998 21.9999C11.3598 21.9999 10.7198 21.8199 10.2398 21.4599L8.31982 20.0299L20.4098 11.1699Z" fill="#292D32"/>
</svg>
