<svg width="24" height="24" viewBox="0 0 24 24" fill="none" xmlns="http://www.w3.org/2000/svg">
<path d="M21.9702 5.5V9.5C21.9702 11.43 20.4002 13 18.4702 13H16.9702V12.25C16.9702 9.35 14.6202 7 11.7202 7H10.9702V5.5C10.9702 3.57 12.5402 2 14.4702 2H18.4702C20.4102 2 21.9702 3.57 21.9702 5.5Z" fill="#292D32"/>
<path opacity="0.4" d="M11.7202 7H10.9702H6.97021C4.21021 7 1.97021 9.24 1.97021 12V17C1.97021 19.76 4.21021 22 6.97021 22H11.9702C14.7302 22 16.9702 19.76 16.9702 17V13V12.25C16.9702 9.35 14.6202 7 11.7202 7Z" fill="#292D32"/>
</svg>
