<svg width="24" height="24" viewBox="0 0 24 24" fill="none" xmlns="http://www.w3.org/2000/svg">
<path d="M14.5401 1.87988C13.3101 1.87988 12.3101 2.87989 12.3101 4.10989V8.74989C12.3101 9.97989 13.3101 10.9799 14.5401 10.9799C15.7701 10.9799 16.7701 9.97989 16.7701 8.74989V4.10989C16.7701 2.88989 15.7701 1.87988 14.5401 1.87988Z" fill="#292D32"/>
<path opacity="0.4" d="M20.18 7.10986C19.11 7.10986 18.24 7.97987 18.24 9.04987V10.6199C18.24 10.8299 18.41 10.9999 18.62 10.9999H20.19C21.26 10.9999 22.13 10.1299 22.13 9.05986C22.13 7.98986 21.25 7.10986 20.18 7.10986Z" fill="#292D32"/>
<path d="M8.5 6.98999H3.86C2.63 6.98999 1.63 7.98999 1.63 9.21999C1.63 10.45 2.63 11.45 3.86 11.45H8.5C9.73 11.45 10.73 10.45 10.73 9.21999C10.73 7.98999 9.73 6.98999 8.5 6.98999Z" fill="#292D32"/>
<path opacity="0.4" d="M8.78996 1.62012C7.71996 1.62012 6.84998 2.49011 6.84998 3.56011C6.84998 4.63011 7.71996 5.50011 8.78996 5.50011H10.36C10.57 5.50011 10.74 5.33012 10.74 5.12012V3.55012C10.73 2.50012 9.85996 1.62012 8.78996 1.62012Z" fill="#292D32"/>
<path d="M9.42995 13.03C8.19995 13.03 7.19995 14.03 7.19995 15.26V19.9C7.19995 21.13 8.19995 22.13 9.42995 22.13C10.6599 22.13 11.66 21.13 11.66 19.9V15.26C11.66 14.03 10.6599 13.03 9.42995 13.03Z" fill="#292D32"/>
<path opacity="0.4" d="M5.35997 13.03H3.78996C2.71996 13.03 1.84998 13.9 1.84998 14.97C1.84998 16.04 2.71996 16.91 3.78996 16.91C4.85996 16.91 5.72997 16.04 5.72997 14.97V13.4C5.72997 13.2 5.55997 13.03 5.35997 13.03Z" fill="#292D32"/>
<path d="M20.11 12.5698H15.47C14.24 12.5698 13.24 13.5698 13.24 14.7998C13.24 16.0298 14.24 17.0298 15.47 17.0298H20.11C21.34 17.0298 22.34 16.0298 22.34 14.7998C22.34 13.5698 21.34 12.5698 20.11 12.5698Z" fill="#292D32"/>
<path opacity="0.4" d="M15.18 18.47H13.61C13.4 18.47 13.23 18.64 13.23 18.85V20.42C13.23 21.49 14.1 22.36 15.17 22.36C16.24 22.36 17.11 21.49 17.11 20.42C17.12 19.34 16.25 18.47 15.18 18.47Z" fill="#292D32"/>
</svg>
