<svg width="24" height="24" viewBox="0 0 24 24" fill="none" xmlns="http://www.w3.org/2000/svg">
<path opacity="0.4" d="M19.53 5.53L5.53 19.53C5.51 19.55 5.5 19.56 5.48 19.57C5.1 19.25 4.75 18.9 4.43 18.52C2.91 16.77 2 14.49 2 12C2 6.48 6.48 2 12 2C14.49 2 16.77 2.91 18.52 4.43C18.9 4.75 19.25 5.1 19.57 5.48C19.56 5.5 19.55 5.51 19.53 5.53Z" fill="#292D32"/>
<path opacity="0.4" d="M22.0001 12.0001C22.0001 17.5201 17.5201 22.0001 12.0001 22.0001C10.0101 22.0001 8.1601 21.4201 6.6001 20.4001L20.4001 6.6001C21.4201 8.1601 22.0001 10.0101 22.0001 12.0001Z" fill="#292D32"/>
<path d="M21.7699 2.22988C21.4699 1.92988 20.9799 1.92988 20.6799 2.22988L2.22988 20.6899C1.92988 20.9899 1.92988 21.4799 2.22988 21.7799C2.37988 21.9199 2.56988 21.9999 2.76988 21.9999C2.96988 21.9999 3.15988 21.9199 3.30988 21.7699L21.7699 3.30988C22.0799 3.00988 22.0799 2.52988 21.7699 2.22988Z" fill="#292D32"/>
</svg>
