<svg width="24" height="24" viewBox="0 0 24 24" fill="none" xmlns="http://www.w3.org/2000/svg">
<path d="M18.7101 9.49C18.6101 9.49 18.5101 9.47 18.4101 9.43C18.0301 9.26 17.8601 8.82001 18.0201 8.44001C18.2101 8.01001 18.1001 7.37999 17.7501 6.85999C17.4001 6.32999 16.8701 5.98 16.3801 6C15.9401 6 15.6301 5.67001 15.6201 5.26001C15.6201 4.84001 15.9501 4.51 16.3601 4.5C17.3901 4.48 18.3601 5.07002 18.9901 6.02002C19.6301 6.98002 19.7801 8.13003 19.3901 9.03003C19.2801 9.32003 19.0001 9.49 18.7101 9.49Z" fill="#292D32"/>
<path d="M21.8201 10.4798C21.7501 10.4798 21.6901 10.4699 21.6201 10.4499C21.2201 10.3399 20.9901 9.92987 21.1001 9.52987C21.4801 8.16987 21.1601 6.54984 20.2501 5.18984C19.3401 3.82984 17.9601 2.91984 16.5501 2.74984C16.1401 2.69984 15.8501 2.32982 15.9001 1.91982C15.9501 1.50982 16.3301 1.20986 16.7301 1.26986C18.5601 1.48986 20.3401 2.64983 21.4901 4.36983C22.6401 6.08983 23.0301 8.16985 22.5401 9.94985C22.4501 10.2599 22.1501 10.4798 21.8201 10.4798Z" fill="#292D32"/>
<path opacity="0.4" d="M17.5198 15.8401C17.4098 14.6201 17.0798 13.3101 14.6998 13.3101H5.22979C2.84979 13.3101 2.5298 14.6201 2.4098 15.8401L1.9898 20.36C1.9398 20.92 2.12979 21.49 2.50979 21.91C2.89979 22.34 3.4598 22.5901 4.0498 22.5901H5.4398C6.6398 22.5901 6.8698 21.9001 7.0198 21.4501L7.1698 21.0101C7.3398 20.5001 7.3798 20.3701 8.0498 20.3701H11.8498C12.5098 20.3701 12.5398 20.4401 12.7298 21.0101L12.8798 21.4601C13.0298 21.9101 13.2598 22.6 14.4598 22.6H15.8498C16.4398 22.6 16.9998 22.35 17.3898 21.92C17.7698 21.5 17.9598 20.9301 17.9098 20.3701L17.5198 15.8401Z" fill="#292D32"/>
<path d="M16.6497 11.09H15.9097C15.8997 11.09 15.8997 11.09 15.8897 11.09L15.6097 9.73999C15.3397 8.43999 14.7897 7.25 12.5797 7.25H10.5297H9.41974H7.36974C5.15974 7.25 4.59974 8.43999 4.33974 9.73999L4.05974 11.09C4.04974 11.09 4.04973 11.09 4.03973 11.09H3.29974C2.98974 11.09 2.73975 11.34 2.73975 11.65C2.73975 11.96 2.98974 12.21 3.29974 12.21H3.82974L3.51974 13.69C3.91974 13.46 4.47974 13.32 5.24974 13.32H14.7197C15.4897 13.32 16.0497 13.46 16.4497 13.69L16.1397 12.21H16.6697C16.9797 12.21 17.2297 11.96 17.2297 11.65C17.2097 11.34 16.9597 11.09 16.6497 11.09Z" fill="#292D32"/>
<path d="M7.74995 17.39H5.51996C5.20996 17.39 4.95996 17.14 4.95996 16.83C4.95996 16.52 5.20996 16.27 5.51996 16.27H7.74995C8.05995 16.27 8.30995 16.52 8.30995 16.83C8.29995 17.14 8.05995 17.39 7.74995 17.39Z" fill="#292D32"/>
<path d="M14.4296 17.39H12.1996C11.8896 17.39 11.6396 17.14 11.6396 16.83C11.6396 16.52 11.8896 16.27 12.1996 16.27H14.4296C14.7396 16.27 14.9897 16.52 14.9897 16.83C14.9797 17.14 14.7296 17.39 14.4296 17.39Z" fill="#292D32"/>
</svg>
