<svg width="24" height="24" viewBox="0 0 24 24" fill="none" xmlns="http://www.w3.org/2000/svg">
<path opacity="0.4" d="M14 5V10H13C11.35 10 10 11.35 10 13V14H5C3.34 14 2 12.66 2 11V5C2 3.34 3.34 2 5 2H11C12.66 2 14 3.34 14 5Z" fill="#292D32"/>
<path d="M5.2 6.63014C4.97 6.63014 4.73 6.52013 4.59 6.31013C4.35 5.97013 4.43 5.50015 4.77 5.26015C5.55 4.71015 6.6 4.70013 7.39 5.24013C7.73 5.47013 7.82 5.94017 7.59 6.28017C7.36 6.62017 6.89 6.71012 6.55 6.48012C6.28 6.30012 5.92001 6.30013 5.65001 6.49013C5.50001 6.59013 5.35 6.63014 5.2 6.63014Z" fill="#292D32"/>
<path d="M9.2 6.63014C8.97 6.63014 8.73 6.52013 8.59 6.31013C8.35 5.97013 8.43 5.50015 8.77 5.26015C9.55 4.71015 10.6 4.70013 11.39 5.24013C11.73 5.47013 11.82 5.94017 11.59 6.28017C11.36 6.62017 10.89 6.71012 10.55 6.48012C10.28 6.30012 9.92001 6.30013 9.65001 6.49013C9.50001 6.59013 9.35 6.63014 9.2 6.63014Z" fill="#292D32"/>
<path d="M8.15981 12.1702H5.83981C5.12981 12.1702 4.5498 11.5902 4.5498 10.8802C4.5498 8.98019 6.09981 7.43018 7.99981 7.43018C8.77981 7.43018 9.54981 7.70019 10.1598 8.19019C10.4798 8.45019 10.5398 8.92017 10.2798 9.24017C10.0198 9.56017 9.5498 9.62017 9.2298 9.36017C8.8798 9.08017 8.4598 8.93018 8.0098 8.93018C7.0098 8.93018 6.17981 9.69017 6.06981 10.6702H8.1698C8.5798 10.6702 8.9198 11.0102 8.9198 11.4202C8.9198 11.8302 8.56981 12.1702 8.15981 12.1702Z" fill="#292D32"/>
<path d="M18.2202 16.6801C18.1502 16.6001 18.0502 16.5601 17.9402 16.5601H14.0602C13.9502 16.5601 13.8502 16.6001 13.7802 16.6801C13.7102 16.7601 13.6702 16.87 13.6902 16.97C13.8202 18.15 14.8102 19.05 16.0002 19.05C17.1902 19.05 18.1802 18.16 18.3102 16.97C18.3202 16.86 18.2902 16.7601 18.2202 16.6801Z" fill="#292D32"/>
<path d="M19 10H13C11.35 10 10 11.35 10 13V19C10 20.65 11.35 22 13 22H19C20.65 22 22 20.65 22 19V13C22 11.35 20.65 10 19 10ZM12.59 13.17C12.83 12.83 13.3 12.75 13.64 12.99C13.91 13.18 14.27 13.18 14.54 13C14.88 12.76 15.35 12.85 15.58 13.2C15.81 13.54 15.73 14.01 15.38 14.24C14.99 14.5 14.54 14.64 14.09 14.64C13.62 14.64 13.16 14.5 12.77 14.22C12.43 13.97 12.35 13.5 12.59 13.17ZM16 20.17C14.1 20.17 12.55 18.62 12.55 16.72C12.55 16.01 13.13 15.43 13.84 15.43H18.16C18.87 15.43 19.45 16.01 19.45 16.72C19.45 18.62 17.9 20.17 16 20.17ZM19.38 14.23C18.99 14.49 18.54 14.63 18.09 14.63C17.62 14.63 17.16 14.49 16.77 14.21C16.43 13.97 16.35 13.5 16.59 13.16C16.83 12.82 17.3 12.74 17.64 12.98C17.91 13.17 18.27 13.17 18.54 12.99C18.88 12.75 19.35 12.84 19.58 13.19C19.81 13.54 19.72 14 19.38 14.23Z" fill="#292D32"/>
</svg>
