<svg width="24" height="24" viewBox="0 0 24 24" fill="none" xmlns="http://www.w3.org/2000/svg">
<path opacity="0.4" d="M12 22C17.5228 22 22 17.5228 22 12C22 6.47715 17.5228 2 12 2C6.47715 2 2 6.47715 2 12C2 17.5228 6.47715 22 12 22Z" fill="#292D32"/>
<path fill-rule="evenodd" clip-rule="evenodd" d="M17.31 15.3101C17.02 15.4701 16.78 15.5401 16.58 15.5901C16.41 15.6301 16.27 15.6701 16.15 15.7501C16.02 15.8301 16.01 15.9601 15.99 16.0801C15.97 16.1901 15.96 16.2801 15.88 16.3401C15.79 16.4001 15.62 16.4101 15.39 16.4201C15.09 16.4401 14.71 16.4501 14.25 16.5901C14.03 16.6701 13.83 16.7901 13.63 16.9101C13.23 17.1601 12.78 17.4301 11.99 17.4301C11.21 17.4301 10.76 17.1601 10.36 16.9101C10.16 16.7801 9.96003 16.6601 9.73003 16.5801C9.28003 16.4401 8.89002 16.4201 8.59002 16.4101C8.36002 16.4001 8.20003 16.3901 8.10003 16.3301C8.02003 16.2801 8.01001 16.1801 7.99001 16.0701C7.97001 15.9501 7.96001 15.8201 7.83001 15.7401C7.71001 15.6601 7.56002 15.6201 7.40002 15.5701C7.20002 15.5201 6.96004 15.4601 6.67004 15.3001C6.33004 15.1101 6.53004 15.0001 6.64004 14.9401C8.57004 14.0101 8.87003 12.5701 8.88003 12.4601C8.88003 12.4501 8.88003 12.4501 8.88003 12.4401C8.90003 12.3201 8.91001 12.2201 8.77001 12.0901C8.68001 12.0001 8.37002 11.8001 8.12002 11.6401C8.01002 11.5601 7.91003 11.5001 7.85003 11.4701C7.57003 11.2701 7.45003 11.0801 7.54003 10.8301C7.60003 10.6601 7.76004 10.6001 7.92004 10.6001C7.97004 10.6001 8.03003 10.6101 8.07003 10.6201C8.25003 10.6601 8.43002 10.7301 8.59002 10.7901C8.70002 10.8401 8.79001 10.8701 8.86001 10.8901C8.88001 10.9001 8.91004 10.9001 8.92004 10.9001C9.02004 10.9001 9.05003 10.8501 9.04003 10.7501C9.04003 10.7201 9.04002 10.6901 9.03002 10.6601C9.01002 10.3101 8.98001 9.70006 9.02001 9.14006C9.10001 8.30006 9.37003 7.87006 9.69003 7.51006C9.85003 7.33006 10.58 6.56006 11.97 6.56006C13.36 6.56006 14.09 7.33006 14.25 7.50006C14.57 7.87006 14.84 8.29006 14.92 9.14006C14.97 9.73006 14.93 10.3601 14.9 10.7101V10.7401C14.89 10.8501 14.92 10.8901 15.02 10.8901C15.04 10.8901 15.06 10.8901 15.08 10.8801C15.15 10.8601 15.24 10.8301 15.35 10.7901C15.5 10.7301 15.68 10.6601 15.87 10.6201C15.92 10.6001 15.97 10.6001 16.02 10.6001C16.19 10.6001 16.34 10.6701 16.4 10.8401C16.49 11.0801 16.37 11.2701 16.09 11.4701C16.04 11.5101 15.94 11.5801 15.82 11.6401C15.58 11.8001 15.26 12.0001 15.17 12.0901C15.03 12.2201 15.04 12.3201 15.06 12.4401C15.06 12.4501 15.06 12.4601 15.06 12.4601C15.08 12.5701 15.38 14.0101 17.3 14.9401C17.45 15.0001 17.65 15.1201 17.31 15.3101Z" fill="#292D32"/>
</svg>
