<svg width="24" height="24" viewBox="0 0 24 24" fill="none" xmlns="http://www.w3.org/2000/svg">
<path opacity="0.4" d="M12 22C17.5228 22 22 17.5228 22 12C22 6.47715 17.5228 2 12 2C6.47715 2 2 6.47715 2 12C2 17.5228 6.47715 22 12 22Z" fill="#292D32"/>
<path d="M7.50003 11.2501H16.5C16.91 11.2501 17.25 10.9101 17.25 10.5001C17.25 10.0901 16.91 9.75005 16.5 9.75005H13.45L15.44 6.93005C15.68 6.59005 15.6 6.12005 15.26 5.89005C14.92 5.65005 14.45 5.73005 14.22 6.07005L11.92 9.33005L9.62003 6.07005C9.38003 5.73005 8.91002 5.65005 8.58002 5.89005C8.24002 6.13005 8.16002 6.60005 8.40002 6.93005L10.39 9.75005H7.52002C7.11002 9.75005 6.77002 10.0901 6.77002 10.5001C6.77002 10.9101 7.09003 11.2501 7.50003 11.2501Z" fill="#292D32"/>
<path d="M16.5 12.75H7.5C7.09 12.75 6.75 13.09 6.75 13.5C6.75 13.91 7.09 14.25 7.5 14.25H10.37L8.38 17.07C8.14 17.41 8.22 17.88 8.56 18.11C8.69 18.2 8.83999 18.25 8.98999 18.25C9.22999 18.25 9.46001 18.14 9.60001 17.93L11.9 14.67L14.2 17.93C14.35 18.14 14.58 18.25 14.81 18.25C14.96 18.25 15.11 18.21 15.24 18.11C15.58 17.87 15.66 17.4 15.42 17.07L13.43 14.25H16.48C16.89 14.25 17.23 13.91 17.23 13.5C17.23 13.09 16.91 12.75 16.5 12.75Z" fill="#292D32"/>
</svg>
