<svg width="24" height="24" viewBox="0 0 24 24" fill="none" xmlns="http://www.w3.org/2000/svg">
<path opacity="0.4" d="M21.5 8.37V15.82C21.5 15.97 21.45 16.12 21.32 16.25C19.87 17.71 17.29 20.31 15.81 21.8C15.68 21.94 15.51 22 15.34 22H7.37C4.68 22 2.5 19.82 2.5 17.13V8.37C2.5 5.68 4.68 3.5 7.37 3.5H16.63C19.32 3.5 21.5 5.68 21.5 8.37Z" fill="#292D32"/>
<path d="M8.29004 6.29C7.87004 6.29 7.54004 5.95 7.54004 5.54V2.75C7.54004 2.34 7.87004 2 8.29004 2C8.71004 2 9.04004 2.34 9.04004 2.75V5.53C9.04004 5.95 8.71004 6.29 8.29004 6.29Z" fill="#292D32"/>
<path d="M15.71 6.29C15.29 6.29 14.96 5.95 14.96 5.54V2.75C14.96 2.33 15.3 2 15.71 2C16.13 2 16.46 2.34 16.46 2.75V5.53C16.46 5.95 16.13 6.29 15.71 6.29Z" fill="#292D32"/>
<path d="M14.7799 12.71H7.35986C6.93986 12.71 6.60986 12.37 6.60986 11.96C6.60986 11.55 6.94986 11.21 7.35986 11.21H14.7799C15.1999 11.21 15.5299 11.55 15.5299 11.96C15.5299 12.37 15.1999 12.71 14.7799 12.71Z" fill="#292D32"/>
<path d="M11.9999 16.4199H7.35986C6.93986 16.4199 6.60986 16.0799 6.60986 15.6699C6.60986 15.2499 6.94986 14.9199 7.35986 14.9199H11.9999C12.4199 14.9199 12.7499 15.2599 12.7499 15.6699C12.7499 16.0799 12.4199 16.4199 11.9999 16.4199Z" fill="#292D32"/>
<path d="M21.4999 15.8199C21.4999 15.9699 21.4499 16.1199 21.3199 16.2499C19.8699 17.7099 17.2899 20.3099 15.8099 21.7999C15.6799 21.9399 15.5099 21.9999 15.3399 21.9999C15.0099 21.9999 14.6899 21.7399 14.6899 21.3599V17.8599C14.6899 16.3999 15.9299 15.1899 17.4499 15.1899C18.3999 15.1799 19.7199 15.1799 20.8499 15.1799C21.2399 15.1799 21.4999 15.4899 21.4999 15.8199Z" fill="#292D32"/>
</svg>
