<svg width="24" height="24" viewBox="0 0 24 24" fill="none" xmlns="http://www.w3.org/2000/svg">
<path opacity="0.4" d="M10.2802 20.25H17.0002C19.7602 20.25 22.0002 18.01 22.0002 15.25V8.75C22.0002 5.99 19.7602 3.75 17.0002 3.75H10.2802C8.87018 3.75 7.53018 4.34 6.58018 5.39L3.05018 9.27C1.64018 10.82 1.64018 13.18 3.05018 14.73L6.58018 18.61C7.53018 19.66 8.87018 20.25 10.2802 20.25Z" fill="#292D32"/>
<path d="M14.59 12.0002L16.53 10.0602C16.82 9.77022 16.82 9.29021 16.53 9.00021C16.24 8.71021 15.76 8.71021 15.47 9.00021L13.53 10.9402L11.59 9.00021C11.3 8.71021 10.82 8.71021 10.53 9.00021C10.24 9.29021 10.24 9.77022 10.53 10.0602L12.47 12.0002L10.53 13.9402C10.24 14.2302 10.24 14.7102 10.53 15.0002C10.68 15.1502 10.87 15.2202 11.06 15.2202C11.25 15.2202 11.44 15.1502 11.59 15.0002L13.53 13.0602L15.47 15.0002C15.62 15.1502 15.81 15.2202 16 15.2202C16.19 15.2202 16.38 15.1502 16.53 15.0002C16.82 14.7102 16.82 14.2302 16.53 13.9402L14.59 12.0002Z" fill="#292D32"/>
</svg>
