<svg width="24" height="24" viewBox="0 0 24 24" fill="none" xmlns="http://www.w3.org/2000/svg">
<path opacity="0.4" d="M18.3801 12.8398V17.7698C18.3801 19.0398 17.3901 20.3998 16.2001 20.7998L13.0101 21.8598C12.4501 22.0498 11.5401 22.0498 10.9901 21.8598L7.80012 20.7998C6.60012 20.3998 5.62012 19.0398 5.62012 17.7698L5.63012 12.8398L10.0501 15.7198C11.1301 16.4298 12.9101 16.4298 13.9901 15.7198L18.3801 12.8398Z" fill="#292D32"/>
<path d="M19.98 6.46006L13.99 2.53006C12.91 1.82006 11.13 1.82006 10.05 2.53006L4.03002 6.46006C2.10002 7.71006 2.10002 10.5401 4.03002 11.8001L5.63002 12.8401L10.05 15.7201C11.13 16.4301 12.91 16.4301 13.99 15.7201L18.38 12.8401L19.75 11.9401V15.0001C19.75 15.4101 20.09 15.7501 20.5 15.7501C20.91 15.7501 21.25 15.4101 21.25 15.0001V10.0801C21.65 8.79006 21.24 7.29006 19.98 6.46006Z" fill="#292D32"/>
</svg>
