<svg width="24" height="24" viewBox="0 0 24 24" fill="none" xmlns="http://www.w3.org/2000/svg">
<path opacity="0.4" d="M7.46995 3.3501H16.53C17.59 3.3501 18.84 4.1201 19.31 5.0701L21.71 9.8901C22.29 11.0501 21.97 12.7001 21.02 13.5701L14.09 19.8601C12.94 20.9001 11.07 20.9001 9.91996 19.8601L2.98996 13.5701C2.02996 12.7001 1.71996 11.0501 2.29996 9.8901L4.69996 5.0701C5.15996 4.1201 6.40996 3.3501 7.46995 3.3501Z" fill="#292D32"/>
<path d="M16 7.75H8C7.59 7.75 7.25 8.09 7.25 8.5C7.25 8.91 7.59 9.25 8 9.25H11.25V14.5C11.25 14.91 11.59 15.25 12 15.25C12.41 15.25 12.75 14.91 12.75 14.5V9.25H16C16.41 9.25 16.75 8.91 16.75 8.5C16.75 8.09 16.41 7.75 16 7.75Z" fill="#292D32"/>
</svg>
