<svg width="24" height="24" viewBox="0 0 24 24" fill="none" xmlns="http://www.w3.org/2000/svg">
<path opacity="0.4" d="M22 7.81V16.19C22 19.83 19.83 22 16.19 22H7.81C7.61 22 7.41 21.99 7.22 21.98C5.99 21.9 4.95 21.55 4.13 20.95C3.71 20.66 3.34 20.29 3.05 19.87C2.36 18.92 2 17.68 2 16.19V7.81C2 4.37 3.94 2.24 7.22 2.03C7.41 2.01 7.61 2 7.81 2H16.19C17.68 2 18.92 2.36 19.87 3.05C20.29 3.34 20.66 3.71 20.95 4.13C21.64 5.08 22 6.32 22 7.81Z" fill="#292D32"/>
<path d="M15.8696 6.00977H10.4896C10.0796 6.00977 9.73965 6.34977 9.73965 6.75977C9.73965 7.16977 10.0796 7.50977 10.4896 7.50977H12.3796L10.1396 16.4798H8.13965C7.72965 16.4798 7.38965 16.8198 7.38965 17.2298C7.38965 17.6398 7.72965 17.9798 8.13965 17.9798H13.5196C13.9296 17.9798 14.2696 17.6398 14.2696 17.2298C14.2696 16.8198 13.9296 16.4798 13.5196 16.4798H11.6796L13.9196 7.50977H15.8696C16.2796 7.50977 16.6196 7.16977 16.6196 6.75977C16.6196 6.34977 16.2796 6.00977 15.8696 6.00977Z" fill="#292D32"/>
</svg>
