<svg width="24" height="24" viewBox="0 0 24 24" fill="none" xmlns="http://www.w3.org/2000/svg">
<path opacity="0.4" d="M20.8401 13.1702C21.2301 13.1702 21.5401 12.8502 21.5401 12.4502V11.5702C21.5401 7.6402 20.3401 6.4502 16.4201 6.4502H10.1201V8.8802C10.5101 8.8802 10.8301 9.2002 10.8301 9.5902V12.2702C10.8301 12.6602 10.5101 12.9802 10.1201 12.9802V15.4902C10.5101 15.4902 10.8301 15.8102 10.8301 16.2002V18.8802C10.8301 19.2702 10.5101 19.5902 10.1201 19.5902V22.0002H16.4201C20.3401 22.0002 21.5401 20.8002 21.5401 16.8802C21.5401 16.4902 21.2301 16.1702 20.8401 16.1702C20.0001 16.1702 19.3301 15.5002 19.3301 14.6702C19.3301 13.8402 20.0001 13.1702 20.8401 13.1702Z" fill="#292D32"/>
<path d="M7.56973 6.46C7.57973 6.46 7.57973 6.46 7.56973 6.46H7.57973H16.4097C16.4797 6.46 16.5497 6.46 16.6097 6.46C16.5997 6.44 16.5997 6.43 16.5997 6.41C16.5697 6.06 16.7097 5.72 16.9697 5.46C17.0997 5.33 17.1797 5.15 17.1797 4.96C17.1797 4.77 17.0997 4.59 16.9697 4.46L16.4197 3.9C15.4397 2.91 14.3597 2 13.0997 2C11.8497 2 10.7597 2.91 9.77973 3.9L7.21973 6.46C7.32973 6.46 7.44973 6.46 7.56973 6.46Z" fill="#292D32"/>
<path d="M9.40996 9.58996V12.27C9.40996 12.66 9.72996 12.98 10.12 12.98V15.49C9.72996 15.49 9.40996 15.81 9.40996 16.2V18.88C9.40996 19.27 9.72996 19.59 10.12 19.59V22H7.57996C3.65996 22 2.45996 20.8 2.45996 16.88V16.45C2.45996 16.05 2.76996 15.74 3.15996 15.74C3.99996 15.74 4.66996 15.06 4.66996 14.23C4.66996 13.4 3.99996 12.72 3.15996 12.72C2.76996 12.72 2.45996 12.41 2.45996 12.01V11.58C2.45996 7.64996 3.65996 6.45996 7.57996 6.45996H10.11V8.88996C9.72996 8.88996 9.40996 9.20996 9.40996 9.58996Z" fill="#292D32"/>
</svg>
