<svg width="24" height="24" viewBox="0 0 24 24" fill="none" xmlns="http://www.w3.org/2000/svg">
<path d="M20.66 8.04004C20.66 8.27004 20.6 8.51004 20.45 8.70004L11.07 20.64C10.73 21.07 10.33 21.22 9.98999 21.1L9.99999 21L11 10L20.04 8.19004L20.66 8.04004Z" fill="#292D32"/>
<path opacity="0.4" d="M20.66 8.04005L20.04 8.19005L11 10L16.95 4.05005C17.07 4.10005 17.17 4.17005 17.24 4.24005L20.37 7.37005C20.55 7.55005 20.65 7.79005 20.66 8.04005Z" fill="#292D32"/>
<path d="M16.95 4.04995L11 9.99995L3.01003 2.89995L2.66003 2.55995V2.54995C2.86003 2.28995 3.22003 2.15995 3.70003 2.22995L16.66 3.95995C16.75 3.96995 16.85 3.99995 16.95 4.04995Z" fill="#292D32"/>
<path opacity="0.4" d="M11 10.0001L10 21.0001L9.99003 21.1001C9.74003 21.0101 9.51003 20.7701 9.36003 20.3901L2.64003 3.59006C2.47003 3.17006 2.49003 2.81006 2.66003 2.56006L3.01003 2.90006L11 10.0001Z" fill="#292D32"/>
</svg>
