<svg width="24" height="24" viewBox="0 0 24 24" fill="none" xmlns="http://www.w3.org/2000/svg">
<path opacity="0.4" d="M16.1898 2H7.81978C4.17978 2 2.00977 4.17 2.00977 7.81V16.18C2.00977 19.82 4.17978 21.99 7.81978 21.99H16.1898C19.8298 21.99 21.9998 19.82 21.9998 16.18V7.81C21.9998 4.17 19.8298 2 16.1898 2Z" fill="#292D32"/>
<path d="M16.8598 8.46008C16.0198 8.38008 15.2498 8.33008 14.4998 8.28008L14.4198 7.80008C14.3498 7.32008 14.1998 6.33008 12.6898 6.33008H11.2998C9.80979 6.33008 9.6498 7.28008 9.5698 7.79008L9.4898 8.26007C9.0598 8.29007 8.6398 8.31007 8.2098 8.35007L7.11979 8.46008C6.73979 8.50008 6.46979 8.83008 6.50979 9.21008C6.54979 9.56008 6.83979 9.83008 7.18979 9.83008C7.20979 9.83008 7.23979 9.83008 7.25979 9.83008L8.33979 9.72008C8.93979 9.67008 9.54979 9.62008 10.1498 9.59008C11.3698 9.54008 12.5898 9.56008 13.8198 9.62008C14.7298 9.66008 15.6798 9.73008 16.7198 9.83008C16.7398 9.83008 16.7598 9.83008 16.7798 9.83008C17.1298 9.83008 17.4298 9.56008 17.4598 9.21008C17.5098 8.83008 17.2398 8.49008 16.8598 8.46008Z" fill="#292D32"/>
<path d="M15.83 11.1001C15.66 10.9101 15.41 10.8101 15.16 10.8101H8.84C8.59 10.8101 8.34 10.9201 8.17 11.1001C8 11.2901 7.91 11.5401 7.93 11.7901L8.24001 15.7501C8.30001 16.6001 8.37 17.6601 10.29 17.6601H13.71C15.63 17.6601 15.7 16.6001 15.76 15.7501L16.07 11.7901C16.09 11.5401 16 11.2901 15.83 11.1001Z" fill="#292D32"/>
</svg>
