<svg width="24" height="24" viewBox="0 0 24 24" fill="none" xmlns="http://www.w3.org/2000/svg">
<path opacity="0.4" d="M12 22C17.5228 22 22 17.5228 22 12C22 6.47715 17.5228 2 12 2C6.47715 2 2 6.47715 2 12C2 17.5228 6.47715 22 12 22Z" fill="#292D32"/>
<path d="M16.95 17.7C16.76 17.7 16.57 17.63 16.42 17.48C16.13 17.19 16.13 16.71 16.42 16.42C17.6 15.24 18.25 13.67 18.25 12C18.25 10.33 17.6 8.75999 16.42 7.57999C16.13 7.28999 16.13 6.80999 16.42 6.51999C16.71 6.22999 17.19 6.22999 17.48 6.51999C18.94 7.97999 19.75 9.92999 19.75 12C19.75 14.07 18.94 16.02 17.48 17.48C17.33 17.63 17.14 17.7 16.95 17.7Z" fill="#292D32"/>
<path d="M7.04999 17.7C6.85999 17.7 6.66999 17.63 6.51999 17.48C5.05999 16.02 4.25 14.07 4.25 12C4.25 9.92999 5.05999 7.97999 6.51999 6.51999C6.80999 6.22999 7.28999 6.22999 7.57999 6.51999C7.86999 6.80999 7.86999 7.28999 7.57999 7.57999C6.39999 8.75999 5.75 10.33 5.75 12C5.75 13.67 6.39999 15.24 7.57999 16.42C7.86999 16.71 7.86999 17.19 7.57999 17.48C7.42999 17.63 7.23999 17.7 7.04999 17.7Z" fill="#292D32"/>
<path d="M13.65 11.78L12.75 11.46V9.48005H12.78C13.22 9.48005 13.59 9.88005 13.59 10.36C13.59 10.77 13.93 11.11 14.34 11.11C14.75 11.11 15.09 10.77 15.09 10.36C15.09 9.05005 14.06 7.98005 12.78 7.98005H12.75V7.80005C12.75 7.39005 12.41 7.05005 12 7.05005C11.59 7.05005 11.25 7.39005 11.25 7.80005V7.98005H11.02C9.86002 7.98005 8.91003 8.96005 8.91003 10.15C8.91003 11.2 9.38003 11.87 10.34 12.21L11.24 12.53V14.51H11.21C10.77 14.51 10.4 14.11 10.4 13.63C10.4 13.22 10.06 12.88 9.65002 12.88C9.24002 12.88 8.90002 13.22 8.90002 13.63C8.90002 14.94 9.93002 16.01 11.21 16.01H11.24V16.19C11.24 16.6 11.58 16.94 11.99 16.94C12.4 16.94 12.74 16.6 12.74 16.19V16.01H12.97C14.13 16.01 15.08 15.03 15.08 13.84C15.08 12.79 14.62 12.12 13.65 11.78ZM10.84 10.8C10.52 10.69 10.41 10.63 10.41 10.16C10.41 9.79005 10.68 9.49005 11.02 9.49005H11.25V10.95L10.84 10.8ZM12.98 14.52H12.75V13.06L13.16 13.2C13.48 13.31 13.59 13.37 13.59 13.84C13.58 14.21 13.31 14.52 12.98 14.52Z" fill="#292D32"/>
</svg>
