<svg width="24" height="24" viewBox="0 0 24 24" fill="none" xmlns="http://www.w3.org/2000/svg">
<path d="M12 12C14.7614 12 17 9.76142 17 7C17 4.23858 14.7614 2 12 2C9.23858 2 7 4.23858 7 7C7 9.76142 9.23858 12 12 12Z" fill="#292D32"/>
<path opacity="0.4" d="M12.0002 14.5C6.99018 14.5 2.91016 17.86 2.91016 22C2.91016 22.28 3.13016 22.5 3.41016 22.5H20.5902C20.8702 22.5 21.0902 22.28 21.0902 22C21.0902 17.86 17.0102 14.5 12.0002 14.5Z" fill="#292D32"/>
<path d="M21.43 14.7398C20.53 13.8398 19.8201 14.1298 19.2101 14.7398L15.67 18.2799C15.53 18.4199 15.4 18.6798 15.37 18.8698L15.18 20.2198C15.11 20.7098 15.45 21.0498 15.94 20.9798L17.29 20.7898C17.48 20.7598 17.75 20.6298 17.88 20.4898L21.42 16.9499C22.04 16.3499 22.33 15.6398 21.43 14.7398Z" fill="#292D32"/>
</svg>
