<svg width="24" height="24" viewBox="0 0 24 24" fill="none" xmlns="http://www.w3.org/2000/svg">
<path d="M19.3299 16.75C19.1699 16.75 19.0199 16.7 18.8799 16.6C18.5499 16.35 18.4799 15.88 18.7299 15.55C20.2999 13.46 20.2999 10.54 18.7299 8.45003C18.4799 8.12003 18.5499 7.65003 18.8799 7.40003C19.2099 7.15003 19.6799 7.22003 19.9299 7.55003C21.8999 10.17 21.8999 13.83 19.9299 16.45C19.7899 16.65 19.5599 16.75 19.3299 16.75Z" fill="#292D32"/>
<path opacity="0.4" d="M17.0801 7.40997V16.59C17.0801 18.31 16.4601 19.6 15.3501 20.22C14.9001 20.47 14.4001 20.59 13.8801 20.59C13.0801 20.59 12.2201 20.32 11.3401 19.77L8.42008 17.94C8.22008 17.82 7.99008 17.75 7.76008 17.75H6.83008V6.24997H7.76008C7.99008 6.24997 8.22008 6.17997 8.42008 6.05997L11.3401 4.22997C12.8001 3.31997 14.2301 3.15997 15.3501 3.77997C16.4601 4.39997 17.0801 5.68997 17.0801 7.40997Z" fill="#292D32"/>
<path d="M6.83008 6.25V17.75H6.33008C3.91008 17.75 2.58008 16.42 2.58008 14V10C2.58008 7.58 3.91008 6.25 6.33008 6.25H6.83008Z" fill="#292D32"/>
</svg>
