<svg width="24" height="24" viewBox="0 0 24 24" fill="none" xmlns="http://www.w3.org/2000/svg">
<path d="M12.0001 22.7501C11.7501 22.7501 11.5101 22.6201 11.3701 22.4101L2.33005 8.41011C2.11005 8.06011 2.21005 7.6001 2.55005 7.3701C2.90005 7.1501 3.36006 7.2401 3.59006 7.5901L11.9901 20.6101L20.3601 7.5901C20.5801 7.2401 21.0501 7.14011 21.4001 7.36011C21.7501 7.58011 21.8501 8.0501 21.6301 8.4001L12.6301 22.4001C12.4901 22.6201 12.2601 22.7501 12.0001 22.7501Z" fill="#292D32"/>
<path opacity="0.4" d="M3.91999 4H5.73997C5.90997 4 6.05998 4.08 6.15998 4.22L11.6 12.37C11.8 12.67 12.23 12.67 12.43 12.37L17.87 4.22C17.96 4.08 18.12 4 18.29 4H20.11C20.51 4 20.74 4.44 20.53 4.77L12.45 17.35C12.25 17.66 11.81 17.66 11.61 17.35L3.52998 4.77C3.27998 4.44 3.51999 4 3.91999 4Z" fill="#292D32"/>
<path d="M8 3L11.58 8.38C11.78 8.68 12.21 8.68 12.41 8.38L16 3L13.2 4V2H10.8V4L8 3Z" fill="#292D32"/>
</svg>
