<svg width="24" height="24" viewBox="0 0 24 24" fill="none" xmlns="http://www.w3.org/2000/svg">
<path opacity="0.4" d="M11.75 9.43L8.50004 15L7.87004 16.09L5.40004 20.31C5.22004 20.63 4.76004 20.64 4.56004 20.33L1.18003 15.28C1.07003 15.11 1.07003 14.89 1.18003 14.72L4.85005 9.22C4.94005 9.08 5.10003 9 5.27003 9H11.5L11.75 9.43Z" fill="#292D32"/>
<path d="M22.84 14.73L16.14 3.25C16.06 3.09 15.89 3 15.71 3H8.87C8.48 3 8.24 3.42 8.44 3.75L11.5 9L11.75 9.43L14.56 14.25C14.76 14.58 14.52 15 14.13 15H8.5L7.87 16.09C8.05 15.77 8.50999 15.76 8.70999 16.07L11.85 20.78C11.94 20.92 12.1 21 12.27 21H18.73C18.9 21 19.06 20.92 19.15 20.78L22.83 15.26C22.93 15.1 22.94 14.9 22.84 14.73Z" fill="#292D32"/>
</svg>
