<svg width="24" height="24" viewBox="0 0 24 24" fill="none" xmlns="http://www.w3.org/2000/svg">
<path opacity="0.4" d="M17.1802 5.25C15.4702 5.25 13.4302 5.9 13.4302 9V15C13.4302 18.1 15.4702 18.75 17.1802 18.75C18.8902 18.75 20.9302 18.1 20.9302 15V9C20.9302 5.9 18.8902 5.25 17.1802 5.25Z" fill="#292D32"/>
<path opacity="0.4" d="M6.81982 5.25C5.10982 5.25 3.06982 5.9 3.06982 9V15C3.06982 18.1 5.10982 18.75 6.81982 18.75C8.52982 18.75 10.5698 18.1 10.5698 15V9C10.5698 5.9 8.52982 5.25 6.81982 5.25Z" fill="#292D32"/>
<path d="M13.4298 11.25H10.5698V12.75H13.4298V11.25Z" fill="#292D32"/>
<path d="M22.5 15.25C22.09 15.25 21.75 14.91 21.75 14.5V9.5C21.75 9.09 22.09 8.75 22.5 8.75C22.91 8.75 23.25 9.09 23.25 9.5V14.5C23.25 14.91 22.91 15.25 22.5 15.25Z" fill="#292D32"/>
<path d="M1.5 15.25C1.09 15.25 0.75 14.91 0.75 14.5V9.5C0.75 9.09 1.09 8.75 1.5 8.75C1.91 8.75 2.25 9.09 2.25 9.5V14.5C2.25 14.91 1.91 15.25 1.5 15.25Z" fill="#292D32"/>
</svg>
