<svg width="24" height="24" viewBox="0 0 24 24" fill="none" xmlns="http://www.w3.org/2000/svg">
<path d="M16.86 5H19.21C19.39 5 19.55 5.1 19.64 5.25L22.05 9.45C22.14 9.6 22.14 9.79 22.05 9.94L17.41 18.24C17.22 18.58 16.74 18.58 16.54 18.25L15.28 16.14C15.19 15.98 15.19 15.79 15.28 15.64L18.54 9.94C18.63 9.79 18.63 9.6 18.54 9.44L16.41 5.74C16.24 5.42 16.48 5 16.86 5Z" fill="#292D32"/>
<path opacity="0.4" d="M9.86001 5H12.21C12.39 5 12.55 5.1 12.64 5.25L15.05 9.45C15.14 9.6 15.14 9.79 15.05 9.94L10.41 18.24C10.22 18.58 9.74003 18.58 9.54003 18.25L8.28002 16.14C8.19002 15.98 8.19002 15.79 8.28002 15.64L11.54 9.94C11.63 9.79 11.63 9.6 11.54 9.44L9.41003 5.74C9.24003 5.42 9.48001 5 9.86001 5Z" fill="#292D32"/>
<path d="M1.80005 5H5.01007C5.19007 5 5.36007 5.1 5.45007 5.25L7.87006 9.54C7.96006 9.69 7.96006 9.88 7.87006 10.04L6.75006 11.96C6.56006 12.29 6.08008 12.29 5.89008 11.96L1.80005 5Z" fill="#292D32"/>
</svg>
