<svg width="24" height="24" viewBox="0 0 24 24" fill="none" xmlns="http://www.w3.org/2000/svg">
<path opacity="0.4" d="M16.19 2H7.82002C4.18002 2 2.01001 4.17 2.01001 7.81V16.18C2.01001 19.82 4.18002 21.99 7.82002 21.99H16.19C19.83 21.99 22 19.82 22 16.18V7.81C22 4.17 19.83 2 16.19 2Z" fill="#292D32"/>
<path d="M17.9599 7.71973C17.5499 7.71973 17.2099 8.05973 17.2099 8.46973V11.2497H16.1899C14.7999 11.2497 13.6699 12.3797 13.6699 13.7697C13.6699 15.1597 14.7999 16.2897 16.1899 16.2897H17.9599C18.3699 16.2897 18.7099 15.9497 18.7099 15.5397V8.47972C18.7099 8.04972 18.3699 7.71973 17.9599 7.71973ZM17.2099 14.7797H16.1899C15.6299 14.7797 15.1699 14.3197 15.1699 13.7597C15.1699 13.1997 15.6299 12.7397 16.1899 12.7397H17.2099V14.7797Z" fill="#292D32"/>
<path d="M12.16 7.8797C11.84 7.6197 11.36 7.6697 11.11 7.9997L8.87001 10.7997L6.63002 7.9997C6.37002 7.6797 5.90002 7.6197 5.58002 7.8797C5.26002 8.1397 5.20002 8.60969 5.46002 8.92969L7.91002 11.9897L5.46002 15.0497C5.20002 15.3697 5.25002 15.8497 5.58002 16.0997C5.72002 16.2097 5.88002 16.2597 6.05002 16.2597C6.27002 16.2597 6.49002 16.1597 6.64002 15.9797L8.88002 13.1797L11.12 15.9797C11.27 16.1597 11.49 16.2597 11.71 16.2597C11.87 16.2597 12.04 16.2097 12.18 16.0997C12.5 15.8397 12.56 15.3697 12.3 15.0497L9.85002 11.9897L12.3 8.92969C12.54 8.60969 12.49 8.1397 12.16 7.8797Z" fill="#292D32"/>
</svg>
